<svg width="64" height="64" viewBox="0 0 64 64" fill="none" xmlns="http://www.w3.org/2000/svg">
  <g opacity="0.6">
    <path fill-rule="evenodd" clip-rule="evenodd" d="M21.3618 44.2456C21.3618 44.1651 21.3458 43.4978 21.7893 43.0188C22.4276 42.3294 24.3953 40.3944 24.3953 40.3944L29.727 35.0875L40.9439 46.2763C40.9439 46.2763 38.9908 46.2762 36.3848 46.2763C35.5651 46.2763 34.6809 46.2762 33.7724 46.2763C33.0278 46.2763 32.2671 46.2762 31.5124 46.2763C28.7889 46.2763 26.1443 46.276 24.6259 46.2763C24.0015 46.2763 23.5676 46.276 23.397 46.2763C22.038 46.2763 21.3344 45.1044 21.3618 44.2456ZM42.557 46.9411L30.1884 34.6281L48.3401 16.5601L31.7317 0L22.3662 9.32454C19.8706 11.8091 20.0484 14.2567 20.0484 17.736V43.4854C20.0136 45.6145 21.7442 46.9411 23.2816 46.941C24.703 46.941 42.557 46.9411 42.557 46.9411ZM1.51353 59.7082H3.60032C4.6553 59.7082 5.13688 59.206 5.13688 58.4525C5.13688 57.6993 4.6553 57.1969 3.60032 57.1969H1.51353V59.7082ZM0 55.8501H3.64623C5.45798 55.8501 6.65041 56.7747 6.65041 58.4525C6.65041 60.1306 5.45798 61.055 3.64623 61.055H1.51353V63.8404H0V55.8501ZM11.7639 61.0096C11.7639 59.9707 10.9727 59.3658 10.1241 59.3658C9.27579 59.3658 8.48463 59.9707 8.48463 61.0096C8.48463 62.0482 9.27579 62.6532 10.1241 62.6532C10.9727 62.6532 11.7639 62.0482 11.7639 61.0096ZM10.1241 64C8.5648 64 7.01687 62.9956 7.01687 61.0096C7.01687 59.0233 8.5648 58.0189 10.1241 58.0189C11.6837 58.0189 13.2315 59.0233 13.2315 61.0096C13.2315 62.9956 11.6837 64 10.1241 64ZM19.6865 62.3679C19.1476 63.4408 18.2187 64 17.0263 64C15.3407 64 14.0336 62.8129 14.0336 61.0096C14.0336 59.206 15.4095 58.0189 17.0263 58.0189C18.2876 58.0189 19.2278 58.5896 19.6292 59.5599L18.4481 60.3361C18.1156 59.6168 17.611 59.3658 17.0149 59.3658C16.1663 59.3658 15.5014 60.0049 15.5014 61.0096C15.5014 62.0255 16.1434 62.6532 17.0149 62.6532C17.7717 62.6532 18.1958 62.2766 18.5169 61.6145L19.6865 62.3679Z" fill="#626A73"/>
    <path fill-rule="evenodd" clip-rule="evenodd" d="M24.8237 59.4346H23.195V63.8409H21.7967V59.4346H20.168V58.1792H24.8237V59.4346Z" fill="#626A73"/>
    <path fill-rule="evenodd" clip-rule="evenodd" d="M26.692 60.3019H29.7421C29.6045 59.5715 29.0656 59.1147 28.2514 59.1147C27.4832 59.1147 26.8985 59.6397 26.692 60.3019ZM26.692 61.352C26.7837 62.2195 27.403 62.7673 28.2514 62.7673C29.0426 62.7673 29.5012 62.3679 29.8224 61.7286L30.9001 62.3452C30.3613 63.4523 29.5127 64 28.2286 64C26.6462 64 25.3047 62.8017 25.3047 61.0097C25.3047 59.2174 26.6462 58.019 28.2973 58.019C29.9254 58.019 31.0721 59.1948 31.0721 60.8498V61.352H26.692ZM37.2978 63.8404H35.8988V59.48H34.0874L33.8237 62.2424C33.709 63.4637 33.2158 63.9201 32.3788 63.9201C32.0462 63.9201 31.8515 63.8973 31.5762 63.8404L31.7712 62.5733C31.8859 62.619 31.9661 62.6418 32.0692 62.6418C32.3329 62.6418 32.4363 62.5048 32.4707 62.1853L32.8604 58.1788H37.2978V63.8404ZM39.8083 60.3019H42.8583C42.721 59.5715 42.1818 59.1147 41.3679 59.1147C40.5995 59.1147 40.0147 59.6397 39.8083 60.3019ZM39.8083 61.352C39.9002 62.2195 40.5192 62.7673 41.3679 62.7673C42.1589 62.7673 42.6176 62.3679 42.9386 61.7286L44.0166 62.3452C43.4775 63.4523 42.6292 64 41.3449 64C39.7626 64 38.421 62.8017 38.421 61.0097C38.421 59.2174 39.7626 58.019 41.4137 58.019C43.0418 58.019 44.1886 59.1948 44.1886 60.8498V61.352H39.8083ZM46.7793 58.1788V60.0279C46.7793 60.0279 46.9972 59.7196 47.1693 59.5257L48.3616 58.1788H50.0588L47.9948 60.4846L50.4714 63.8404H48.7858L47.0775 61.5119L46.7793 61.8428V63.8404H45.3346V58.1788H46.7793ZM55.1837 61.0097C55.1837 59.9708 54.3926 59.3659 53.544 59.3659C52.6956 59.3659 51.9044 59.9708 51.9044 61.0097C51.9044 62.0483 52.6956 62.6532 53.544 62.6532C54.3926 62.6532 55.1837 62.0483 55.1837 61.0097ZM53.544 64C51.9847 64 50.4368 62.9957 50.4368 61.0097C50.4368 59.0234 51.9847 58.019 53.544 58.019C55.1034 58.019 56.6514 59.0234 56.6514 61.0097C56.6514 62.9957 55.1034 64 53.544 64Z" fill="#626A73"/>
    <path fill-rule="evenodd" clip-rule="evenodd" d="M60.2505 63.8409L59.0806 60.6329V63.8409H57.7734V58.1792H59.31L60.8816 62.3341L62.4632 58.1792H63.9998V63.8409H62.6926V60.6329L61.5237 63.8409H60.2505Z" fill="#626A73"/>
  </g>
</svg>
