<svg width="54" height="64" viewBox="0 0 54 64" fill="none" xmlns="http://www.w3.org/2000/svg">
  <path d="M2.44218 54.7846L0.814059 50.2396H0.754361C0.797778 50.9182 0.8222 51.5547 0.8222 52.1386V54.7846H0V49.3374H1.31063L2.87091 53.6615L4.52345 49.3374H5.81781V54.7741H4.90606V51.0365C4.88638 50.773 4.89913 50.5081 4.94405 50.2475L3.25624 54.7846H2.44218Z" fill="#626A73"/>
  <path fill-rule="evenodd" clip-rule="evenodd" d="M48.0288 52.1843C47.737 52.2869 47.427 52.3317 47.117 52.3158L46.7263 52.3V52.9576H47.2446C47.5557 52.9418 47.8666 52.9912 48.1563 53.1022C48.336 53.1842 48.4507 53.3595 48.4507 53.552C48.4507 53.7445 48.336 53.9198 48.1563 54.0018C47.8938 54.1148 47.6073 54.1653 47.3205 54.1491C46.8164 54.1518 46.3185 54.0411 45.8661 53.8255V54.5568C46.3428 54.7512 46.858 54.841 47.3748 54.8198C47.8732 54.8461 48.3686 54.7299 48.7994 54.4857C49.1216 54.2906 49.315 53.9465 49.3096 53.5783C49.3199 53.3548 49.2423 53.1357 49.0925 52.9655C48.8874 52.7663 48.624 52.6331 48.3381 52.5841C48.8065 52.5255 49.1561 52.1371 49.1522 51.6793C49.163 51.3551 48.997 51.0494 48.7153 50.8744C48.3419 50.6688 47.9148 50.5728 47.4861 50.5983C46.9289 50.5919 46.3759 50.6911 45.858 50.8902L46.1456 51.532C46.5391 51.3607 46.9652 51.2711 47.3965 51.269C48.0125 51.269 48.3164 51.4373 48.3164 51.774C48.3202 51.9561 48.2048 52.1206 48.0288 52.1843ZM25.8076 52.7164C25.8425 53.2905 25.6482 53.8556 25.2648 54.2946C24.8764 54.6904 24.3266 54.8985 23.7643 54.8627C23.3968 54.87 23.0344 54.779 22.7168 54.5997C22.4129 54.4309 22.1688 54.1769 22.0167 53.8711C21.8451 53.5168 21.7597 53.1289 21.7671 52.7375C21.7333 52.1699 21.9278 51.6118 22.3098 51.1804C23.1428 50.4303 24.4318 50.4303 25.2648 51.1804C25.6368 51.609 25.8303 52.1568 25.8076 52.7164ZM8.03402 50.6722V52.7764C8.03793 53.1385 8.01799 53.5004 7.97432 53.8601L10.099 50.667H11.2007V54.7806H10.3324V52.1504C10.3207 51.962 10.3335 51.7729 10.3704 51.5875L8.2918 54.7754H7.17383V50.6722H8.03402ZM13.3848 50.6709V52.3201H15.382V50.6709H16.2883V54.7846H15.382V53.0092H13.3848V54.7846H12.4894V50.6709H13.3848ZM21.1948 50.6709H20.2071L18.4732 52.6488V50.6709H17.5777V54.7846H18.5112V52.6935L20.3509 54.7846H21.3468L19.4473 52.6488L21.1948 50.6709ZM23.802 54.1786C23.0802 54.1549 22.7166 53.6683 22.7166 52.7162C22.7008 52.35 22.795 51.9872 22.988 51.672C23.1768 51.423 23.484 51.285 23.802 51.3064C24.5265 51.3064 24.8874 51.7298 24.8874 52.7162C24.8874 53.7025 24.5238 54.2022 23.802 54.1786ZM29.2755 53.9429L29.3271 53.7667C29.4329 53.3932 29.5252 53.1091 29.5984 52.9119L30.5482 50.6709H31.7476V54.7846H30.9036V51.46L30.8358 51.6862C30.757 51.9837 30.6591 52.2763 30.5427 52.562L29.6147 54.753H28.9363L28.0002 52.5173C27.8624 52.1624 27.7473 51.7996 27.6556 51.431V54.753H26.8252V50.6709H28.0164L28.9445 52.8619C29.072 53.217 29.1833 53.5773 29.2755 53.9429ZM33.2865 54.2945C33.6648 54.6805 34.2013 54.8821 34.7491 54.8442C34.9725 54.8605 35.1971 54.8553 35.4194 54.8285C35.5991 54.7866 35.7718 54.7202 35.9322 54.6312V53.9C35.5858 54.0939 35.1926 54.1955 34.7925 54.1946C34.4781 54.2132 34.174 54.0816 33.9785 53.8421C33.775 53.5341 33.6798 53.1706 33.7071 52.8058C33.7071 51.8616 34.0545 51.3881 34.8088 51.3881C35.1339 51.4038 35.4532 51.4778 35.7504 51.6064L36.0218 50.8752C35.6431 50.711 35.2318 50.6293 34.817 50.6359C34.2547 50.599 33.7038 50.8017 33.3082 51.1908C32.9478 51.6265 32.7627 52.1742 32.7872 52.7322C32.7484 53.2949 32.9263 53.8516 33.2865 54.2945ZM40.6133 51.723C40.6133 52.2043 40.3175 52.5121 39.7314 52.5989C40.0102 52.6114 40.2759 52.7174 40.483 52.8987C40.6633 53.0635 40.7621 53.2952 40.7544 53.5352C40.7668 53.8905 40.5933 54.2279 40.2931 54.4321C39.8914 54.6639 39.4274 54.7738 38.9607 54.7478H36.9391V50.6709H38.9607C40.0543 50.6709 40.6133 51.0207 40.6133 51.723ZM39.5101 51.446C39.6433 51.5125 39.7209 51.6514 39.7054 51.7959C39.7228 51.967 39.6331 52.1316 39.4775 52.2141C39.2596 52.2984 39.0252 52.3352 38.791 52.3219H37.8358V51.3356H38.9212C39.1239 51.3243 39.3263 51.3622 39.5101 51.446ZM39.8208 53.5213C39.8343 53.3462 39.7395 53.18 39.5793 53.0979C39.3566 53.0032 39.1139 52.9608 38.8711 52.9742H37.8318V54.1131H38.8928C39.5115 54.1131 39.8208 53.9159 39.8208 53.5213ZM41.0923 54.7849H42.1044L43.1274 53.2068H43.9876V54.7849H44.8912V50.6712H42.9619C42.5426 50.6508 42.1284 50.7685 41.7869 51.0053C41.5012 51.2263 41.3418 51.5666 41.3582 51.9206C41.3295 52.4771 41.7175 52.973 42.2781 53.0963L41.0923 54.7849ZM42.2112 51.9214C42.1994 52.1108 42.2938 52.2917 42.4582 52.3948C42.6618 52.5073 42.8943 52.5611 43.1284 52.55H43.9587V51.3296H42.9792C42.7761 51.3169 42.5745 51.3706 42.4066 51.4821C42.2726 51.5897 42.1999 51.7531 42.2112 51.9214ZM51.1568 52.3148H52.2178C53.4037 52.3148 53.9979 52.7093 53.9979 53.5037C54.0218 53.8747 53.8515 54.2326 53.5448 54.4558C53.1494 54.6986 52.6849 54.8137 52.2178 54.7846H50.2587V50.6709H51.1568V52.3148ZM52.8533 53.0974C53.0153 53.1817 53.1102 53.3512 53.0948 53.5287C53.0945 53.7009 53.0074 53.862 52.8614 53.9601C52.6556 54.0741 52.4197 54.1272 52.1831 54.1127H51.1573V52.9738H52.1668C52.4025 52.9619 52.6377 53.0042 52.8533 53.0974ZM17.2516 60.1222C17.2759 60.6176 17.0613 61.0958 16.6709 61.4163C16.1974 61.7428 15.6229 61.9025 15.0428 61.8687H14.4567V63.8992H13.5666V58.4967H15.1486C15.7078 58.4557 16.2645 58.6025 16.7252 58.9123C17.0829 59.216 17.277 59.662 17.2516 60.1222ZM14.9404 61.1288H14.4574L14.4411 59.2245H15.0761C15.4033 59.1884 15.7333 59.2637 16.0096 59.4376C16.228 59.6168 16.3383 59.8909 16.3026 60.1662C16.3215 60.4459 16.2015 60.7175 15.9797 60.8974C15.6667 61.0778 15.3033 61.1587 14.9404 61.1288ZM22.031 61.8552C22.0694 62.427 21.8811 62.9915 21.5046 63.4333C21.1105 63.8253 20.5594 64.0309 19.9959 63.9962C19.6272 63.9995 19.2641 63.9088 18.943 63.7331C18.6417 63.5651 18.3975 63.3156 18.2402 63.0151C18.0755 62.6616 17.993 62.2772 17.9987 61.8893C17.9597 61.3147 18.1545 60.7482 18.5414 60.3112C18.9346 59.9196 19.4847 59.714 20.0474 59.7483C20.5969 59.7221 21.1299 59.9342 21.5019 60.327C21.8734 60.752 22.0628 61.2989 22.031 61.8552ZM20.0332 63.3181C19.3114 63.3181 18.9478 62.8315 18.9478 61.8557C18.9277 61.489 19.0223 61.1251 19.2191 60.8115C19.4049 60.5588 19.7143 60.4198 20.0332 60.4458C20.755 60.4458 21.1186 60.8693 21.1186 61.8557C21.1186 62.842 20.755 63.3181 20.0332 63.3181ZM24.7827 63.9916C24.237 64.026 23.7029 63.8282 23.3201 63.4497C22.6348 62.5025 22.6348 61.2407 23.3201 60.2935C23.7174 59.907 24.267 59.7048 24.8288 59.7385C25.2465 59.7326 25.6604 59.8152 26.0417 59.9805L25.7704 60.7117C25.488 60.583 25.1853 60.5012 24.8749 60.4697C24.1206 60.4697 23.7895 60.9379 23.7895 61.8874C23.7622 62.2522 23.8574 62.6157 24.0609 62.9237C24.2539 63.1566 24.5509 63.2849 24.8586 63.2683C25.2578 63.2704 25.6506 63.1715 25.9983 62.9816V63.7128C25.8411 63.8081 25.6674 63.875 25.4855 63.91C25.2556 63.9654 25.0195 63.9928 24.7827 63.9916ZM27.181 63.4499C27.5627 63.8301 28.0976 64.0283 28.6436 63.9917C28.8759 63.9909 29.1072 63.9635 29.3328 63.9102C29.5147 63.8751 29.6885 63.8083 29.8457 63.7129V62.9817C29.498 63.1717 29.1052 63.2705 28.706 63.2684C28.3983 63.285 28.1013 63.1567 27.9082 62.9238C27.6979 62.6282 27.5896 62.2755 27.5989 61.9164C27.5989 60.9669 27.9327 60.4987 28.6843 60.4987C29.0094 60.5167 29.3288 60.5888 29.6286 60.7118L29.9 59.9806C29.5187 59.8153 29.1047 59.7327 28.687 59.7386C28.1259 59.7043 27.5769 59.9066 27.181 60.2936C26.4957 61.2408 26.4957 62.5026 27.181 63.4499ZM31.71 59.8037V61.9079C31.714 62.2691 31.6941 62.6301 31.6503 62.9889L33.775 59.7958H34.8766V63.9095H34.0083V61.2792C33.9964 61.0908 34.0092 60.9017 34.0463 60.7164L31.9298 63.9016H30.8443V59.8037H31.71ZM37.0222 61.9079V59.8037H36.1782V63.9173H37.2121L39.3287 60.7321V63.9095H40.197V59.7958H39.0953L36.9625 62.9889C37.0063 62.6302 37.0262 62.2691 37.0222 61.9079Z" fill="#626A73"/>
  <path d="M30.9954 23.5103C30.7894 23.3214 30.519 23.2185 30.2395 23.2226C29.9718 23.2279 29.7105 23.3059 29.4837 23.4482C29.4611 23.4596 29.4425 23.4775 29.4304 23.4997C29.4183 23.5219 29.4133 23.5472 29.416 23.5723C29.5141 24.171 29.5293 24.7802 29.4611 25.383C29.4079 25.6311 29.2726 25.854 29.0771 26.0157C28.8816 26.1774 28.6374 26.2685 28.3837 26.2743C28.2422 26.275 28.1015 26.254 27.9663 26.2122L28.4401 25.8907C28.4575 25.8788 28.4718 25.8628 28.4816 25.8441C28.4914 25.8254 28.4966 25.8046 28.4965 25.7835C28.4961 25.7633 28.4908 25.7434 28.4809 25.7257C28.4711 25.708 28.4571 25.693 28.4401 25.682L27.4981 25.0333C27.7971 24.8077 27.9832 24.6497 28.0114 24.6271C28.0251 24.6164 28.0363 24.6027 28.0441 24.5871C28.0519 24.5715 28.0562 24.5543 28.0566 24.5369C28.0546 24.5014 28.0407 24.4676 28.0171 24.441L27.8197 24.2549C27.7956 24.2308 27.7634 24.2167 27.7294 24.2154C27.7037 24.2075 27.6762 24.2075 27.6504 24.2154C27.6504 24.2154 27.391 24.4128 27.0187 24.6723L26.6915 24.4579L28.1694 23.4426L28.2822 23.7359C28.2917 23.7583 28.3073 23.7776 28.3273 23.7916C28.3472 23.8056 28.3707 23.8136 28.395 23.8149C28.418 23.8141 28.4405 23.8075 28.4602 23.7957C28.4799 23.7838 28.4963 23.7671 28.5078 23.7472L29.2129 22.4555C29.2254 22.4351 29.232 22.4117 29.232 22.3878C29.232 22.3639 29.2254 22.3405 29.2129 22.3201C29.2019 22.3031 29.1868 22.2891 29.1691 22.2793C29.1514 22.2694 29.1316 22.2641 29.1114 22.2637L27.6561 22.4837C27.6312 22.4862 27.6077 22.4961 27.5885 22.5122C27.5694 22.5283 27.5556 22.5498 27.5489 22.5739C27.5441 22.5971 27.5451 22.6212 27.552 22.6438C27.5589 22.6665 27.5714 22.6871 27.5884 22.7037L27.8253 22.9124L26.1331 24.0687L24.4409 22.9124L24.6778 22.7037C24.6953 22.6875 24.7078 22.6667 24.7138 22.6437C24.7198 22.6207 24.719 22.5965 24.7116 22.5739C24.7068 22.5499 24.6943 22.5281 24.676 22.5118C24.6577 22.4955 24.6345 22.4856 24.6101 22.4837L23.1548 22.2637C23.1346 22.2641 23.1147 22.2694 23.097 22.2793C23.0793 22.2891 23.0643 22.3031 23.0533 22.3201C23.0424 22.341 23.0367 22.3642 23.0367 22.3878C23.0367 22.4113 23.0424 22.4346 23.0533 22.4555L23.7584 23.7472C23.7699 23.7671 23.7863 23.7838 23.806 23.7957C23.8257 23.8075 23.8482 23.8141 23.8712 23.8149C23.8955 23.8136 23.919 23.8056 23.9389 23.7916C23.9589 23.7776 23.9745 23.7583 23.984 23.7359L24.0968 23.4426L25.5747 24.4579L25.1967 24.7174C24.8188 24.4579 24.5706 24.2661 24.565 24.2605C24.5456 24.2488 24.5235 24.2421 24.5008 24.2411C24.4782 24.2401 24.4556 24.2449 24.4353 24.2549C24.4013 24.2562 24.3691 24.2703 24.345 24.2943L24.1758 24.4636C24.163 24.476 24.1528 24.4909 24.146 24.5074C24.1392 24.5239 24.1359 24.5416 24.1363 24.5595C24.1397 24.5941 24.1558 24.6262 24.1814 24.6497C24.2096 24.6497 24.3901 24.8302 24.6947 25.0558L23.7471 25.7045C23.7308 25.7159 23.7176 25.7311 23.7087 25.7488C23.6999 25.7666 23.6956 25.7862 23.6963 25.8061C23.6952 25.8274 23.6999 25.8485 23.7098 25.8674C23.7197 25.8863 23.7346 25.9021 23.7527 25.9132L24.2265 26.2348C24.0914 26.2766 23.9506 26.2975 23.8091 26.2968C23.5543 26.2874 23.3102 26.1919 23.1166 26.026C22.923 25.86 22.7913 25.6334 22.743 25.383C22.6629 24.7821 22.6629 24.1732 22.743 23.5723C22.7462 23.5478 22.742 23.5229 22.731 23.5008C22.7199 23.4787 22.7025 23.4604 22.681 23.4482C22.4518 23.3065 22.1889 23.2286 21.9195 23.2226C21.6407 23.2218 21.3714 23.3243 21.1637 23.5103C21.1444 23.5324 21.1326 23.56 21.1298 23.5892C21.1298 23.6626 20.9775 25.4902 21.8236 26.4096C21.9767 26.5777 22.1644 26.7106 22.3737 26.7992C22.5831 26.8878 22.8091 26.93 23.0364 26.9229C23.1283 26.9312 23.2208 26.9312 23.3128 26.9229C23.7907 26.8624 24.2601 26.747 24.7116 26.5789L25.4957 27.1091L23.7584 28.2824C23.7413 28.2946 23.7273 28.3107 23.7175 28.3293C23.7077 28.3479 23.7024 28.3685 23.702 28.3895C23.7032 28.4104 23.7089 28.4307 23.7186 28.4492C23.7283 28.4677 23.7419 28.4839 23.7584 28.4967L25.5013 29.6982L24.0404 30.7079L23.9276 30.4202C23.9181 30.3978 23.9025 30.3785 23.8825 30.3645C23.8626 30.3506 23.8391 30.3425 23.8148 30.3412C23.7918 30.342 23.7693 30.3486 23.7496 30.3605C23.7299 30.3723 23.7135 30.389 23.702 30.4089L22.9969 31.7063C22.986 31.7272 22.9803 31.7504 22.9803 31.774C22.9803 31.7976 22.986 31.8208 22.9969 31.8417C23.0082 31.858 23.0234 31.8711 23.0412 31.88C23.0589 31.8889 23.0786 31.8932 23.0984 31.8924L24.5537 31.6781C24.5781 31.6761 24.6013 31.6663 24.6196 31.65C24.6379 31.6337 24.6504 31.6119 24.6552 31.5878C24.6624 31.5643 24.6631 31.5393 24.6571 31.5155C24.6511 31.4916 24.6388 31.4698 24.6214 31.4525L24.4353 31.2381L26.1275 30.0761L27.8197 31.2381L27.5771 31.4468C27.5592 31.4639 27.5462 31.4855 27.5392 31.5092C27.5323 31.533 27.5317 31.5582 27.5376 31.5822C27.5443 31.6063 27.5581 31.6278 27.5773 31.6439C27.5964 31.66 27.6199 31.67 27.6448 31.6725L29.1001 31.8868C29.1199 31.8875 29.1396 31.8832 29.1573 31.8744C29.1751 31.8655 29.1903 31.8523 29.2016 31.836C29.2125 31.8151 29.2182 31.7919 29.2182 31.7683C29.2182 31.7448 29.2125 31.7216 29.2016 31.7007L28.4965 30.4033C28.485 30.3833 28.4686 30.3667 28.4489 30.3548C28.4292 30.343 28.4067 30.3364 28.3837 30.3356C28.3594 30.3368 28.3359 30.3449 28.316 30.3589C28.296 30.3728 28.2804 30.3921 28.2709 30.4146L28.1581 30.7022L26.6746 29.6756L28.3837 28.4798C28.4002 28.467 28.4138 28.4508 28.4235 28.4323C28.4332 28.4138 28.4389 28.3935 28.4401 28.3726C28.4397 28.3516 28.4344 28.331 28.4246 28.3124C28.4148 28.2938 28.4008 28.2777 28.3837 28.2654L26.6915 27.0752L27.4756 26.545C27.9273 26.7125 28.3966 26.8279 28.8745 26.8891C28.9664 26.8973 29.0589 26.8973 29.1509 26.8891C29.3782 26.897 29.6045 26.8551 29.814 26.7664C30.0234 26.6778 30.211 26.5445 30.3636 26.3758C31.2097 25.4563 31.0631 23.6287 31.0574 23.5554C31.0399 23.5364 31.0188 23.5211 30.9954 23.5103ZM26.088 24.8528L26.4603 25.1066L26.088 25.3322L25.7213 25.1066L26.088 24.8528ZM24.7342 25.7835L25.2531 25.4281C25.349 25.4958 25.4562 25.5635 25.569 25.6312C25.366 25.7403 25.1629 25.8418 24.9598 25.9358L24.7342 25.7835ZM27.4135 28.3726L26.088 29.2864L24.7681 28.3726L26.088 27.4814L27.4135 28.3726ZM26.088 26.6804L25.4506 26.2404C25.6762 26.1389 25.8849 26.0261 26.088 25.9189C26.2967 26.0261 26.5054 26.1389 26.7366 26.2404L26.088 26.6804ZM27.2556 25.9471C27.0469 25.8512 26.8438 25.7497 26.6408 25.6425L26.9566 25.4394L27.4756 25.7948L27.2556 25.9471Z" fill="#626A73"/>
  <path d="M31.4395 24.5824C31.4803 24.4891 31.507 24.3902 31.5184 24.2891H31.4395V24.5824Z" fill="#626A73"/>
  <path d="M48.1252 20.0642C47.3939 19.7146 46.575 19.5909 45.7731 19.7088C47.2001 19.2124 48.176 18.152 48.2267 17.2043C47.5046 17.0368 46.7518 17.0543 46.0382 17.2551C46.732 16.7361 47.8714 15.7885 47.7304 14.3952C47.0591 14.2316 45.8295 14.6998 45.3105 14.9311C46.9576 14.006 47.5668 11.8174 46.6812 10.5764C46.1623 10.881 43.8045 13.284 43.4265 13.5604C44.3457 12.6026 45.0648 11.4712 45.5418 10.2323C45.931 9.21136 45.9592 7.41196 44.6957 6.84788C43.602 9.06658 42.3147 11.1844 40.8487 13.1768C40.719 13.0584 40.6175 12.9061 40.4539 12.8835C40.0823 13.9074 39.4458 14.8144 38.6094 15.5121C38.5699 15.4388 38.4909 15.2357 38.3668 15.0213C37.5715 16.2059 35.507 17.8417 34.8414 18.8401C34.707 18.9881 34.6048 19.1624 34.5415 19.352C34.4782 19.5416 34.4551 19.7423 34.4736 19.9413C34.4922 20.1404 34.5521 20.3333 34.6494 20.5079C34.7467 20.6825 34.8793 20.8349 35.0388 20.9554C35.3322 21.2431 35.8906 21.7621 35.4055 22.4841C35.2629 22.6934 35.0803 22.8725 34.8683 23.0111C34.6563 23.1497 34.4191 23.245 34.1701 23.2917C33.9212 23.3383 33.6655 23.3353 33.4177 23.2829C33.1699 23.2304 32.9349 23.1296 32.7262 22.9861C32.7262 22.8169 32.7262 22.6533 32.7262 22.5066C32.9223 22.4116 33.0931 22.2715 33.2248 22.0978C33.3564 21.9241 33.4451 21.7217 33.4836 21.5072C33.5221 21.2927 33.5093 21.0721 33.4463 20.8635C33.3833 20.6548 33.2718 20.4641 33.121 20.3067C32.9917 20.5697 32.7651 20.772 32.4893 20.8708C32.4523 20.7156 32.4052 20.5629 32.3482 20.4139L32.3313 20.3067H32.258C32.258 20.3067 31.976 20.3067 31.5642 20.239C31.8012 20.1603 32.0021 19.9992 32.1305 19.785C32.2588 19.5707 32.3061 19.3175 32.2636 19.0714C32.0314 19.2686 31.731 19.3666 31.4271 19.3445C31.1233 19.3223 30.8403 19.1817 30.6391 18.953C30.4109 18.6733 30.255 18.3418 30.1851 17.9877C30.1153 17.6335 30.1337 17.2676 30.2386 16.9223C30.505 15.9695 31.0349 15.1111 31.7672 14.446C31.8238 14.5142 31.8957 14.5682 31.9771 14.6035C32.0584 14.6388 32.1469 14.6544 32.2354 14.6491C32.3877 14.5983 32.6416 14.4685 32.8333 14.3952C33.0687 14.3233 33.3166 14.3022 33.5606 14.3334C33.8047 14.3645 34.0394 14.4471 34.2491 14.5757C34.4537 14.6683 34.6208 14.8274 34.7233 15.0272C34.8257 15.227 34.8574 15.4556 34.8132 15.6757C35.7552 15.1398 35.428 14.2598 34.1927 13.927C35.0388 13.927 35.7326 14.6998 35.8849 14.8014C36.1127 14.9415 36.3721 15.0222 36.6392 15.036C36.9063 15.0498 37.1726 14.9963 37.4136 14.8803C38.1638 14.5193 38.3104 13.6394 38.113 13.4589C38.0732 13.6332 37.9781 13.79 37.8419 13.9059C37.7057 14.0218 37.5356 14.0906 37.3572 14.1019C36.7437 14.1167 36.137 13.9709 35.5973 13.6788C35.1065 13.4885 34.5837 13.3946 34.0574 13.4024C34.9035 12.9343 36.2177 12.985 36.6859 13.707C36.839 13.607 36.9687 13.4751 37.066 13.3203C37.1634 13.1655 37.2261 12.9915 37.25 12.8102C37.4869 11.5466 36.4998 10.8979 35.4506 10.8979C35.4662 10.8373 35.4634 10.7734 35.4426 10.7143C35.4218 10.6552 35.3839 10.6037 35.3337 10.5662C35.2836 10.5287 35.2234 10.507 35.1608 10.5038C35.0983 10.5006 35.0362 10.516 34.9824 10.5482C34.9885 10.4961 34.982 10.4432 34.9633 10.3941C34.9446 10.345 34.9144 10.3011 34.8753 10.2662H34.9542C35.9105 10.257 36.8331 9.91151 37.5602 9.29033C38.5079 8.28064 36.9962 6.9889 37.5602 5.99049C38.0628 6.28337 38.6095 6.49291 39.1791 6.61097C39.2593 6.81018 39.3142 7.01862 39.3427 7.23145C39.5739 8.35961 38.4627 8.54575 38.7504 9.74723C38.8745 10.3113 39.2806 10.4805 39.4216 11.1292C39.4264 11.2864 39.3983 11.4429 39.3391 11.5887C39.2798 11.7344 39.1907 11.8661 39.0776 11.9753C39.2636 12.0007 39.4531 11.9765 39.6268 11.9052C39.8005 11.8338 39.9522 11.7179 40.0667 11.569C40.1812 11.4202 40.2544 11.2438 40.2788 11.0576C40.3032 10.8714 40.278 10.6821 40.2057 10.5087C40.0816 10.2154 39.7657 9.94466 39.7657 9.59493C40.2339 10.2154 40.6513 10.1929 41.3733 9.96158C41.7005 9.86005 41.7287 10.317 41.52 10.6836C41.6981 10.5839 41.8485 10.4415 41.9578 10.2692C42.0671 10.0969 42.1318 9.90004 42.1461 9.69647C42.1685 9.58743 42.1603 9.47431 42.1225 9.36962C42.0846 9.26493 42.0185 9.17275 41.9316 9.10328C41.8446 9.03381 41.7401 8.98975 41.6296 8.97597C41.5191 8.96219 41.407 8.97924 41.3056 9.02522C41.0913 9.02522 40.657 9.3411 40.6344 8.92368C40.5441 8.20166 41.6836 8.22423 41.4523 7.06223C41.3282 6.49816 40.6852 6.15971 39.6698 6.03561C39.4926 5.85991 39.3286 5.67137 39.1791 5.47154C38.615 4.54645 38.051 4.30954 37.7125 4.49569C37.3741 4.68183 37.092 4.87926 36.7649 5.05976C36.5013 5.15489 36.2568 5.29624 36.0429 5.47718C35.5973 6.04125 36.0429 6.87045 36.2459 7.3894C36.5359 7.83902 36.6615 8.37512 36.6013 8.90676C36.4208 9.52724 35.3942 9.91646 34.7794 10.0349C34.7399 10.0349 34.7117 10.0349 34.6722 10.0349V9.79236C34.8556 9.47919 35.0158 9.15303 35.1517 8.81651C35.5691 7.68836 34.9429 7.24838 34.0235 7.03403C33.9665 6.9947 33.9009 6.96957 33.8323 6.96074C33.7636 6.95191 33.6938 6.95963 33.6287 6.98326V7.16941L33.4595 7.13556V6.90993H33.403C33.4531 6.87055 33.4929 6.81982 33.5194 6.76194C33.5459 6.70407 33.5582 6.64071 33.5553 6.57713C33.5556 6.46463 33.5222 6.35462 33.4595 6.26124H33.5835L33.5271 6.21048C33.4907 6.14281 33.4408 6.0833 33.3805 6.03561C33.3537 6.00767 33.336 5.97227 33.3297 5.93408C33.3583 5.96505 33.3928 5.98999 33.4312 6.00741C33.4862 6.05383 33.5371 6.10477 33.5835 6.15971L33.6569 6.21048V5.17822L33.5835 5.24027C33.5304 5.27859 33.4795 5.32002 33.4312 5.36436C33.3805 5.41513 33.3523 5.41513 33.3297 5.43769C33.3072 5.46026 33.3297 5.38693 33.3805 5.33616C33.4427 5.29768 33.4934 5.24311 33.5271 5.17822L33.5835 5.09925H32.5513L32.6021 5.17822C32.6594 5.2279 32.714 5.28062 32.7656 5.33616C32.7847 5.37506 32.8116 5.40962 32.8446 5.43769C32.8446 5.43769 32.7656 5.43769 32.7374 5.36436C32.7092 5.29103 32.6021 5.26283 32.5513 5.24027L32.5005 5.17822V6.20484L32.5513 6.15407C32.6077 6.09681 32.6701 6.04576 32.7374 6.00177L32.8446 5.92844C32.8446 5.92844 32.7939 6.00177 32.7656 6.02997C32.7184 6.09465 32.6635 6.15336 32.6021 6.20484L32.5513 6.2556H32.7149C32.673 6.29602 32.6411 6.34555 32.6215 6.40034C32.6019 6.45513 32.5953 6.5137 32.6021 6.57149C32.601 6.63323 32.6124 6.69455 32.6357 6.75175C32.6589 6.80895 32.6936 6.86084 32.7374 6.90429V7.12992L32.6021 7.16376V6.97762C32.5399 6.95348 32.4727 6.94548 32.4066 6.95436C32.3405 6.96323 32.2777 6.9887 32.2241 7.02839C31.2878 7.24274 30.6673 7.69964 31.096 8.81087C31.2183 9.17109 31.3751 9.51867 31.5642 9.84877V10.0123C30.4105 9.59427 29.3615 8.93023 28.49 8.06629C28.4487 8.01839 28.411 7.96748 28.3772 7.91399V7.24274C28.6977 6.65918 28.964 6.0474 29.1725 5.41513C29.7704 3.80751 28.8961 3.15883 27.4803 2.85987C27.4012 2.79877 27.3073 2.75978 27.2082 2.74689C27.1091 2.73401 27.0084 2.74769 26.9163 2.78654L26.8655 3.03473H26.5722L26.6004 2.70756C26.5502 2.71857 26.4983 2.71857 26.4481 2.70756C26.5475 2.64967 26.6306 2.5676 26.6897 2.46899C26.7489 2.37038 26.7822 2.25841 26.7865 2.14349C26.7866 2.04831 26.7654 1.95432 26.7244 1.86843C26.6834 1.78253 26.6237 1.7069 26.5496 1.6471H26.7865C26.607 1.49394 26.4659 1.30072 26.3748 1.08303C26.589 1.18521 26.7807 1.32902 26.9388 1.50608V0.152301C26.8147 0.253834 26.5496 0.507668 26.3748 0.530231C26.4899 0.324591 26.6453 0.144258 26.8317 0L25.5174 0C25.6189 0.129737 25.8727 0.383572 25.8953 0.530231C25.743 0.530231 25.4948 0.253834 25.3312 0.152301V1.47224C25.4959 1.30253 25.6863 1.15977 25.8953 1.04918C25.8953 1.22969 25.6189 1.4948 25.5174 1.61326H25.743C25.6694 1.67278 25.6107 1.74864 25.5716 1.8348C25.5324 1.92096 25.5138 2.01506 25.5174 2.10964C25.5184 2.22395 25.5491 2.33603 25.6064 2.43491C25.6638 2.53379 25.7458 2.61608 25.8445 2.67372C25.7867 2.6834 25.7276 2.6834 25.6697 2.67372V3.00088H25.382V2.75269C25.2893 2.71711 25.1892 2.70518 25.0907 2.71798C24.9922 2.73078 24.8985 2.76792 24.8179 2.82602C23.4472 3.10806 22.5617 3.77367 23.1652 5.38129C23.3683 6.02581 23.6526 6.64185 24.0113 7.21453V7.91399C24.0113 7.91399 23.9606 7.98732 23.9098 8.03808C23.4698 8.65857 21.772 9.67954 20.8356 9.98415V9.82056C21.0247 9.49047 21.1815 9.14289 21.3038 8.78266C21.7268 7.65451 21.1064 7.21453 20.1757 7.00018C20.121 6.96048 20.0573 6.93505 19.9903 6.92619C19.9233 6.91732 19.8552 6.92531 19.7921 6.94942V7.13556L19.668 7.10172V6.87609C19.7485 6.78398 19.7927 6.66563 19.7921 6.54328C19.798 6.48647 19.792 6.42904 19.7745 6.37466C19.7571 6.32028 19.7285 6.27013 19.6906 6.2274H19.8429L19.7357 6.20484C19.6781 6.15288 19.6269 6.09417 19.5834 6.02997L19.4988 5.92844C19.4988 5.92844 19.5834 5.97921 19.6116 6.00177C19.6733 6.04848 19.7317 6.09936 19.7864 6.15407L19.8372 6.20484V5.17822L19.7864 5.24027C19.7253 5.27747 19.6669 5.31894 19.6116 5.36436C19.5834 5.41513 19.5213 5.41513 19.4988 5.43769C19.5337 5.41007 19.5625 5.3755 19.5834 5.33616C19.6313 5.28083 19.6821 5.22811 19.7357 5.17822L19.7864 5.07668H18.7542L18.7993 5.15565C18.8428 5.21136 18.8899 5.26413 18.9403 5.3136C18.9911 5.36436 19.0137 5.39257 19.0137 5.41513C19.0137 5.43769 18.9629 5.41513 18.9178 5.3418C18.8607 5.3039 18.8061 5.26245 18.7542 5.2177L18.6752 5.15565V6.20484L18.7542 6.15407C18.7542 6.10894 18.8501 6.05254 18.9178 6.00177C18.9537 5.98297 18.9861 5.95817 19.0137 5.92844C19.0101 5.94987 19.0016 5.97018 18.9889 5.98779C18.9762 6.00541 18.9596 6.01984 18.9403 6.02997C18.8896 6.10894 18.8275 6.15407 18.7993 6.20484L18.7542 6.2556H18.8896C18.8148 6.34408 18.773 6.45568 18.7711 6.57149C18.7702 6.63653 18.7851 6.70083 18.8146 6.75881C18.8441 6.8168 18.8872 6.86673 18.9403 6.90429H18.8896V7.12992L18.7429 7.16376V6.97762H18.7147C18.6515 6.95401 18.5835 6.94629 18.5166 6.95515C18.4497 6.964 18.386 6.98915 18.3312 7.02839C17.3948 7.24274 16.78 7.69964 17.203 8.81087C17.3232 9.17282 17.4781 9.52229 17.6656 9.85441V10.097C17.6261 10.097 17.5866 10.097 17.564 10.097C16.9435 9.97286 15.9057 9.58365 15.7252 8.96881C15.6678 8.43733 15.7931 7.90216 16.0805 7.45144C16.3231 6.93249 16.7292 6.08074 16.3005 5.53923C16.0854 5.34563 15.8395 5.1893 15.5729 5.07668C15.2457 4.90182 15.0426 4.72132 14.6309 4.51261C14.2191 4.3039 13.7171 4.59158 13.153 5.51666C13.0103 5.72357 12.8437 5.91291 12.6566 6.08074C11.6582 6.20484 11.0152 6.52636 10.8798 7.10736C10.6486 8.26935 11.788 8.23551 11.7146 8.96881C11.6864 9.38622 11.2465 9.09291 11.0378 9.07034C10.9418 9.04105 10.8401 9.03591 10.7417 9.05538C10.6432 9.07485 10.5512 9.11833 10.4736 9.18196C10.396 9.24558 10.3353 9.32738 10.297 9.42009C10.2586 9.5128 10.2438 9.61355 10.2537 9.71339C10.2757 9.91395 10.3456 10.1063 10.4575 10.2742C10.5694 10.442 10.7201 10.5805 10.8967 10.678C10.6937 10.3113 10.7162 9.85441 11.0547 9.95594C11.7767 10.1872 12.1828 10.2098 12.651 9.58929C12.651 9.92774 12.352 10.2098 12.211 10.5031C12.1388 10.6764 12.1135 10.8657 12.138 11.0519C12.1624 11.2381 12.2355 11.4146 12.35 11.5634C12.4645 11.7122 12.6163 11.8282 12.7899 11.8995C12.9636 11.9709 13.1531 11.9951 13.3392 11.9697C13.2199 11.8657 13.1275 11.7345 13.0695 11.5872C13.0116 11.44 12.99 11.281 13.0064 11.1236C13.1361 10.4749 13.5704 10.2831 13.6776 9.74159C13.9596 8.54011 12.8484 8.34832 13.1135 7.22581C13.1409 7.01394 13.192 6.80581 13.2658 6.60533C13.8226 6.48607 14.3561 6.27647 14.8452 5.98485C15.3642 6.98326 13.8694 8.27499 14.8452 9.28469C15.5719 9.90296 16.4916 10.2481 17.4456 10.2605H17.5302C17.491 10.2955 17.4608 10.3394 17.4421 10.3885C17.4235 10.4376 17.4169 10.4904 17.423 10.5426C17.3698 10.5111 17.3083 10.4963 17.2466 10.5C17.1849 10.5037 17.1257 10.5257 17.0766 10.5633C17.0275 10.6009 16.9907 10.6523 16.971 10.7109C16.9513 10.7695 16.9496 10.8327 16.9661 10.8923C15.8831 10.8923 14.9185 11.541 15.1611 12.8045C15.1815 12.9868 15.2429 13.1622 15.3405 13.3175C15.4382 13.4728 15.5697 13.604 15.7252 13.7014C16.1821 12.9794 17.4963 12.9286 18.3537 13.3968C17.8237 13.3885 17.2971 13.4824 16.8025 13.6732C16.2692 13.9658 15.6677 14.1118 15.0596 14.0963C14.8796 14.0849 14.7082 14.0155 14.5709 13.8986C14.4336 13.7817 14.3379 13.6234 14.2981 13.4476C14.095 13.6281 14.2473 14.508 15.0032 14.869C15.2422 14.985 15.5067 15.0386 15.772 15.0248C16.0373 15.011 16.2948 14.9302 16.5205 14.7901C16.701 14.6885 17.3948 13.9158 18.2465 13.9158C17.0169 14.2486 16.6728 15.1285 17.6374 15.6644C17.5842 15.448 17.608 15.2198 17.7048 15.0191C17.8015 14.8184 17.9652 14.6576 18.1676 14.5644C18.3776 14.4365 18.6123 14.3543 18.8562 14.3232C19.1002 14.2921 19.348 14.3128 19.5834 14.3839C19.7752 14.4573 20.0234 14.587 20.1813 14.6378C20.2689 14.6422 20.3563 14.6262 20.4366 14.5909C20.5169 14.5557 20.5878 14.5022 20.6438 14.4347C21.343 15.1195 21.8473 15.9781 22.1048 16.9223C22.2135 17.2694 22.2333 17.6383 22.1623 17.9951C22.0914 18.3519 21.9319 18.6851 21.6986 18.9642C21.5003 19.1906 21.222 19.3311 20.9222 19.3564C20.6223 19.3816 20.3244 19.2896 20.091 19.0996C20.0474 19.3459 20.0941 19.5996 20.2226 19.8141C20.3512 20.0286 20.5528 20.1895 20.7905 20.2673L20.0854 20.3067H20.0121L19.9839 20.3744C19.9201 20.5215 19.871 20.6746 19.8372 20.8313C19.5656 20.73 19.3434 20.528 19.2167 20.2673C19.0686 20.4248 18.9597 20.6151 18.8989 20.8226C18.838 21.0301 18.8269 21.2491 18.8664 21.4617C18.906 21.6743 18.9951 21.8746 19.1265 22.0464C19.2579 22.2181 19.428 22.3565 19.6229 22.4502C19.6229 22.6025 19.6229 22.7717 19.6229 22.9466C19.2017 23.2282 18.6864 23.3322 18.189 23.2361C17.6915 23.14 17.2521 22.8515 16.9661 22.4333C16.4697 21.7113 17.0394 21.1923 17.3215 20.9047C17.4796 20.7831 17.6109 20.6303 17.7072 20.4557C17.8035 20.2812 17.8628 20.0886 17.8813 19.8901C17.8999 19.6915 17.8772 19.4913 17.8149 19.3019C17.7525 19.1125 17.6518 18.938 17.5189 18.7894C16.8533 17.791 14.7888 16.1551 13.9935 14.9706C13.9014 15.1266 13.8239 15.2909 13.7622 15.4613C12.9232 14.7636 12.2831 13.8569 11.9064 12.8327C11.7541 12.8327 11.6413 13.0076 11.5116 13.126C10.0471 11.1435 8.75803 9.03717 7.65899 6.83096C6.40676 7.42888 6.42933 9.21136 6.81289 10.2154C7.29913 11.4466 8.01505 12.5741 8.92251 13.5378C8.54458 13.2614 6.19242 10.8585 5.66783 10.5539C4.79917 11.7948 5.39144 13.9834 7.03288 14.9085C6.53086 14.6773 5.28991 14.2091 4.62431 14.3727C4.49457 15.7659 5.61707 16.7136 6.31651 17.2325C5.60097 17.0392 4.84821 17.0295 4.12793 17.2043C4.1787 18.152 5.16581 19.2124 6.55342 19.7088C5.76066 19.5932 4.95143 19.7169 4.22946 20.0642C4.33099 21.0513 5.44221 21.8974 6.78469 22.1005C5.98052 22.1588 5.23033 22.5269 4.692 23.1271C4.95111 23.4949 5.29901 23.7912 5.70335 23.9884C6.10769 24.1857 6.55534 24.2775 7.00467 24.2553C6.70675 24.3665 6.43571 24.5396 6.20934 24.7629C6.17399 24.7304 6.12768 24.7122 6.0796 24.7122C6.05447 24.7274 6.03557 24.7511 6.02628 24.779C6.01698 24.8069 6.01789 24.8372 6.02884 24.8645V24.904C5.98342 24.9301 5.94425 24.9659 5.91405 25.0088C5.88385 25.0516 5.86335 25.1006 5.85398 25.1521C5.74669 25.2967 5.65764 25.454 5.58887 25.6203C5.61193 25.6392 5.63645 25.6561 5.66219 25.6711C5.65196 25.7709 5.67799 25.871 5.73552 25.9531C5.68893 26.0116 5.65442 26.0787 5.63399 26.1506L4.97403 25.8911C4.94081 26.1341 4.95824 26.3813 5.02522 26.6172C5.0922 26.8531 5.20729 27.0725 5.36324 27.2618C5.60015 27.5269 5.85962 27.4874 5.78629 27.5777L6.48009 28.0064C6.5022 28.058 6.53492 28.1045 6.57615 28.1427C6.61737 28.1808 6.66617 28.2099 6.71937 28.228C6.77258 28.2461 6.82899 28.2528 6.88494 28.2476C6.9409 28.2425 6.99515 28.2256 7.04416 28.1982V28.2489C7.04825 28.3816 7.09327 28.5097 7.17305 28.6157C7.25283 28.7218 7.36346 28.8005 7.48977 28.8412C7.43901 29.0725 7.54054 29.2191 7.85642 29.3263L10.4906 35.7004C10.4336 35.8188 10.4253 35.9548 10.4675 36.0792C10.5097 36.2037 10.599 36.3066 10.7162 36.366C10.6488 36.453 10.613 36.5605 10.6147 36.6706C10.7162 36.5973 10.8685 36.569 10.9419 36.7834C11.0152 36.9977 10.7162 37.4321 11.1337 37.7593C11.1087 37.9079 11.1354 38.0606 11.2093 38.1919C11.2832 38.3233 11.3998 38.4254 11.5398 38.4813C11.5398 38.6336 11.6752 39.1243 11.7034 39.2992C11.5116 39.5699 11.0829 39.9761 11.1393 40.4273C11.1418 40.5464 11.1861 40.6608 11.2645 40.7506C11.3429 40.8403 11.4503 40.8996 11.568 40.9181C11.4608 41.4765 11.7654 41.7416 12.2505 41.7416C12.2687 41.8986 12.3445 42.0433 12.4634 42.1475C12.5822 42.2518 12.7355 42.3081 12.8935 42.3057C13.0874 42.4567 13.2951 42.5889 13.514 42.7006C13.2602 42.9995 13.4407 43.3944 13.9032 43.5185C13.9333 43.6193 13.9909 43.7097 14.0697 43.7795C14.1484 43.8492 14.2451 43.8956 14.3488 43.9133C14.4068 44.0123 14.5004 44.0854 14.6104 44.1179C14.7204 44.1504 14.8387 44.1398 14.9411 44.0882C15.0236 44.0228 15.081 43.931 15.1036 43.8282C15.1262 43.7255 15.1126 43.618 15.0652 43.5241C15.1107 43.4452 15.1347 43.3557 15.1347 43.2646C15.1347 43.1735 15.1107 43.084 15.0652 43.0052C15.1179 42.8815 15.1247 42.743 15.0844 42.6148C15.044 42.4866 14.9592 42.3769 14.8452 42.3057C14.8517 42.1121 14.8151 41.9194 14.738 41.7416L15.7252 41.1211C16.6089 40.418 17.6719 39.9764 18.7937 39.8463C19.1693 39.8215 19.5462 39.8215 19.9218 39.8463C20.3844 39.8971 21.05 40.0381 21.4053 39.7504C21.4631 39.7177 21.5099 39.6687 21.54 39.6095C21.5701 39.5503 21.5821 39.4836 21.5745 39.4176C21.5238 39.13 21.2079 38.8536 21.1064 38.611C21.0782 38.5264 21.0274 38.4136 20.9823 38.3064C21.2566 38.364 21.5419 38.3364 21.8002 38.2274C21.9991 38.1446 22.1701 38.0066 22.2931 37.8297C22.416 37.6528 22.4857 37.4443 22.494 37.229C22.1048 37.4152 21.1515 37.669 21.05 36.7101C20.9484 35.8583 21.6986 35.1419 22.8606 35.4578C23.656 35.6609 24.8179 37.3531 23.7575 38.0864C23.2385 38.4418 22.4432 38.7802 22.5447 39.7053C22.7078 39.4997 22.9213 39.3397 23.1644 39.2409C23.4075 39.1421 23.6721 39.1077 23.9323 39.1412C23.0637 39.7899 22.3924 39.8633 21.4843 40.3596C20.6833 40.8222 20.091 41.6006 19.4706 41.6232C18.9911 41.6232 18.726 41.0591 19.1942 40.636C18.9293 40.6075 18.6623 40.6658 18.4335 40.8022C18.2046 40.9385 18.0261 41.1454 17.925 41.3919C17.8065 41.6336 17.7783 41.9097 17.8455 42.1704C17.9128 42.4311 18.071 42.6592 18.2917 42.8134C17.9761 42.9659 17.7244 43.225 17.581 43.5448C17.4376 43.8647 17.4116 44.2249 17.5076 44.562C17.6994 45.2558 18.3932 45.2558 18.1337 46.1414C18.3148 46.0962 18.4804 46.0033 18.6133 45.8724C18.7463 45.7414 18.8417 45.5772 18.8896 45.3968C18.9087 45.1571 18.9882 44.9262 19.1208 44.7256C19.0984 45.0718 19.1785 45.4169 19.351 45.7178C19.5236 46.0188 19.781 46.2623 20.091 46.4178C20.3892 46.5803 20.7322 46.6412 21.068 46.5913C21.4039 46.5414 21.7144 46.3835 21.9525 46.1414C22.1121 46.5159 22.3799 46.8341 22.7216 47.0552C23.0633 47.2763 23.4634 47.3902 23.8703 47.3824C24.2493 47.3656 24.6171 47.2489 24.9364 47.0439C25.1873 47.6024 25.6238 48.0568 26.1717 48.33C26.7285 48.0598 27.1749 47.6055 27.4352 47.0439C27.7507 47.248 28.1147 47.3647 28.49 47.3824C28.8971 47.3839 29.2955 47.2646 29.6349 47.0397C29.9742 46.8148 30.2393 46.4944 30.3966 46.1189C30.6347 46.3609 30.9451 46.5188 31.281 46.5687C31.6169 46.6186 31.9598 46.5577 32.258 46.3953C32.5677 46.2388 32.825 45.9953 32.9984 45.6947C33.1717 45.3941 33.2535 45.0495 33.2338 44.703C33.3645 44.9042 33.4421 45.1351 33.4595 45.3743C33.5006 45.556 33.5924 45.7224 33.7242 45.8541C33.8559 45.9859 34.0223 46.0777 34.204 46.1189C33.9389 45.2333 34.644 45.2333 34.8245 44.5394C34.9176 44.2044 34.8915 43.8473 34.7505 43.5294C34.6096 43.2115 34.3626 42.9524 34.0517 42.7964C34.2695 42.6398 34.4243 42.4106 34.4884 42.1501C34.5525 41.8896 34.5217 41.6148 34.4014 41.375C34.3033 41.1284 34.1274 40.9205 33.9003 40.7831C33.6733 40.6456 33.4076 40.5861 33.1436 40.6135C33.6117 41.0535 33.3579 41.6232 32.8672 41.6006C32.2467 41.6006 31.6544 40.7996 30.8535 40.3371C29.9453 39.8407 29.2741 39.773 28.4054 39.1187C28.6658 39.0835 28.9309 39.117 29.1743 39.216C29.4177 39.3149 29.631 39.4758 29.793 39.6827C29.8945 38.7577 29.0992 38.4192 28.5803 38.0639C27.5311 37.3306 28.6818 35.6383 29.4884 35.4353C30.6165 35.1194 31.4006 35.8358 31.2878 36.6875C31.1581 37.6464 30.2386 37.3926 29.8212 37.2065C29.8364 37.4178 29.9091 37.6209 30.0314 37.7939C30.1536 37.9669 30.3209 38.1031 30.515 38.1879C30.6838 38.2588 30.865 38.2954 31.0481 38.2954C31.2311 38.2954 31.4123 38.2588 31.5811 38.1879C31.5811 38.2838 31.5529 38.3854 31.5529 38.4136C31.4739 39.2371 31.034 39.3105 31.1863 39.6489C31.3386 39.9874 32.8164 39.852 33.1943 39.9309C33.8656 40.0212 34.4353 40.2694 35.0783 40.3991C35.8034 40.4768 36.5205 40.6164 37.2218 40.8165C37.6336 40.997 38.1074 41.3355 38.5079 41.5386C39.1283 41.6401 39.0268 41.8883 39.4216 41.8883C39.8165 41.8883 39.9124 41.5893 40.3693 41.4596C40.6852 41.3863 41.0349 41.5104 41.3508 41.4088C41.6666 41.3073 41.6836 41.1211 41.9148 40.997C42.1461 40.8729 42.524 40.8391 42.7609 40.6248C42.8187 40.5605 42.8609 40.4839 42.8844 40.4008C42.9079 40.3176 42.912 40.2302 42.8963 40.1453V40.1848C43.3808 39.8342 43.7468 39.3442 43.9455 38.7802C44.0079 38.7679 44.0645 38.7351 44.1064 38.6871C44.1482 38.6392 44.173 38.5787 44.1767 38.5151V38.4643C44.2375 38.4154 44.2867 38.3535 44.3208 38.2833C44.355 38.2131 44.3732 38.1363 44.3742 38.0582C44.3745 37.9709 44.3571 37.8844 44.3232 37.804C44.2893 37.7235 44.2395 37.6508 44.1767 37.59V37.5393C44.1699 37.4513 44.1342 37.368 44.0752 37.3023C43.9722 36.7647 43.7187 36.2673 43.3443 35.8679C42.9699 35.4685 42.4898 35.1835 41.96 35.046V34.9953C41.96 34.9445 41.9317 34.9163 41.8979 34.9163C41.7281 34.766 41.6048 34.5703 41.5425 34.3522C41.7662 34.4731 41.9729 34.6229 42.1574 34.7978V33.3707C41.9728 33.544 41.7661 33.6919 41.5425 33.8107C41.6369 33.5714 41.7878 33.3584 41.9825 33.1902H40.4708C40.6627 33.361 40.8131 33.5732 40.9108 33.8107C40.6864 33.6906 40.4779 33.5428 40.2903 33.3707V34.8261C40.4778 34.6523 40.6862 34.5026 40.9108 34.3804C40.8151 34.6191 40.6643 34.8317 40.4708 35.0009L40.5216 35.0291C39.974 35.1574 39.4755 35.4422 39.0869 35.8489C38.6983 36.2555 38.4363 36.7664 38.333 37.3193C38.294 37.3455 38.2618 37.3807 38.2392 37.4219C38.2167 37.4631 38.2043 37.5092 38.2033 37.5562V37.6069C38.1398 37.6674 38.0891 37.74 38.0542 37.8204C38.0193 37.9009 38.001 37.9875 38.0002 38.0751C38.0041 38.1532 38.0241 38.2296 38.0591 38.2995C38.094 38.3694 38.1431 38.4313 38.2033 38.4813V38.532C38.2 38.5967 38.2215 38.6601 38.2635 38.7094C38.3054 38.7586 38.3646 38.79 38.4289 38.7971C38.4809 38.936 38.5412 39.0716 38.6094 39.2033C38.5565 39.3657 38.4638 39.5122 38.3396 39.6295C38.2154 39.7468 38.0638 39.831 37.8987 39.8745C36.9962 40.0043 35.9978 39.6207 35.0783 39.3105C34.6118 39.1944 34.19 38.9432 33.8656 38.5884C33.7755 38.4792 33.7164 38.3477 33.6946 38.2078C33.6728 38.0678 33.689 37.9246 33.7415 37.7931C33.8794 37.9522 34.0459 38.0842 34.2322 38.1823C34.2463 38.0582 34.2708 37.9356 34.3056 37.8157C34.4181 37.9839 34.5739 38.1188 34.7565 38.2061C34.9391 38.2934 35.1418 38.33 35.3434 38.312C35.1951 38.1258 35.0937 37.9066 35.0475 37.673C35.0014 37.4395 35.012 37.1982 35.0783 36.9695C35.2023 37.1453 35.374 37.282 35.5732 37.3634C35.7723 37.4449 35.9906 37.4677 36.2022 37.4291C36.4139 37.3906 36.6101 37.2923 36.7678 37.1459C36.9254 36.9995 37.0379 36.8111 37.092 36.6029C37.0127 36.6558 36.9225 36.6902 36.8281 36.7037C36.7337 36.7171 36.6375 36.7092 36.5466 36.6805C36.4557 36.6518 36.3723 36.6031 36.3027 36.5379C36.2331 36.4727 36.179 36.3928 36.1444 36.3039C35.9921 35.8583 36.4998 34.7809 36.0429 33.9461C35.8685 33.6248 35.6158 33.3529 35.308 33.1557C35.0003 32.9584 34.6477 32.8422 34.283 32.8179C34.3585 32.7017 34.4014 32.5672 34.4071 32.4287C34.0502 32.6081 33.6373 32.6406 33.2568 32.5194C32.8762 32.3981 32.5582 32.1328 32.3708 31.78C32.5951 31.8598 32.8324 31.8961 33.0702 31.8872C32.2749 31.2329 32.3313 29.3996 32.8954 28.452C32.9687 28.4012 32.9913 28.3505 33.0702 28.3223C33.2451 28.6776 33.764 28.6776 34.0292 28.9709C34.1095 28.8928 34.1943 28.8194 34.283 28.751C34.283 28.751 34.283 30.257 34.4071 30.8775C34.5312 31.498 35.1855 31.498 35.5352 31.8026C35.9413 31.357 36.6634 31.3852 36.5618 30.6124C36.4603 29.8396 36.308 29.1458 36.2798 28.6269C36.5111 29.095 36.951 30.8832 37.1315 31.357C37.4079 32.1072 38.1299 31.8816 38.5361 32.1523C38.8012 31.6334 39.4668 31.4811 39.2017 30.697C39.1283 30.4939 38.0284 28.1812 37.8648 27.7356C38.254 28.2997 39.3201 30.3416 39.6473 30.9114C39.9744 31.4811 40.6852 31.216 41.1646 31.3683C41.2549 30.9396 41.8979 30.4432 41.4297 29.676C40.8657 28.6889 39.4442 26.9685 39.3709 26.7259C39.6473 26.991 41.8077 29.676 41.9769 29.8283C42.4789 30.2683 43.2122 29.9242 43.6691 29.9242C43.6691 29.4335 44.0583 28.8807 43.4942 28.311C42.9301 27.7413 41.802 26.9685 41.5313 26.6752C42.3266 27.2392 43.2629 28.091 43.7875 28.232C44.0734 28.3113 44.3732 28.3266 44.6657 28.2769C44.9582 28.2272 45.2361 28.1136 45.4797 27.9443C45.1751 27.0418 45.5756 26.63 43.4886 25.7557C45.2992 26.3988 46.0946 26.0829 46.7376 25.5752C46.4613 24.9737 45.9646 24.5012 45.35 24.2553C45.8001 24.2774 46.2485 24.1856 46.6538 23.9884C47.059 23.7912 47.408 23.495 47.6683 23.1271C47.1198 22.5136 46.3518 22.1407 45.5305 22.0892C46.8955 21.8974 47.9842 21.0513 48.1252 20.0642ZM6.23754 26.6921C6.23754 26.6921 6.23754 26.6921 6.19242 26.7428C6.04012 26.7428 6.04012 26.5398 6.06268 26.3875C6.09545 26.3891 6.12816 26.3833 6.15842 26.3706C6.18867 26.3579 6.21571 26.3386 6.23754 26.3141L6.16421 26.3649C6.21498 26.5116 6.21498 26.5905 6.23754 26.6921ZM6.73392 27.7525L6.48009 27.6059C6.49585 27.5814 6.51654 27.5606 6.54083 27.5446C6.56513 27.5286 6.59249 27.5179 6.62117 27.5131C6.64984 27.5084 6.6792 27.5096 6.70736 27.5169C6.73552 27.5241 6.76186 27.5371 6.78469 27.5551C6.78967 27.5897 6.78775 27.625 6.77904 27.6589C6.77033 27.6928 6.75499 27.7246 6.73392 27.7525ZM7.47849 26.1731H7.37696H7.51234C7.50108 26.1742 7.48975 26.1742 7.47849 26.1731ZM21.8227 44.6523C21.2023 44.6523 20.7623 44.263 21.0782 43.7159C21.1723 43.832 21.2897 43.927 21.4228 43.995C21.5559 44.063 21.7017 44.1024 21.8509 44.1107C21.8285 44.2903 21.819 44.4713 21.8227 44.6523ZM31.2596 43.7159C31.5755 44.28 31.1355 44.6523 30.515 44.6523C30.5236 44.4628 30.5065 44.2731 30.4643 44.0882C30.6157 44.0865 30.7651 44.0525 30.9023 43.9882C31.0395 43.924 31.1613 43.8312 31.2596 43.7159ZM21.8002 10.2323C23.1007 9.95302 24.3072 9.34297 25.303 8.46114C25.8671 8.48934 26.5327 8.49498 27.0573 8.46114C28.0433 9.34234 29.2434 9.94921 30.5376 10.2211C29.714 10.2211 28.2813 10.1477 28.1008 9.94466C28.1516 10.4636 29.2289 11.0728 29.9679 11.2082C29.4188 11.2902 28.8578 11.2159 28.349 10.9938C28.5813 11.3889 28.9445 11.6902 29.3756 11.8456C29.0478 12.1881 28.6446 12.4496 28.1981 12.6092C27.7517 12.7688 27.2741 12.8221 26.8035 12.765C26.9439 12.9219 27.119 13.0439 27.3148 13.1213C27.5107 13.1986 27.7218 13.2292 27.9316 13.2107C26.9705 14.6235 26.363 16.2466 26.1604 17.9433C25.9769 16.2405 25.3847 14.6072 24.4344 13.1825C24.6446 13.2067 24.8575 13.1787 25.0543 13.101C25.2511 13.0233 25.4256 12.8982 25.5625 12.7368C25.0895 12.8043 24.6072 12.7587 24.1552 12.6038C23.7032 12.4489 23.2943 12.1891 22.9622 11.8456C23.3881 11.7019 23.751 11.4148 23.9888 11.0333C23.4803 11.2566 22.9189 11.3309 22.3699 11.2477C23.0919 11.0841 24.2031 10.5031 24.2539 9.98415C24.0621 10.1534 22.6237 10.2323 21.8002 10.2323ZM8.82661 25.7952L8.41484 25.9475L8.82661 25.7952ZM17.925 32.4231C17.9352 32.5616 17.9798 32.6954 18.0548 32.8123C17.6919 32.8352 17.341 32.951 17.0358 33.1485C16.7306 33.3461 16.4813 33.6188 16.3118 33.9405C15.8154 34.7753 16.3118 35.8527 16.1933 36.2983C16.1587 36.3871 16.1046 36.4671 16.035 36.5323C15.9654 36.5974 15.8821 36.6462 15.7912 36.6749C15.7002 36.7035 15.604 36.7115 15.5096 36.698C15.4152 36.6846 15.325 36.6502 15.2457 36.5972C15.2998 36.8055 15.4123 36.9939 15.57 37.1403C15.7276 37.2867 15.9239 37.3849 16.1355 37.4235C16.3472 37.462 16.5654 37.4392 16.7646 37.3578C16.9637 37.2764 17.1354 37.1397 17.2594 36.9639C17.3331 37.1993 17.3485 37.4491 17.3043 37.6918C17.2601 37.9345 17.1576 38.1629 17.0056 38.3572C17.2045 38.3721 17.4037 38.334 17.5831 38.2468C17.7624 38.1596 17.9154 38.0264 18.0266 37.8608C18.0712 37.9783 18.0978 38.1019 18.1055 38.2274C18.2949 38.1341 18.4623 38.0014 18.5963 37.8382C18.6595 38.0507 18.6692 38.2755 18.6245 38.4925C18.3927 38.6432 18.1515 38.7788 17.9025 38.8987C17.264 39.2125 16.5896 39.4473 15.8944 39.5981C15.6027 39.6364 15.3064 39.579 15.0501 39.4346C14.7938 39.2902 14.5913 39.0665 14.4729 38.7971C14.2981 38.2331 13.8073 38.0187 13.4125 38.3797C13.337 38.3271 13.245 38.3038 13.1536 38.3142C13.0623 38.3246 12.9778 38.368 12.9161 38.4361C12.8485 38.2822 12.755 38.1411 12.6397 38.0187C12.7001 37.8778 12.7078 37.7198 12.6611 37.5737C12.6145 37.4276 12.5168 37.3032 12.3859 37.2234C12.3859 36.6255 11.9967 36.6255 11.8669 36.4224C11.7372 36.2193 11.7936 36.1404 11.9741 36.1178C11.9431 36.0793 11.9046 36.0474 11.861 36.0242C11.8174 36.0009 11.7695 35.9867 11.7203 35.9824C11.7563 35.8441 11.7384 35.6973 11.6704 35.5717C11.6023 35.4461 11.4891 35.3509 11.3536 35.3055L8.3528 29.1007C8.39382 29.0567 8.42358 29.0035 8.43953 28.9455C8.45549 28.8875 8.45716 28.8265 8.44441 28.7678C8.43166 28.709 8.40486 28.6542 8.36632 28.6081C8.32777 28.5619 8.27861 28.5258 8.22306 28.5028V28.4576C8.22924 28.4165 8.22924 28.3747 8.22306 28.3335L8.48817 28.2771C9.05224 28.1361 10.0055 27.2674 10.8065 26.7203C10.5245 27.0136 9.36248 27.8484 8.84354 28.3561C8.32459 28.8638 8.5615 29.315 8.64047 29.7437L8.75328 29.9863C9.19326 30.0145 9.85322 30.2796 10.344 29.8735C10.5019 29.7212 12.6623 27.0531 12.9499 26.771C12.8428 27.0136 11.4721 28.734 10.8573 29.7212C10.3947 30.4657 11.0716 30.9621 11.1449 31.4134C11.6357 31.2611 12.3126 31.5488 12.6623 30.9565C13.012 30.3642 14.0555 28.3505 14.4447 27.7807C14.2924 28.2264 13.1812 30.5391 13.1079 30.7421C12.8428 31.5262 13.5084 31.6785 13.7791 32.1975C14.1796 31.9098 14.9073 32.1354 15.1949 31.3852C15.3698 30.8832 15.8154 29.1289 16.041 28.6551C16.041 29.174 15.8662 29.8678 15.7646 30.6406C15.6631 31.4134 16.3851 31.3852 16.763 31.8308C17.1297 31.5262 17.8009 31.6052 17.8912 30.9057C17.9814 30.2063 18.0209 28.7792 18.0209 28.7792C18.1224 28.8694 18.1732 28.892 18.286 28.9991C18.5399 28.7058 19.0588 28.7058 19.2337 28.3505C19.3126 28.3505 19.3352 28.4294 19.4142 28.4802C19.9782 29.4278 20.029 31.2611 19.2337 31.9098C19.4696 31.9173 19.7048 31.881 19.9275 31.8026C19.6116 32.4964 18.8275 32.7503 17.925 32.4231ZM23.5319 41.0873C23.0631 41.6652 22.6829 42.3097 22.4037 42.9995C21.8397 42.9431 21.9638 42.2775 22.1386 41.9334C22.5053 41.2622 24 40.3935 24.7446 39.5192C24.3776 40.0697 23.9724 40.5937 23.5319 41.0873ZM25.1507 42.3057C24.8328 43.5181 24.6922 44.7702 24.7333 46.023C23.6842 45.4589 24.2764 43.3662 24.6826 42.458C25.2107 41.2459 25.5767 39.9695 25.7712 38.6618C26.1266 39.3838 25.3707 41.4765 25.1507 42.3057ZM27.6044 46.023C27.6514 44.77 27.5107 43.517 27.187 42.3057C26.967 41.5047 26.245 39.412 26.5665 38.6618C26.7584 39.9701 27.1245 41.2469 27.6552 42.458C28.0613 43.338 28.6536 45.4476 27.6044 45.9948V46.023ZM30.2104 41.9616C30.3853 42.3057 30.4925 42.9713 29.9453 43.0277C29.6602 42.3408 29.2805 41.6972 28.8172 41.1155C28.3686 40.6272 27.9611 40.1027 27.5988 39.5474C28.349 40.3935 29.8438 41.2622 30.2104 41.9334V41.9616ZM30.075 32.88C29.0764 34.7055 27.7515 36.3325 26.1661 37.6803C24.5764 36.3352 23.2492 34.7077 22.2514 32.88C20.9488 30.102 20.1705 27.1073 19.9557 24.0466C19.8742 23.0835 19.9913 22.114 20.2998 21.198C21.3449 21.1312 22.3786 20.9419 23.3796 20.6339C24.3901 20.2169 25.3301 19.6461 26.1661 18.9417C26.9993 19.6499 27.9399 20.2211 28.9525 20.6339C29.9534 20.9424 30.9871 21.1317 32.0324 21.198C32.3364 22.1149 32.4515 23.0839 32.3708 24.0466C32.1505 27.1064 31.3725 30.1001 30.075 32.88Z" fill="#626A73"/>
</svg>
