<svg width="150" height="24" viewBox="0 0 150 24" fill="none" xmlns="http://www.w3.org/2000/svg">
  <path fill-rule="evenodd" clip-rule="evenodd" d="M97.9412 0.637451H85.6986C85.5406 0.637451 85.4616 0.717187 85.4616 0.876658C85.1457 6.45815 84.1189 12.518 82.6182 17.3819V17.5414C82.6971 17.6211 82.7761 17.6211 82.8551 17.6211H87.1203C87.1993 17.6211 87.3573 17.5414 87.3573 17.4617C88.542 13.7141 89.4898 8.69074 89.8058 4.54449H93.834V17.4617C93.834 17.6211 93.913 17.7009 94.071 17.7009H98.0992C98.2572 17.7009 98.3361 17.6211 98.3361 17.4617V0.876658C98.1782 0.717187 98.0992 0.637451 97.9412 0.637451Z" fill="#EE3F58"/>
  <path fill-rule="evenodd" clip-rule="evenodd" d="M149.835 0.637451H145.806C145.648 0.637451 145.569 0.717187 145.569 0.876658V13.7141C144.701 13.9533 143.832 14.033 142.805 14.033C140.119 14.033 139.567 13.2357 139.567 9.64757V0.876658C139.567 0.717187 139.488 0.637451 139.33 0.637451H135.301C135.143 0.637451 135.064 0.717187 135.064 0.876658V10.126C135.064 15.8669 136.96 18.1793 141.936 18.1793C144.701 18.1793 147.939 17.4617 149.756 16.744C149.835 16.744 149.914 16.5846 149.914 16.5048V0.876658C150.072 0.717187 149.993 0.637451 149.835 0.637451Z" fill="#EE3F58"/>
  <path fill-rule="evenodd" clip-rule="evenodd" d="M64.9252 0.718553H60.818C60.6601 0.718553 60.5811 0.798289 60.5811 0.878024C59.9492 3.42956 58.6854 7.73528 56.8688 12.2005L52.8406 0.718553C52.8406 0.638818 52.6826 0.559082 52.6036 0.559082H48.4964C48.4174 0.559082 48.3384 0.638818 48.2594 0.638818C48.1804 0.718553 48.1804 0.798289 48.2594 0.878024L54.4992 17.7819C53.8674 19.0577 53.2355 20.174 52.7616 21.2106C52.3666 21.9282 51.9717 22.7255 51.4978 23.5229C51.4188 23.6026 51.4978 23.6824 51.4978 23.7621C51.5768 23.8418 51.6558 23.9216 51.7348 23.9216H56.1579C56.2369 23.9216 56.3159 23.8418 56.3949 23.7621C57.1057 22.3269 58.1325 20.2537 59.0014 18.1806C61.6079 11.9613 63.7405 6.2203 65.2412 0.878024C65.2412 0.798289 65.2412 0.718553 65.1622 0.638818C65.0832 0.718553 65.0042 0.718553 64.9252 0.718553Z" fill="#EE3F58"/>
  <path fill-rule="evenodd" clip-rule="evenodd" d="M79.5381 13.7145C79.5381 13.6348 79.4592 13.555 79.3802 13.555H79.1432C78.1954 13.874 76.3787 14.2727 75.036 14.2727C72.2715 14.2727 70.9288 13.555 70.9288 9.16959C70.9288 5.74096 71.3237 4.06651 75.036 4.06651C76.0628 4.06651 77.0896 4.22598 78.2744 4.62466C78.4324 4.62466 78.5113 4.62466 78.5113 4.46519C78.9852 3.5881 79.5381 2.55154 80.17 1.19603V0.956826C80.17 0.877091 80.091 0.797355 80.0121 0.797355C78.3534 0.239207 76.3787 0 74.7201 0C68.9542 0 66.3477 2.71101 66.3477 9.01012C66.3477 15.389 68.9542 18.1797 74.799 18.1797C76.2208 18.1797 79.1432 17.8608 80.5649 17.3026C80.7229 17.2229 80.7229 17.1431 80.7229 17.0634C80.7229 16.9837 79.5381 13.7145 79.5381 13.7145Z" fill="#EE3F58"/>
  <path fill-rule="evenodd" clip-rule="evenodd" d="M117.688 0.717187H113.581C113.502 0.717187 113.344 0.796922 113.344 0.876658C112.712 3.42819 111.448 7.73391 109.631 12.1991L105.524 0.796922C105.524 0.717187 105.366 0.637451 105.287 0.637451H101.18C101.101 0.637451 101.022 0.717187 100.943 0.717187C100.864 0.796922 100.864 0.876658 100.943 0.956393L107.104 17.8603C106.472 19.1361 105.84 20.1727 105.366 21.2889C104.971 22.0066 104.576 22.8039 104.102 23.6013C104.023 23.681 104.102 23.7607 104.102 23.8405C104.181 23.9202 104.26 24 104.339 24H108.763C108.842 24 108.92 23.9202 108.999 23.8405C109.71 22.4052 110.737 20.3321 111.606 18.259C114.212 12.0396 116.345 6.29867 117.846 0.956393C117.846 0.876658 117.846 0.796922 117.767 0.717187H117.688Z" fill="#EE3F58"/>
  <path fill-rule="evenodd" clip-rule="evenodd" d="M132.694 0.637451H120.846C120.688 0.637451 120.609 0.717187 120.609 0.876658V17.4617C120.609 17.6211 120.688 17.7009 120.846 17.7009H124.875C125.033 17.7009 125.112 17.6211 125.112 17.4617V4.62423H131.351C131.43 4.62423 131.588 4.54449 131.588 4.46476C132.062 3.34846 132.536 2.15243 133.01 0.956393V0.717187C132.773 0.717187 132.773 0.637451 132.694 0.637451Z" fill="#EE3F58"/>
  <path fill-rule="evenodd" clip-rule="evenodd" d="M13.2695 9.17003C13.2695 2.63171 15.5601 0.159912 21.326 0.159912C27.1709 0.159912 29.4614 2.71145 29.4614 9.17003C29.4614 15.7083 27.1709 18.2599 21.326 18.2599C15.4811 18.2599 13.2695 15.7881 13.2695 9.17003ZM17.8499 9.24981C17.8499 13.715 18.6397 14.4326 21.3252 14.4326C24.0107 14.4326 24.8795 13.715 24.8795 9.24981C24.8795 4.46568 23.9317 4.067 21.3252 4.067C18.7187 4.067 17.8499 4.46568 17.8499 9.24981Z" fill="#0F67B1"/>
  <path fill-rule="evenodd" clip-rule="evenodd" d="M45.4169 13.7144C45.4169 13.6346 45.3379 13.5549 45.2589 13.5549H45.022C44.0742 13.8738 42.2575 14.2725 40.9148 14.2725C38.1503 14.2725 36.8076 13.5549 36.8076 9.16944C36.8076 5.74081 37.2025 4.06637 40.9148 4.06637C41.9416 4.06637 42.9684 4.22584 44.1532 4.62451C44.2321 4.62451 44.3901 4.62452 44.3901 4.46504C44.864 3.58795 45.4169 2.55139 46.0488 1.19589V0.956681C46.0488 0.876945 45.9698 0.79721 45.8908 0.79721C44.3111 0.318796 42.3365 0.0795898 40.5988 0.0795898C34.754 0.0795898 32.1475 2.7906 32.1475 9.0897C32.1475 15.4685 34.754 18.2593 40.5988 18.2593C42.0206 18.2593 44.943 17.9403 46.3647 17.3822C46.5227 17.3025 46.5227 17.2227 46.5227 17.143C46.6807 17.0633 45.4169 13.7144 45.4169 13.7144Z" fill="#0F67B1"/>
  <path fill-rule="evenodd" clip-rule="evenodd" d="M12.0847 0.63916H0.236955C0.0789848 0.63916 0 0.718896 0 0.878367V17.4634C0 17.6228 0.0789848 17.7026 0.236955 17.7026H4.26518C4.42315 17.7026 4.50214 17.6228 4.50214 17.4634V4.62594H10.7419C10.8209 4.62594 10.8999 4.5462 10.9789 4.46647C11.4528 3.35017 11.9267 2.15414 12.4006 0.958102V0.718896C12.2427 0.718896 12.1637 0.63916 12.0847 0.63916Z" fill="#0F67B1"/>
</svg>
