<svg width="44" height="44" viewBox="0 0 44 44" fill="none" xmlns="http://www.w3.org/2000/svg">
<path d="M24.5 2.28867C22.953 1.39551 21.047 1.39551 19.5 2.28868L6.17949 9.97927C4.63249 10.8724 3.67949 12.5231 3.67949 14.3094V29.6906C3.67949 31.4769 4.63249 33.1276 6.17949 34.0207L19.5 41.7113C21.047 42.6045 22.953 42.6045 24.5 41.7113L37.8205 34.0207C39.3675 33.1276 40.3205 31.4769 40.3205 29.6906V14.3094C40.3205 12.5231 39.3675 10.8724 37.8205 9.97927L24.5 2.28867Z" fill="#EE3F58" stroke="white" stroke-width="2"/>
<path fill-rule="evenodd" clip-rule="evenodd" d="M24.0002 3.15467C22.7626 2.44014 21.2378 2.44014 20.0002 3.15467L6.67969 10.8453C5.44208 11.5598 4.67969 12.8803 4.67969 14.3094V21.9999H39.3207V14.3094C39.3207 12.8803 38.5583 11.5598 37.3207 10.8453L24.0002 3.15467Z" fill="#0D4CD3"/>
<path d="M20 7.1547C21.2376 6.44017 22.7624 6.44017 24 7.1547L33.8564 12.8453C35.094 13.5598 35.8564 14.8803 35.8564 16.3094V27.6906C35.8564 29.1197 35.094 30.4402 33.8564 31.1547L24 36.8453C22.7624 37.5598 21.2376 37.5598 20 36.8453L10.1436 31.1547C8.90599 30.4402 8.14359 29.1197 8.14359 27.6906V16.3094C8.14359 14.8803 8.90599 13.5598 10.1436 12.8453L20 7.1547Z" fill="white"/>
</svg>
