<svg width="24" height="24" viewBox="0 0 24 24" fill="none" xmlns="http://www.w3.org/2000/svg">
<path d="M24 0H0V24H24V0Z" fill="white"/>
<path d="M19.5 21.2503C19.5 18.0603 17.44 15.3303 14.59 14.2803L11.73 17.1503L9 14.4503C6.36 15.6003 4.5 18.2203 4.5 21.2603" stroke="#66727F" stroke-width="1.5" stroke-miterlimit="10" stroke-linecap="round" stroke-linejoin="round"/>
<path d="M8.58984 7.37707C10.5998 6.46708 12.8998 6.46708 14.9098 7.37707" stroke="#66727F" stroke-width="1.5" stroke-miterlimit="10" stroke-linecap="round" stroke-linejoin="round"/>
<path d="M11.75 11.9472C10.13 11.9472 8.51 10.7172 8.51 8.25721L8.5 7.89721C8.5 6.76721 8.59 5.51721 9.52 4.27721C10.9 3.50721 12.59 3.50721 13.97 4.27721C14.9 5.51721 15 6.75721 15 7.89721L14.99 8.25721C14.99 10.7172 13.37 11.9472 11.75 11.9472Z" stroke="#66727F" stroke-width="1.5" stroke-miterlimit="10" stroke-linecap="round" stroke-linejoin="round"/>
</svg>
