<svg width="14" height="25" viewBox="0 0 14 25" fill="none" xmlns="http://www.w3.org/2000/svg">
<path d="M6.94271 5C8.17959 5 9.18229 3.88071 9.18229 2.5C9.18229 1.11929 8.17959 0 6.94271 0C5.70582 0 4.70312 1.11929 4.70312 2.5C4.70312 3.88071 5.70582 5 6.94271 5Z" fill="black"/>
<path d="M13.7468 11.4918L11.4214 6.89185C11.0912 6.23955 10.4726 5.83545 9.80141 5.8335H4.08304C3.41108 5.83628 2.79235 6.24209 2.46306 6.896L0.145089 11.4793C-0.159179 12.0804 0.0306607 12.8429 0.569123 13.1826C0.569604 13.1829 0.570129 13.1832 0.57061 13.1835C1.10794 13.5178 1.78624 13.3058 2.08981 12.7085L4.1801 8.3335H4.85946L1.38062 16.4876C1.29196 16.6954 1.371 16.944 1.55712 17.043C1.60694 17.0695 1.6614 17.0834 1.71656 17.0835H4.32939V23.7502C4.32939 24.4405 4.83076 25.0002 5.44918 25.0002C6.06761 25.0002 6.56898 24.4406 6.56898 23.7502V17.0835H7.31552V23.7502C7.31552 24.4405 7.81689 25.0002 8.43531 25.0002C9.05373 25.0002 9.5551 24.4406 9.5551 23.7502V17.0835H12.1679C12.3741 17.0829 12.5407 16.8958 12.5401 16.6657C12.54 16.6042 12.5276 16.5434 12.5039 16.4877L9.02504 8.33359H9.70439L11.7947 12.7169C12.103 13.3154 12.7876 13.5214 13.3237 13.1772C13.8523 12.8377 14.0404 12.0885 13.7468 11.4918Z" fill="black"/>
</svg>
