<svg width="281" height="321" viewBox="0 0 281 321" fill="none" xmlns="http://www.w3.org/2000/svg">
  <g id="Frame 1341">
    <rect width="280" height="321" rx="8" fill="#E5EAF5"/>
    <rect id="Rectangle 1160" x="1" y="1" width="279" height="319" rx="7" stroke="#99B1E6" stroke-width="2" stroke-dasharray="8 8"/>
    <g id="Frame 277133365">
      <path id="Vector 836" d="M54.3629 200.684H1V312C1 316.418 4.58173 320 9.00001 320H271C275.418 320 279 316.418 279 312V60L187.136 151.187C184.055 154.245 179.098 154.288 175.964 151.284L145.635 122.214C142.47 119.18 137.451 119.259 134.383 122.393L60.0791 198.281C58.5742 199.818 56.5139 200.684 54.3629 200.684Z" fill="white"/>
      <ellipse id="Ellipse 292" cx="56.5" cy="60" rx="28.5" ry="29" fill="white"/>
    </g>
    <rect id="Rectangle 1159" x="1" y="1" width="279" height="319" rx="7" stroke="#99B1E6" stroke-width="2" stroke-dasharray="8 8"/>
  </g>
</svg>
