<svg width="18" height="23" viewBox="0 0 18 23" fill="none" xmlns="http://www.w3.org/2000/svg">
<path d="M8.91683 13.7543C9.6274 13.7543 10.1081 14.0885 10.129 14.1041L10.1394 14.1146L10.1499 14.125C10.3902 14.3339 10.6985 14.4435 11.0172 14.4435C11.1896 14.4435 11.362 14.407 11.524 14.3443C11.989 14.1511 12.3025 13.723 12.3443 13.2165L12.3495 13.1852L12.36 13.1539C12.569 12.402 13.0183 11.9844 13.3579 11.7651C13.7341 11.5197 14.0685 11.4622 14.0842 11.4622H14.0998H14.1155C14.6171 11.4205 15.0507 11.1072 15.2441 10.6477C15.4374 10.1831 15.3538 9.65573 15.0246 9.27459L15.0037 9.24848L14.988 9.21716C14.6902 8.6846 14.591 8.11028 14.7059 7.55162C14.7947 7.11304 14.9828 6.83632 15.0037 6.81021L15.0142 6.79977L15.0246 6.78933C15.3538 6.40297 15.4374 5.87563 15.2441 5.41095C15.0507 4.94627 14.6223 4.633 14.1155 4.59123L14.0842 4.58601L14.0528 4.57557C12.6055 4.16832 12.3704 2.91525 12.36 2.85782L12.3547 2.84216V2.82649C12.3129 2.31482 11.9995 1.88147 11.5345 1.68828C11.3725 1.62041 11.2001 1.58386 11.0276 1.58386C10.7142 1.58386 10.4059 1.69873 10.1603 1.90235L10.1342 1.92324L10.1029 1.9389C9.71622 2.15819 9.30869 2.26783 8.89593 2.26783C8.60334 2.26783 8.30553 2.2104 8.03907 2.10075C7.83007 2.01722 7.69945 1.92846 7.66811 1.90235L7.66288 1.89713C7.42254 1.69873 7.11428 1.58386 6.80079 1.58386C6.62837 1.58386 6.45595 1.62041 6.29398 1.68306C5.82898 1.87625 5.51549 2.30438 5.47369 2.80561L5.46847 2.83693L5.45802 2.86826C5.24903 3.6201 4.79969 4.03779 4.46531 4.25708C4.09957 4.49203 3.77563 4.55469 3.73906 4.55991L3.72339 4.56513H3.70771C3.20613 4.61212 2.77247 4.92539 2.57915 5.39007C2.38584 5.85475 2.46943 6.37686 2.7986 6.76322L2.8195 6.78933L2.83517 6.82066C3.13298 7.34799 3.23225 7.92232 3.12253 8.47576C3.04416 8.87778 2.87697 9.14928 2.82995 9.22238L2.8195 9.24326L2.80382 9.25893C2.47466 9.64007 2.39106 10.1674 2.58438 10.6321C2.7777 11.0968 3.20613 11.41 3.70771 11.4518L3.73906 11.457L3.77041 11.4675C4.51755 11.6763 4.93554 12.1201 5.15498 12.4543C5.40577 12.8406 5.46324 13.1748 5.46324 13.1904V13.2061V13.2218C5.50504 13.7282 5.8133 14.1563 6.27831 14.3495C6.44028 14.4174 6.6127 14.454 6.78512 14.454C7.10383 14.454 7.40687 14.3391 7.65243 14.1355L7.67856 14.1146L7.7099 14.0989C8.10176 13.864 8.50407 13.7543 8.91683 13.7543Z" stroke="#66727F" stroke-width="1.5"/>
<path fill-rule="evenodd" clip-rule="evenodd" d="M9.46977 13.8222C9.30836 13.7822 9.1222 13.7543 8.91684 13.7543C8.50409 13.7543 8.10178 13.8639 7.70992 14.0989L7.67857 14.1145L7.67418 14.118L5.28583 19.2095L4.56726 17.7136C4.41377 17.3941 4.05754 17.2257 3.71319 17.3098L2.11097 17.7013L4.78147 12.0167C4.54251 11.7988 4.21465 11.5916 3.77042 11.4674L3.73907 11.457L3.70772 11.4518C3.60721 11.4434 3.50963 11.4241 3.41629 11.3949L0.0863179 18.4834C-0.0365025 18.7448 0.00173863 19.0536 0.184635 19.2771C0.367531 19.5007 0.662572 19.5994 0.943175 19.5308L3.47851 18.9113L4.61785 21.2831C4.74325 21.5441 5.00774 21.7096 5.29734 21.7083C5.58695 21.707 5.8499 21.539 5.97289 21.2768L9.46977 13.8222Z" fill="#66727F"/>
<path fill-rule="evenodd" clip-rule="evenodd" d="M10.1286 14.104C10.1077 14.0884 9.62704 13.7542 8.91647 13.7542C8.7653 13.7542 8.61553 13.7689 8.46716 13.7991L11.9461 22.3919C12.0545 22.6596 12.307 22.8413 12.5953 22.859C12.8836 22.8767 13.1565 22.7273 13.2968 22.4748L14.5429 20.2328L17.014 20.9948C17.2907 21.0801 17.5919 20.9985 17.7877 20.7851C17.9834 20.5717 18.0388 20.2646 17.93 19.9962L14.4417 11.394C14.3376 11.4296 14.2281 11.4527 14.1151 11.4621H14.0995H14.0838C14.0681 11.4621 13.7337 11.5196 13.3575 11.765C13.2656 11.8243 13.1656 11.8983 13.0645 11.9894L15.9463 19.0959L14.4037 18.6202C14.065 18.5158 13.6994 18.6627 13.5272 18.9726L12.7478 20.3749L10.249 14.203C10.2147 14.1788 10.1815 14.1527 10.1495 14.1249L10.1391 14.1145L10.1286 14.104Z" fill="#66727F"/>
<circle cx="9" cy="7.99988" r="2.25" stroke="#66727F" stroke-width="1.5"/>
</svg>
