<svg width="24" height="24" viewBox="0 0 24 24" fill="none" xmlns="http://www.w3.org/2000/svg">
<path d="M11.8624 6.23816H16.3973C16.4901 6.66995 16.62 7.73173 16.62 8.17768C16.62 11.1365 14.4918 13.5715 11.9057 13.5715C9.31964 13.5715 7.19141 11.1365 7.19141 8.17768C7.19141 7.71049 7.30895 6.69118 7.41413 6.23816H11.8624V6.23816Z" stroke="#66727F" stroke-width="1.8" stroke-miterlimit="10"/>
<path d="M16.6135 6.23811H7.19141V1.6044C7.19141 1.26681 7.51586 1 7.91169 1H15.8997C16.2955 1 16.62 1.26681 16.62 1.6044V6.23811H16.6135Z" stroke="#66727F" stroke-width="1.8" stroke-miterlimit="10"/>
<path d="M17.3433 15.9647C17.098 15.7007 16.6756 15.6516 16.3623 15.8419C15.1019 16.6093 13.5759 17.7389 11.9408 17.7389C10.2649 17.7389 8.71159 16.5909 7.42399 15.7867C7.11061 15.5902 6.68141 15.6393 6.43615 15.9033L3.17287 19.4271C2.90036 19.7218 2.95486 20.17 3.30231 20.4033C5.714 22.0363 8.71159 23.0001 11.9544 23.0001C15.1496 23.0001 18.1063 22.0608 20.5044 20.4708C20.8518 20.2375 20.9131 19.7955 20.6338 19.4947L17.3433 15.9647Z" stroke="#66727F" stroke-width="1.8" stroke-miterlimit="10"/>
</svg>
