<svg width="24" height="24" viewBox="0 0 24 24" fill="none" xmlns="http://www.w3.org/2000/svg">
<path d="M23.204 3.12442L22.497 2.26965C21.2809 0.788031 19.0749 0.56009 17.6043 1.81376L10.336 7.8542C9.71384 8.36706 7.59275 10.5325 5.75446 12.641C3.35056 15.4047 2.47384 16.8579 2.389 17.7696L0.550715 19.3082C-0.0997538 19.8496 -0.184598 20.8183 0.352746 21.4452C0.89009 22.1005 1.85165 22.186 2.47384 21.6446L4.31212 20.106C5.21712 20.1915 6.80087 19.5931 9.94009 17.7411C12.344 16.3165 14.861 14.6069 15.4832 14.0941L22.7515 8.05364C24.2221 6.82846 24.4201 4.60604 23.204 3.12442ZM14.2106 12.5555C12.9662 13.6097 6.43322 17.7981 4.73634 18.083L4.45353 17.7126C5.07572 16.0886 10.3643 10.4185 11.6087 9.3643L18.877 3.32387C19.4992 2.78251 20.4607 2.89648 20.9981 3.52332L21.7051 4.3781C22.2424 5.00494 22.1293 5.97368 21.5071 6.51504L14.2106 12.5555ZM14.0409 9.87717L14.1823 10.0481C14.5782 10.5325 15.2852 10.5895 15.766 10.1906L18.9335 7.54078C19.4143 7.14188 19.4709 6.42957 19.0749 5.94519L18.9618 5.80273C18.5659 5.31836 17.8588 5.26137 17.3781 5.66027L14.2106 8.31008C13.7298 8.68048 13.6449 9.3928 14.0409 9.87717Z" fill="#66727F"/>
</svg>
