<svg width="24" height="24" viewBox="0 0 24 24" fill="none" xmlns="http://www.w3.org/2000/svg">
<path fill-rule="evenodd" clip-rule="evenodd" d="M3.5 7.47227V17C3.5 17.8284 4.17157 18.5 5 18.5H19C19.8284 18.5 20.5 17.8284 20.5 17V7.47227L12.5057 14.7726C12.2193 15.0341 11.7807 15.0341 11.4943 14.7726L3.5 7.47227ZM20.4353 5.50002H3.5647L12 13.2031L20.4353 5.50002ZM2 5.00002C2 4.44773 2.44772 4.00002 3 4.00002H21C21.5523 4.00002 22 4.44773 22 5.00002V17C22 18.6569 20.6569 20 19 20H5C3.34315 20 2 18.6569 2 17V5.00002Z" fill="#0B1F33"/>
</svg>
