<svg width="24" height="24" viewBox="0 0 24 24" fill="none" xmlns="http://www.w3.org/2000/svg">
<path fill-rule="evenodd" clip-rule="evenodd" d="M20.5 18.1599V4.66746L16.5708 5.81299C15.8029 6.03688 14.9891 6.05202 14.2134 5.85685L9.01144 4.54811C8.76966 4.48729 8.51653 4.48768 8.27494 4.54927L3.5 5.76647V19.3119L7.27272 18.1334C8.07938 17.8814 8.9407 17.8616 9.75805 18.0764L14.9767 19.4476C15.2302 19.5142 15.4966 19.5132 15.7496 19.4448L20.5 18.1599ZM21.2611 19.5079L16.1412 20.8928C15.6353 21.0296 15.1024 21.0315 14.5956 20.8984L9.37687 19.5272C8.83196 19.384 8.25775 19.3971 7.71998 19.5651L3.29817 20.9464C2.65426 21.1476 2 20.6665 2 19.9919V5.37794C2 4.9208 2.31 4.52185 2.75298 4.40893L7.90442 3.09575C8.3876 2.97258 8.89386 2.97179 9.37742 3.09344L14.5794 4.40218C15.0965 4.53229 15.639 4.5222 16.151 4.37294L20.7201 3.04084C21.3601 2.85426 22 3.33425 22 4.00087V18.5426C22 18.9943 21.6972 19.39 21.2611 19.5079ZM9.23245 11.8508C10.203 10.6343 10.5 10.0142 10.5 9.35753C10.5 8.60012 9.82843 7.98612 9 7.98612C8.17157 7.98612 7.5 8.60012 7.5 9.35753C7.5 10.1222 7.80363 10.6426 8.76829 11.8502C8.8869 11.9986 9.11394 11.9994 9.23245 11.8508Z" fill="#0D4CD3"/>
</svg>
