<svg width="272" height="312" viewBox="0 0 272 312" fill="none" xmlns="http://www.w3.org/2000/svg">
<g clip-path="url(#clip0)">
<path opacity="0.2" fill-rule="evenodd" clip-rule="evenodd" d="M272 0H0V311.667H272V0ZM136.567 289.001C190.709 289.001 234.6 229.887 234.6 156.967C234.6 84.0473 190.709 24.934 136.567 24.934C82.4244 24.934 38.5333 84.0473 38.5333 156.967C38.5333 229.887 82.4244 289.001 136.567 289.001Z" fill="#0B1F33"/>
</g>
<line y1="24.9339" x2="272" y2="24.9339" stroke="white" stroke-width="2.26667" stroke-dasharray="11.33 11.33"/>
<line y1="287.867" x2="272" y2="287.867" stroke="white" stroke-width="2.26667" stroke-dasharray="11.33 11.33"/>
<rect x="10.1997" y="32.8673" width="24.9333" height="24.9333" rx="12.4667" stroke="white" stroke-width="2.26667"/>
<path d="M27.2005 51.8719V53.2673H19.0468V51.8719H22.3062V41.8479C22.3062 41.547 22.3168 41.2426 22.338 40.9348L19.6307 43.1817C19.5387 43.2569 19.4467 43.3048 19.3547 43.3253C19.2627 43.339 19.1778 43.339 19.0999 43.3253C19.0221 43.3117 18.9477 43.2843 18.877 43.2433C18.8133 43.2022 18.7637 43.1578 18.7283 43.1099L18.1338 42.3199L22.6671 38.5339H24.2065V51.8719H27.2005Z" fill="white"/>
<rect x="10.1997" y="256.134" width="24.9333" height="24.9333" rx="12.4667" stroke="white" stroke-width="2.26667"/>
<path d="M22.8473 261.801C23.4227 261.801 23.9601 261.885 24.4596 262.054C24.9591 262.223 25.3922 262.47 25.7589 262.796C26.1256 263.115 26.4133 263.506 26.6219 263.969C26.8306 264.432 26.9349 264.957 26.9349 265.546C26.9349 266.046 26.859 266.512 26.7073 266.944C26.5555 267.37 26.3501 267.776 26.0908 268.164C25.8316 268.552 25.5313 268.931 25.1899 269.3C24.8548 269.669 24.4975 270.041 24.1182 270.417L20.5332 274.04C20.7861 273.971 21.0422 273.918 21.3014 273.88C21.5607 273.836 21.8104 273.814 22.0507 273.814H26.603C26.7863 273.814 26.9317 273.868 27.0392 273.974C27.1467 274.08 27.2005 274.218 27.2005 274.387V275.401H18.1338V274.828C18.1338 274.709 18.1591 274.587 18.2097 274.462C18.2602 274.337 18.3393 274.221 18.4468 274.115L22.7999 269.788C23.1603 269.425 23.4891 269.078 23.7862 268.746C24.0834 268.408 24.3363 268.07 24.5449 267.732C24.7536 267.395 24.9148 267.054 25.0286 266.709C25.1424 266.359 25.1993 265.987 25.1993 265.593C25.1993 265.198 25.1361 264.854 25.0097 264.56C24.8832 264.26 24.7093 264.013 24.488 263.819C24.2731 263.625 24.017 263.481 23.7198 263.387C23.4227 263.287 23.1034 263.237 22.762 263.237C22.4142 263.237 22.0949 263.287 21.8041 263.387C21.5132 263.487 21.254 263.628 21.0264 263.809C20.8051 263.984 20.6186 264.194 20.4668 264.438C20.3151 264.682 20.2076 264.951 20.1444 265.245C20.0685 265.464 19.9642 265.611 19.8314 265.686C19.705 265.755 19.5248 265.774 19.2908 265.743L18.4088 265.593C18.4973 264.979 18.6681 264.438 18.921 263.969C19.1802 263.493 19.5026 263.096 19.8883 262.777C20.2803 262.458 20.7261 262.217 21.2256 262.054C21.725 261.885 22.2656 261.801 22.8473 261.801Z" fill="white"/>
<line y1="249.334" x2="272" y2="249.334" stroke="white" stroke-width="2.26667" stroke-dasharray="11.33 11.33"/>
<defs>
<clipPath id="clip0">
<rect width="272" height="311.667" rx="9.06667" fill="white"/>
</clipPath>
</defs>
</svg>
