<svg width="40" height="56" viewBox="0 0 40 56" fill="none" xmlns="http://www.w3.org/2000/svg">
<path fill-rule="evenodd" clip-rule="evenodd" d="M21.998 2.67579C20.7604 1.96126 19.2356 1.96126 17.998 2.67579L4.06979 10.7173C2.83219 11.4318 2.06979 12.7523 2.06979 14.1814V30.2643C2.06979 31.6933 2.83219 33.0138 4.06979 33.7284L9.25389 36.7214L18.5734 52.8633C19.3432 54.1966 21.2677 54.1966 22.0375 52.8633L31.6645 36.1889L35.9263 33.7284C37.1639 33.0138 37.9263 31.6933 37.9263 30.2643V14.1814C37.9263 12.7523 37.1639 11.4318 35.9263 10.7173L21.998 2.67579Z" fill="#EE3F58"/>
<path fill-rule="evenodd" clip-rule="evenodd" d="M3.9767 10.5559L3.0698 8.9852L16.998 0.94374C18.8544 -0.128056 21.1416 -0.128057 22.998 0.94374L36.9263 8.9852C38.7827 10.057 39.9263 12.0378 39.9263 14.1814V30.2643C39.9263 32.4079 38.7827 34.3886 36.9263 35.4604L33.1286 37.653L23.7696 53.8633C22.23 56.5299 18.381 56.5299 16.8414 53.8633L7.7898 38.1855L3.0698 35.4604C1.21342 34.3886 0.0698242 32.4079 0.0698242 30.2643V14.1814C0.0698242 12.0378 1.21342 10.057 3.0698 8.9852L3.9767 10.5559ZM9.2539 36.7214L4.0698 33.7284C2.8322 33.0138 2.0698 31.6933 2.0698 30.2643V14.1814C2.0698 12.7523 2.8322 11.4318 4.0698 10.7173L17.998 2.67579C19.2356 1.96126 20.7604 1.96126 21.998 2.67579L35.9263 10.7173C37.1639 11.4318 37.9263 12.7523 37.9263 14.1814V30.2643C37.9263 31.6933 37.1639 33.0138 35.9263 33.7284L31.6645 36.1889L22.0375 52.8633C21.2677 54.1966 19.3432 54.1966 18.5734 52.8633L9.2539 36.7214Z" fill="white"/>
<path d="M17.998 7.85148C19.2356 7.13695 20.7604 7.13695 21.998 7.85148L31.4441 13.3052C32.6817 14.0198 33.4441 15.3403 33.4441 16.7693V27.6768C33.4441 29.1059 32.6817 30.4264 31.4441 31.1409L21.998 36.5947C20.7604 37.3092 19.2356 37.3092 17.998 36.5947L8.55179 31.1409C7.31419 30.4264 6.55179 29.1059 6.55179 27.6768V16.7693C6.55179 15.3403 7.31419 14.0198 8.55179 13.3052L17.998 7.85148Z" fill="white"/>
<path fill-rule="evenodd" clip-rule="evenodd" d="M26.0589 16.1522C25.8479 15.9493 25.5059 15.9493 25.2949 16.1522L17.8655 23.3071L14.7054 20.2642C14.4954 20.0612 14.1524 20.0612 13.9413 20.2642L12.1583 21.9821C11.9472 22.1851 11.9472 22.5151 12.1583 22.7181L17.4835 27.847C17.5885 27.949 17.7275 28 17.8655 28C18.0035 28 18.1415 27.949 18.2475 27.847L27.842 18.6062C27.944 18.5082 28 18.3762 28 18.2382C28 18.1002 27.944 17.9672 27.842 17.8702L26.0589 16.1522Z" fill="#EE3F58"/>
</svg>
