<svg width="24" height="24" fill="none" xmlns="http://www.w3.org/2000/svg"><mask id="a" maskUnits="userSpaceOnUse" x="3.709" y="5.037" width="16" height="17" fill="#000"><path fill="#fff" d="M3.709 5.037h16v17h-16z"/><path d="M18.757 6.039H5.249a.533.533 0 00-.4.134.455.455 0 00-.134.401l1.388 12.122C6.266 20.033 7.157 21.01 8.5 21h7a2.6 2.6 0 002.643-2.384L19.29 6.52a.456.456 0 00-.134-.348.533.533 0 00-.4-.134zm-1.682 12.523A1.504 1.504 0 0115.5 19.93h-7c-.802.032-1.245-.54-1.33-1.34L5.837 7.11H18.17l-1.094 11.452z"/></mask><path d="M18.757 6.039H5.249a.533.533 0 00-.4.134.455.455 0 00-.134.401l1.388 12.122C6.266 20.033 7.157 21.01 8.5 21h7a2.6 2.6 0 002.643-2.384L19.29 6.52a.456.456 0 00-.134-.348.533.533 0 00-.4-.134zm-1.682 12.523A1.504 1.504 0 0115.5 19.93h-7c-.802.032-1.245-.54-1.33-1.34L5.837 7.11H18.17l-1.094 11.452z" fill="#fff"/><path d="M18.757 6.039H5.249a.533.533 0 00-.4.134.455.455 0 00-.134.401l1.388 12.122C6.266 20.033 7.157 21.01 8.5 21h7a2.6 2.6 0 002.643-2.384L19.29 6.52a.456.456 0 00-.134-.348.533.533 0 00-.4-.134zm-1.682 12.523A1.504 1.504 0 0115.5 19.93h-7c-.802.032-1.245-.54-1.33-1.34L5.837 7.11H18.17l-1.094 11.452z" stroke="#fff" stroke-width=".16" mask="url(#a)"/><mask id="b" maskUnits="userSpaceOnUse" x="2.848" y="-.025" width="18" height="5" fill="#000"><path fill="#fff" d="M2.848-.025h18v5h-18z"/><path d="M19.616 3.393h-4.4v-.86A1.504 1.504 0 0013.689.975h-3.38A1.503 1.503 0 008.78 2.533v.86H4.385a.537.537 0 000 1.075h15.23a.537.537 0 000-1.075zm-5.472-.86v.86H9.853v-.86a.43.43 0 01.456-.483h3.38a.43.43 0 01.455.483z"/></mask><path d="M19.616 3.393h-4.4v-.86A1.504 1.504 0 0013.689.975h-3.38A1.503 1.503 0 008.78 2.533v.86H4.385a.537.537 0 000 1.075h15.23a.537.537 0 000-1.075zm-5.472-.86v.86H9.853v-.86a.43.43 0 01.456-.483h3.38a.43.43 0 01.455.483z" fill="#fff"/><path d="M19.616 3.393h-4.4v-.86A1.504 1.504 0 0013.689.975h-3.38A1.503 1.503 0 008.78 2.533v.86H4.385a.537.537 0 000 1.075h15.23a.537.537 0 000-1.075zm-5.472-.86v.86H9.853v-.86a.43.43 0 01.456-.483h3.38a.43.43 0 01.455.483z" stroke="#fff" stroke-width=".16" mask="url(#b)"/><path d="M13.975 17.613v-7.147c0-.264.204-.477.456-.477s.456.213.456.477v7.147a.467.467 0 01-.456.477.467.467 0 01-.456-.477zM11.545 17.613v-7.147c0-.264.204-.477.456-.477.251 0 .455.213.455.477v7.147a.467.467 0 01-.455.477.467.467 0 01-.456-.477zM9.114 17.613v-7.147c0-.264.204-.477.456-.477s.456.213.456.477v7.147a.467.467 0 01-.456.477.467.467 0 01-.456-.477z" fill="#fff"/></svg>