<svg width="16" height="18" viewBox="0 0 16 18" fill="none" xmlns="http://www.w3.org/2000/svg">
<path d="M10.0177 2.67067L9.8685 2.80392L10.0176 2.67067L8.53091 1.00646C8.5309 1.00646 8.5309 1.00645 8.5309 1.00645C8.4085 0.869429 8.23868 0.799755 8.06893 0.799755C7.92225 0.799755 7.77454 0.851809 7.65657 0.957106L7.65649 0.95717C7.40146 1.18502 7.37936 1.57651 7.60725 1.83156C7.60725 1.83157 7.60726 1.83158 7.60726 1.83158L8.34961 2.66254H8.06909C4.06097 2.66254 0.800481 5.92306 0.800481 9.93112C0.800481 13.9392 4.06097 17.1998 8.06906 17.1998C12.0771 17.1998 15.3377 13.9392 15.3377 9.93112C15.3377 9.58913 15.0604 9.31187 14.7184 9.31187C14.3764 9.31187 14.0992 9.58917 14.0992 9.93112C14.0992 13.256 11.3939 15.9612 8.06909 15.9612C4.74426 15.9612 2.03898 13.2559 2.03898 9.93112C2.03898 6.60632 4.74426 3.90104 8.06909 3.90104H8.34961L7.60726 4.732C7.37934 4.98707 7.40151 5.37856 7.65648 5.6064C7.91156 5.83433 8.30309 5.81212 8.53089 5.55714L8.38174 5.42389L8.53089 5.55713L10.0176 3.89291L9.8685 3.75967L10.0177 3.89291C10.3288 3.54458 10.3288 3.019 10.0177 2.67067Z" fill="#0D4CD3" stroke="#0D4CD3" stroke-width="0.4"/>
</svg>
