<?xml version="1.0"?>
<svg xmlns="http://www.w3.org/2000/svg" width="548" height="207" viewBox="0 0 548 207" fill="none">
<path d="M515.065 53.2854C488.61 46.4881 445.712 54.4576 425.816 44.3747C406.45 34.5572 438.194 22.4986 421.525 13.2488C396.79 -0.476024 283.612 2.03057 213.294 22.0956C192.148 28.1286 183.916 33.1713 160.001 35.4051C108.645 40.1995 78.098 23.3489 52.6947 26.5558C-4.49243 33.7758 -52.4823 144.828 119.39 189.388C199.666 210.198 315.581 213.314 403.613 194.719C562.698 161.116 574.428 68.5338 515.065 53.2854Z" fill="#F3F5FB"/>
<ellipse cx="275.851" cy="190.274" rx="166.622" ry="6.51149" fill="#CED9F0"/>
<path fill-rule="evenodd" clip-rule="evenodd" d="M223.962 187.208C224.5 187.208 224.94 186.765 224.94 186.225V106.804C224.94 106.263 224.5 105.821 223.962 105.821H158.342C157.805 105.821 157.365 106.263 157.365 106.804V186.225C157.365 186.765 157.805 187.208 158.342 187.208H223.962Z" fill="#859FD9"/>
<path fill-rule="evenodd" clip-rule="evenodd" d="M220.544 147.293C221.058 147.293 221.478 146.87 221.478 146.354V133.996C221.478 133.479 221.058 133.056 220.544 133.056H162.286C161.772 133.056 161.352 133.479 161.352 133.996V146.354C161.352 146.87 161.772 147.293 162.286 147.293H220.544ZM220.544 165.347C221.058 165.347 221.478 164.924 221.478 164.407V152.049C221.478 151.533 221.058 151.11 220.544 151.11H162.286C161.772 151.11 161.352 151.533 161.352 152.049V164.407C161.352 164.924 161.772 165.347 162.286 165.347H220.544ZM220.544 183.401C221.058 183.401 221.478 182.978 221.478 182.461V170.103C221.478 169.586 221.058 169.163 220.544 169.163H162.286C161.772 169.163 161.352 169.586 161.352 170.103V182.461C161.352 182.978 161.772 183.401 162.286 183.401H220.544Z" fill="#CED9F0"/>
<path fill-rule="evenodd" clip-rule="evenodd" d="M164.347 144.891H173.207V135.974H164.347V144.891Z" fill="#9DB3E1"/>
<path fill-rule="evenodd" clip-rule="evenodd" d="M215.297 138.946H218.25V135.974H215.297V138.946Z" fill="#9DB3E1"/>
<path fill-rule="evenodd" clip-rule="evenodd" d="M176.161 144.891H177.638V135.974H176.161V144.891Z" fill="#E7ECF7"/>
<path fill-rule="evenodd" clip-rule="evenodd" d="M164.347 162.726H173.207V153.809H164.347V162.726Z" fill="#9DB3E1"/>
<path fill-rule="evenodd" clip-rule="evenodd" d="M176.161 162.726H177.638V153.809H176.161V162.726Z" fill="#E7ECF7"/>
<path fill-rule="evenodd" clip-rule="evenodd" d="M164.347 180.558H173.207V171.642H164.347V180.558Z" fill="#9DB3E1"/>
<path fill-rule="evenodd" clip-rule="evenodd" d="M176.161 180.558H177.638V171.642H176.161V180.558Z" fill="#E7ECF7"/>
<path fill-rule="evenodd" clip-rule="evenodd" d="M310.945 191.219C311.666 191.219 312.256 190.626 312.256 189.9V83.3997C312.256 82.6745 311.666 82.0811 310.945 82.0811H222.951C222.23 82.0811 221.641 82.6745 221.641 83.3997V189.9C221.641 190.626 222.23 191.219 222.951 191.219H310.945Z" fill="#6D8CD1"/>
<path fill-rule="evenodd" clip-rule="evenodd" d="M306.359 137.693C307.048 137.693 307.612 137.126 307.612 136.434V119.862C307.612 119.169 307.048 118.602 306.359 118.602H228.237C227.548 118.602 226.984 119.169 226.984 119.862V136.434C226.984 137.126 227.548 137.693 228.237 137.693H306.359ZM306.359 161.903C307.048 161.903 307.612 161.336 307.612 160.642V144.071C307.612 143.379 307.048 142.812 306.359 142.812H228.237C227.548 142.812 226.984 143.379 226.984 144.071V160.642C226.984 161.336 227.548 161.903 228.237 161.903H306.359ZM306.359 186.113C307.048 186.113 307.612 185.546 307.612 184.852V168.281C307.612 167.587 307.048 167.02 306.359 167.02H228.237C227.548 167.02 226.984 167.587 226.984 168.281V184.852C226.984 185.546 227.548 186.113 228.237 186.113H306.359Z" fill="#E7ECF7"/>
<path fill-rule="evenodd" clip-rule="evenodd" d="M231.002 134.476H242.884V122.519H231.002V134.476Z" fill="#B6C6E8"/>
<path fill-rule="evenodd" clip-rule="evenodd" d="M299.324 126.504H303.285V122.519H299.324V126.504Z" fill="#6D8CD1"/>
<path fill-rule="evenodd" clip-rule="evenodd" d="M246.845 134.476H248.825V122.519H246.845V134.476Z" fill="#F3F5FB"/>
<path fill-rule="evenodd" clip-rule="evenodd" d="M231.002 158.391H242.884V146.434H231.002V158.391Z" fill="#B6C6E8"/>
<path fill-rule="evenodd" clip-rule="evenodd" d="M246.845 158.391H248.825V146.434H246.845V158.391Z" fill="#F3F5FB"/>
<path fill-rule="evenodd" clip-rule="evenodd" d="M231.002 182.304H242.884V170.347H231.002V182.304Z" fill="#B6C6E8"/>
<path fill-rule="evenodd" clip-rule="evenodd" d="M246.845 182.304H248.825V170.347H246.845V182.304Z" fill="#F3F5FB"/>
<path fill-rule="evenodd" clip-rule="evenodd" d="M288.797 22.9265C286.043 22.9265 283.441 23.5727 281.13 24.7243C276.304 10.3638 262.369 0 245.928 0C227.305 0 211.898 13.3034 209.301 30.6661H199.408C187.461 30.6661 177.729 40.4848 177.729 52.508V52.5256C177.729 64.397 187.217 74.1536 198.957 74.3979V111.705H192.734L202.449 124.411L212.164 111.705H205.943V74.4026H309.193C317.714 74.4026 324.716 67.3619 324.716 58.7882V58.7849C324.716 50.2113 317.714 43.1936 309.193 43.1936H305.867C306.017 42.2046 306.097 41.309 306.097 40.3409C306.097 30.7265 298.351 22.9265 288.797 22.9265Z" fill="#CED9F0"/>
<path fill-rule="evenodd" clip-rule="evenodd" d="M285.813 116.913H292.799V60.8535H285.813V116.913Z" fill="#6D8CD1"/>
<path fill-rule="evenodd" clip-rule="evenodd" d="M279.59 65.7411H299.02L289.306 53.0366L279.59 65.7411Z" fill="#6D8CD1"/>
<g clip-path="url(#clip0)">
<path fill-rule="evenodd" clip-rule="evenodd" d="M299.008 170.521L331.323 114.393C333.737 110.201 338.251 107.378 343.425 107.378C348.6 107.378 353.114 110.201 355.528 114.393L387.843 170.521C389.028 172.579 389.709 174.965 389.709 177.512C389.709 185.248 383.455 191.52 375.74 191.52H343.425H311.111C303.396 191.52 297.142 185.248 297.142 177.512C297.142 174.965 297.823 172.579 299.008 170.521Z" fill="#B6C6E8"/>
<path fill-rule="evenodd" clip-rule="evenodd" d="M371.358 185.917C371.34 185.918 371.322 185.918 371.304 185.918H311.111C306.49 185.918 302.729 182.147 302.729 177.513C302.729 176.041 303.117 174.592 303.847 173.322L336.162 117.195C337.659 114.596 340.442 112.98 343.426 112.98C343.506 112.98 343.586 112.982 343.666 112.986L343.666 112.985C346.558 113.068 349.233 114.664 350.689 117.195L383.004 173.322C383.734 174.592 384.122 176.041 384.122 177.513C384.122 182.147 380.361 185.917 375.74 185.917H371.358Z" fill="#FFE799"/>
<path fill-rule="evenodd" clip-rule="evenodd" d="M343.425 161.638C340.853 161.638 338.769 159.546 338.769 156.968V131.754C338.769 129.175 340.853 127.085 343.425 127.085C345.997 127.085 348.081 129.175 348.081 131.754V156.968C348.081 159.546 345.997 161.638 343.425 161.638ZM343.433 176.578L343.425 176.578C340.853 176.578 338.769 174.488 338.769 171.908C338.769 169.329 340.853 167.239 343.425 167.239C345.997 167.239 348.081 169.329 348.081 171.908C348.081 174.485 346.002 176.573 343.433 176.578Z" fill="#6D8CD1"/>
</g>
<defs>
<clipPath id="clip0">
<rect width="92.5676" height="92.825" fill="white" transform="translate(297.142 103.036)"/>
</clipPath>
</defs>
</svg>
