<svg width="24" height="24" viewBox="0 0 24 24" fill="none" xmlns="http://www.w3.org/2000/svg">
  <path fill-rule="evenodd" clip-rule="evenodd" d="M12 22.2C6.3756 22.2 1.8 17.6244 1.8 12C1.8 6.3756 6.3756 1.8 12 1.8C17.6244 1.8 22.2 6.3756 22.2 12C22.2 17.6244 17.6244 22.2 12 22.2ZM12 0C5.373 0 0 5.373 0 12C0 18.6276 5.373 24 12 24C18.6276 24 24 18.6276 24 12C24 5.373 18.6276 0 12 0Z" fill="#0D4CD3"/>
  <path fill-rule="evenodd" clip-rule="evenodd" d="M7 11C6.44772 11 6 11.4477 6 12C6 12.5523 6.44772 13 7 13C7.55228 13 8 12.5523 8 12C8 11.4477 7.55228 11 7 11ZM10 12C10 13.6569 8.65685 15 7 15C5.34315 15 4 13.6569 4 12C4 10.3431 5.34315 9 7 9C8.65685 9 10 10.3431 10 12Z" fill="#0D4CD3"/>
  <path fill-rule="evenodd" clip-rule="evenodd" d="M14 6C13.4477 6 13 6.44772 13 7C13 7.55228 13.4477 8 14 8C14.5523 8 15 7.55228 15 7C15 6.44772 14.5523 6 14 6ZM17 7C17 8.65685 15.6569 10 14 10C12.3431 10 11 8.65685 11 7C11 5.34315 12.3431 4 14 4C15.6569 4 17 5.34315 17 7Z" fill="#0D4CD3"/>
  <path fill-rule="evenodd" clip-rule="evenodd" d="M14 16C13.4477 16 13 16.4477 13 17C13 17.5523 13.4477 18 14 18C14.5523 18 15 17.5523 15 17C15 16.4477 14.5523 16 14 16ZM17 17C17 18.6569 15.6569 20 14 20C12.3431 20 11 18.6569 11 17C11 15.3431 12.3431 14 14 14C15.6569 14 17 15.3431 17 17Z" fill="#0D4CD3"/>
  <rect x="8.01953" y="10" width="5.16642" height="2" transform="rotate(-40 8.01953 10)" fill="#0D4CD3"/>
  <rect x="9.46875" y="12.5996" width="5.06026" height="2" transform="rotate(40 9.46875 12.5996)" fill="#0D4CD3"/>
</svg>
