<?xml version="1.0" encoding="utf-8"?>
<!-- Generator: Adobe Illustrator 25.2.3, SVG Export Plug-In . SVG Version: 6.00 Build 0)  -->
<svg version="1.1" id="Слой_1" xmlns="http://www.w3.org/2000/svg" xmlns:xlink="http://www.w3.org/1999/xlink" x="0px" y="0px"
	 width="31.7px" height="41.4px" viewBox="0 0 31.7 41.4" style="enable-background:new 0 0 31.7 41.4;" xml:space="preserve">
<style type="text/css">
	.st0{fill-rule:evenodd;clip-rule:evenodd;}
	.st1{fill:#FFFFFF;}
	.st2{fill-rule:evenodd;clip-rule:evenodd;fill:#FF8A00;}
</style>
<g>
	<path class="st0" d="M16.1,40.4c-1.1,0-2.1-0.6-2.6-1.5l-4.9-8.6l-5.1-2.9C2,26.5,1,24.9,1,23.1V11.7c0-1.8,1-3.4,2.5-4.3l9.9-5.7
		C14.1,1.2,15,1,15.9,1c0.9,0,1.7,0.2,2.5,0.7l9.9,5.7c1.5,0.9,2.5,2.5,2.5,4.3v11.4c0,1.8-1,3.4-2.5,4.3l-4.3,2.5l-5.2,9
		C18.2,39.8,17.2,40.4,16.1,40.4z"/>
	<path class="st1" d="M15.9,2c0.7,0,1.4,0.2,2,0.5l9.9,5.7c1.2,0.7,2,2,2,3.5v11.4c0,1.4-0.8,2.7-2,3.5l-4.6,2.6l-5.3,9.2
		c-0.4,0.7-1.1,1-1.7,1c-0.7,0-1.3-0.3-1.7-1l-5.1-8.8L4,26.5c-1.2-0.7-2-2-2-3.5V11.7c0-1.4,0.8-2.7,2-3.5l9.9-5.7
		C14.5,2.2,15.2,2,15.9,2 M15.9,0c-1.1,0-2.1,0.3-3,0.8L3,6.5c-1.9,1.1-3,3.1-3,5.2v11.4c0,2.1,1.1,4.1,3,5.2l4.8,2.8l4.8,8.3
		c0.7,1.3,2,2,3.5,2c1.4,0,2.7-0.7,3.5-2l5-8.7l4.1-2.4c1.9-1.1,3-3.1,3-5.2V11.7c0-2.1-1.1-4.1-3-5.2l-9.9-5.7
		C17.9,0.3,16.9,0,15.9,0L15.9,0z"/>
</g>
<g>
	<path class="st2" d="M17.9,2.5c-1.2-0.7-2.8-0.7-4,0L4,8.2c-1.2,0.7-2,2-2,3.5v11.4c0,1.4,0.8,2.7,2,3.5l5.3,3.1l5.1,8.8
		c0.8,1.3,2.7,1.3,3.5,0l5.3-9.2l4.6-2.6c1.2-0.7,2-2,2-3.5V11.7c0-1.4-0.8-2.7-2-3.5L17.9,2.5z"/>
	<path class="st1" d="M15.9,2c0.7,0,1.4,0.2,2,0.5l9.9,5.7c1.2,0.7,2,2,2,3.5v11.4c0,1.4-0.8,2.7-2,3.5l-4.6,2.6l-5.3,9.2
		c-0.4,0.7-1.1,1-1.7,1c-0.7,0-1.3-0.3-1.7-1l-5.1-8.8L4,26.5c-1.2-0.7-2-2-2-3.5V11.7c0-1.4,0.8-2.7,2-3.5l9.9-5.7
		C14.5,2.2,15.2,2,15.9,2 M15.9,0c-1.1,0-2.1,0.3-3,0.8L3,6.5c-1.9,1.1-3,3.1-3,5.2v11.4c0,2.1,1.1,4.1,3,5.2l4.8,2.8l4.8,8.3
		c0.7,1.3,2,2,3.5,2c1.4,0,2.7-0.7,3.5-2l5-8.7l4.1-2.4c1.9-1.1,3-3.1,3-5.2V11.7c0-2.1-1.1-4.1-3-5.2l-9.9-5.7
		C17.9,0.3,16.9,0,15.9,0L15.9,0z"/>
</g>
<g>
	<path class="st1" d="M15.9,10c-2,0-3.6,1.6-3.6,3.6s1.6,3.6,3.6,3.6s3.6-1.6,3.6-3.6S17.9,10,15.9,10z"/>
</g>
<g>
	<path class="st1" d="M22.1,20.2c-0.1-0.2-0.2-0.5-0.4-0.7c-0.7-1.1-1.9-1.8-3.1-2c-0.2,0-0.3,0-0.5,0.1c-0.7,0.5-1.5,0.7-2.3,0.7
		c-0.8,0-1.6-0.3-2.3-0.7c-0.1-0.1-0.3-0.1-0.5-0.1c-1.3,0.2-2.4,0.9-3.1,2c-0.1,0.2-0.3,0.4-0.4,0.7c0,0.1,0,0.2,0,0.3
		c0.1,0.2,0.3,0.4,0.4,0.6c0.2,0.3,0.5,0.6,0.7,0.8c0.2,0.2,0.5,0.4,0.7,0.6c1.3,0.9,2.8,1.4,4.3,1.4s3.1-0.5,4.3-1.4
		c0.3-0.2,0.5-0.4,0.7-0.6c0.3-0.3,0.5-0.5,0.7-0.8c0.2-0.2,0.3-0.4,0.4-0.6C22.1,20.4,22.1,20.3,22.1,20.2z"/>
</g>
</svg>
