<svg width="24" height="24" fill="none" xmlns="http://www.w3.org/2000/svg"><path fill-rule="evenodd" clip-rule="evenodd" d="M3.872 16.971a33.36 33.36 0 010-9.942c.086-.567.53-.997 1.08-1.069a54.192 54.192 0 0114.096 0c.549.072.994.502 1.08 1.069a33.362 33.362 0 010 9.942c-.086.567-.531.997-1.08 1.069a54.2 54.2 0 01-14.097 0 1.261 1.261 0 01-1.079-1.069zm15.37 2.556c-4.846.63-9.638.63-14.484 0a2.761 2.761 0 01-2.369-2.332 34.86 34.86 0 010-10.39 2.761 2.761 0 012.369-2.332c4.846-.63 9.638-.63 14.484 0a2.761 2.761 0 012.368 2.332 34.858 34.858 0 010 10.39 2.761 2.761 0 01-2.368 2.332zm-8.607-11.17A.75.75 0 009.5 9v6a.75.75 0 001.135.644l5.015-3a.75.75 0 000-1.288l-5.015-3zm.365 5.32v-3.354L13.804 12 11 13.678z" fill="#0D4CD3"/></svg>