<svg width="24" height="24" viewBox="0 0 24 24" fill="none" xmlns="http://www.w3.org/2000/svg">
<path d="M12.044 6C12.5963 6 13.044 6.44772 13.044 7V10.92H16.7C17.2523 10.92 17.7 11.3677 17.7 11.92V12.116C17.7 12.6683 17.2523 13.116 16.7 13.116H13.044V17.06C13.044 17.6123 12.5963 18.06 12.044 18.06H11.632C11.0797 18.06 10.632 17.6123 10.632 17.06V13.116H7C6.44771 13.116 6 12.6683 6 12.116V11.92C6 11.3677 6.44772 10.92 7 10.92H10.632V7C10.632 6.44772 11.0797 6 11.632 6H12.044Z" fill="#0D4CD3"/>
</svg>
