<svg width="24" height="24" fill="none" xmlns="http://www.w3.org/2000/svg"><path fill-rule="evenodd" clip-rule="evenodd" d="M9.3 2C4.7 2 1 5.6 1 10.1s3.7 8.1 8.3 8.1c1.7 0 3.4-.5 4.8-1.5l.1-.1 5.1 5.1c.4.4 1 .4 1.4 0 .2-.2.3-.4.3-.7 0-.3-.1-.5-.3-.7l-5.1-5.1.1-.1c1.3-1.4 2-3.3 2-5.2 0-4.3-3.8-7.9-8.4-7.9zm0 14.2c-3.5 0-6.3-2.7-6.3-6.1 0-3.4 2.9-6.2 6.4-6.2 3.5 0 6.4 2.8 6.4 6.2 0 3.4-2.9 6.1-6.5 6.1z" fill="#fff"/><path fill-rule="evenodd" clip-rule="evenodd" d="M10.3 7.5a1 1 0 10-2 0V9H6.8a1 1 0 000 2h1.5v1.5a1 1 0 102 0V11h1.5a1 1 0 100-2h-1.5V7.5z" fill="#fff"/></svg>