<svg width="48" height="24" fill="none" xmlns="http://www.w3.org/2000/svg"><g clip-path="url(#clip0)"><path d="M6.986 24c-3.092 0-5.015-3.358-3.45-6.025L11.181 4.95a8 8 0 016.9-3.95H44a4 4 0 014 4v15a4 4 0 01-4 4H6.985z" fill="#0B40B3"/><path d="M14.99 18V7.878h3.486c.662 0 1.23.063 1.7.189.472.126.857.306 1.156.539.303.233.525.516.665.847.14.331.21.705.21 1.12 0 .238-.035.467-.105.686-.07.215-.18.418-.33.609a2.383 2.383 0 01-.56.51 3.314 3.314 0 01-.804.393c1.39.313 2.086 1.064 2.086 2.254 0 .43-.082.826-.245 1.19a2.656 2.656 0 01-.714.945 3.448 3.448 0 01-1.155.616c-.458.15-.98.224-1.568.224H14.99zm1.883-4.438v2.968h1.904c.35 0 .644-.042.882-.126.238-.084.427-.196.567-.336.144-.14.247-.303.308-.49a1.79 1.79 0 00.098-.595c0-.22-.035-.415-.105-.588a1.08 1.08 0 00-.33-.448 1.506 1.506 0 00-.58-.287 3.178 3.178 0 00-.847-.098h-1.897zm0-1.302h1.498c.644 0 1.129-.117 1.456-.35.331-.233.497-.604.497-1.113 0-.527-.15-.903-.448-1.127-.299-.224-.766-.336-1.4-.336h-1.603v2.926zM28.797 13.8c.08.15.151.306.217.469.07.159.137.32.203.483a9.96 9.96 0 01.427-.966l2.989-5.607a.706.706 0 01.119-.168.399.399 0 01.133-.091.63.63 0 01.168-.035 2.88 2.88 0 01.217-.007h1.42V18h-1.658v-6.538c0-.121.002-.254.007-.4.01-.144.02-.29.035-.44l-3.06 5.74c-.144.275-.366.413-.664.413h-.266c-.299 0-.52-.138-.665-.413L25.325 10.6c.014.154.025.306.035.455.01.145.014.28.014.406V18h-1.66V7.878h1.422c.084 0 .156.002.217.007.06.005.114.016.16.035a.324.324 0 01.134.09.709.709 0 01.119.169l3.03 5.62zM38.342 14.437V18h-1.883V7.878h3.29c.677 0 1.262.08 1.757.238.495.159.903.38 1.225.665.322.285.56.625.714 1.022.159.397.238.83.238 1.302 0 .49-.082.94-.245 1.35a2.801 2.801 0 01-.735 1.05c-.327.295-.737.524-1.232.687-.49.163-1.064.245-1.722.245h-1.407zm0-1.47h1.407c.345 0 .646-.042.903-.126a1.74 1.74 0 00.637-.371c.173-.163.301-.36.385-.588a2.28 2.28 0 00.126-.777c0-.27-.042-.516-.126-.735a1.453 1.453 0 00-.378-.56 1.645 1.645 0 00-.637-.35 2.935 2.935 0 00-.91-.126h-1.407v3.633z" fill="#fff"/></g><defs><clipPath id="clip0"><path fill="#fff" d="M0 0h48v24H0z"/></clipPath></defs></svg>