<svg width="48" height="24" fill="none" xmlns="http://www.w3.org/2000/svg"><g clip-path="url(#clip0)"><path d="M6.986 24c-3.092 0-5.015-3.358-3.45-6.025L11.181 4.95a8 8 0 016.9-3.95H44a4 4 0 014 4v15a4 4 0 01-4 4H6.985z" fill="#12826E"/><path d="M25.623 15.613c.103 0 .194.04.273.12l.742.804c-.41.509-.917.898-1.519 1.17-.597.27-1.316.405-2.156.405-.751 0-1.428-.128-2.03-.385a4.476 4.476 0 01-1.533-1.07 4.732 4.732 0 01-.98-1.639 6.207 6.207 0 01-.336-2.079c0-.76.121-1.456.364-2.086a4.824 4.824 0 011.022-1.638c.443-.457.97-.812 1.582-1.064a5.194 5.194 0 012.03-.385c.737 0 1.39.121 1.96.364.574.243 1.062.56 1.463.952l-.63.875a.55.55 0 01-.147.147.39.39 0 01-.238.063.485.485 0 01-.217-.056 5.724 5.724 0 01-.245-.147 6.138 6.138 0 00-.308-.196 2.348 2.348 0 00-.406-.189 2.884 2.884 0 00-.539-.147 3.447 3.447 0 00-.7-.063c-.453 0-.868.082-1.246.245a2.653 2.653 0 00-.966.7c-.27.303-.48.677-.63 1.12-.15.439-.224.94-.224 1.505 0 .57.08 1.076.238 1.52.163.442.383.816.658 1.12.275.302.6.536.973.7.373.158.775.237 1.204.237.257 0 .488-.014.693-.042.21-.028.401-.072.574-.133.177-.06.343-.138.497-.23.159-.099.315-.218.469-.358a.577.577 0 01.147-.098.332.332 0 01.161-.042zM33.318 9.72a.669.669 0 01-.182.216.397.397 0 01-.231.063.636.636 0 01-.322-.105 6.168 6.168 0 00-.406-.245 3.159 3.159 0 00-.56-.238 2.24 2.24 0 00-.75-.112c-.26 0-.49.033-.685.098-.196.06-.362.147-.497.26-.131.111-.23.246-.294.405a1.294 1.294 0 00-.098.511c0 .238.065.436.196.595.135.159.312.294.532.406.219.112.469.212.749.301s.567.184.86.287c.295.098.582.215.862.35.28.13.53.299.749.504.219.2.394.448.525.742.135.294.203.651.203 1.071 0 .457-.08.887-.238 1.288a2.942 2.942 0 01-.686 1.043 3.264 3.264 0 01-1.1.7c-.433.168-.93.252-1.49.252-.322 0-.64-.033-.952-.098a4.907 4.907 0 01-.903-.266 4.88 4.88 0 01-.805-.42 3.895 3.895 0 01-.672-.546l.553-.903a.552.552 0 01.182-.16.441.441 0 01.238-.07c.116 0 .242.048.378.146.135.093.296.198.483.315.186.117.403.224.65.322.253.093.554.14.904.14.536 0 .952-.126 1.246-.378.294-.257.44-.623.44-1.099 0-.266-.067-.483-.202-.65a1.537 1.537 0 00-.525-.42 3.794 3.794 0 00-.75-.295c-.28-.08-.564-.166-.853-.259a7.348 7.348 0 01-.854-.336c-.28-.13-.53-.3-.75-.51a2.373 2.373 0 01-.531-.785c-.131-.317-.196-.707-.196-1.169 0-.369.072-.728.217-1.078.149-.35.364-.66.644-.93.28-.272.625-.489 1.036-.652.41-.163.882-.245 1.414-.245.597 0 1.148.093 1.652.28a3.73 3.73 0 011.288.784l-.47.89zM34.202 7.878h1.512c.163 0 .296.04.4.119.102.08.179.182.23.308l2.387 6.174c.08.2.154.422.224.665.075.238.145.488.21.749.051-.261.11-.511.175-.75a7.38 7.38 0 01.224-.664l2.373-6.174a.671.671 0 01.217-.294.634.634 0 01.406-.133h1.52L39.99 18h-1.7L34.201 7.878z" fill="#fff"/></g><defs><clipPath id="clip0"><path fill="#fff" d="M0 0h48v24H0z"/></clipPath></defs></svg>