<svg width="48" height="24" fill="none" xmlns="http://www.w3.org/2000/svg"><g clip-path="url(#clip0)"><path d="M6.986 24c-3.092 0-5.015-3.358-3.45-6.025L11.181 4.95a8 8 0 016.9-3.95H44a4 4 0 014 4v15a4 4 0 01-4 4H6.985z" fill="#0D4CD3"/><path d="M24.302 12.939c0 .742-.124 1.423-.371 2.044a4.694 4.694 0 01-1.043 1.603 4.666 4.666 0 01-1.617 1.043c-.63.247-1.33.37-2.1.37h-3.857V7.879h3.857c.77 0 1.47.126 2.1.378.63.247 1.169.595 1.617 1.043a4.62 4.62 0 011.043 1.596c.247.62.371 1.302.371 2.044zm-1.932 0c0-.555-.075-1.052-.224-1.491a2.994 2.994 0 00-.637-1.12 2.72 2.72 0 00-1.008-.707 3.43 3.43 0 00-1.33-.245h-1.967v7.126h1.967a3.43 3.43 0 001.33-.245 2.759 2.759 0 001.008-.7c.28-.308.492-.681.637-1.12.15-.443.224-.943.224-1.498zM34.918 12.94c0 .741-.124 1.43-.371 2.064a4.804 4.804 0 01-1.036 1.638 4.764 4.764 0 01-1.617 1.085c-.63.257-1.33.385-2.1.385-.766 0-1.463-.128-2.093-.385a4.84 4.84 0 01-1.624-1.085 4.891 4.891 0 01-1.043-1.638 5.639 5.639 0 01-.371-2.065c0-.742.123-1.428.37-2.058a4.875 4.875 0 011.044-1.645A4.756 4.756 0 0127.7 8.158c.63-.261 1.327-.392 2.093-.392.513 0 .996.06 1.449.182a4.91 4.91 0 011.246.504c.378.215.716.478 1.015.791.303.308.56.653.77 1.036.21.383.368.798.476 1.246.112.448.168.92.168 1.414zm-1.925 0c0-.556-.075-1.053-.224-1.492a3.2 3.2 0 00-.637-1.127 2.72 2.72 0 00-1.008-.707 3.43 3.43 0 00-1.33-.245c-.495 0-.94.082-1.337.245a2.8 2.8 0 00-1.008.707 3.2 3.2 0 00-.637 1.127c-.15.439-.224.936-.224 1.491s.074 1.055.224 1.498c.149.439.361.812.637 1.12.28.303.616.537 1.008.7.396.163.842.245 1.337.245a3.43 3.43 0 001.33-.245 2.759 2.759 0 001.008-.7c.275-.308.487-.681.637-1.12.149-.443.224-.943.224-1.498zM42.822 15.613c.103 0 .194.04.273.12l.742.804c-.41.509-.917.898-1.519 1.17-.597.27-1.316.405-2.156.405-.751 0-1.428-.128-2.03-.385a4.476 4.476 0 01-1.533-1.07 4.732 4.732 0 01-.98-1.639 6.207 6.207 0 01-.336-2.079c0-.76.122-1.456.364-2.086a4.824 4.824 0 011.022-1.638c.444-.457.97-.812 1.582-1.064a5.194 5.194 0 012.03-.385c.738 0 1.39.121 1.96.364.574.243 1.062.56 1.463.952l-.63.875a.55.55 0 01-.147.147.39.39 0 01-.238.063.485.485 0 01-.217-.056 5.724 5.724 0 01-.245-.147 6.138 6.138 0 00-.308-.196 2.348 2.348 0 00-.406-.189 2.884 2.884 0 00-.539-.147 3.447 3.447 0 00-.7-.063c-.452 0-.868.082-1.246.245a2.653 2.653 0 00-.966.7c-.27.303-.48.677-.63 1.12-.15.439-.224.94-.224 1.505 0 .57.08 1.076.238 1.52.164.442.383.816.658 1.12.276.302.6.536.973.7.374.158.775.237 1.204.237.257 0 .488-.014.693-.042.21-.028.402-.072.574-.133.178-.06.343-.138.497-.23.159-.099.315-.218.47-.358a.577.577 0 01.146-.098.332.332 0 01.161-.042z" fill="#fff"/></g><defs><clipPath id="clip0"><path fill="#fff" d="M0 0h48v24H0z"/></clipPath></defs></svg>