<svg width="48" height="24" fill="none" xmlns="http://www.w3.org/2000/svg"><g clip-path="url(#clip0)"><path d="M6.986 24c-3.092 0-5.015-3.358-3.45-6.025L11.181 4.95a8 8 0 016.9-3.95H44a4 4 0 014 4v15a4 4 0 01-4 4H6.985z" fill="#EE3F58"/><path d="M21.335 12.297l-2.36-3.48h1.667c.126 0 .22.02.28.057a.43.43 0 01.16.168l1.506 2.4c.023-.078.051-.158.084-.237.037-.08.082-.159.133-.238l1.21-1.89c.104-.173.237-.26.4-.26h1.589l-2.366 3.403L26.102 16h-1.666a.469.469 0 01-.308-.098.967.967 0 01-.19-.224l-1.525-2.5c-.042.169-.1.309-.175.42l-1.344 2.08c-.051.08-.114.154-.19.224a.41.41 0 01-.28.098h-1.546l2.457-3.703zM32.17 16.938v1.12h-5.516v-1.12h5.516zM35.184 12.297l-2.358-3.48h1.666c.126 0 .219.02.28.057a.43.43 0 01.16.168l1.505 2.4c.024-.078.052-.158.085-.237.037-.08.081-.159.133-.238l1.21-1.89c.103-.173.236-.26.4-.26h1.588l-2.366 3.403L39.953 16h-1.666a.469.469 0 01-.309-.098.967.967 0 01-.188-.224l-1.526-2.5c-.042.169-.1.309-.175.42l-1.345 2.08c-.05.08-.114.154-.189.224a.41.41 0 01-.28.098h-1.547l2.458-3.703z" fill="#fff"/></g><defs><clipPath id="clip0"><path fill="#fff" d="M0 0h48v24H0z"/></clipPath></defs></svg>