<svg width="48" height="24" fill="none" xmlns="http://www.w3.org/2000/svg"><g clip-path="url(#clip0)"><path d="M6.986 24c-3.092 0-5.015-3.358-3.45-6.025L11.181 4.95a8 8 0 016.9-3.95H44a4 4 0 014 4v15a4 4 0 01-4 4H6.985z" fill="#1D5DEB"/><path d="M28.49 7.878v1.498h-4.494v2.996h3.794v1.505h-3.794V18h-1.89V7.878h6.384zM31.569 16.446h4.046V18h-5.929V7.878h1.883v8.568zM34.202 7.878h1.512c.163 0 .296.04.4.119.102.08.179.182.23.308l2.387 6.174c.08.2.154.422.224.665.075.238.145.488.21.749.051-.261.11-.511.175-.749.07-.243.145-.464.224-.665l2.373-6.174a.671.671 0 01.217-.294.634.634 0 01.406-.133h1.52L39.99 18h-1.7L34.201 7.878z" fill="#fff"/></g><defs><clipPath id="clip0"><path fill="#fff" d="M0 0h48v24H0z"/></clipPath></defs></svg>