<svg width="48" height="24" fill="none" xmlns="http://www.w3.org/2000/svg"><g clip-path="url(#clip0)"><path d="M6.986 24c-3.092 0-5.015-3.358-3.45-6.025L11.181 4.95a8 8 0 016.9-3.95H44a4 4 0 014 4v15a4 4 0 01-4 4H6.985z" fill="#851F82"/><path d="M20.002 12.12h.44c.178 0 .325-.023.442-.07a.776.776 0 00.3-.238l2.794-3.535a.989.989 0 01.364-.308c.13-.06.294-.091.49-.091h1.624l-3.41 4.207c-.2.257-.408.439-.622.546.154.056.291.135.413.238.126.098.245.229.357.392L26.708 18h-1.66c-.223 0-.391-.03-.503-.091a.827.827 0 01-.273-.28l-2.863-3.738a.75.75 0 00-.308-.266c-.117-.051-.285-.077-.504-.077h-.595V18h-1.883V7.878h1.883v4.242zM34.24 7.878v1.498h-4.494v2.807h3.542v1.449h-3.542v2.863h4.494V18h-6.384V7.878h6.384zM40.396 14.08V18H38.52v-3.92l-3.689-6.202h1.66c.162 0 .29.04.384.119.098.08.18.18.245.3l1.848 3.382c.107.205.2.397.28.574.084.177.159.352.224.525.06-.177.13-.355.21-.532.08-.177.17-.366.273-.567l1.841-3.381a.934.934 0 01.231-.287.578.578 0 01.392-.133h1.666l-3.689 6.202z" fill="#fff"/></g><defs><clipPath id="clip0"><path fill="#fff" d="M0 0h48v24H0z"/></clipPath></defs></svg>