<svg width="48" height="24" fill="none" xmlns="http://www.w3.org/2000/svg"><path d="M6.986 24c-3.092 0-5.015-3.358-3.45-6.025L11.181 4.95a8 8 0 016.9-3.95H44a4 4 0 014 4v15a4 4 0 01-4 4H6.986z" fill="#1D5DEB"/><path d="M19.496 13.8c.08.15.152.306.217.469.07.159.138.32.203.483a9.96 9.96 0 01.427-.966l2.99-5.607a.706.706 0 01.118-.168.399.399 0 01.133-.091.63.63 0 01.168-.035 2.88 2.88 0 01.217-.007h1.421V18h-1.659v-6.538c0-.121.003-.254.007-.399.01-.145.021-.292.035-.441l-3.059 5.74c-.144.275-.366.413-.665.413h-.266c-.298 0-.52-.138-.665-.413l-3.094-5.761c.014.154.026.306.035.455.01.145.014.28.014.406V18h-1.659V7.878h1.421c.084 0 .157.002.217.007s.115.016.161.035a.324.324 0 01.133.091.709.709 0 01.12.168l3.03 5.621zm9.616-1.68h.44c.178 0 .325-.023.442-.07a.776.776 0 00.3-.238l2.794-3.535a.989.989 0 01.364-.308c.13-.06.294-.091.49-.091h1.624l-3.41 4.207c-.2.257-.408.439-.622.546.154.056.291.135.413.238.126.098.245.229.357.392L35.818 18h-1.66c-.223 0-.391-.03-.503-.091a.827.827 0 01-.273-.28l-2.863-3.738a.75.75 0 00-.308-.266c-.117-.051-.285-.077-.504-.077h-.595V18h-1.883V7.878h1.883v4.242zm6.09-4.242h1.512c.164 0 .297.04.4.119.102.08.179.182.23.308l2.387 6.174c.08.2.154.422.224.665.075.238.145.488.21.749.052-.261.11-.511.175-.749a7.38 7.38 0 01.224-.665l2.373-6.174a.671.671 0 01.217-.294.634.634 0 01.406-.133h1.52L40.99 18h-1.7L35.201 7.878z" fill="#fff"/></svg>