<svg width="48" height="24" fill="none" xmlns="http://www.w3.org/2000/svg"><g clip-path="url(#clip0)"><path d="M6.986 24c-3.092 0-5.015-3.358-3.45-6.025L11.181 4.95a8 8 0 016.9-3.95H44a4 4 0 014 4v15a4 4 0 01-4 4H6.985z" fill="#1D5DEB"/><path d="M19.936 13.8c.079.15.151.306.216.469.07.159.138.32.203.483a9.96 9.96 0 01.427-.966l2.99-5.607a.706.706 0 01.119-.168.399.399 0 01.133-.091.63.63 0 01.168-.035c.06-.005.133-.007.216-.007h1.421V18H24.17v-6.538c0-.121.003-.254.007-.4.01-.144.021-.29.035-.44l-3.058 5.74c-.145.275-.367.413-.666.413h-.265c-.3 0-.52-.138-.665-.413L16.463 10.6c.014.154.026.306.035.455.01.145.014.28.014.406V18h-1.659V7.878h1.421c.084 0 .157.002.217.007.061.005.115.016.162.035a.324.324 0 01.133.09.706.706 0 01.118.169l3.032 5.62zM36.41 12.94c0 .741-.123 1.43-.37 2.064a4.804 4.804 0 01-1.036 1.638 4.764 4.764 0 01-1.617 1.085c-.63.257-1.33.385-2.1.385-.766 0-1.463-.128-2.093-.385a4.84 4.84 0 01-1.624-1.085 4.891 4.891 0 01-1.043-1.638 5.639 5.639 0 01-.371-2.065c0-.742.123-1.428.37-2.058a4.875 4.875 0 011.044-1.645 4.755 4.755 0 011.624-1.078c.63-.261 1.327-.392 2.093-.392.513 0 .996.06 1.449.182a4.91 4.91 0 011.246.504c.378.215.716.478 1.015.791.303.308.56.653.77 1.036.21.383.368.798.476 1.246.112.448.168.92.168 1.414zm-1.924 0c0-.556-.075-1.053-.224-1.492a3.2 3.2 0 00-.637-1.127 2.721 2.721 0 00-1.008-.707 3.43 3.43 0 00-1.33-.245c-.495 0-.94.082-1.337.245a2.8 2.8 0 00-1.008.707 3.2 3.2 0 00-.637 1.127c-.15.439-.224.936-.224 1.491s.075 1.055.224 1.498c.15.439.361.812.637 1.12.28.303.616.537 1.008.7.396.163.842.245 1.337.245a3.43 3.43 0 001.33-.245 2.76 2.76 0 001.008-.7c.275-.308.487-.681.637-1.12.15-.443.224-.943.224-1.498zM35.202 7.878h1.512c.163 0 .296.04.4.119.102.08.179.182.23.308l2.387 6.174c.08.2.154.422.224.665.075.238.145.488.21.749.051-.261.11-.511.175-.75a7.38 7.38 0 01.224-.664l2.373-6.174a.671.671 0 01.217-.294.634.634 0 01.406-.133h1.52L40.99 18h-1.7L35.201 7.878z" fill="#fff"/></g><defs><clipPath id="clip0"><path fill="#fff" d="M0 0h48v24H0z"/></clipPath></defs></svg>