<svg width="48" height="24" fill="none" xmlns="http://www.w3.org/2000/svg"><path d="M6.986 24c-3.092 0-5.015-3.358-3.45-6.025L11.181 4.95a8 8 0 016.9-3.95H44a4 4 0 014 4v15a4 4 0 01-4 4H6.986z" fill="#16A086"/><path d="M19.694 14.437V18H17.81V7.878h3.29c.676 0 1.262.08 1.757.238.494.159.903.38 1.225.665.322.285.56.625.714 1.022.158.397.238.83.238 1.302 0 .49-.082.94-.245 1.351a2.801 2.801 0 01-.735 1.05c-.327.294-.738.523-1.232.686-.49.163-1.064.245-1.722.245h-1.407zm0-1.47H21.1c.345 0 .646-.042.903-.126a1.74 1.74 0 00.637-.371c.172-.163.3-.36.385-.588a2.28 2.28 0 00.126-.777c0-.27-.042-.516-.126-.735a1.453 1.453 0 00-.378-.56 1.645 1.645 0 00-.637-.35 2.936 2.936 0 00-.91-.126h-1.407v3.633zm13.736 2.646c.102 0 .193.04.273.119l.742.805c-.411.509-.917.898-1.52 1.169-.597.27-1.315.406-2.155.406-.752 0-1.428-.128-2.03-.385a4.474 4.474 0 01-1.533-1.071 4.73 4.73 0 01-.98-1.638 6.207 6.207 0 01-.336-2.079c0-.76.12-1.456.364-2.086a4.821 4.821 0 011.022-1.638c.443-.457.97-.812 1.582-1.064a5.194 5.194 0 012.03-.385c.737 0 1.39.121 1.96.364.574.243 1.061.56 1.463.952l-.63.875a.552.552 0 01-.147.147.39.39 0 01-.238.063.484.484 0 01-.217-.056 5.593 5.593 0 01-.245-.147 6.23 6.23 0 00-.308-.196 2.351 2.351 0 00-.406-.189 2.886 2.886 0 00-.54-.147 3.447 3.447 0 00-.7-.063c-.452 0-.867.082-1.245.245a2.651 2.651 0 00-.966.7c-.271.303-.481.677-.63 1.12a4.66 4.66 0 00-.224 1.505c0 .57.079 1.076.238 1.519.163.443.382.817.658 1.12.275.303.6.537.973.7.373.159.774.238 1.204.238.256 0 .487-.014.693-.042.21-.028.4-.072.574-.133a2.55 2.55 0 00.497-.231c.158-.098.315-.217.469-.357a.574.574 0 01.147-.098.332.332 0 01.16-.042zm4.558-2.821l-3.227-4.914h1.876c.131 0 .224.019.28.056.061.033.117.089.168.168l2.296 3.71a2.723 2.723 0 01.175-.35l2.114-3.325a.597.597 0 01.168-.196.397.397 0 01.231-.063h1.8l-3.256 4.837L43.96 18h-1.876a.48.48 0 01-.315-.098.836.836 0 01-.182-.224L39.241 13.8c-.032.103-.077.2-.133.294l-2.247 3.584c-.056.08-.12.154-.196.224a.394.394 0 01-.28.098h-1.757l3.36-5.208z" fill="#fff"/></svg>