<svg width="48" height="24" fill="none" xmlns="http://www.w3.org/2000/svg"><g clip-path="url(#clip0)"><path d="M6.986 24c-3.092 0-5.015-3.358-3.45-6.025L11.181 4.95a8 8 0 016.9-3.95H44a4 4 0 014 4v15a4 4 0 01-4 4H6.985z" fill="#16A086"/><path d="M16.977 14.437V18h-1.883V7.878h3.29c.676 0 1.262.08 1.757.238.494.159.903.38 1.225.665.322.285.56.625.714 1.022.159.397.238.83.238 1.302 0 .49-.082.94-.245 1.35a2.802 2.802 0 01-.735 1.05c-.327.295-.738.524-1.232.687-.49.163-1.064.245-1.722.245h-1.407zm0-1.47h1.407c.345 0 .646-.042.903-.126a1.74 1.74 0 00.637-.371c.172-.163.3-.36.385-.588a2.28 2.28 0 00.126-.777c0-.27-.042-.516-.126-.735a1.453 1.453 0 00-.378-.56 1.645 1.645 0 00-.637-.35 2.935 2.935 0 00-.91-.126h-1.407v3.633zM24.959 7.878c.079 0 .147.005.203.014.06.005.112.019.154.042a.399.399 0 01.133.09c.042.038.088.09.14.155l5.306 6.776a17.949 17.949 0 01-.035-.483 7.577 7.577 0 01-.014-.441V7.878h1.659V18h-.966a.911.911 0 01-.378-.07.935.935 0 01-.287-.252l-5.285-6.741c.014.15.023.299.028.448.009.145.014.278.014.399V18h-1.66V7.878h.988zM43.313 17.02a5.418 5.418 0 01-1.645.833c-.579.173-1.2.26-1.862.26-.826 0-1.575-.13-2.247-.386a5.069 5.069 0 01-1.715-1.07 4.716 4.716 0 01-1.092-1.639 5.494 5.494 0 01-.385-2.079c0-.76.123-1.458.37-2.093a4.746 4.746 0 011.05-1.638 4.739 4.739 0 011.66-1.064c.648-.252 1.376-.378 2.184-.378.41 0 .793.033 1.148.098.359.065.69.156.994.273.308.112.588.25.84.413.252.163.483.343.693.54l-.54.853a.529.529 0 01-.328.252c-.136.028-.283-.007-.441-.105l-.462-.266a2.94 2.94 0 00-.518-.23 4.086 4.086 0 00-.637-.162 4.629 4.629 0 00-.812-.063c-.5 0-.952.084-1.358.252a2.873 2.873 0 00-1.03.721 3.25 3.25 0 00-.657 1.127 4.417 4.417 0 00-.231 1.47c0 .579.081 1.097.245 1.554.168.453.401.838.7 1.155.303.313.667.553 1.092.721.424.163.898.245 1.42.245.374 0 .708-.037 1.002-.112.294-.08.58-.187.86-.322v-1.84h-1.273a.404.404 0 01-.287-.099.356.356 0 01-.098-.252v-1.064h3.36v4.095z" fill="#fff"/></g><defs><clipPath id="clip0"><path fill="#fff" d="M0 0h48v24H0z"/></clipPath></defs></svg>