<svg width="48" height="24" fill="none" xmlns="http://www.w3.org/2000/svg"><path d="M6.986 24c-3.092 0-5.015-3.358-3.45-6.025L11.181 4.95a8 8 0 016.9-3.95H44a4 4 0 014 4v15a4 4 0 01-4 4H6.986z" fill="#851F82"/><path d="M21.99 14.437V18h-1.882V7.878h3.29c.676 0 1.262.08 1.756.238.495.159.904.38 1.226.665.322.285.56.625.713 1.022.16.397.238.83.238 1.302 0 .49-.081.94-.244 1.351a2.804 2.804 0 01-.735 1.05c-.327.294-.738.523-1.233.686-.49.163-1.064.245-1.721.245H21.99zm0-1.47h1.408c.345 0 .646-.042.902-.126a1.74 1.74 0 00.637-.371c.173-.163.301-.36.386-.588a2.28 2.28 0 00.125-.777c0-.27-.041-.516-.125-.735a1.453 1.453 0 00-.378-.56 1.646 1.646 0 00-.637-.35 2.936 2.936 0 00-.91-.126H21.99v3.633zm8.668 1.47V18h-1.883V7.878h3.29c.677 0 1.263.08 1.757.238.495.159.903.38 1.225.665.322.285.56.625.714 1.022.16.397.238.83.238 1.302 0 .49-.081.94-.245 1.351a2.801 2.801 0 01-.735 1.05c-.326.294-.737.523-1.232.686-.49.163-1.064.245-1.722.245h-1.407zm0-1.47h1.407c.346 0 .647-.042.903-.126a1.74 1.74 0 00.637-.371c.173-.163.301-.36.385-.588a2.28 2.28 0 00.126-.777c0-.27-.042-.516-.126-.735a1.453 1.453 0 00-.378-.56 1.645 1.645 0 00-.637-.35 2.935 2.935 0 00-.91-.126h-1.407v3.633zm12.175-3.248a.669.669 0 01-.182.217.397.397 0 01-.23.063.636.636 0 01-.323-.105 6.141 6.141 0 00-.406-.245 3.155 3.155 0 00-.56-.238 2.24 2.24 0 00-.749-.112c-.26 0-.49.033-.686.098-.196.06-.361.147-.497.259-.13.112-.228.247-.294.406a1.296 1.296 0 00-.098.511c0 .238.066.436.196.595.136.159.313.294.532.406.22.112.47.212.75.301s.566.184.86.287c.294.098.581.215.861.35.28.13.53.299.75.504.219.2.394.448.524.742.136.294.203.651.203 1.071 0 .457-.079.887-.238 1.288a2.942 2.942 0 01-.686 1.043 3.264 3.264 0 01-1.099.7c-.434.168-.93.252-1.49.252-.323 0-.64-.033-.953-.098a4.907 4.907 0 01-.903-.266 4.88 4.88 0 01-.805-.42 3.895 3.895 0 01-.672-.546l.553-.903a.553.553 0 01.182-.161.441.441 0 01.238-.07c.117 0 .243.049.378.147.136.093.297.198.483.315.187.117.404.224.651.322.252.093.553.14.903.14.537 0 .952-.126 1.246-.378.294-.257.441-.623.441-1.099 0-.266-.067-.483-.203-.651a1.537 1.537 0 00-.525-.42 3.791 3.791 0 00-.749-.294c-.28-.08-.564-.166-.854-.259a7.355 7.355 0 01-.854-.336c-.28-.13-.53-.301-.749-.511a2.375 2.375 0 01-.532-.784c-.13-.317-.196-.707-.196-1.169 0-.369.073-.728.217-1.078.15-.35.364-.66.644-.931.28-.27.626-.488 1.036-.651.411-.163.882-.245 1.414-.245.598 0 1.148.093 1.652.28a3.73 3.73 0 011.288.784l-.469.889z" fill="#fff"/></svg>