<svg width="48" height="24" fill="none" xmlns="http://www.w3.org/2000/svg"><g clip-path="url(#clip0)"><path d="M6.986 24c-3.092 0-5.015-3.358-3.45-6.025L11.181 4.95a8 8 0 016.9-3.95H44a4 4 0 014 4v15a4 4 0 01-4 4H6.985z" fill="#9DACCE"/><path d="M19.857 14.045V18h-1.883V7.878h3.087c.686 0 1.274.072 1.764.217.495.14.898.338 1.211.595.317.257.55.565.7.924.15.355.224.747.224 1.176 0 .34-.051.663-.154.966a2.693 2.693 0 01-.434.826c-.187.247-.42.464-.7.651a3.61 3.61 0 01-.945.448c.238.135.443.329.616.581L25.877 18h-1.7c-.323 0-.556-.126-.7-.378l-2.129-3.241a.734.734 0 00-.266-.259c-.093-.051-.233-.077-.42-.077h-.805zm0-1.351h1.176c.355 0 .663-.044.924-.133.266-.089.483-.21.651-.364a1.49 1.49 0 00.385-.56c.084-.215.126-.45.126-.707 0-.513-.17-.908-.51-1.183-.337-.275-.853-.413-1.548-.413h-1.204v3.36z" fill="#fff"/><path d="M35.363 18h-1.456a.634.634 0 01-.399-.119.79.79 0 01-.23-.308l-.757-2.065h-4.193l-.756 2.065a.671.671 0 01-.217.294.606.606 0 01-.399.133h-1.47L29.47 7.878h1.918L35.363 18zm-6.552-3.822h3.227l-1.232-3.367a7.941 7.941 0 01-.189-.525 17.37 17.37 0 01-.196-.665c-.065.238-.13.46-.196.665a6.55 6.55 0 01-.182.539l-1.232 3.353zM38.014 14.045V18H36.13V7.878h3.087c.686 0 1.274.072 1.764.217.495.14.898.338 1.21.595.318.257.552.565.7.924.15.355.225.747.225 1.176 0 .34-.051.663-.154.966a2.693 2.693 0 01-.434.826c-.187.247-.42.464-.7.651a3.61 3.61 0 01-.945.448c.238.135.443.329.616.581L44.034 18h-1.701c-.322 0-.555-.126-.7-.378l-2.128-3.241a.734.734 0 00-.266-.259c-.093-.051-.233-.077-.42-.077h-.805zm0-1.351h1.176c.355 0 .663-.044.924-.133.266-.089.483-.21.65-.364a1.49 1.49 0 00.386-.56c.084-.215.126-.45.126-.707 0-.513-.17-.908-.511-1.183-.336-.275-.852-.413-1.547-.413h-1.204v3.36z" fill="#fff"/></g><defs><clipPath id="clip0"><path fill="#fff" d="M0 0h48v24H0z"/></clipPath></defs></svg>