<svg width="48" height="24" fill="none" xmlns="http://www.w3.org/2000/svg"><g clip-path="url(#clip0)"><path d="M6.986 24c-3.092 0-5.015-3.358-3.45-6.025L11.181 4.95a8 8 0 016.9-3.95H44a4 4 0 014 4v15a4 4 0 01-4 4H6.985z" fill="#0D4CD3"/><path d="M26.015 7.878v1.547h-3.052V18H21.08V9.425h-3.052V7.878h7.987zM29.594 12.792l-3.227-4.914h1.876c.13 0 .224.019.28.056a.48.48 0 01.168.168l2.296 3.71a2.665 2.665 0 01.175-.35l2.114-3.325a.595.595 0 01.168-.196.396.396 0 01.23-.063h1.8l-3.255 4.837L35.565 18h-1.876a.48.48 0 01-.315-.098.833.833 0 01-.182-.224L30.847 13.8c-.033.103-.077.2-.133.294l-2.247 3.584c-.056.08-.121.154-.196.224a.394.394 0 01-.28.098h-1.757l3.36-5.208zM43.802 7.878v1.547H40.75V18h-1.883V9.425h-3.052V7.878h7.987z" fill="#fff"/></g><defs><clipPath id="clip0"><path fill="#fff" d="M0 0h48v24H0z"/></clipPath></defs></svg>