<svg width="48" height="24" fill="none" xmlns="http://www.w3.org/2000/svg"><path d="M6.986 24c-3.092 0-5.015-3.358-3.45-6.025L11.181 4.95a8 8 0 016.9-3.95H44a4 4 0 014 4v15a4 4 0 01-4 4H6.986z" fill="#2DC36A"/><path d="M18.806 16.956V14.76c0-.16.008-.316.024-.468.024-.152.06-.296.108-.432a1.589 1.589 0 01-.312.3c-.12.088-.248.176-.384.264l-1.896 1.104-.708-1.2 1.908-1.104a3 3 0 01.42-.216c.144-.056.292-.096.444-.12a1.815 1.815 0 01-.864-.348l-1.908-1.116.696-1.2 1.908 1.128c.136.088.264.18.384.276.128.088.236.188.324.3a1.915 1.915 0 01-.12-.432 4.469 4.469 0 01-.024-.468v-2.22h1.416v2.196c0 .168-.012.332-.036.492a1.556 1.556 0 01-.108.432c.088-.112.192-.212.312-.3a3.83 3.83 0 01.396-.276l1.896-1.104.708 1.2-1.908 1.092a3.75 3.75 0 01-.432.228c-.136.056-.28.096-.432.12.272.048.56.16.864.336l1.908 1.116-.696 1.2-1.908-1.116a5.668 5.668 0 01-.396-.264 1.923 1.923 0 01-.324-.3c.104.256.156.552.156.888v2.208h-1.416zM29.001 16.956V14.76c0-.16.008-.316.024-.468.024-.152.06-.296.108-.432a1.589 1.589 0 01-.312.3c-.12.088-.248.176-.384.264l-1.896 1.104-.708-1.2 1.908-1.104a3 3 0 01.42-.216c.144-.056.292-.096.444-.12a1.815 1.815 0 01-.864-.348l-1.908-1.116.696-1.2 1.908 1.128c.136.088.264.18.384.276.128.088.236.188.324.3a1.915 1.915 0 01-.12-.432 4.469 4.469 0 01-.024-.468v-2.22h1.416v2.196c0 .168-.012.332-.036.492a1.556 1.556 0 01-.108.432c.088-.112.192-.212.312-.3a3.83 3.83 0 01.396-.276l1.896-1.104.708 1.2-1.908 1.092a3.75 3.75 0 01-.432.228c-.136.056-.28.096-.432.12.272.048.56.16.864.336l1.908 1.116-.696 1.2-1.908-1.116a5.668 5.668 0 01-.396-.264 1.923 1.923 0 01-.324-.3c.104.256.156.552.156.888v2.208h-1.416zM39.197 16.956V14.76c0-.16.008-.316.024-.468.024-.152.06-.296.108-.432a1.589 1.589 0 01-.312.3c-.12.088-.248.176-.384.264l-1.896 1.104-.708-1.2 1.908-1.104a3 3 0 01.42-.216c.144-.056.292-.096.444-.12a1.815 1.815 0 01-.864-.348l-1.908-1.116.696-1.2 1.908 1.128c.136.088.264.18.384.276.128.088.236.188.324.3a1.915 1.915 0 01-.12-.432 4.469 4.469 0 01-.024-.468v-2.22h1.416v2.196c0 .168-.012.332-.036.492a1.556 1.556 0 01-.108.432c.088-.112.192-.212.312-.3a3.83 3.83 0 01.396-.276l1.896-1.104.708 1.2-1.908 1.092a3.75 3.75 0 01-.432.228c-.136.056-.28.096-.432.12.272.048.56.16.864.336l1.908 1.116-.696 1.2-1.908-1.116a5.668 5.668 0 01-.396-.264 1.923 1.923 0 01-.324-.3c.104.256.156.552.156.888v2.208h-1.416z" fill="#fff"/></svg>