<?xml version="1.0" encoding="utf-8"?>
<!-- Generator: Adobe Illustrator 24.2.1, SVG Export Plug-In . SVG Version: 6.00 Build 0)  -->
<svg version="1.1" id="Layer_1" xmlns="http://www.w3.org/2000/svg" xmlns:xlink="http://www.w3.org/1999/xlink" x="0px" y="0px"
	 viewBox="0 0 480 480" style="enable-background:new 0 0 480 480;" xml:space="preserve">
<style type="text/css">
	.st0{fill-rule:evenodd;clip-rule:evenodd;fill:#FFFFFF;}
	.st1{fill-rule:evenodd;clip-rule:evenodd;}
	.st2{fill-rule:evenodd;clip-rule:evenodd;fill:url(#SVGID_1_);}
</style>
<rect id="back" class="st0" width="480" height="480"/>
<g id="Graphics">
	<g id="leg" transform="matrix(0.952936,0,0,0.952936,27.5377,8.50643)">
		<path class="st1" d="M277.3,297.2c-0.2-0.2-0.4-0.4-0.8-0.2c-0.2,0-0.4,0.4-0.6,0.6h-0.2c0,0-3.5,20-7.3,34.5
			c-1.6,6.5-3.5,11.8-5.1,13.7c-3.1,3.5-10.8,12.7-20.2,24.1c-16.1,19.4-36.9,44.9-46.5,56.3c-9.6,11.6-7.5,24.9-0.4,32.4
			c4.1,4.5,10,6.9,16.3,6.3c4.9-0.6,10.2-3.3,14.9-8.8c9-10.6,26.1-31.2,41.2-49.4c13.3-16.1,24.7-30.2,26.9-33.5
			c2.4-3.3,4.9-9.8,7.1-16.5c3.9-12.2,6.9-25.9,6.9-25.9c0-0.4,0-0.6-0.2-0.8L277.3,297.2L277.3,297.2z M277.5,299.7
			c-0.8,5.1-3.7,21-6.9,33.1c-1.8,6.9-3.7,12.7-5.5,14.5c-3.1,3.5-10.6,12.7-20,24.1c-15.9,19.6-36.7,44.9-46.1,56.5
			c-8.6,10.4-6.7,22.2-0.4,29c3.7,3.9,8.6,6.1,14.1,5.5c4.5-0.6,9-3.1,13.3-8c9-10.4,26.3-31.2,41.2-49.4
			c13.3-15.9,24.7-30,27.1-33.1c2.2-3.3,4.7-9.4,6.9-15.9c3.5-10.8,6.3-22.6,6.9-25.1L277.5,299.7z"/>
	</g>
	<g id="torso" transform="matrix(0.952936,0,0,0.952936,27.5377,8.50643)">
		<path class="st1" d="M264.4,171.9c-4.5,4.7-13.9,14.7-21,23.1c-3.1,3.7-5.9,6.9-7.3,9.2c-0.6,1-1,1.8-1.2,2.2
			c-0.2,1-0.6,2.9-1,5.5c-2,11.2-5.5,35.1-8.4,50c-2,10.8-11.2,14.7-19.2,12.9c-7.5-1.8-14.3-8.8-12.4-19.8c2-12,5.5-31.2,8.6-45.7
			c2-9.2,4.1-16.7,5.5-19.4c2-3.7,10.2-14.1,19.6-25.3c12.2-14.7,26.3-30.6,31.8-35.7c4.3-3.9,7.8-6.5,11.2-8
			c4.1-1.6,8.2-2,13.7-1.4l0,0c5.1,0.6,21.6,2.7,36.5,4.9c10.6,1.6,20.2,3.3,24.3,4.5c5.5,1.6,9.8,3.7,13.3,7.1
			c2.9,3.1,5.3,7.1,7.1,13.3c1,3.1,2.4,8,4.1,13.9c5.9,20.8,14.9,53.5,15.7,55.1c0.6,1.2,2.9,3.9,8,10c4.3,5.1,10.8,12.4,20,22.9
			c8.8,9.8,7.3,19.6,1.8,24.9c-5.7,5.5-16.1,6.3-24.5-3.3c-5.3-6.1-15.5-16.9-22.9-25.9c-4.3-5.1-7.5-9.6-8.8-12.2
			c-1-2.2-2.7-7.5-4.7-13.7c-2.9-9-6.1-20-8.2-26.3l-9.8,83.5c2.4,3.3,19.2,25.1,32,42.4c5.9,8,11,15.1,13.3,18.8
			c2.9,4.5,7.5,16.1,12.7,30.2c9.4,26.1,20.6,60.6,24.7,71.8c4.5,12-2.7,21.4-12,24.1c-8.6,2.4-19.4-0.6-24.5-12.7
			c-1.6-3.7-4.3-10.2-7.5-18c-10.2-24.9-25.9-63.7-29.4-72c-1.6-3.9-10.2-14.1-21-26.1c-20.2-22.6-48.2-51.8-54.1-57.9
			c-5.5-5.5-9.8-10.2-12.2-15.5c-1.8-3.9-2.7-8.2-2-13.5c0.4-3.7,1.4-13.3,2.7-24.5C260.9,206,263.6,181.1,264.4,171.9z M284,121.3
			c5.1,0.6,21.6,2.7,36.3,4.9c10.4,1.6,20,3.3,23.9,4.5c5.1,1.4,9,3.3,12.2,6.7c2.7,2.9,4.9,6.7,6.7,12.4c1,3.1,2.4,8,4.1,13.7
			c6.1,21,14.9,53.9,15.9,55.5c0.6,1.2,2.9,4.1,8.2,10.4c4.3,5.1,10.8,12.4,20,23.1c7.5,8.6,6.7,17.1,1.8,21.6
			c-4.9,4.9-13.9,5.1-21.2-3.1c-5.3-6.1-15.3-16.9-22.6-25.9c-4.1-4.9-7.3-9.2-8.4-11.6c-1-2.2-2.7-7.3-4.7-13.5
			c-4.3-13.7-9.8-32-9.8-32c-0.2-0.6-0.6-0.8-1.2-0.8c-0.6,0-1,0.4-1,1L333.6,278c0,0.4,0,0.6,0.2,0.8c0,0,18.4,24.1,32.2,42.8
			c5.9,8,10.8,14.9,13.3,18.8c2.9,4.5,7.3,15.9,12.2,29.8c9.4,26.1,20.4,60.6,24.7,71.8c3.9,10.2-2.2,18.4-10.2,20.6
			c-7.5,2.2-16.7-0.6-21.4-11c-1.6-3.7-4.3-10-7.5-18c-10.2-24.9-25.9-63.7-29.6-72c-1.6-3.9-10.4-14.5-21.4-26.7
			c-20.2-22.6-48.4-51.8-54.3-57.9c-5.1-5.3-9.4-9.8-11.8-14.9c-1.6-3.5-2.2-7.3-1.8-12c0.4-3.7,1.4-13.3,2.7-24.5
			c2.7-24.5,5.9-57.1,5.9-57.1c0-0.6-0.2-1-0.8-1.2c-0.4-0.2-1-0.2-1.4,0.2c0,0-14.1,14.5-23.7,25.9c-3.3,3.7-5.9,7.1-7.5,9.6
			c-0.8,1.2-1.4,2.2-1.6,3.1c-0.2,1-0.6,3.1-1,5.7c-2,11.2-5.5,35.1-8.2,50c-1.8,9.2-9.4,12.4-16.1,10.8
			c-6.5-1.6-12.2-7.5-10.6-16.9c2-12,5.3-31,8.6-45.7c2-9,3.9-16.1,5.3-19c2-3.7,10-13.9,19.2-25.1c12-14.5,26.1-30.6,31.6-35.5
			c3.9-3.7,7.1-6.1,10.4-7.5C275,121.1,278.9,120.9,284,121.3L284,121.3z"/>
	</g>
	<g id="head" transform="matrix(0.93308,0.412515,-0.411042,0.929748,56.3333,-90.1756)">
		<path class="st1" d="M283.4,52.5c4.3,10,11.8,16.5,20.4,20.2c9.6,4.1,20.2,4.5,28.8,1.8c8.8-2.9,18-11.4,23.1-22.4
			c4.5-9.6,5.9-21.2,1.4-32.2c-4.5-10.8-12.2-18-20.8-21.6c-10-4.3-21.2-4.3-30-1c-9,3.5-18.8,11.4-23.7,22.6
			C278.6,29.1,277.7,40.1,283.4,52.5L283.4,52.5z M284.9,51.9c-5.3-11.8-4.5-22.4-0.6-31.2c4.7-10.6,14.1-18.2,22.6-21.4
			c8.4-3.1,18.8-3.1,28.2,1.2c8.2,3.7,15.3,10.2,19.4,20.4c4.3,10.2,2.9,21-1.2,30.2c-4.7,10.4-13.3,18.8-21.4,21.4
			c-8.2,2.7-18.4,2.4-27.3-1.4C296.5,67.6,289.2,61.3,284.9,51.9L284.9,51.9z"/>
	</g>
	<g id="paint" transform="matrix(1.73687,-0.296148,0.317889,1.86438,-1005.73,-38.1313)">
		
			<linearGradient id="SVGID_1_" gradientUnits="userSpaceOnUse" x1="792.1284" y1="213.8261" x2="794.1688" y2="213.8261" gradientTransform="matrix(17.2249 -114.1799 140.1495 21.4882 -43018.1055 86068.3047)">
			<stop  offset="0" style="stop-color:#E8FBFF;stop-opacity:0.6"/>
			<stop  offset="1" style="stop-color:#B1E7FF"/>
		</linearGradient>
		<path class="st2" d="M577.8,138.9c0.2-1,0.8-2,1.8-2.7s2.2-0.8,3.3-0.6c12.2,2.7,46.5,9.8,60,12.7c3.1,0.6,5.1,3.5,4.7,6.3
			c-1.8,13.3-6.9,47.7-8.8,61c-0.4,2.9-3.3,4.9-6.3,4.5c-13.7-1.6-49.2-5.5-63.3-7.1c-1.6-0.2-2.9-1-3.9-2c-1-1.2-1.2-2.7-1-4.1
			C567.2,192.3,575.2,151.9,577.8,138.9z"/>
	</g>
</g>
</svg>
