<?xml version="1.0" encoding="utf-8"?>
<!-- Generator: Adobe Illustrator 24.2.1, SVG Export Plug-In . SVG Version: 6.00 Build 0)  -->
<svg version="1.1" id="Layer_1" xmlns="http://www.w3.org/2000/svg" xmlns:xlink="http://www.w3.org/1999/xlink" x="0px" y="0px"
	 viewBox="0 0 480 480" style="enable-background:new 0 0 480 480;" xml:space="preserve">
<style type="text/css">
	.st0{fill-rule:evenodd;clip-rule:evenodd;fill:#FFFFFF;}
	.st1{fill-rule:evenodd;clip-rule:evenodd;}
	
		.st2{fill-rule:evenodd;clip-rule:evenodd;fill:#FFFFFF;stroke:#000000;stroke-width:2.5401;stroke-linecap:round;stroke-linejoin:round;stroke-miterlimit:1.2258;}
	.st3{fill-rule:evenodd;clip-rule:evenodd;fill:url(#SVGID_1_);}
	.st4{fill-rule:evenodd;clip-rule:evenodd;fill:url(#SVGID_2_);}
</style>
<rect id="back" x="0.2" y="-0.5" class="st0" width="480" height="480"/>
<g id="Graphics">
	<g id="road" transform="matrix(1.35926,0,0,1.35926,-575.215,48.1509)">
		<path class="st1" d="M647.5,39.8l-27-11c-0.3-0.1-0.4-0.4-0.3-0.6c0.1-0.2,0.4-0.4,0.6-0.3L649.3,39c0.2,0.1,0.4,0.3,0.5,0.6
			c0,0.3-0.1,0.5-0.3,0.7c0,0-7.6,5.6-19.8,14.4c-5.7,4.1-12.4,9-19.9,14.3c-43.9,31.6-112.5,80.9-143.3,103l-15.8,11.3
			c-0.1,0.1-0.1,0.1-0.1,0.1c0,0.1,0,0.1,0,0.1c-0.3,0.1-0.6,0.1-0.8-0.2c-0.2-0.3-0.1-0.6,0.1-0.8c-0.1,0,0.1-0.1,0.1-0.1
			c0,0,0,0-0.1,0.1c0,0,0.1,0,0.1,0c0,0,0.1-0.1,0.1-0.1l15.7-11.4c30.7-22.2,99.1-71.8,142.9-103.5c7.4-5.4,14.2-10.2,19.9-14.3
			C638.2,46.5,645,41.6,647.5,39.8z M450.6,183.6C450.6,183.6,450.6,183.6,450.6,183.6C450.7,183.6,450.6,183.8,450.6,183.6z"/>
	</g>
	<g id="road1" transform="matrix(1.35926,0,0,1.35926,-488.27,-6.53659)">
		<path class="st1" d="M607.9,60.8l44.4-33.1c0.2-0.1,0.4-0.1,0.6,0.1c0.1,0.2,0.1,0.4-0.1,0.6l-44.3,33.9c-0.2,0.2-0.5,0.2-0.7,0.1
			c0,0-9.8-3.6-23.7-8.7c-7.1-2.6-15.2-5.6-23.7-8.8c-9.4-3.5-19.2-7.2-28.4-10.7c-23.1-8.7-42.6-16.1-42.6-16.1
			c-0.2-0.1-0.3-0.3-0.3-0.6c0.1-0.2,0.3-0.3,0.6-0.3c0,0,19.5,7.1,42.8,15.6c9.2,3.4,19.1,7,28.5,10.4c8.5,3.1,16.6,6.1,23.7,8.8
			C596.9,56.6,606,60.1,607.9,60.8z"/>
	</g>
	<g id="road2" transform="matrix(1.35926,0,0,1.35926,-488.27,-6.53659)">
		<path class="st1" d="M637.4,73.5c3.3,1.4,12.5,5.2,21.6,9c11.5,4.8,22.9,9.6,22.9,9.6c0.2,0.1,0.3,0.3,0.2,0.6
			c-0.1,0.2-0.3,0.3-0.6,0.2c0,0-11.5-4.6-23.1-9.2c-11.5-4.6-23.1-9.2-23.1-9.2c-0.3-0.1-0.5-0.4-0.5-0.6c0-0.3,0.1-0.6,0.3-0.8
			c0,0,3.5-2.8,8.8-7c3.7-3,8.3-6.6,13.2-10.4c4.4-3.4,8.9-7,13.3-10.4c10.8-8.4,19.9-15.5,19.9-15.5c0.2-0.1,0.4-0.1,0.6,0.1
			c0.1,0.2,0.1,0.4-0.1,0.6c0,0-8.9,7.3-19.6,15.9c-4.2,3.4-8.8,7.1-13.1,10.6c-4.8,3.9-9.4,7.5-13.1,10.5
			C641.5,70.2,638.8,72.4,637.4,73.5z"/>
	</g>
	<g id="road3" transform="matrix(1.35926,0,0,1.35926,-717.194,259.387)">
		<path class="st1" d="M564.5,85.3l-15.4,11.6c-0.2,0.1-0.5,0.1-0.6-0.1c-0.1-0.2-0.1-0.5,0.1-0.6l15.5-12c0.2-0.1,0.4-0.2,0.6-0.1
			c0,0,16.7,6.9,37.9,15.7c4.1,1.7,8.3,3.5,12.6,5.3c4.2,1.7,8.4,3.5,12.6,5.3c10.9,4.6,21.8,9.3,31.4,13.4
			c18,7.7,31.4,13.5,31.4,13.5c0.2,0.1,0.3,0.3,0.2,0.5c-0.1,0.2-0.3,0.3-0.5,0.2c0,0-13.5-5.5-31.6-13c-9.6-4-20.6-8.5-31.6-13.1
			c-4.2-1.8-8.5-3.5-12.6-5.3c-4.3-1.8-8.5-3.6-12.6-5.3C582.5,93,566.9,86.3,564.5,85.3z"/>
	</g>
	<g id="road4" transform="matrix(1.35926,0,0,1.35926,-458.98,307.808)">
		<path class="st1" d="M593.2,103.7l16.4,6.6c0.2,0.1,0.3,0.3,0.2,0.6c-0.1,0.2-0.3,0.3-0.6,0.3l-17.6-6.6c-0.2-0.1-0.4-0.3-0.4-0.5
			c0-0.2,0-0.5,0.2-0.6c0,0,4.6-4.1,11.1-9.9c3.3-3,7.2-6.4,11.2-9.9c4.4-3.9,9.1-7.9,13.5-11.7c11.1-9.5,20.4-17.4,20.4-17.4
			c0.2-0.1,0.4-0.1,0.6,0c0.1,0.2,0.1,0.4,0,0.6c0,0-9.1,8.2-20,17.9c-4.3,3.9-8.9,8-13.4,11.9c-4,3.5-7.9,6.9-11.2,9.8
			C598.7,99,594.8,102.3,593.2,103.7z"/>
	</g>
	<g id="road5" transform="matrix(1.35926,0,0,1.35926,-575.215,48.1509)">
		<path class="st1" d="M566.6,127.5c0.3-0.1,0.6-0.1,0.8,0.2c0.2,0.3,0.2,0.6,0,0.8c0.3,0-0.1,0.1-0.1,0.1c0,0,0,0,0.1-0.1
			c0,0-0.1,0-0.1,0c0,0,0,0-0.1,0.1c-0.2,0.1-0.5,0.4-0.9,0.7c-1.6,1.2-4.9,3.7-9.3,7.1c-24.5,18.7-84.4,64.5-92.6,70.7l186.4,76.4
			c2-1.7,11.5-9.9,23.9-20.4c7.4-6.3,15.8-13.5,24.3-20.7c24.3-20.7,48.7-41.3,48.7-41.3c0.2-0.2,0.5-0.2,0.7,0.1
			c0.2,0.2,0.2,0.5-0.1,0.7c0,0-24.1,20.9-48.3,41.7c-8.4,7.2-16.8,14.5-24.2,20.8c-13.9,11.9-24.2,20.8-24.2,20.8
			c-0.2,0.2-0.6,0.3-0.9,0.1l-187.8-77.3c-0.2-0.1-0.4-0.3-0.4-0.5c0-0.2,0.1-0.5,0.3-0.6c0,0,67.3-51.2,93.6-71.2
			c4.5-3.4,7.8-5.9,9.4-7.1c0.5-0.4,0.8-0.6,0.9-0.7c0,0,0.1-0.1,0.1-0.1C566.6,127.6,566.6,127.5,566.6,127.5z M566.6,127.5
			C566.6,127.5,566.6,127.5,566.6,127.5C566.6,127.6,566.7,127.2,566.6,127.5z"/>
	</g>
	<g id="pin" transform="matrix(1.12328,0.584725,-0.584725,1.12328,224.832,71.4461)">
		<g id="body" transform="matrix(1,0,0,1,-11.0016,-2.95759)">
			<path class="st2" d="M166.7-3.6c40,0,72.4,32.5,72.4,72.4c0,58.6-61,132.5-72.4,132.5c-11.5,0-72.4-73.9-72.4-132.5
				C94.3,28.9,126.8-3.6,166.7-3.6z"/>
		</g>
		<g id="center" transform="matrix(0.243844,-0.256909,0.256909,0.243844,44.5286,73.2466)">
			<path class="st1" d="M231.2,139.6c-20.4-0.2-39,8-52.5,21.3c-13.6,13.4-22.1,32-22.2,52.5c-0.1,20.7,8.2,39.5,21.7,53.1
				c13.5,13.7,32.3,22.1,53.1,22.2c20.8,0,39.6-8.5,53.1-22.1c13.5-13.6,21.8-32.4,21.7-53.1c-0.2-20.6-8.6-39.2-22.2-52.6
				C270.3,147.5,251.7,139.4,231.2,139.6z M231.2,142.4c19.5,0.2,37.1,8.3,49.8,21.2c12.6,12.8,20.4,30.4,20.2,49.8
				c-0.1,19.3-8.1,36.7-20.8,49.3c-12.7,12.6-30.1,20.3-49.3,20.3c-19.2,0.1-36.7-7.7-49.3-20.3c-12.7-12.6-20.7-30-20.8-49.3
				c-0.1-19.4,7.6-37,20.2-49.9C194.1,150.6,211.7,142.6,231.2,142.4z"/>
		</g>
	</g>
	<g id="blank" transform="matrix(1.35926,0,0,1.35926,-576.149,46.8621)">
		<g id="paper">
			<path class="st0" d="M458.4,24.9c-11.2,109.5,37.3,106.5,49.5,224.6c54.5-11.2,119-33.4,154.7-43.5
				c1.5-104.5-74.2-115.9-46.2-231C576.1-12.2,505.7,10.7,458.4,24.9z"/>
			<path class="st1" d="M458.1,24.8c-3.1,30.1-1.8,51.7,2.1,69.6c5,22.9,14,39.9,23.1,60.9c9.7,22.6,19.4,49.8,23.9,94.1l0.9,0.7
				c20.1-4.1,41.5-9.7,62.4-15.6c35.8-10.2,69.8-21.4,92.3-27.7l0.7-0.9c0.6-44-12.3-71.5-25.6-97.2c-10.1-19.6-20.4-38.2-24.8-62.2
				c-3.5-19.2-3.2-41.8,4-71.4l-0.9-0.9c-24.5,7.8-60,19.3-94.6,30.4c-22.5,7.2-44.7,14.1-63.2,19.8L458.1,24.8z M615.4-23.9
				C587.2-15,544.9-1.4,506.1,10.7C489.2,16,472.9,21,458.7,25.3c-3,29.8-1.5,51.2,2.4,69c5,22.8,14.1,39.7,23.2,60.6
				c9.7,22.5,19.5,49.6,24.2,93.6c19.8-4.1,40.9-9.7,61.4-15.6c35.4-10.2,69.1-21.3,91.7-27.7c0.5-43.2-12.3-70.3-25.3-95.7
				c-10.2-19.8-20.5-38.5-24.8-62.7C608.1,27.8,608.4,5.3,615.4-23.9z"/>
		</g>
		<g id="signature" transform="matrix(1,0,0,1,-0.609822,12.2317)">
			<path class="st1" d="M609.7,174.8c0,0,1-0.2,2.5-0.6c0.7-0.2,1.6-0.4,2.5-0.7c1-0.3,2.1-0.6,3.3-1c8.1-2.6,19.1-6.4,19.1-6.4
				c0.3-0.1,0.5-0.5,0.4-0.8c-0.1-0.3-0.5-0.5-0.8-0.4c0,0-11.1,3.4-19.2,6c-1.2,0.4-2.3,0.7-3.3,1.1c-0.9,0.3-1.7,0.6-2.4,0.9
				c-1.5,0.6-2.4,0.9-2.4,0.9c-0.3,0.1-0.4,0.4-0.4,0.7C609.1,174.7,609.4,174.9,609.7,174.8z"/>
		</g>
		<g id="text-line" transform="matrix(1,0,0,1,-0.609822,12.2317)">
			<path class="st1" d="M521.3,163.9c0,0,3.6-0.9,9.4-2.3c2.7-0.7,5.9-1.5,9.4-2.4c3.8-1,8-2.1,12.5-3.3
				c30.6-8.2,72.6-19.7,72.6-19.7c0.3-0.1,0.5-0.4,0.4-0.8c-0.1-0.3-0.4-0.5-0.8-0.4c0,0-42.1,11.1-72.7,19.3
				c-4.4,1.2-8.7,2.3-12.4,3.4c-3.5,1-6.6,1.9-9.3,2.6c-5.8,1.6-9.3,2.7-9.3,2.7c-0.3,0.1-0.5,0.4-0.4,0.7
				C520.7,163.8,521,164,521.3,163.9z"/>
		</g>
		<g id="text-line1" transform="matrix(1,0,0,1,-0.609822,12.2317)">
			<path class="st1" d="M511.8,146c0,0,3.1-0.8,8.2-2.2c2.4-0.6,5.1-1.4,8.2-2.2c3.3-0.9,7-2,10.9-3.1c26.9-7.6,63.8-18.2,63.8-18.2
				c0.3-0.1,0.5-0.4,0.4-0.8c-0.1-0.3-0.4-0.5-0.8-0.4c0,0-37,10.2-63.9,17.8c-3.9,1.1-7.6,2.1-10.9,3.1c-3.1,0.9-5.8,1.7-8.2,2.4
				c-5.1,1.5-8.2,2.5-8.2,2.5c-0.3,0.1-0.5,0.4-0.4,0.7C511.2,146,511.5,146.1,511.8,146z"/>
		</g>
		<g id="text-line2" transform="matrix(1,0,0,1,-0.609822,12.2317)">
			<path class="st1" d="M501.2,127c0,0,3.7-1,9.8-2.6c2.8-0.8,6.1-1.7,9.8-2.7c4-1.1,8.4-2.4,13.1-3.7c32.1-9.1,76.1-21.9,76.1-21.9
				c0.3-0.1,0.5-0.4,0.4-0.8s-0.4-0.5-0.8-0.4c0,0-44.2,12.4-76.2,21.5c-4.7,1.3-9.1,2.6-13.1,3.7c-3.7,1.1-7,2.1-9.8,2.9
				c-6,1.8-9.8,2.9-9.8,2.9c-0.3,0.1-0.5,0.4-0.4,0.7C500.6,126.9,500.9,127.1,501.2,127z"/>
		</g>
		<g id="text-line3" transform="matrix(1,0,0,1,-0.609822,12.2317)">
			<path class="st1" d="M493.6,108.9c0,0,3-0.7,8-2c2.3-0.6,5-1.3,8-2.1c3.2-0.9,6.8-1.8,10.6-2.9c25.9-7.1,61.6-17,61.6-17
				c0.3-0.1,0.5-0.4,0.4-0.8c-0.1-0.3-0.4-0.5-0.8-0.4c0,0-35.8,9.6-61.7,16.6c-3.8,1-7.3,2-10.6,2.9c-3,0.8-5.6,1.6-7.9,2.3
				c-4.9,1.4-7.9,2.3-7.9,2.3c-0.3,0.1-0.5,0.4-0.4,0.7C493,108.8,493.3,109,493.6,108.9z"/>
		</g>
		<g id="text-line4" transform="matrix(1,0,0,1,-0.609822,12.2317)">
			<path class="st1" d="M485.6,95.2c0,0,3.7-1,9.8-2.8c2.8-0.8,6.1-1.7,9.8-2.8c4-1.2,8.4-2.5,13.1-3.9c32.1-9.6,76.1-23,76.1-23
				c0.3-0.1,0.5-0.5,0.4-0.8c-0.1-0.3-0.5-0.5-0.8-0.4c0,0-44.2,13-76.3,22.6c-4.7,1.4-9.1,2.7-13.1,3.9c-3.7,1.1-7,2.2-9.8,3
				c-6.1,1.9-9.8,3.1-9.8,3.1c-0.3,0.1-0.5,0.4-0.4,0.7C485,95.1,485.3,95.3,485.6,95.2z"/>
		</g>
		<g id="crest-of-arms" transform="matrix(0.982169,-0.361932,0.0970103,1.11354,-73.5144,191.474)">
			<path class="st1" d="M671.9,49.7c-1.9-0.1-6.6-0.5-11-0.8c-3.1-0.2-6.1-0.4-7.9-0.5c-0.2,0-0.4-0.2-0.4-0.3
				c0-0.2,0.1-0.3,0.3-0.3c1.8,0.1,4.7,0.2,7.9,0.4c5.7,0.3,11.8,0.7,11.8,0.7c0.2,0,0.4,0.1,0.5,0.3c0.1,0.1,0.2,0.3,0.1,0.5
				c0,0-0.9,3.6-1.9,7.6c-0.4,1.7-0.8,3.5-1.1,5.1c-0.3,1.4-0.6,2.2-1.3,2.7c-0.8,0.6-2.2,0.7-4.9,0.5c-0.5,0-1,0.2-1.4,0.5
				c-1,0.7-1.7,1.9-1.7,1.9c-0.1,0.2-0.4,0.3-0.7,0.2c-0.3-0.1-0.5-0.3-0.6-0.6c0,0-0.3-0.9-0.9-1.6c-0.3-0.4-0.6-0.8-1.1-0.8
				c-2.2-0.2-4-0.3-5.1-0.9c-1.1-0.6-1.8-1.6-1.8-3.4c0-1.5,0.2-3.6,0.5-5.8c0.3-1.9,0.8-3.9,1.3-5.5c0-0.1,0.2-0.2,0.3-0.1
				c0.1,0.1,0.2,0.2,0.2,0.3c-0.5,1.6-0.8,3.6-1,5.6c-0.2,2.2-0.3,4.3-0.2,5.8c0,1.1,0.3,1.8,1,2.1c1,0.5,2.5,0.5,4.5,0.6
				c0.8,0,1.5,0.5,2.1,1.1c0.3,0.4,0.6,0.8,0.8,1.2c0.3-0.4,0.8-0.9,1.3-1.2c0.6-0.5,1.4-0.8,2.2-0.7c2.3,0.2,3.5,0.2,4.2-0.3
				c0.5-0.4,0.7-1.1,1-2.2c0.3-1.6,0.8-3.4,1.2-5.1C670.8,53.6,671.5,50.9,671.9,49.7z"/>
		</g>
		<g id="description-b" transform="matrix(1,0,0,1,-0.609822,12.2317)">
			<path class="st1" d="M478,67.8c0,0,1.9-0.6,5.1-1.5c1.5-0.4,3.2-1,5.1-1.6c2.1-0.6,4.3-1.4,6.7-2.2c16.5-5.4,39.2-13.1,39.2-13.1
				c0.3-0.1,0.5-0.5,0.4-0.8c-0.1-0.3-0.5-0.5-0.8-0.4c0,0-22.8,7.3-39.3,12.7c-2.4,0.8-4.7,1.5-6.7,2.2c-1.9,0.6-3.6,1.2-5,1.8
				c-3.1,1.1-5,1.8-5,1.8c-0.3,0.1-0.4,0.4-0.4,0.7C477.4,67.7,477.8,67.9,478,67.8z"/>
		</g>
		<g id="description-t" transform="matrix(1,0,0,1,-0.609822,12.2317)">
			<path class="st1" d="M475.6,50.4c0,0,2.7-0.8,7.1-2.1c2-0.6,4.4-1.3,7.1-2.2c2.9-0.9,6-1.9,9.4-3c23-7.5,54.6-18,54.6-18
				c0.3-0.1,0.5-0.5,0.4-0.8c-0.1-0.3-0.5-0.5-0.8-0.4c0,0-31.7,10.1-54.8,17.6c-3.4,1.1-6.5,2.1-9.4,3.1c-2.6,0.9-5,1.7-7,2.4
				c-4.3,1.5-7,2.4-7,2.4c-0.3,0.1-0.4,0.4-0.4,0.7C475,50.3,475.4,50.5,475.6,50.4z"/>
		</g>
		<g id="title" transform="matrix(1,0,0,1,0.687372,0.948221)">
			<path class="st1" d="M475.5,40.5c0-0.1-0.1-0.1-0.1-0.2c-0.1-0.4,0.1-0.8,0.4-0.9l54.7-18.4c0.4-0.1,0.9,0.1,1.1,0.5
				c0.1,0.4-0.1,0.9-0.5,1.1l-0.9,0.3c0.1,0.1,0.2,0.2,0.2,0.3c0.1,0.4-0.1,0.8-0.5,1l-11.6,4.2c0,0,0,0.1,0.1,0.1
				c0.1,0.3-0.1,0.7-0.4,0.8l-42.1,14.3c-0.4,0.1-0.7-0.1-0.9-0.4c-0.1-0.4,0.1-0.7,0.4-0.9l3-1.1l-3.4,1.1c-0.4,0.1-0.9-0.1-1-0.5
				c-0.1-0.4,0.1-0.9,0.5-1L475.5,40.5z"/>
		</g>
	</g>
	<g id="tick" transform="matrix(0.997887,-0.0649693,0.0649693,0.997887,-17.7018,35.4545)">
		
			<linearGradient id="SVGID_1_" gradientUnits="userSpaceOnUse" x1="-102.1784" y1="321.0922" x2="-99.7474" y2="321.117" gradientTransform="matrix(-55.7722 63.4268 63.4268 55.7722 -25687.1992 -11218.9023)">
			<stop  offset="0" style="stop-color:#85FF68;stop-opacity:0"/>
			<stop  offset="0.8441" style="stop-color:#85FF68"/>
		</linearGradient>
		<path class="st3" d="M355.6,212.1l26.5,16.7L269.9,371.5l-33.6-3L355.6,212.1z"/>
		
			<linearGradient id="SVGID_2_" gradientUnits="userSpaceOnUse" x1="-100.8304" y1="319.6239" x2="-98.3778" y2="319.2515" gradientTransform="matrix(16.0854 24.0848 24.0848 -16.0854 -5858.7476 7877.478)">
			<stop  offset="0" style="stop-color:#9CFB88;stop-opacity:0"/>
			<stop  offset="1" style="stop-color:#98FF83"/>
		</linearGradient>
		<path class="st4" d="M208.3,322.2l24.3-11.9l36.6,60.1l-31.5-1.4L208.3,322.2z"/>
	</g>
</g>
</svg>
