<?xml version="1.0" encoding="utf-8"?>
<!-- Generator: Adobe Illustrator 24.2.1, SVG Export Plug-In . SVG Version: 6.00 Build 0)  -->
<svg version="1.1" id="Layer_1" xmlns="http://www.w3.org/2000/svg" xmlns:xlink="http://www.w3.org/1999/xlink" x="0px" y="0px"
	 viewBox="0 0 480 480" style="enable-background:new 0 0 480 480;" xml:space="preserve">
<style type="text/css">
	.st0{fill-rule:evenodd;clip-rule:evenodd;fill:#FFFFFF;}
	.st1{fill-rule:evenodd;clip-rule:evenodd;fill:url(#SVGID_1_);}
	.st2{fill-rule:evenodd;clip-rule:evenodd;}
	.st3{fill-rule:evenodd;clip-rule:evenodd;fill:url(#SVGID_2_);}
	.st4{fill-rule:evenodd;clip-rule:evenodd;fill:url(#SVGID_3_);}
	.st5{fill:#FCE7D1;}
</style>
<rect id="back" x="0.2" y="-0.5" class="st0" width="480" height="480"/>
<g id="initial">
	
		<linearGradient id="SVGID_1_" gradientUnits="userSpaceOnUse" x1="-98.5462" y1="361.9535" x2="-96.3154" y2="361.9535" gradientTransform="matrix(118.6555 -78.9068 -78.9068 -118.6555 40381.4297 35495.918)">
		<stop  offset="0" style="stop-color:#FFA03E"/>
		<stop  offset="0.5" style="stop-color:#FFBC58"/>
		<stop  offset="1" style="stop-color:#FF9C00"/>
	</linearGradient>
	<path class="st1" d="M114,300.1l296.4-184.9l-10.2,53.6c0,0-1,7.8-13.7,16.3C329,223.4,114,366.9,114,366.9l-9.7-50.6
		C104.3,316.3,100.9,305.7,114,300.1z"/>
	<g id="android">
		<g id="body" transform="matrix(0.191804,0,0,0.191804,125.912,87.9955)">
			<g>
				<path class="st0" d="M1036.5,674.3C1010.2,752.4,850.7,1604,839.7,1803c-2.8,50.8,27.8,93.1,91.2,107.1s478.9,52,545.6,54.6
					c66.7,2.6,83.8-39.6,91.6-94.5c7.9-54.9,149.2-961.7,166.7-1055.1c17.5-93.3-25.4-138-82.6-148.4
					c-63.9-11.6-485.1-41.3-551.8-36.4C1061.6,633.2,1045.6,647.2,1036.5,674.3z"/>
				<path d="M1482.4,1972.4c-2,0-4.1,0-6.2-0.1c-68.4-2.7-484.5-41-546.9-54.8c-64-14.2-100.3-57.1-97.1-114.9
					c11.3-204.3,171.3-1053.7,197.2-1130.7c10.7-31.9,31.2-46.2,70.5-49c67.2-4.9,487.9,24.6,553.7,36.5c31.7,5.8,56.9,21,72.9,44.2
					c19.3,28,24.6,66.1,15.8,113c-16.9,90.1-156.5,983.8-166.7,1054.8C1568.1,1923.9,1551.4,1972.4,1482.4,1972.4z M1121.9,637.3
					c-8.8,0-15.9,0.2-20.9,0.5c-38,2.8-49.8,16.4-57.4,38.9c0,0,0,0,0,0c-25.8,76.6-185.2,923-196.4,1126.7
					c-2.7,49.8,29.2,86.9,85.3,99.4c62,13.7,476.1,51.7,544.3,54.5c59.3,2.2,75.8-32,83.9-88.1c6.4-45,148.3-957,166.7-1055.4
					c8.1-42.9,3.5-77.1-13.4-101.7c-13.6-19.8-35.5-32.9-63.2-38C1590.5,663.2,1228.9,637.3,1121.9,637.3z M1036.5,674.3h0.1H1036.5
					z"/>
			</g>
		</g>
		<g id="dispay" transform="matrix(0.191804,0,0,0.191804,130.577,91.805)">
			<path d="M1405.6,1873.7c-4.9,0-10.1-0.2-15.6-0.6c-79.1-6.2-417.5-37.2-477.2-45.5c-58.7-8.2-64.5-51.2-62-96.5
				c10.9-198,159.6-960.3,182-1037.4v0c9.7-33.3,17.6-62.3,63.2-61.6c28.9,0.3,106.6,4.7,193.3,10.9c2.1,0.2,4,1.2,5.3,2.8
				c1.3,1.6,1.9,3.7,1.6,5.8c-2,13.6,0.9,26.3,8.2,35.8c6.2,8.1,15,13.2,24.8,14.4c22.1,2.8,37.5-12.4,46-45.1
				c0.9-3.4,3.9-6,7.5-5.6c107.5,3.5,215.8,16.8,216.8,16.9c53.3,6.6,61.7,33.1,57.8,71c-9.3,91.7-155,1002.7-167.1,1058.5
				C1478.4,1851.8,1454.9,1873.7,1405.6,1873.7z M1047.2,697.8c-22.4,76.9-170.6,836.7-181.4,1034c-3,54.2,9.9,75.3,49.1,80.8
				c59.5,8.3,397.3,39.3,476.3,45.4c52.5,4.1,73-11.4,84.4-64c12.1-55.6,157.5-965.3,166.8-1056.8c3.3-32.8-2.5-49.3-44.7-54.5
				c-29.2-3.6-122.6-13.5-209.6-16.6c-14.7,48.4-44.1,52.4-60.8,50.4c-13.9-1.7-26.2-8.9-34.9-20.2c-8.2-10.8-12.3-24.4-11.8-39
				c-83.4-5.9-157-10-184.8-10.3C1063,646.6,1057.6,662.3,1047.2,697.8L1047.2,697.8z"/>
		</g>
		<g transform="matrix(0.964795,0,0,0.999828,191.968,133.327)">
			<path d="M201.2,89.7c-1,0-2.1-0.6-2.7-1.4c-0.6-0.9-0.7-1.9-0.2-2.9c0,0,0,0,0,0c0.5-1.2,1.6-1.8,2.8-1.8c0,0,0,0,0,0
				c1.2,0,2.4,0.8,2.9,1.9c0.4,0.9,0.3,2-0.3,2.9C203.3,89.2,202.3,89.7,201.2,89.7C201.2,89.7,201.2,89.7,201.2,89.7z M200.7,86.4
				c-0.1,0.2-0.1,0.3,0,0.5c0.1,0.2,0.4,0.3,0.5,0.3c0,0,0,0,0,0c0.2,0,0.3-0.1,0.4-0.2c0.1-0.2,0.1-0.4,0.1-0.6
				c-0.1-0.2-0.4-0.4-0.6-0.4c0,0,0,0,0,0C201,86,200.9,86,200.7,86.4L200.7,86.4z"/>
		</g>
		<g transform="matrix(0.191804,0,0,0.191804,126.194,87.4733)">
			<path class="st2" d="M1691.8,704.6c5.9,6.4,10,16,11.9,28.6c2,13,1.7,29.1-1.3,48.1c-2.3,14.4-10.7,64.5-22.4,135.8
				c-4.5,27.3-9.4,57.8-14.7,90.6c-12.6,78.6-27.2,170.4-42.3,264.2c-14.4,89.5-29.2,180.8-42.8,264.1
				c-11.9,73-23.2,139.8-32.2,193.9c-11,65.8-19,112.8-23,128.7c-4.8,19.3-13.9,32.3-24,41.1c-20.3,17.6-44.2,18.3-44.2,18.3
				c-1.1,0-1.9,0.9-1.9,1.9c0,1.1,0.9,1.9,1.9,1.9c0,0,25.5,0.1,47.6-18.1c11.1-9.1,21.3-22.9,27.1-43.5
				c4.4-15.9,13.8-62.8,25.7-128.8c14.3-79.7,32.1-187.4,50.7-301.6c14.7-89.9,29.8-184,43.7-271.7c10.3-65.3,20.1-127.2,28.4-181.3
				c4.3-28.2,8.2-54.4,11.7-77.8c9.1-61.1,15.1-103.6,16.9-116.8c2.7-19.7,2.6-36.4,0.2-49.8c-2.4-13.6-7.2-23.8-13.8-30.6
				c-0.8-0.8-2.1-0.9-3-0.1C1691.1,702.4,1691,703.8,1691.8,704.6z"/>
		</g>
		<g transform="matrix(0.191804,0,0,0.191804,67.2281,117.607)">
			<path class="st2" d="M1710,1757.7c-13-0.7-32.2-2.4-55.6-4.5c-16.7-1.5-35.4-3.3-55.6-5.2c-16-1.5-32.8-2.9-50.1-4.5
				c-37.8-3.4-78.1-7-116.9-10.7c-47.7-4.5-93.4-9-129.8-12.8c-22.6-2.3-41.7-4.3-55.5-6c-23.3-2.4-39.6-6.3-51-10.5
				c-24.3-8.8-25.9-18.8-25.9-18.8c-0.1-1.1-1-1.8-2.1-1.7c-1.1,0.1-1.8,1-1.7,2.1c0,0,0.4,12.5,27.5,24.2
				c11.6,5,28.3,9.8,52.2,13.5c11.5,1.6,26.7,3.5,44.5,5.6c19.5,2.3,42.2,4.7,66.8,7.2c51.3,5.2,110.8,10.9,167.1,15.7
				c19.1,1.6,37.9,3.2,55.8,4.5c12.9,1,25.4,1.8,37.2,2.5c16.9,1,32.6,1.8,46.6,2.4c19.4,0.8,35.4,1.1,46.7,1.1c1.2,0,2.1-0.9,2.1-2
				C1712.1,1758.7,1711.2,1757.8,1710,1757.7z"/>
		</g>
	</g>
	<g id="iphone" transform="matrix(-1,0,0,1,375.01,-133.819)">
		<g id="body1" transform="matrix(0.191804,0,0,0.191804,125.912,87.9955)">
			<g>
				<path class="st0" d="M462.8,367.6C436.5,445.7,277,1297.3,266,1496.2c-2.8,50.8,27.8,93.1,91.2,107.1
					c63.4,14.1,478.9,52,545.6,54.6c66.7,2.6,83.8-39.6,91.6-94.5c7.9-54.9,149.2-961.7,166.7-1055.1c17.5-93.3-25.4-138-82.6-148.4
					c-63.9-11.6-485.1-41.3-551.8-36.4C487.9,326.5,471.9,340.4,462.8,367.6z"/>
				<path d="M908.7,1665.7c69,0,85.6-48.4,93.2-101.1c10.1-70.7,149.6-964.1,166.6-1054.8c8.8-46.9,3.5-84.9-15.8-113
					c-15.9-23.2-41.1-38.5-72.9-44.2c-65.8-11.9-486.6-41.5-553.7-36.5c-39.3,2.9-59.7,17.1-70.5,49l0,0
					c-25.9,77-185.9,926.4-197.2,1130.7c-3.2,57.8,33.1,100.7,97.1,114.9c62.3,13.8,478.5,52.1,546.9,54.8
					C904.6,1665.6,906.7,1665.7,908.7,1665.7z M548.1,330.5c107,0,468.6,25.9,529,36.9c27.7,5,49.5,18.2,63.2,38
					c17,24.6,21.5,58.8,13.4,101.7c-17,90.8-156.6,984.7-166.8,1055.4c-8,56.1-24.8,90.2-83.9,88.1c-68.2-2.7-482.4-40.8-544.3-54.5
					c-56.2-12.5-88.1-49.6-85.3-99.4C284.7,1293,444.1,446.6,469.9,370l0,0c7.6-22.5,19.4-36.1,57.4-38.9
					C532.3,330.7,539.4,330.5,548.1,330.5z"/>
			</g>
		</g>
		<g id="dispay1" transform="matrix(0.191804,0,0,0.191804,130.577,91.805)">
			<path d="M831.8,1567c49.3,0,72.9-21.9,84.7-76.4c12-55.4,156.7-958.9,165.9-1049.5c3.5-34.8-0.4-71.4-56.3-78.3
				c-12.1-1.5-66.5-6.6-92.7-7.5c-18.1-0.7-30.8,11.4-43.4,23.1c-12.4,11.5-24.1,22.4-40.1,21.6c-63.9-3.1-93.9-5.3-135.4-8.5
				c-16.1-1.2-33.9-2.6-56.1-4.2c-9.6-0.7-14.7-9-22.1-22.7c-7.4-13.8-15.9-29.5-34.7-31.2c-29.7-2.7-66.6-5.1-80.7-5.3
				c-44.6-0.9-51.8,24.3-61.9,58.7l0,0c-22.4,77.1-171.1,839.3-182,1037.4c-2.5,45.3,3.3,88.3,62,96.5c59.6,8.3,398,39.4,477.2,45.5
				C821.7,1566.8,826.9,1567,831.8,1567z M932.1,370.2c0.2,0,0.5,0,0.7,0c25.9,0.9,79.4,5.9,91.4,7.4c40.9,5.1,46.8,26.5,43.2,61.9
				c-9.2,90.5-153.6,992.6-165.6,1047.9c-11.4,52.5-31.9,68.1-84.4,64c-79.1-6.2-416.9-37.1-476.3-45.5c-39.2-5.5-52-26.6-49.1-80.8
				c10.9-197.4,159.1-957.2,181.4-1034l0,0c9.9-34.2,13.8-48.3,47.3-47.9c13.5,0.2,50.6,2.6,79.5,5.2c10.1,0.9,15.3,9.4,22.8,23.4
				c7.4,13.7,15.7,29.2,34.3,30.5c22.2,1.6,40,2.9,56,4.1c41.6,3.2,71.7,5.4,135.8,8.5c22.2,1.1,37.5-13.1,51-25.6
				C911.2,379.1,920.7,370.2,932.1,370.2z"/>
		</g>
		<g transform="matrix(0.191804,0,0,0.191804,126.194,87.4733)">
			<path class="st2" d="M1121.1,395c6.6,6.8,11.4,17.1,13.8,30.6c2.4,13.4,2.5,30.1-0.2,49.8c-1.8,13.1-7.8,55.7-16.9,116.8
				c-3.5,23.4-7.4,49.5-11.7,77.8c-8.3,54.1-18,115.9-28.4,181.3c-13.9,87.8-29,181.8-43.7,271.8c-18.7,114.2-36.4,221.9-50.7,301.6
				c-11.8,66-21.3,112.9-25.7,128.8c-5.7,20.6-16,34.3-27.1,43.5c-22.1,18.1-47.6,18.1-47.6,18.1c-1.1,0-1.9-0.8-1.9-1.9
				c0-1.1,0.8-1.9,1.9-1.9c0,0,23.9-0.6,44.2-18.3c10.1-8.8,19.2-21.8,24-41.1c4-15.9,12-62.9,23-128.7
				c9.1-54.1,20.3-120.9,32.2-193.9c13.6-83.3,28.4-174.6,42.8-264.1c15.1-93.8,29.7-185.6,42.3-264.2c5.3-32.8,10.2-63.2,14.7-90.6
				c11.7-71.3,20.1-121.3,22.4-135.8c3-19,3.3-35.1,1.3-48.1c-1.9-12.6-6-22.2-11.9-28.6c-0.8-0.8-0.8-2.2,0.1-3
				C1119,394.1,1120.3,394.2,1121.1,395z"/>
		</g>
		<g transform="matrix(0.191804,0,0,0.191804,67.2281,117.607)">
			<path class="st2" d="M1136.2,1455.2c-11.3,0-27.3-0.3-46.7-1.1c-14-0.6-29.7-1.3-46.6-2.4c-11.8-0.7-24.3-1.5-37.2-2.5
				c-17.9-1.3-36.6-2.9-55.8-4.5c-56.2-4.8-115.8-10.5-167.1-15.7c-24.6-2.5-47.3-4.9-66.8-7.2c-17.8-2.1-33-4-44.5-5.6
				c-23.9-3.7-40.6-8.5-52.2-13.5c-27.1-11.7-27.5-24.2-27.5-24.2c-0.1-1.1,0.7-2,1.7-2.1c1.1-0.1,2,0.7,2.1,1.7
				c0,0,1.7,9.9,25.9,18.8c11.5,4.2,27.8,8,51,10.5c13.8,1.7,32.9,3.6,55.5,6c36.4,3.7,82,8.3,129.8,12.8
				c38.8,3.7,79.1,7.3,116.9,10.7c17.3,1.5,34.1,3,50.1,4.5c20.2,1.9,39,3.7,55.6,5.2c23.4,2.1,42.6,3.8,55.6,4.5c1.2,0,2.1,1,2,2.1
				S1137.3,1455.2,1136.2,1455.2z"/>
		</g>
	</g>
	
		<linearGradient id="SVGID_2_" gradientUnits="userSpaceOnUse" x1="-98.5845" y1="361.6724" x2="-96.3537" y2="361.6724" gradientTransform="matrix(-153.6965 0.3713 0.3713 153.6965 -14884.0342 -55415.3477)">
		<stop  offset="0" style="stop-color:#FFA83E"/>
		<stop  offset="1" style="stop-color:#FFF4E8"/>
	</linearGradient>
	<path class="st3" d="M57.5,152.2h319.1c29.2,0,23.6,16.6,23.6,16.6l9.7-50.6c0,0,5.5-14.5-21.7-14.5h-339L57.5,152.2z"/>
	<g transform="matrix(-1,0,0,1,372.067,154.628)">
		
			<linearGradient id="SVGID_3_" gradientUnits="userSpaceOnUse" x1="470.6748" y1="207.7625" x2="472.9056" y2="207.7625" gradientTransform="matrix(-169.5607 -20.9986 -20.9986 169.5607 84102.6641 -25175.7461)">
			<stop  offset="0" style="stop-color:#FFDDB3"/>
			<stop  offset="0.86" style="stop-color:#FFB965"/>
			<stop  offset="1" style="stop-color:#FFDCB2"/>
		</linearGradient>
		<path class="st4" d="M-51.3,220.2h281.8c30.8,0,27.5-7.9,27.5-7.9l9.7-50.6c0,0,1.6,10-25.6,10H-59.5L-51.3,220.2z"/>
	</g>
	<path class="st0" d="M51.7,113.5h109.6c0.7,0,1.4,0.3,1.8,0.8c0.4,0.5,0.6,1.2,0.5,1.9c-1.1,5.9-3.7,19.7-4.6,24.7
		c-0.2,1.1-1.1,1.9-2.2,1.9c-13.8,0-98.8,0-98.8,0L51.7,113.5z"/>
	<path class="st5" d="M98.3,139.4c-0.1,0-0.2,0-0.2,0l-44.3-13.7c-0.4-0.1-0.7-0.6-0.5-1c0.1-0.4,0.6-0.7,1-0.5l44.1,13.6l64.6-19.3
		c0.4-0.1,0.9,0.1,1,0.5c0.1,0.4-0.1,0.9-0.5,1l-64.8,19.4C98.5,139.3,98.4,139.4,98.3,139.4z"/>
	<path class="st5" d="M57.4,138.7c-0.3,0-0.5-0.2-0.6-0.5c-0.1-0.3,0.1-0.6,0.4-0.7l23.2-5.1c0.3-0.1,0.6,0.1,0.7,0.4
		c0.1,0.3-0.1,0.6-0.4,0.7l-23.2,5.1C57.4,138.7,57.4,138.7,57.4,138.7z"/>
	<path class="st5" d="M157.6,142.2c0,0-0.1,0-0.1,0l-40.1-8.2c-0.3-0.1-0.5-0.4-0.4-0.7c0.1-0.3,0.4-0.5,0.7-0.4l40.1,8.2
		c0.3,0.1,0.5,0.4,0.4,0.7C158.2,142,157.9,142.2,157.6,142.2z"/>
</g>
</svg>
