<svg width="424" height="206" viewBox="0 0 424 206" fill="none" xmlns="http://www.w3.org/2000/svg">
<path d="M21.4681 204.929C21.4681 204.929 -13.9685 161.112 7.2941 119.413C28.5567 77.714 68.9517 87.6092 125.648 45.2053C194.479 -6.27378 242.809 -9.10313 304.242 13.4016C338.969 26.123 344.637 78.4221 399.916 110.931C449.748 140.238 409.129 190.086 382.908 197.86C356.687 205.634 338.969 205.634 338.969 205.634L21.4681 204.929Z" fill="#E7F3FE"/>
<path d="M232.44 110.725C223.595 128.63 212.507 177.552 209.481 180.233C206.456 182.914 188.983 193.302 185.958 198.329C182.933 203.355 184.277 201.678 185.621 202.014C186.965 202.35 262.906 202.683 262.906 202.683C262.906 202.683 254.17 150.744 253.162 150.408C252.158 150.075 232.44 110.725 232.44 110.725Z" fill="#A2DFF2"/>
<path d="M219.862 202.442C233.809 202.539 248.529 202.614 256.631 202.654L245.537 136.495C239.62 125.057 232.437 110.723 232.437 110.723C231.324 112.98 230.17 115.731 229.005 118.817C227.855 168.508 235.032 182.434 229.639 191.288C225.437 198.203 221.598 201.292 219.862 202.442Z" fill="#96CFE0"/>
<path d="M377.546 206.001H12.8774C11.3238 206.001 10.0645 204.745 10.0645 203.196C10.0645 201.646 11.3238 200.391 12.8774 200.391H377.546C379.099 200.391 380.359 201.646 380.359 203.196C380.359 204.745 379.099 206.001 377.546 206.001Z" fill="#2E5B9A"/>
<path d="M279.013 89.1152C291.628 100.726 319.703 111.738 319.703 111.738C319.703 111.738 323.969 151.04 321.059 173.297C318.149 195.55 319.766 200.065 319.766 200.065H261.875C261.875 200.065 254.106 189.314 239.881 155.879C230.826 134.594 232.443 110.724 232.443 110.724L267.698 94.9192L279.013 89.1152Z" fill="#A2DFF2"/>
<path d="M261.872 200.062H319.763C319.763 200.062 318.146 195.547 321.056 173.294C323.453 154.968 320.983 125.086 320.037 115.103L314.772 112.852C301.553 116.649 293.937 136.309 291.697 155.522C290.198 168.376 268.842 181.031 254.871 188C259.462 196.727 261.872 200.062 261.872 200.062Z" fill="#96CFE0"/>
<path d="M247.677 48.7754C240.697 64.2748 249.076 78.6333 248.821 78.0281C248.566 77.4229 259.384 51.8589 259.384 51.8589L247.677 48.7754Z" fill="#2E5B9A"/>
<path d="M274.122 60.2363L282.973 92.497C283.222 93.4078 283.01 94.3761 282.415 95.1115C280.34 97.6624 277.384 102.907 271.421 104.589C270.262 104.916 268.833 105.004 267.677 105.007C266.46 105.01 265.413 104.156 265.182 102.967L259.253 72.3708L274.122 60.2363Z" fill="#F09959"/>
<path d="M272.432 62.9316L269.197 64.254L259.25 72.3699L264.588 99.4983C273.646 93.8669 274.966 90.0692 272.432 62.9316Z" fill="#E38540"/>
<path d="M273.797 74.506C271.837 85.1184 263.875 92.2961 256.012 90.538C248.147 88.7799 244.396 81.9107 245.319 68.1392C246.044 57.3332 251.385 45.5891 259.25 47.3503C267.115 49.1054 275.758 63.8937 273.797 74.506Z" fill="#F09959"/>
<path d="M319.703 111.735C331.416 114.374 333.592 138.098 337.4 163.12C337.837 166.001 340.089 190.376 340.089 190.376C340.089 190.376 340.313 194.846 335.831 197.079C332.002 198.988 330.454 200.429 308.275 200.653C286.973 200.867 259.511 199.984 259.511 199.984C259.511 199.984 259.268 192.08 261.453 188.218C264.739 182.408 298.419 174.069 301.554 173.624C302.003 167.369 298.462 144.734 303.347 129.389C306.706 118.834 310.32 113.303 314.845 111.859C316.356 111.375 317.967 111.345 319.703 111.735Z" fill="#A2DFF2"/>
<path d="M271.559 200.465C282.061 200.622 296.472 200.774 308.279 200.653C330.458 200.429 332.005 198.988 335.835 197.079C340.317 194.846 340.538 191.048 340.538 191.048C340.538 191.048 338.275 165.112 337.85 162.228C335.386 145.473 332.722 126.3 326.525 117.043C332.351 134.071 333.289 148.435 333.392 154.572C333.444 157.68 333.158 161.934 332.248 164.909C331.241 168.204 328.664 170.271 324.632 169.154C316.566 166.921 306.485 171.612 306.485 171.612C306.485 171.612 314.102 168.931 321.272 171.388C328.44 173.845 343.227 190.155 327.099 196.186C322.159 198.032 292.594 199.536 271.559 200.465Z" fill="#96CFE0"/>
<path d="M263.246 188.963C263.246 188.963 266.232 183.9 272.356 183.9C278.479 183.9 278.03 193.88 277.135 197.154C276.24 200.432 272.653 200.58 272.653 200.58L259.511 199.984L263.246 188.963Z" fill="#96CFE0"/>
<path d="M249.921 202.854H167.068C165.818 202.854 164.795 201.834 164.795 200.587V199.936C164.795 198.69 165.818 197.67 167.068 197.67H249.921C251.171 197.67 252.194 198.69 252.194 199.936V200.587C252.194 201.834 251.171 202.854 249.921 202.854Z" fill="#75A1DE"/>
<path d="M261.605 189.557C248.76 184.939 245.392 186.679 242.488 185.835C235.321 183.75 233.527 185.539 228.897 198.197C227.974 200.72 230.69 200.878 233.379 200.878C236.067 200.878 239.353 195.664 240.397 195.068C241.444 194.471 244.281 194.175 244.281 194.175C244.281 194.175 243.386 194.175 242.042 196.856C240.698 199.537 239.056 200.578 241.147 200.578C243.238 200.578 243.538 197.153 247.419 197.897C251.303 198.641 249.81 200.578 259.518 200.43C269.225 200.281 276.553 200.43 276.395 194.62C276.247 189.109 276.857 186.353 271.616 185.384C267.577 184.643 261.605 189.557 261.605 189.557Z" fill="#F09959"/>
<path d="M261.772 189.557C270.359 188.589 267.841 199.256 266.942 200.151C266.044 201.047 271.725 200.466 271.725 200.466C271.725 200.466 274.392 196.187 272.153 191.273C269.913 186.359 265.431 186.135 265.431 186.135L261.623 188.22L261.772 189.557Z" fill="#A86B48"/>
<path d="M270.738 188.631C270.626 189.954 268.375 190.843 265.707 190.622C263.04 190.401 260.964 189.149 261.077 187.826C261.186 186.504 263.44 185.611 266.108 185.835C268.775 186.056 270.848 187.309 270.738 188.631Z" fill="#2E5B9A"/>
<path d="M270.056 187.972C269.956 189.152 267.944 189.951 265.559 189.751C263.174 189.551 261.323 188.435 261.423 187.251C261.523 186.071 263.535 185.272 265.92 185.472C268.302 185.672 270.153 186.791 270.056 187.972Z" fill="#3E6BAB"/>
<path d="M268.566 187.423C268.496 188.273 267.046 188.845 265.328 188.703C263.611 188.56 262.279 187.756 262.348 186.905C262.418 186.055 263.869 185.483 265.586 185.625C267.304 185.767 268.636 186.572 268.566 187.423Z" fill="#F0CEB4"/>
<path d="M164.037 186.488H80.5704C76.1795 186.488 72.4168 183.317 71.6218 178.95L60.7371 119.028C59.7114 113.379 64.0022 108.168 69.6858 108.168H153.152C157.543 108.168 161.309 111.339 162.101 115.706L172.985 175.628C174.011 181.277 169.72 186.488 164.037 186.488Z" fill="#75A1DE"/>
<path d="M167.936 175.851L156.827 117.17C156.016 112.894 152.175 109.789 147.693 109.789H62.8731C61.0918 111.85 60.2027 114.673 60.7429 117.614L72.0099 178.792C72.8322 183.249 76.7285 186.487 81.2711 186.487H158.802C164.604 186.487 168.983 181.385 167.936 175.851Z" fill="#A8CEFF"/>
<path d="M147.812 194.51H131.965C129.14 194.51 126.849 192.002 126.849 188.906V160.016C126.849 155.09 123.202 151.096 118.705 151.096H110.427C105.93 151.096 102.282 155.09 102.282 160.016V192.368C102.282 197.9 106.394 202.375 111.443 202.342L154.688 202.045C154.688 197.884 151.608 194.51 147.812 194.51Z" fill="#75A1DE"/>
<path d="M102.913 160.663V192.522C102.913 197.708 106.943 201.948 112.044 202.314L154.247 202.051C154.244 201.361 150.915 200.105 146.807 200.105H129.668C126.612 200.105 124.133 197.633 124.133 194.585V160.663C124.133 155.813 120.188 151.879 115.324 151.879H111.725C106.858 151.879 102.913 155.813 102.913 160.663Z" fill="#A8CEFF"/>
<path d="M191.251 190.839C197.629 187.304 205.425 188.484 208.259 192.016C211.093 195.55 211.566 197.904 205.188 197.904C198.809 197.904 186.056 198.376 183.928 198.14C181.804 197.904 191.251 190.839 191.251 190.839Z" fill="#F09959"/>
<path d="M200.699 188.721C207.548 187.072 212.23 191.048 217.944 194.846C222.906 198.144 223.901 201.349 218.418 198.616C210.385 194.613 205.661 194.141 205.661 194.141L200.699 188.721Z" fill="#F09959"/>
<path d="M194.461 190.818C191.001 190.818 187.982 189.717 185.539 189.919C183.097 190.122 175.365 198.035 176.585 198.647C176.673 198.689 176.767 198.731 176.87 198.768C178.706 199.442 180.778 198.695 181.813 197.04C182.909 195.288 184.687 193.251 186.759 193.98C190.219 195.197 193.848 195.082 193.848 195.082L194.461 190.818Z" fill="#F09959"/>
<path d="M192.431 199.321C188.887 197.908 194.558 186.131 196.446 186.131C198.333 186.131 205.422 191.784 205.422 191.784C205.422 191.784 203.756 192.722 198.1 190.842C196.683 190.37 195.502 198.38 193.848 199.321C192.198 200.262 192.431 199.321 192.431 199.321Z" fill="#F7A96F"/>
<path d="M245.313 74.3402C244.985 87.3099 249.416 89.5038 252.514 91.2649C255.615 93.0261 268.967 90.118 270.924 86.9104C275.937 78.7038 271.719 71.0509 272.839 71.169C273.962 71.2839 274.987 74.4794 277.909 78.6251C278.183 79.0125 280.082 81.5725 280.182 80.7222C281.539 69.1082 287.605 65.5012 286.16 53.7541C285.095 45.0935 279.585 45.7805 279.585 45.7805C279.585 45.7805 276.028 38.5331 264.958 39.3562C257.542 39.9069 250.93 42.7877 243.286 44.7516C235.642 46.7125 252.332 63.9942 262.249 57.6819C272.165 51.3696 267.268 65.2742 268.833 66.3545C270.399 67.4318 269.586 66.4967 270.302 73.614C271.018 80.7313 261.957 85.3762 259.36 85.9845C251.054 87.9332 249.668 86.5655 247.847 83.4486C246.272 80.7403 245.313 74.3402 245.313 74.3402Z" fill="#2E5B9A"/>
<path d="M279.69 70.3247C278.737 73.5928 276.41 75.705 274.489 75.0423C272.568 74.3796 272.513 71.7227 272.738 67.922C272.941 64.4966 276.018 62.5417 277.939 63.2044C279.857 63.8671 280.643 67.0566 279.69 70.3247Z" fill="#F09959"/>
<path d="M98.2105 61.5487H27.3099C26.5392 61.5487 25.9141 60.9253 25.9141 60.1567V29.7299C25.9141 28.9613 26.5392 28.3379 27.3099 28.3379H98.2105C98.9813 28.3379 99.6063 28.9613 99.6063 29.7299V60.1537C99.6094 60.9253 98.9843 61.5487 98.2105 61.5487Z" fill="#B7E1FF"/>
<path d="M96.4654 59.9908H29.0575C28.4355 59.9908 27.9287 59.4855 27.9287 58.8651V38.1882C27.9287 37.5678 28.4324 37.0625 29.0575 37.0625H96.4654C97.0875 37.0625 97.5942 37.5678 97.5942 38.1882V58.8651C97.5942 59.4855 97.0875 59.9908 96.4654 59.9908Z" fill="white"/>
<path d="M31.2148 33.3735H29.5792C29.2333 33.3735 28.9541 33.0951 28.9541 32.7501V31.4066C28.9541 31.0616 29.2333 30.7832 29.5792 30.7832H31.2148C31.5607 30.7832 31.8399 31.0616 31.8399 31.4066V32.7501C31.8399 33.0921 31.5577 33.3735 31.2148 33.3735Z" fill="white"/>
<path d="M36.4618 33.3735H34.8263C34.4803 33.3735 34.2012 33.0951 34.2012 32.7501V31.4066C34.2012 31.0616 34.4803 30.7832 34.8263 30.7832H36.4618C36.8078 30.7832 37.0869 31.0616 37.0869 31.4066V32.7501C37.09 33.0921 36.8078 33.3735 36.4618 33.3735Z" fill="white"/>
<path d="M41.7109 33.3735H40.0753C39.7294 33.3735 39.4502 33.0951 39.4502 32.7501V31.4066C39.4502 31.0616 39.7294 30.7832 40.0753 30.7832H41.7109C42.0568 30.7832 42.336 31.0616 42.336 31.4066V32.7501C42.336 33.0921 42.0568 33.3735 41.7109 33.3735Z" fill="white"/>
<path d="M94.7597 42.0875H57.9121C57.3052 42.0875 56.8105 41.5943 56.8105 40.9891C56.8105 40.3839 57.3052 39.8906 57.9121 39.8906H94.7597C95.3666 39.8906 95.8613 40.3839 95.8613 40.9891C95.8613 41.5913 95.3666 42.0875 94.7597 42.0875Z" fill="#B7E1FF"/>
<path d="M67.0429 59.0465H30.1953C29.5884 59.0465 29.0938 58.5533 29.0938 57.9481C29.0938 57.3429 29.5884 56.8496 30.1953 56.8496H67.0429C67.6498 56.8496 68.1445 57.3429 68.1445 57.9481C68.1445 58.5533 67.6498 59.0465 67.0429 59.0465Z" fill="#B7E1FF"/>
<path d="M73.8321 59.0465H70.0208C69.8145 59.0465 69.6445 58.8771 69.6445 58.6713V57.2248C69.6445 57.0191 69.8145 56.8496 70.0208 56.8496H73.8321C74.0385 56.8496 74.2084 57.0191 74.2084 57.2248V58.6713C74.2084 58.8801 74.0415 59.0465 73.8321 59.0465Z" fill="#B7E1FF"/>
<path d="M79.5793 59.0465H75.7649C75.5586 59.0465 75.3887 58.8771 75.3887 58.6713V57.2248C75.3887 57.0191 75.5586 56.8496 75.7649 56.8496H79.5793C79.7856 56.8496 79.9555 57.0191 79.9555 57.2248V58.6713C79.9586 58.8801 79.7886 59.0465 79.5793 59.0465Z" fill="#B7E1FF"/>
<path d="M95.1115 46.8775H34.0912C33.6785 46.8775 33.3447 46.5416 33.3447 46.1331C33.3447 45.7215 33.6815 45.3887 34.0912 45.3887H95.1115C95.5242 45.3887 95.861 45.7246 95.861 46.1331C95.861 46.5416 95.5242 46.8775 95.1115 46.8775Z" fill="#B7E1FF"/>
<path d="M95.1115 50.0962H34.0912C33.6785 50.0962 33.3447 49.7603 33.3447 49.3518C33.3447 48.9433 33.6815 48.6074 34.0912 48.6074H95.1115C95.5242 48.6074 95.861 48.9433 95.861 49.3518C95.861 49.7603 95.5242 50.0962 95.1115 50.0962Z" fill="#B7E1FF"/>
<path d="M114.864 84.8681H43.9632C43.1925 84.8681 42.5674 84.2448 42.5674 83.4762V53.0493C42.5674 52.2807 43.1925 51.6543 43.9632 51.6543H114.864C115.635 51.6543 116.263 52.2777 116.263 53.0493V83.4731C116.263 84.2448 115.635 84.8681 114.864 84.8681Z" fill="#9EC8FF"/>
<path d="M113.119 83.3092H45.7108C45.0888 83.3092 44.582 82.8069 44.582 82.1835V61.5065C44.582 60.8862 45.0888 60.3809 45.7108 60.3809H113.119C113.741 60.3809 114.248 60.8862 114.248 61.5065V82.1835C114.248 82.8038 113.741 83.3092 113.119 83.3092Z" fill="white"/>
<path d="M47.8652 56.6919H46.2296C45.8836 56.6919 45.6045 56.4135 45.6045 56.0685V54.7249C45.6045 54.38 45.8836 54.1016 46.2296 54.1016H47.8652C48.2111 54.1016 48.4903 54.38 48.4903 54.7249V56.0685C48.4903 56.4104 48.2111 56.6919 47.8652 56.6919Z" fill="white"/>
<path d="M53.1152 56.6919H51.4796C51.1337 56.6919 50.8545 56.4135 50.8545 56.0685V54.7249C50.8545 54.38 51.1337 54.1016 51.4796 54.1016H53.1152C53.4611 54.1016 53.7403 54.38 53.7403 54.7249V56.0685C53.7403 56.4104 53.4611 56.6919 53.1152 56.6919Z" fill="white"/>
<path d="M58.3642 56.6919H56.7286C56.3827 56.6919 56.1035 56.4135 56.1035 56.0685V54.7249C56.1035 54.38 56.3827 54.1016 56.7286 54.1016H58.3642C58.7101 54.1016 58.9893 54.38 58.9893 54.7249V56.0685C58.9893 56.4104 58.7101 56.6919 58.3642 56.6919Z" fill="white"/>
<path d="M111.411 65.4078H74.5605C73.9536 65.4078 73.459 64.9146 73.459 64.3094C73.459 63.7042 73.9566 63.2109 74.5605 63.2109H111.411C112.018 63.2109 112.513 63.7042 112.513 64.3094C112.516 64.9116 112.018 65.4078 111.411 65.4078Z" fill="#9EC8FF"/>
<path d="M83.6963 82.3688H46.8486C46.2417 82.3688 45.7471 81.8755 45.7471 81.2703C45.7471 80.6651 46.2417 80.1719 46.8486 80.1719H83.6963C84.3032 80.1719 84.7978 80.6651 84.7978 81.2703C84.7978 81.8725 84.3032 82.3688 83.6963 82.3688Z" fill="#9EC8FF"/>
<path d="M90.4846 82.3688H86.6702C86.4639 82.3688 86.2939 82.1993 86.2939 81.9935V80.5471C86.2939 80.3413 86.4639 80.1719 86.6702 80.1719H90.4846C90.6909 80.1719 90.8608 80.3413 90.8608 80.5471V81.9935C90.8608 82.1993 90.6909 82.3688 90.4846 82.3688Z" fill="#9EC8FF"/>
<path d="M96.2325 82.3688H92.4212C92.2148 82.3688 92.0449 82.1993 92.0449 81.9935V80.5471C92.0449 80.3413 92.2148 80.1719 92.4212 80.1719H96.2325C96.4388 80.1719 96.6088 80.3413 96.6088 80.5471V81.9935C96.6088 82.1993 96.4388 82.3688 96.2325 82.3688Z" fill="#9EC8FF"/>
<path d="M111.765 70.1978H50.7445C50.3318 70.1978 49.998 69.8619 49.998 69.4534C49.998 69.0418 50.3349 68.709 50.7445 68.709H111.765C112.178 68.709 112.511 69.0449 112.511 69.4534C112.514 69.8619 112.178 70.1978 111.765 70.1978Z" fill="#9EC8FF"/>
<path d="M111.765 73.4166H50.7445C50.3318 73.4166 49.998 73.0807 49.998 72.6721C49.998 72.2606 50.3349 71.9277 50.7445 71.9277H111.765C112.178 71.9277 112.511 72.2636 112.511 72.6721C112.514 73.0807 112.178 73.4166 111.765 73.4166Z" fill="#9EC8FF"/>
<path d="M142.48 76.7432C142.48 82.0115 138.198 86.2843 132.915 86.2843C127.632 86.2843 123.351 82.0145 123.351 76.7432C123.351 71.4748 127.632 67.2051 132.915 67.2051C138.195 67.2021 142.48 71.4748 142.48 76.7432Z" fill="#9CD499"/>
<path d="M131.963 80.2661C131.953 80.2661 131.944 80.2661 131.935 80.2661C131.735 80.26 131.547 80.1693 131.416 80.021L128.819 77.0766C128.552 76.774 128.582 76.3171 128.886 76.0508C129.186 75.7845 129.647 75.8148 129.914 76.1174L132.005 78.4868L137.006 73.6058C137.294 73.3244 137.755 73.3304 138.035 73.6179C138.317 73.9054 138.311 74.3653 138.022 74.6437L132.472 80.0603C132.336 80.1935 132.154 80.2661 131.963 80.2661Z" fill="white"/>
<path d="M203.771 32.4287H142.947C141.388 32.4287 140.113 31.1577 140.113 29.6024V7.92984C140.113 6.37445 141.388 5.10352 142.947 5.10352H203.771C205.33 5.10352 206.605 6.37445 206.605 7.92984V29.6024C206.605 31.1547 205.33 32.4287 203.771 32.4287Z" fill="#9EC8FF"/>
<path d="M148.143 28.3046V43.3803L165.563 26.0078C165.563 26.0108 148.498 28.3046 148.143 28.3046Z" fill="#9EC8FF"/>
<path d="M200.764 29.72H145.955C144.632 29.72 143.552 28.6427 143.552 27.3234V10.2111C143.552 8.89172 144.632 7.81445 145.955 7.81445H200.764C202.087 7.81445 203.167 8.89172 203.167 10.2111V27.3234C203.167 28.6397 202.087 29.72 200.764 29.72Z" fill="white"/>
<path d="M176.018 13.2312H149.09C148.44 13.2312 147.909 12.7017 147.909 12.0541C147.909 11.4065 148.44 10.877 149.09 10.877H176.018C176.667 10.877 177.198 11.4065 177.198 12.0541C177.198 12.6986 176.667 13.2312 176.018 13.2312Z" fill="#9EC8FF"/>
<path d="M198.509 17.7334H148.565C148.203 17.7334 147.909 17.4399 147.909 17.0798V17.0677C147.909 16.7076 148.203 16.4141 148.565 16.4141H198.509C198.87 16.4141 199.165 16.7076 199.165 17.0677V17.0798C199.165 17.4369 198.87 17.7334 198.509 17.7334Z" fill="#9EC8FF"/>
<path d="M198.509 20.2979H148.565C148.203 20.2979 147.909 20.0043 147.909 19.6442V19.6321C147.909 19.272 148.203 18.9785 148.565 18.9785H198.509C198.87 18.9785 199.165 19.272 199.165 19.6321V19.6442C199.165 20.0043 198.87 20.2979 198.509 20.2979Z" fill="#9EC8FF"/>
<path d="M188.185 28.7758H186.55C186.204 28.7758 185.925 28.4974 185.925 28.1525V26.8089C185.925 26.464 186.204 26.1855 186.55 26.1855H188.185C188.531 26.1855 188.811 26.464 188.811 26.8089V28.1525C188.811 28.4974 188.531 28.7758 188.185 28.7758Z" fill="#9EC8FF"/>
<path d="M193.435 28.7758H191.8C191.454 28.7758 191.175 28.4974 191.175 28.1525V26.8089C191.175 26.464 191.454 26.1855 191.8 26.1855H193.435C193.781 26.1855 194.061 26.464 194.061 26.8089V28.1525C194.061 28.4974 193.781 28.7758 193.435 28.7758Z" fill="#9EC8FF"/>
<path d="M198.685 28.7758H197.049C196.703 28.7758 196.424 28.4974 196.424 28.1525V26.8089C196.424 26.464 196.703 26.1855 197.049 26.1855H198.685C199.031 26.1855 199.31 26.464 199.31 26.8089V28.1525C199.31 28.4974 199.031 28.7758 198.685 28.7758Z" fill="#9EC8FF"/>
</svg>
