<svg width="424" height="238" viewBox="0 0 424 238" fill="none" xmlns="http://www.w3.org/2000/svg">
<path d="M155.598 231.266C47.8474 225.405 -38.5616 118.884 18.7722 57.0657C63.2382 9.11937 122.531 78.9071 177.829 43.748C262.905 -10.3439 400.738 -20.1781 418.981 48.0082C437.225 116.198 376.793 222.743 331.756 229.135C286.722 235.527 155.598 231.266 155.598 231.266Z" fill="#E7F3FE"/>
<path d="M169.565 86.8976C170.703 112.469 170.421 126.32 160.443 136.972C150.468 147.628 122.532 144.962 122.532 144.962C122.532 144.962 119.778 182.609 80.7241 184.207C41.6739 185.805 36.0676 137.328 66.6625 124.897C95.7853 113.064 105.05 109.625 115.12 80.3243C124.322 53.559 153.031 58.6609 159.872 69.8468C166.716 81.0361 169.565 86.8976 169.565 86.8976Z" fill="#303C60"/>
<path d="M156.736 217.415C156.736 217.415 175.17 220.789 176.119 220.611C177.067 220.433 197.211 212.087 199.302 213.329C201.393 214.571 213.554 219.365 216.216 220.433C218.878 221.497 214.696 221.853 212.605 221.853C210.515 221.853 198.544 217.237 197.211 218.123C195.882 219.013 207.662 220.785 207.662 221.497C207.662 222.209 176.115 228.957 174.214 228.957C172.314 228.957 157.681 227.714 157.681 227.714L156.736 217.415Z" fill="#E38540"/>
<path d="M141.441 123.344C151.372 125.164 157.213 134.985 159.114 143.584C161.014 152.183 141.441 123.344 141.441 123.344Z" fill="#6791C9"/>
<path d="M124.813 116.729C124.813 116.729 105.716 128.715 95.4522 134.573C85.1916 140.432 99.158 203.561 102.578 227C105.998 250.439 165.288 229.132 165.288 229.132C165.288 229.132 161.296 209.422 166.426 177.722C170.103 155.019 156.638 140.787 148.945 130.933C129.522 106.063 124.813 116.729 124.813 116.729Z" fill="#75A1DE"/>
<path d="M105.998 134.844C127.947 159.881 135.366 164.562 129.943 181.456C125.666 194.773 124.241 199.567 123.388 204.098C122.531 208.625 164.152 201.169 164.152 201.169L163.866 215.817C163.866 215.817 131.085 230.466 115.123 233.399C99.1612 236.328 89.1826 232.865 89.1826 232.865L105.998 134.844Z" fill="#6791C9"/>
<path d="M380.847 235.127H121.154C119.279 235.127 117.76 233.707 117.76 231.955C117.76 230.203 119.279 228.783 121.154 228.783H380.847C382.721 228.783 384.241 230.203 384.241 231.955C384.241 233.707 382.721 235.127 380.847 235.127Z" fill="#2E5B9A"/>
<path d="M131.843 91.5137L121.96 118.861C121.96 118.861 132.792 146.297 141.913 140.168C145.026 138.078 140.775 121.523 140.775 121.523L147.425 99.3257L131.843 91.5137Z" fill="#F09959"/>
<path d="M100.296 133.775C86.6522 135.192 85.4731 152.42 79.204 181.188C72.9312 209.955 74.817 228.942 77.7795 232.597C84.9055 241.387 165.005 210.755 174.98 211.022C181.864 211.207 176.119 200.367 176.119 200.367L99.7251 211.289C99.7251 211.289 110.557 177.995 110.557 160.948C110.561 143.897 105.43 133.241 100.296 133.775Z" fill="#F09959"/>
<path d="M171.274 200.902C179.257 199.037 190.942 194.777 193.223 196.638C195.504 198.503 204.912 211.821 208.046 215.551C211.181 219.28 206.622 216.351 203.202 213.419C199.782 210.49 196.929 208.892 196.929 208.892C196.929 208.892 192.652 212.622 188.664 214.753C184.673 216.885 183.248 212.622 176.408 211.557C169.567 210.493 152.463 216.084 152.463 216.084L171.274 200.902Z" fill="#F09959"/>
<path d="M101.819 131.643C93.4592 131.999 86.996 138.569 84.7147 148.691C82.4334 158.812 75.7834 190.954 75.7834 190.954C75.7834 190.954 74.4542 191.84 88.3253 194.149C102.196 196.459 113.6 193.794 113.6 193.794C113.6 193.794 116.448 175.504 115.69 162.895C114.929 150.285 111.889 138.388 106.95 134.306C102.006 130.223 101.819 131.643 101.819 131.643Z" fill="#75A1DE"/>
<path d="M140.774 121.523L147.424 99.3257L131.843 91.5137L129.463 98.1006C128.946 120.154 134.988 127.528 139.064 130.225C140.335 131.066 141.43 130.416 142.349 129.041C141.679 125.044 140.774 121.523 140.774 121.523Z" fill="#E38540"/>
<path d="M172.417 94.0896C172.417 105.97 170.901 120.537 159.875 120.195C142.77 119.661 131.993 107.24 131.993 95.3591C131.993 83.4786 140.935 73.8496 151.965 73.8496C162.998 73.8462 172.417 82.2091 172.417 94.0896Z" fill="#F09959"/>
<path d="M300.051 228.775H235.936L262.308 174.56C263.077 172.979 264.765 171.963 266.626 171.963H324.813C326.16 171.963 327.054 173.263 326.497 174.409L300.051 228.775Z" fill="#9BD6E8"/>
<path d="M299.912 228.776H181.634C181.634 224.927 184.973 221.803 189.097 221.803H299.916V228.776H299.912Z" fill="#9BD6E8"/>
<path d="M324.813 171.959H273.536C271.676 171.959 269.987 172.975 269.218 174.556L242.846 228.771H300.051L326.497 174.406C327.054 173.259 326.16 171.959 324.813 171.959Z" fill="#7BCEE8"/>
<path d="M153.602 69.7156C165.716 68.9149 172.889 79.259 174.98 88.3165C176.489 94.8522 175.742 96.1285 175.742 96.1285C175.742 96.1285 174.413 97.9045 164.91 98.4383C155.408 98.9721 154.269 98.7941 154.269 98.7941L153.697 88.4945L150.848 98.4383C150.848 98.4383 149.329 100.392 143.437 97.7265C137.545 95.0644 134.886 86.1848 134.886 86.1848C134.886 86.1848 133.557 80.3232 138.116 76.4189C142.675 72.5112 153.602 69.7156 153.602 69.7156Z" fill="#303C60"/>
<path d="M46.5184 144.309C46.5038 144.309 46.4891 144.309 46.4745 144.305C46.2328 144.285 46.057 144.083 46.079 143.857C46.577 138.974 49.1916 133.954 53.432 129.721C58.2291 124.938 65.0584 121.167 73.1805 118.82C91.2737 113.591 107.06 106.942 116.98 78.4217C117.057 78.2062 117.302 78.0898 117.533 78.1583C117.764 78.2301 117.892 78.4594 117.815 78.675C113.256 91.7839 107.053 101.327 98.8465 107.849C91.607 113.605 83.4557 116.712 73.4405 119.603C65.4649 121.909 58.7674 125.602 54.0765 130.283C49.9642 134.382 47.4375 139.231 46.9542 143.936C46.9359 144.151 46.7418 144.309 46.5184 144.309Z" fill="#303C60"/>
<path d="M54.6916 124.599C54.5598 124.599 54.4316 124.544 54.3438 124.438C54.1936 124.26 54.2302 124 54.4207 123.863C54.4976 123.808 62.2278 118.275 73.4074 115.972C94.8696 111.555 109.279 99.4929 115.076 81.0973C115.145 80.8783 115.387 80.7551 115.621 80.8201C115.856 80.8851 115.988 81.1109 115.918 81.3299C112.337 92.6938 105.599 101.662 95.8876 107.986C89.6368 112.058 82.1337 115.014 73.5905 116.773C62.6123 119.035 55.0285 124.455 54.9516 124.51C54.8784 124.571 54.7832 124.599 54.6916 124.599Z" fill="#303C60"/>
<path d="M329.866 118.703H271.976C271.434 118.703 271.152 118.292 271.349 117.786L283.093 87.6397C283.291 87.1333 283.891 86.7227 284.433 86.7227H342.324C342.866 86.7227 343.148 87.1333 342.95 87.6397L331.206 117.786C331.008 118.292 330.408 118.703 329.866 118.703Z" fill="#9EC8FF"/>
<path d="M329.167 117.293H273.77C273.265 117.293 273.001 116.91 273.188 116.438L283.881 88.9878C284.064 88.5156 284.624 88.1289 285.133 88.1289H340.526C341.031 88.1289 341.295 88.5121 341.108 88.9878L330.416 116.438C330.233 116.91 329.672 117.293 329.167 117.293Z" fill="white"/>
<path d="M328.167 115.508H276.165C275.594 115.508 275.301 115.077 275.51 114.543L284.727 90.881C284.935 90.3472 285.565 89.916 286.133 89.916H338.135C338.706 89.916 338.999 90.3472 338.79 90.881L329.573 114.543C329.368 115.073 328.735 115.508 328.167 115.508Z" fill="#9EC8FF"/>
<path d="M312.229 108.398C317.058 104.632 318.699 99.0329 315.894 95.8915C313.088 92.75 306.899 93.256 302.07 97.0216C297.241 100.787 295.6 106.386 298.406 109.528C301.211 112.669 307.4 112.163 312.229 108.398Z" fill="white"/>
<path d="M315.333 102.711C313.688 106.933 308.69 110.355 304.171 110.355C299.653 110.355 297.324 106.933 298.968 102.711C300.612 98.4882 305.61 95.0664 310.129 95.0664C314.644 95.0664 316.977 98.4882 315.333 102.711Z" fill="#9EC8FF"/>
<path d="M311.341 102.303L307.723 103.915L304.102 105.53L305.361 102.303L306.617 99.0762L308.979 100.688L311.341 102.303Z" fill="white"/>
<path d="M242.234 84.7903H237.672C236.734 84.7903 235.925 84.4276 235.449 83.7911C234.944 83.1171 234.859 82.2069 235.215 81.2932L236.873 77.0297C237.514 75.3838 239.415 74.0938 241.198 74.0938H245.757C246.695 74.0938 247.504 74.4599 247.98 75.0929C248.485 75.767 248.569 76.6772 248.214 77.5908L246.555 81.851C245.918 83.4969 244.018 84.7903 242.234 84.7903ZM241.202 75.7328C240.162 75.7328 238.913 76.6019 238.529 77.5908L236.87 81.8544C236.712 82.2582 236.72 82.6209 236.892 82.8502C237.079 83.0965 237.419 83.1513 237.675 83.1513H242.238C243.296 83.1513 244.519 82.2992 244.911 81.2932L246.57 77.0297C246.728 76.6259 246.72 76.2632 246.548 76.0339C246.361 75.7875 246.021 75.7328 245.764 75.7328H241.202Z" fill="#9CD499"/>
<path d="M235.178 102.902H230.619C229.682 102.902 228.872 102.536 228.396 101.903C227.891 101.229 227.807 100.319 228.162 99.405L229.821 95.1449C230.462 93.499 232.362 92.209 234.145 92.209H238.704C239.642 92.209 240.451 92.5751 240.927 93.2082C241.432 93.8823 241.517 94.7924 241.162 95.7061L239.503 99.9662C238.862 101.612 236.961 102.902 235.178 102.902ZM234.145 93.8446C233.105 93.8446 231.857 94.7138 231.472 95.7027L229.813 99.9662C229.656 100.37 229.663 100.733 229.835 100.962C230.022 101.208 230.363 101.263 230.619 101.263H235.178C236.236 101.263 237.459 100.414 237.851 99.405L239.51 95.1449C239.667 94.7411 239.66 94.3784 239.488 94.1492C239.301 93.9028 238.961 93.848 238.704 93.848H234.145V93.8446Z" fill="#9CD499"/>
<path d="M228.125 121.013H223.562C222.625 121.013 221.816 120.647 221.34 120.014C220.834 119.34 220.75 118.43 221.105 117.516L222.764 113.256C223.405 111.61 225.305 110.316 227.089 110.316H231.651C232.589 110.316 233.398 110.683 233.874 111.316C234.379 111.99 234.464 112.9 234.109 113.813L232.45 118.074C231.809 119.723 229.908 121.013 228.125 121.013ZM227.092 111.959C226.034 111.959 224.811 112.807 224.419 113.817L222.76 118.077C222.603 118.481 222.61 118.844 222.782 119.073C222.969 119.319 223.31 119.374 223.566 119.374H228.125C229.183 119.374 230.406 118.525 230.798 117.516L232.457 113.256C232.614 112.852 232.607 112.489 232.435 112.26C232.248 112.014 231.908 111.959 231.651 111.959H227.092V111.959Z" fill="#9EC8FF"/>
<path d="M279.757 81.3026H254.673C254.204 81.3026 253.959 80.9433 254.127 80.5019C254.299 80.0639 254.823 79.7012 255.296 79.7012H280.379C280.848 79.7012 281.093 80.0605 280.925 80.5019C280.753 80.9433 280.229 81.3026 279.757 81.3026Z" fill="#9EC8FF"/>
<path d="M278.513 84.5003H253.429C252.96 84.5003 252.715 84.141 252.887 83.703C253.059 83.2651 253.583 82.9023 254.055 82.9023H279.139C279.608 82.9023 279.853 83.2616 279.685 83.703C279.509 84.141 278.985 84.5003 278.513 84.5003Z" fill="#9EC8FF"/>
<path d="M273.221 98.0838H248.137C247.668 98.0838 247.423 97.7245 247.595 97.2831C247.767 96.8451 248.291 96.4824 248.76 96.4824H273.843C274.312 96.4824 274.557 96.8417 274.389 97.2831C274.217 97.7245 273.693 98.0838 273.221 98.0838Z" fill="#9EC8FF"/>
<path d="M271.976 101.28H246.892C246.423 101.28 246.178 100.92 246.35 100.482C246.522 100.044 247.046 99.6816 247.514 99.6816H272.598C273.067 99.6816 273.312 100.041 273.14 100.482C272.972 100.92 272.448 101.28 271.976 101.28Z" fill="#9EC8FF"/>
<path d="M265.96 116.729H240.876C240.407 116.729 240.162 116.37 240.331 115.928C240.503 115.49 241.026 115.131 241.495 115.131H266.579C267.047 115.131 267.293 115.49 267.124 115.928C266.956 116.37 266.429 116.729 265.96 116.729Z" fill="#9EC8FF"/>
<path d="M264.715 119.926H239.631C239.162 119.926 238.917 119.566 239.085 119.125C239.257 118.687 239.781 118.324 240.254 118.324H265.337C265.806 118.324 266.051 118.684 265.883 119.125C265.711 119.566 265.184 119.926 264.715 119.926Z" fill="#9EC8FF"/>
<path d="M241.173 82.3915C241.096 82.3915 241.019 82.3812 240.942 82.3641C240.678 82.2957 240.459 82.1177 240.356 81.8782L238.635 77.8815C238.452 77.4607 238.672 76.9816 239.122 76.8139C239.572 76.6463 240.085 76.8482 240.264 77.269L241.553 80.2597L251.73 72.9302C252.114 72.653 252.667 72.7215 252.964 73.0807C253.26 73.44 253.187 73.9567 252.803 74.2339L241.707 82.2238C241.553 82.3333 241.363 82.3915 241.173 82.3915Z" fill="#F37168"/>
<path d="M234.116 100.503C234.039 100.503 233.962 100.493 233.885 100.475C233.622 100.407 233.402 100.229 233.299 99.9895L231.578 95.9929C231.395 95.572 231.615 95.0929 232.065 94.9253C232.516 94.7576 233.028 94.9595 233.208 95.3804L234.497 98.371L244.673 91.0415C245.058 90.7643 245.611 90.8328 245.907 91.1921C246.204 91.5514 246.131 92.0681 245.746 92.3452L234.651 100.335C234.5 100.445 234.31 100.503 234.116 100.503Z" fill="#F37168"/>
<path d="M399.98 60.2625H303.633L306.123 53.8672H402.47L399.98 60.2625Z" fill="#9EC8FF"/>
<path d="M396.245 69.8509H299.897L302.388 63.459H398.735L396.245 69.8509Z" fill="#9EC8FF"/>
<path d="M289.45 146.506H218.699C217.776 146.506 217.293 145.802 217.63 144.936C217.967 144.074 218.999 143.365 219.922 143.365H290.673C291.596 143.365 292.079 144.074 291.742 144.936C291.405 145.802 290.376 146.506 289.45 146.506Z" fill="#9EC8FF"/>
<path d="M286.733 153.491H215.982C215.059 153.491 214.576 152.783 214.913 151.92C215.25 151.058 216.283 150.35 217.205 150.35H287.956C288.879 150.35 289.362 151.058 289.026 151.92C288.689 152.783 287.656 153.491 286.733 153.491Z" fill="#9EC8FF"/>
<path d="M352.965 212.513C352.965 211.404 367.265 174.476 357.597 150.705C350.83 134.061 349.761 114.088 349.761 114.088C349.761 114.088 336.578 131.731 345.488 158.695C350.969 175.29 353.207 179.889 353.683 184.772C354.159 189.655 351.544 214.066 351.544 214.066L352.965 212.513Z" fill="#9CD499"/>
<path d="M351.54 214.476C351.481 214.476 351.423 214.466 351.368 214.442C351.192 214.37 351.086 214.202 351.104 214.024C351.13 213.781 353.708 189.596 353.243 184.809C352.931 181.623 351.88 178.612 349.573 172.015C348.391 168.634 346.922 164.428 345.066 158.817C340.433 144.794 341.854 133.328 343.857 126.176C346.032 118.412 349.262 114.036 349.398 113.854C349.504 113.71 349.698 113.645 349.877 113.693C350.057 113.741 350.185 113.892 350.196 114.066C350.207 114.265 351.339 134.169 358.007 150.56C361.621 159.45 362.346 171.173 360.164 185.401C358.421 196.761 355.312 206.472 353.986 210.619C353.682 211.564 353.422 212.382 353.404 212.532C353.404 212.631 353.367 212.707 353.298 212.782L351.873 214.336C351.785 214.424 351.664 214.476 351.54 214.476ZM349.409 115.394C348.325 117.139 346.223 120.958 344.692 126.422C342.722 133.465 341.334 144.756 345.901 158.574C347.754 164.182 349.222 168.384 350.401 171.758C352.73 178.417 353.792 181.455 354.111 184.733C354.524 189.004 352.646 207.646 352.108 212.809L352.543 212.337C352.595 212.094 352.748 211.605 353.136 210.387C361.394 184.593 362.753 164.562 357.179 150.854C351.448 136.749 349.782 120.085 349.409 115.394Z" fill="#74B570"/>
<path d="M356.052 216.286C353.913 175.231 364.364 152.815 385.739 135.059C407.113 117.303 408.061 112.643 408.061 112.643C408.061 112.643 404.736 147.264 392.385 159.248C380.033 171.231 361.984 180.11 359.373 186.321C356.762 192.535 357.711 213.394 357.711 213.394L356.048 217.168V216.286H356.052Z" fill="#9CD499"/>
<path d="M353.437 219.835C353.199 219.167 357.949 181.442 375.287 179.221C392.626 177.001 396.662 180.775 408.537 178.999C417.011 177.733 423.5 175.225 423.5 175.225C423.5 175.225 419.003 185.921 403.55 190.315C392.626 193.422 378.374 188.316 370.062 189.648C361.75 190.979 357.476 207.622 357.476 207.622L356.052 216.276L353.437 219.835Z" fill="#9CD499"/>
<path d="M355.814 214.253C355.59 214.253 355.396 214.092 355.378 213.88C355.352 213.613 352.892 187.111 364.932 166.817C371.15 156.336 377.942 150.258 384.508 144.383C390.627 138.912 396.406 133.741 400.785 125.553C400.895 125.351 401.159 125.269 401.375 125.368C401.591 125.471 401.679 125.717 401.572 125.919C397.123 134.234 391.29 139.452 385.116 144.975C378.598 150.809 371.856 156.839 365.701 167.214C353.796 187.282 356.228 213.541 356.253 213.805C356.275 214.031 356.099 214.229 355.858 214.253C355.839 214.253 355.828 214.253 355.814 214.253Z" fill="#74B570"/>
<path d="M354.628 208.929C354.587 208.929 354.547 208.923 354.507 208.912C354.272 208.851 354.14 208.622 354.206 208.403C358.754 193.761 363.969 185.216 370.626 181.517C376.577 178.208 382.725 179.225 389.236 180.299C390.829 180.563 392.477 180.833 394.11 181.035C408.259 182.77 415.158 179.557 415.228 179.522C415.444 179.42 415.707 179.499 415.821 179.7C415.931 179.902 415.847 180.149 415.634 180.255C415.349 180.392 408.457 183.622 394 181.849C392.348 181.647 390.693 181.374 389.089 181.11C382.743 180.063 376.752 179.074 371.08 182.226C364.628 185.812 359.534 194.205 355.056 208.635C354.994 208.813 354.818 208.929 354.628 208.929Z" fill="#74B570"/>
<path d="M377.309 152.003C377.177 152.003 377.049 151.948 376.961 151.842C376.815 151.664 376.848 151.404 377.042 151.267C377.126 151.206 385.574 145.19 397.295 143.089C397.533 143.048 397.764 143.192 397.808 143.414C397.852 143.637 397.698 143.852 397.46 143.893C385.94 145.96 377.66 151.856 377.576 151.914C377.496 151.975 377.4 152.003 377.309 152.003Z" fill="#74B570"/>
<path d="M363.888 169.869C363.811 169.869 363.734 169.852 363.665 169.811C363.456 169.695 363.387 169.445 363.511 169.25C369.696 159.505 376.939 157.048 392.733 152.422C392.963 152.353 393.212 152.473 393.282 152.692C393.355 152.907 393.227 153.14 392.993 153.205C377.422 157.766 370.286 160.182 364.265 169.667C364.185 169.798 364.038 169.869 363.888 169.869Z" fill="#74B570"/>
<path d="M360.047 229.932H349.442C345.696 229.932 342.481 227.448 341.778 224.009L338.357 207.297H371.131L367.711 224.009C367.008 227.448 363.793 229.932 360.047 229.932Z" fill="#F39892"/>
<path d="M370.3 211.557H339.427C338.94 211.557 338.548 211.19 338.548 210.735C338.548 210.28 338.94 209.914 339.427 209.914H370.3C370.787 209.914 371.179 210.28 371.179 210.735C371.179 211.19 370.787 211.557 370.3 211.557Z" fill="#D54A41"/>
</svg>
