<svg width="18" height="19" viewBox="0 0 18 19" fill="none" xmlns="http://www.w3.org/2000/svg">
<path fill-rule="evenodd" clip-rule="evenodd" d="M13.0003 2.49239C13.8027 2.61753 14.547 3.00017 15.1175 3.58805C16.5475 5.06147 16.53 7.40995 15.0781 8.86181L14.781 9.15889L11.344 12.5959L7.50334 16.4365C6.12548 17.8143 3.88933 17.8071 2.52044 16.4203C1.1603 15.0425 1.1718 12.8237 2.54615 11.46L8.17784 5.87188C8.71554 5.33834 9.58343 5.34001 10.1191 5.87562C10.6562 6.41273 10.6562 7.28359 10.1191 7.82071L4.21204 13.7278L5.2727 14.7884L11.1798 8.88137C12.3027 7.75845 12.3027 5.93782 11.1797 4.81493C10.0599 3.69517 8.24544 3.69168 7.12131 4.80711L1.48961 10.3952C-0.47171 12.3414 -0.488122 15.5077 1.45292 17.4741C3.40646 19.4531 6.59767 19.4635 8.56399 17.4972L12.4047 13.6565L15.8417 10.2196L16.1387 9.92248C18.1702 7.89101 18.1948 4.60499 16.1939 2.54337C15.3411 1.66461 14.2108 1.1136 13.0003 0.979492V2.49239Z" fill="#0D4CD3"/>
</svg>