<svg width="18" height="20" viewBox="0 0 18 20" fill="none" xmlns="http://www.w3.org/2000/svg">
<path fill-rule="evenodd" clip-rule="evenodd" d="M12.5 3.5V5.5H14V3.5H15C15.8284 3.5 16.5 4.17157 16.5 5V7.01562L1.5 7.01562V5C1.5 4.17157 2.17157 3.5 3 3.5H4V5.5H5.5V3.5L12.5 3.5ZM1.5 8.51562L1.5 17C1.5 17.8284 2.17157 18.5 3 18.5H15C15.8284 18.5 16.5 17.8284 16.5 17V8.51562L1.5 8.51562ZM3 2H4V0H5.5V2L12.5 2V0H14V2H15C16.6569 2 18 3.34315 18 5V17C18 18.6569 16.6569 20 15 20H3C1.34315 20 0 18.6569 0 17V5C0 3.34315 1.34315 2 3 2Z" fill="#66727F"/>
</svg>
