<svg width="20" height="22" viewBox="0 0 20 22" fill="none" xmlns="http://www.w3.org/2000/svg">
<path fill-rule="evenodd" clip-rule="evenodd" d="M5.55556 2.2H14.4444V1.11111C14.4444 0.497461 14.9419 0 15.5556 0C16.1692 0 16.6667 0.497461 16.6667 1.11111V2.2H17.7778C18.3671 2.2 18.9324 2.43179 19.3491 2.84437C19.7659 3.25695 20 3.81652 20 4.4V19.8C20 20.3835 19.7659 20.9431 19.3491 21.3556C18.9324 21.7682 18.3671 22 17.7778 22H2.22222C1.63285 22 1.06762 21.7682 0.650874 21.3556C0.234126 20.9431 0 20.3835 0 19.8V4.4C0 3.81652 0.234126 3.25695 0.650874 2.84437C1.06762 2.43179 1.63285 2.2 2.22222 2.2H3.33333V1.11111C3.33333 0.497461 3.8308 0 4.44444 0C5.05809 0 5.55556 0.497461 5.55556 1.11111V2.2ZM2.22222 6V19.8H17.7778V6H2.22222ZM4.44444 10H6.66667V12.2H4.44444V10ZM8.88889 10H11.1111V12.2H8.88889V10ZM13.3333 10H15.5556V12.2H13.3333V10ZM13.3333 14.4H15.5556V16.6H13.3333V14.4ZM8.88889 14.4H11.1111V16.6H8.88889V14.4ZM4.44444 14.4H6.66667V16.6H4.44444V14.4Z" fill="#66727F"/>
</svg>
