<svg width="20" height="20" viewBox="0 0 20 20" fill="none" xmlns="http://www.w3.org/2000/svg">
<path d="M10 6.13281C7.30762 6.13281 5.11719 8.32324 5.11719 11.0156C5.11719 13.708 7.30762 15.8984 10 15.8984C12.6924 15.8984 14.8828 13.708 14.8828 11.0156C14.8828 8.32324 12.6924 6.13281 10 6.13281ZM10 14.3359C8.16918 14.3359 6.67969 12.8464 6.67969 11.0156C6.67969 9.1848 8.16918 7.69531 10 7.69531C11.8308 7.69531 13.3203 9.1848 13.3203 11.0156C13.3203 12.8464 11.8308 14.3359 10 14.3359Z" fill="#0D4CD3"/>
<path d="M17.6562 3.78906H14.7822C14.6912 3.78906 14.6093 3.73941 14.5671 3.6591L13.772 1.98828C13.7698 1.98371 13.7676 1.97918 13.7653 1.97465C13.4575 1.35902 12.8387 0.976562 12.1504 0.976562H7.90531C7.21699 0.976562 6.59816 1.35902 6.29039 1.97469C6.28809 1.97922 6.2859 1.98375 6.28371 1.98832L5.48855 3.65922C5.44637 3.73941 5.36441 3.78906 5.27344 3.78906H2.34375C1.05141 3.78906 0 4.84047 0 6.13281V16.6797C0 17.972 1.05141 19.0234 2.34375 19.0234H17.6562C18.9486 19.0234 20 17.972 20 16.6797V6.13281C20 4.84047 18.9486 3.78906 17.6562 3.78906ZM18.4375 16.6796C18.4375 17.1104 18.087 17.4609 17.6562 17.4609H2.34375C1.91297 17.4609 1.5625 17.1104 1.5625 16.6796V6.13281C1.5625 5.70203 1.91297 5.35156 2.34375 5.35156H5.27344C5.96172 5.35156 6.58055 4.96914 6.88836 4.35352C6.89066 4.34898 6.89285 4.34441 6.89508 4.33984L7.69023 2.66895C7.73238 2.58871 7.81434 2.53906 7.90531 2.53906H12.1504C12.2413 2.53906 12.3233 2.58871 12.3654 2.66891L13.1606 4.3398C13.1628 4.34437 13.165 4.34895 13.1673 4.35348C13.4751 4.9691 14.0939 5.35152 14.7822 5.35152H17.6562C18.087 5.35152 18.4375 5.70199 18.4375 6.13277V16.6796Z" fill="#0D4CD3"/>
<path d="M16.875 6.91406H15.3125V8.47656H16.875V6.91406Z" fill="#0D4CD3"/>
</svg>
