<svg width="24" height="19" viewBox="0 0 24 19" fill="none" xmlns="http://www.w3.org/2000/svg">
<path d="M12 6.66559C9.92893 6.66559 8.25 8.32354 8.25 10.3687C8.25 12.4139 9.92893 14.0719 12 14.0719C14.07 14.0695 15.7476 12.4129 15.75 10.3687C15.75 8.32354 14.0711 6.66559 12 6.66559ZM12 13.3986C10.3055 13.3986 8.93182 12.042 8.93182 10.3687C8.93182 8.69537 10.3055 7.33889 12 7.33889C13.6936 7.34091 15.0661 8.69626 15.0682 10.3687C15.0682 12.042 13.6945 13.3986 12 13.3986Z" fill="#0B40B3"/>
<path d="M22 2.88021V2.05729C22 1.83006 21.8209 1.64583 21.6 1.64583H19.2C18.9791 1.64583 18.8 1.83006 18.8 2.05729V2.88021H17.8324L16.808 1.03688C16.4514 0.39644 15.7891 0.000925781 15.0716 0H8.9284C8.2109 0.000925781 7.5486 0.39644 7.192 1.03688L6.1676 2.88021H6V1.64583C6 1.41861 5.8209 1.23438 5.6 1.23438H2.4C2.1791 1.23438 2 1.41861 2 1.64583V2.88021C0.896 2.88155 0.0013 3.80188 0 4.9375V16.4583C0.0013 17.594 0.896 18.5143 2 18.5156H22C23.104 18.5143 23.9987 17.594 24 16.4583V4.9375C23.9987 3.80188 23.104 2.88155 22 2.88021ZM19.6 2.46875H21.2V2.88021H19.6V2.46875ZM2.8 2.05729H5.2V2.88021H2.8V2.05729ZM23.2 16.4583C23.2 17.1401 22.6628 17.6927 22 17.6927H2C1.33725 17.6927 0.8 17.1401 0.8 16.4583V4.9375C0.8 4.25576 1.33725 3.70312 2 3.70312H6.4C6.5432 3.70343 6.6756 3.62495 6.7472 3.4974L7.8864 1.44669C8.10015 1.06192 8.49755 0.823997 8.9284 0.822917H15.0716C15.5014 0.824408 15.8978 1.06156 16.1116 1.44504L17.2528 3.4974C17.3244 3.62495 17.4568 3.70343 17.6 3.70312H22C22.6628 3.70312 23.2 4.25576 23.2 4.9375V16.4583Z" fill="#0B40B3"/>
<path d="M12 5.18396C9.10052 5.18396 6.75 7.50509 6.75 10.3683C6.75 13.2316 9.10052 15.5527 12 15.5527C14.8995 15.5527 17.25 13.2316 17.25 10.3683C17.2467 7.50643 14.8982 5.1872 12 5.18396ZM12 14.8615C9.48709 14.8615 7.45 12.8498 7.45 10.3683C7.45 7.88683 9.48709 5.87521 12 5.87521C14.5129 5.87521 16.55 7.88683 16.55 10.3683C16.5471 12.8486 14.5117 14.8586 12 14.8615Z" fill="#0B40B3"/>
<path d="M4.125 4.44366C3.91791 4.44366 3.75 4.64774 3.75 4.89943V15.8379C3.75 16.0896 3.91791 16.2937 4.125 16.2937C4.33209 16.2937 4.5 16.0896 4.5 15.8379V4.89943C4.5 4.64774 4.33209 4.44366 4.125 4.44366Z" fill="#0B40B3"/>
<path d="M20.625 3.70294C20.0037 3.70294 19.5 4.20032 19.5 4.81389C19.5 5.42745 20.0037 5.92483 20.625 5.92483C21.2463 5.92483 21.75 5.42745 21.75 4.81389C21.75 4.20032 21.2463 3.70294 20.625 3.70294ZM20.625 5.1842C20.4179 5.1842 20.25 5.01839 20.25 4.81389C20.25 4.60938 20.4179 4.44357 20.625 4.44357C20.8321 4.44357 21 4.60938 21 4.81389C21 5.01839 20.8321 5.1842 20.625 5.1842Z" fill="#0B40B3"/>
</svg>
