<svg width="32" height="42" viewBox="0 0 32 42" fill="none" xmlns="http://www.w3.org/2000/svg">
<mask id="path-1-outside-1" maskUnits="userSpaceOnUse" x="0.143555" y="0" width="32" height="42" fill="black">
<rect fill="white" x="0.143555" width="32" height="42"/>
<path fill-rule="evenodd" clip-rule="evenodd" d="M18 2.5359C16.7624 1.82137 15.2376 1.82137 14 2.5359L4.14355 8.2265C2.90595 8.94103 2.14355 10.2615 2.14355 11.6906V23.0718C2.14355 24.5009 2.90595 25.8214 4.14355 26.5359L9.42809 29.5869L14.5056 38.3813C15.2754 39.7147 17.1999 39.7147 17.9697 38.3813L23.2848 29.1753L27.8564 26.5359C29.094 25.8214 29.8564 24.5009 29.8564 23.0718V11.6906C29.8564 10.2615 29.094 8.94103 27.8564 8.2265L18 2.5359Z"/>
</mask>
<path fill-rule="evenodd" clip-rule="evenodd" d="M18 2.5359C16.7624 1.82137 15.2376 1.82137 14 2.5359L4.14355 8.2265C2.90595 8.94103 2.14355 10.2615 2.14355 11.6906V23.0718C2.14355 24.5009 2.90595 25.8214 4.14355 26.5359L9.42809 29.5869L14.5056 38.3813C15.2754 39.7147 17.1999 39.7147 17.9697 38.3813L23.2848 29.1753L27.8564 26.5359C29.094 25.8214 29.8564 24.5009 29.8564 23.0718V11.6906C29.8564 10.2615 29.094 8.94103 27.8564 8.2265L18 2.5359Z" fill="#FF8A00"/>
<path d="M14 2.5359L15 4.26795L14 2.5359ZM18 2.5359L17 4.26795L18 2.5359ZM4.14355 8.2265L3.14355 6.49445L3.14355 6.49445L4.14355 8.2265ZM4.14355 26.5359L5.14355 24.8038H5.14355L4.14355 26.5359ZM9.42809 29.5869L11.1601 28.5869L10.8922 28.1228L10.4281 27.8549L9.42809 29.5869ZM14.5056 38.3813L16.2376 37.3813H16.2376L14.5056 38.3813ZM17.9697 38.3813L19.7017 39.3813L17.9697 38.3813ZM23.2848 29.1753L22.2848 27.4433L21.8207 27.7112L21.5527 28.1753L23.2848 29.1753ZM27.8564 26.5359L26.8564 24.8038L26.8564 24.8038L27.8564 26.5359ZM27.8564 8.2265L26.8564 9.95855L27.8564 8.2265ZM15 4.26795C15.6188 3.91068 16.3812 3.91068 17 4.26795L19 0.803848C17.1436 -0.267949 14.8564 -0.26795 13 0.803847L15 4.26795ZM5.14355 9.95855L15 4.26795L13 0.803847L3.14355 6.49445L5.14355 9.95855ZM4.14355 11.6906C4.14355 10.9761 4.52475 10.3158 5.14355 9.95855L3.14355 6.49445C1.28715 7.56624 0.143555 9.54701 0.143555 11.6906H4.14355ZM4.14355 23.0718V11.6906H0.143555V23.0718H4.14355ZM5.14355 24.8038C4.52475 24.4466 4.14355 23.7863 4.14355 23.0718H0.143555C0.143555 25.2154 1.28715 27.1962 3.14355 28.268L5.14355 24.8038ZM10.4281 27.8549L5.14355 24.8038L3.14355 28.2679L8.42809 31.319L10.4281 27.8549ZM7.69604 30.5869L12.7735 39.3813L16.2376 37.3813L11.1601 28.5869L7.69604 30.5869ZM12.7735 39.3813C14.3131 42.048 18.1621 42.048 19.7017 39.3813L16.2376 37.3813H16.2376L12.7735 39.3813ZM19.7017 39.3813L25.0168 30.1753L21.5527 28.1753L16.2376 37.3813L19.7017 39.3813ZM26.8564 24.8038L22.2848 27.4433L24.2848 30.9074L28.8564 28.268L26.8564 24.8038ZM27.8564 23.0718C27.8564 23.7863 27.4752 24.4466 26.8564 24.8038L28.8564 28.268C30.7128 27.1962 31.8564 25.2154 31.8564 23.0718H27.8564ZM27.8564 11.6906V23.0718H31.8564V11.6906H27.8564ZM26.8564 9.95855C27.4752 10.3158 27.8564 10.9761 27.8564 11.6906H31.8564C31.8564 9.54701 30.7128 7.56624 28.8564 6.49445L26.8564 9.95855ZM17 4.26795L26.8564 9.95855L28.8564 6.49445L19 0.803848L17 4.26795Z" fill="white" mask="url(#path-1-outside-1)"/>
<path d="M16.001 10C14.0009 10 12.366 11.6349 12.366 13.6349C12.366 15.6349 14.0009 17.2699 16.001 17.2699C18.001 17.2699 19.6359 15.6349 19.6359 13.6349C19.6359 11.6349 18.001 10 16.001 10Z" fill="white"/>
<path d="M22.2391 20.1745C22.1439 19.9364 22.0169 19.7142 21.874 19.5078C21.1439 18.4285 20.0169 17.7142 18.7471 17.5396C18.5883 17.5237 18.4137 17.5554 18.2867 17.6507C17.6201 18.1428 16.8264 18.3967 16.001 18.3967C15.1756 18.3967 14.382 18.1428 13.7153 17.6507C13.5883 17.5554 13.4137 17.5078 13.255 17.5396C11.9851 17.7142 10.8423 18.4285 10.128 19.5078C9.98516 19.7142 9.85816 19.9523 9.76294 20.1745C9.71533 20.2698 9.73119 20.3809 9.7788 20.4761C9.9058 20.6983 10.0645 20.9206 10.2074 21.111C10.4296 21.4126 10.6677 21.6825 10.9375 21.9364C11.1598 22.1586 11.4137 22.365 11.6677 22.5713C12.9217 23.5079 14.4296 23.9999 15.9852 23.9999C17.5407 23.9999 19.0487 23.5078 20.3026 22.5713C20.5566 22.3809 20.8105 22.1586 21.0328 21.9364C21.2868 21.6825 21.5407 21.4126 21.763 21.111C21.9217 20.9047 22.0646 20.6983 22.1915 20.4761C22.2709 20.3809 22.2867 20.2697 22.2391 20.1745Z" fill="white"/>
</svg>
