<svg width="20" height="20" viewBox="0 0 20 20" fill="none" xmlns="http://www.w3.org/2000/svg">
<path d="M19.1535 7.28396C18.8271 6.95939 18.2995 6.96083 17.9749 7.28713L7.95717 17.3591C6.6575 18.6587 4.54663 18.6587 3.24452 17.3573C1.9434 16.0555 1.9434 13.9446 3.24468 12.6434L13.5589 2.2749C14.3704 1.46351 15.6896 1.46351 16.5034 2.27666C17.3169 3.09019 17.3169 4.40925 16.5032 5.22302L7.95874 13.7674C7.95819 13.7679 7.95772 13.7685 7.95717 13.7691C7.63166 14.0928 7.10559 14.0924 6.78074 13.7675C6.45534 13.4421 6.45534 12.9147 6.78074 12.5893L10.9051 8.46415C11.2305 8.13867 11.2304 7.611 10.9049 7.28561C10.5795 6.96021 10.0518 6.96025 9.7264 7.28572L5.60212 11.4108C4.62589 12.3871 4.62589 13.9698 5.6022 14.946C6.57847 15.9223 8.16116 15.9223 9.13748 14.946C9.13861 14.9449 9.13951 14.9437 9.1406 14.9425L17.6817 6.40148C19.1463 4.93684 19.1463 2.56248 17.6817 1.09784C16.2168 -0.365946 13.8426 -0.365946 12.3788 1.09784L2.06458 11.4664C0.113983 13.417 0.113983 16.5829 2.06598 18.5358C4.01927 20.4881 7.1852 20.4881 9.13732 18.536L19.1567 8.46251C19.4812 8.13617 19.4797 7.60854 19.1535 7.28396Z" fill="#0D4CD3"/>
</svg>
