<svg width="24" height="24" viewBox="0 0 24 24" fill="none" xmlns="http://www.w3.org/2000/svg">
<path d="M14.0356 2C12.8432 2 11.7222 2.47279 10.8791 3.33127C10.0359 4.18981 9.57151 5.33126 9.57145 6.54538V14.7274C9.57145 16.2312 10.773 17.4546 12.2501 17.4547C13.727 17.4546 14.9285 16.2311 14.9285 14.7273V10.006C14.9285 9.50392 14.5288 9.09689 14.0357 9.09689C13.5426 9.09689 13.1428 9.50392 13.1428 10.006V14.7273C13.1428 15.2286 12.7423 15.6364 12.2501 15.6365C11.7577 15.6365 11.3572 15.2287 11.3572 14.7274V6.54538C11.3572 5.8169 11.6358 5.13199 12.1417 4.6169C12.6477 4.10175 13.3202 3.81812 14.0356 3.81812C15.5126 3.81812 16.7142 5.04151 16.7143 6.54526V15.6363C16.7142 18.1426 14.7116 20.1818 12.2501 20.1818C11.0576 20.1818 9.93651 19.709 9.09336 18.8505C8.25016 17.992 7.78582 16.8505 7.78582 15.6363L7.7857 6.54538C7.7857 6.04326 7.38594 5.63629 6.89285 5.63629C6.39976 5.63629 6 6.04332 6 6.54538V15.6363C6 17.3361 6.65017 18.9342 7.83064 20.1362C9.0111 21.3381 10.5806 22 12.2501 22C15.6962 22 18.5 19.1453 18.5 15.6364V6.54532C18.5 4.03902 16.4972 2 14.0356 2Z" fill="#0B40B3"/>
</svg>
