<svg width="20" height="20" viewBox="0 0 20 20" fill="none" xmlns="http://www.w3.org/2000/svg">
<path fill-rule="evenodd" clip-rule="evenodd" d="M18.5 10C18.5 14.6944 14.6944 18.5 10 18.5C5.30558 18.5 1.5 14.6944 1.5 10C1.5 5.30558 5.30558 1.5 10 1.5C14.6944 1.5 18.5 5.30558 18.5 10ZM20 10C20 15.5228 15.5228 20 10 20C4.47715 20 0 15.5228 0 10C0 4.47715 4.47715 0 10 0C15.5228 0 20 4.47715 20 10ZM9.25 5.03058V9.66435C9.25 10.3996 9.5444 11.1042 10.0675 11.6208L11.9729 13.503L13.0271 12.4358L11.1216 10.5537C10.8838 10.3188 10.75 9.99854 10.75 9.66435V5.03058H9.25Z" fill="#66727F"/>
</svg>
