<svg width="23" height="23" viewBox="0 0 23 23" fill="none" xmlns="http://www.w3.org/2000/svg">
<path d="M11.5 20.4055C6.66 20.4055 2.7 16.4455 2.7 11.6055C2.7 6.76547 6.66 2.80547 11.5 2.80547C16.34 2.80547 20.3 6.76547 20.3 11.6055C20.3 16.4455 16.34 20.4055 11.5 20.4055ZM11.5 0.605469C5.45 0.605469 0.5 5.55547 0.5 11.6055C0.5 17.6555 5.45 22.6055 11.5 22.6055C17.55 22.6055 22.5 17.6555 22.5 11.6055C22.5 5.55547 17.55 0.605469 11.5 0.605469ZM10.95 12.4855L16.23 15.5655L17 14.0255L12.6 11.4955V6.10547H10.95V12.4855Z" fill="#66727F"/>
</svg>
