<svg width="38" height="44" viewBox="0 0 38 44" fill="none" xmlns="http://www.w3.org/2000/svg">
<g clip-path="url(#clip0)">
<path d="M17 3.15479C18.2376 2.44026 19.7623 2.44026 21 3.15479L34.3205 10.8454C35.5581 11.5599 36.3205 12.8804 36.3205 14.3095V29.6907C36.3205 31.1198 35.5581 32.4403 34.3205 33.1548L21 40.8454C19.7623 41.5599 18.2376 41.5599 17 40.8454L3.67944 33.1548C2.44184 32.4403 1.67944 31.1198 1.67944 29.6907V14.3095C1.67944 12.8804 2.44184 11.5599 3.67944 10.8454L17 3.15479Z" fill="#EE3F58"/>
<path fill-rule="evenodd" clip-rule="evenodd" d="M22 1.42274L35.3205 9.11334C37.1769 10.1851 38.3205 12.1659 38.3205 14.3095V29.6907C38.3205 31.8343 37.1769 33.8151 35.3205 34.8868L22 42.5774C20.1435 43.6492 17.8564 43.6492 16 42.5774L2.67944 34.8868C0.823043 33.8151 -0.320557 31.8343 -0.320557 29.6907V14.3095C-0.320557 12.1659 0.823043 10.1851 2.67944 9.11334L16 1.42274C17.8564 0.350948 20.1435 0.350948 22 1.42274ZM21 3.15479C19.7623 2.44026 18.2376 2.44026 17 3.15479L3.67944 10.8454C2.44184 11.5599 1.67944 12.8804 1.67944 14.3095V29.6907C1.67944 31.1198 2.44184 32.4403 3.67944 33.1548L17 40.8454C18.2376 41.5599 19.7623 41.5599 21 40.8454L34.3205 33.1548C35.5581 32.4403 36.3205 31.1198 36.3205 29.6907V14.3095C36.3205 12.8804 35.5581 11.5599 34.3205 10.8454L21 3.15479Z" fill="white"/>
<path d="M17 7.1547C18.2376 6.44017 19.7624 6.44017 21 7.1547L30.8564 12.8453C32.094 13.5598 32.8564 14.8803 32.8564 16.3094V27.6906C32.8564 29.1197 32.094 30.4402 30.8564 31.1547L21 36.8453C19.7624 37.5598 18.2376 37.5598 17 36.8453L7.1436 31.1547C5.90599 30.4402 5.14359 29.1197 5.14359 27.6906V16.3094C5.14359 14.8803 5.90599 13.5598 7.1436 12.8453L17 7.1547Z" fill="white"/>
</g>
<defs>
<clipPath id="clip0">
<rect width="38" height="44" fill="white"/>
</clipPath>
</defs>
</svg>
