<svg width="33" height="32" viewBox="0 0 33 32" fill="none" xmlns="http://www.w3.org/2000/svg">
<path d="M15.4382 22.8389L11.8566 18.3754L10.1108 19.7792L14.6103 25.3945C14.8263 25.6645 15.1502 25.8085 15.4742 25.8085C15.4922 25.8085 15.4922 25.8085 15.5102 25.8085C15.8521 25.7905 16.1761 25.6285 16.3921 25.3406L23.6991 15.0458L21.8814 13.75L15.4382 22.8389Z" fill="#39A43E"/>
<path d="M24.005 6.3712C24.6169 6.3712 25.1209 5.86727 25.1209 5.25534V1.11586C25.1209 0.503937 24.6169 0 24.005 0C23.3931 0 22.8892 0.503937 22.8892 1.11586V5.25534C22.8892 5.86727 23.3931 6.3712 24.005 6.3712Z" fill="#39A43E"/>
<path d="M28.2525 2.10547H26.0208V4.33719H28.2525C29.3684 4.33719 30.2683 5.34506 30.2683 6.60491V8.92662H2.73172V6.60491C2.73172 5.36306 3.63161 4.33719 4.74747 4.33719H6.97919V2.10547H4.74747C2.40776 2.10547 0.5 4.12122 0.5 6.60491V26.5824C0.5 29.0661 2.40776 31.0818 4.74747 31.0818H28.2525C30.5922 31.0818 32.5 29.0661 32.5 26.5824V6.60491C32.482 4.12122 30.5922 2.10547 28.2525 2.10547ZM28.2525 28.8321H4.74747C3.63161 28.8321 2.73172 27.8243 2.73172 26.5644V11.1583H30.2503V26.5644C30.2503 27.8063 29.3504 28.8321 28.2525 28.8321Z" fill="#39A43E"/>
<path d="M22.0073 2.10547H10.9927V4.33719H22.0073V2.10547Z" fill="#39A43E"/>
<path d="M8.9767 6.3712C9.58862 6.3712 10.0926 5.86727 10.0926 5.25534V1.11586C10.0926 0.503937 9.58862 0 8.9767 0C8.36478 0 7.86084 0.503937 7.86084 1.11586V5.25534C7.86084 5.86727 8.36478 6.3712 8.9767 6.3712Z" fill="#39A43E"/>
</svg>
