<svg width="24" height="24" viewBox="0 0 24 24" fill="none" xmlns="http://www.w3.org/2000/svg">
<mask id="path-1-outside-1" maskUnits="userSpaceOnUse" x="3.70898" y="6.03711" width="16" height="17" fill="black">
<rect fill="white" x="3.70898" y="6.03711" width="16" height="17"/>
<path d="M18.7567 7.03903H5.24884C5.1027 7.02658 4.9579 7.07499 4.8484 7.17281C4.74073 7.27648 4.69086 7.42655 4.71493 7.57422L6.10308 19.6961C6.26587 21.0326 7.15712 22.0099 8.50024 22H15.5002C16.8811 22.0197 18.0173 20.9945 18.1427 19.6159L19.2906 7.52069C19.2977 7.39096 19.2491 7.26434 19.1571 7.17281C19.0477 7.07499 18.9029 7.02658 18.7567 7.03903ZM17.0749 19.5623C16.991 20.3772 16.3168 20.9622 15.5002 20.9296H8.5003C7.69838 20.9623 7.25475 20.3892 7.1709 19.5891L5.83615 8.1094H18.1694L17.0749 19.5623Z"/>
</mask>
<path d="M18.7567 7.03903H5.24884C5.1027 7.02658 4.9579 7.07499 4.8484 7.17281C4.74073 7.27648 4.69086 7.42655 4.71493 7.57422L6.10308 19.6961C6.26587 21.0326 7.15712 22.0099 8.50024 22H15.5002C16.8811 22.0197 18.0173 20.9945 18.1427 19.6159L19.2906 7.52069C19.2977 7.39096 19.2491 7.26434 19.1571 7.17281C19.0477 7.07499 18.9029 7.02658 18.7567 7.03903ZM17.0749 19.5623C16.991 20.3772 16.3168 20.9622 15.5002 20.9296H8.5003C7.69838 20.9623 7.25475 20.3892 7.1709 19.5891L5.83615 8.1094H18.1694L17.0749 19.5623Z" fill="#1656E2"/>
<path d="M18.7567 7.03903H5.24884C5.1027 7.02658 4.9579 7.07499 4.8484 7.17281C4.74073 7.27648 4.69086 7.42655 4.71493 7.57422L6.10308 19.6961C6.26587 21.0326 7.15712 22.0099 8.50024 22H15.5002C16.8811 22.0197 18.0173 20.9945 18.1427 19.6159L19.2906 7.52069C19.2977 7.39096 19.2491 7.26434 19.1571 7.17281C19.0477 7.07499 18.9029 7.02658 18.7567 7.03903ZM17.0749 19.5623C16.991 20.3772 16.3168 20.9622 15.5002 20.9296H8.5003C7.69838 20.9623 7.25475 20.3892 7.1709 19.5891L5.83615 8.1094H18.1694L17.0749 19.5623Z" stroke="#1656E2" stroke-width="0.16" mask="url(#path-1-outside-1)"/>
<mask id="path-2-outside-2" maskUnits="userSpaceOnUse" x="2.84814" y="0.974609" width="18" height="5" fill="black">
<rect fill="white" x="2.84814" y="0.974609" width="18" height="5"/>
<path d="M19.6156 4.39343H15.2168V3.53348C15.2466 2.70289 14.5988 2.00543 13.7698 1.97559C13.7426 1.97462 13.7154 1.97436 13.6882 1.97487H10.3089C9.47961 1.95949 8.79493 2.62065 8.77958 3.45164C8.77907 3.4789 8.77933 3.50622 8.7803 3.53348V4.39338H4.38453C4.08828 4.39338 3.84814 4.63399 3.84814 4.93083C3.84814 5.22766 4.08828 5.46828 4.38453 5.46828H19.6156C19.9118 5.46828 20.1519 5.22766 20.1519 4.93083C20.1519 4.63399 19.9118 4.39343 19.6156 4.39343ZM14.1441 3.53348V4.39338H9.85301V3.53348C9.82277 3.29795 9.98884 3.08249 10.2239 3.05219C10.2521 3.04854 10.2806 3.04777 10.3089 3.04978H13.6881C13.9245 3.03301 14.1297 3.21139 14.1465 3.4483C14.1485 3.47669 14.1477 3.50524 14.1441 3.53348Z"/>
</mask>
<path d="M19.6156 4.39343H15.2168V3.53348C15.2466 2.70289 14.5988 2.00543 13.7698 1.97559C13.7426 1.97462 13.7154 1.97436 13.6882 1.97487H10.3089C9.47961 1.95949 8.79493 2.62065 8.77958 3.45164C8.77907 3.4789 8.77933 3.50622 8.7803 3.53348V4.39338H4.38453C4.08828 4.39338 3.84814 4.63399 3.84814 4.93083C3.84814 5.22766 4.08828 5.46828 4.38453 5.46828H19.6156C19.9118 5.46828 20.1519 5.22766 20.1519 4.93083C20.1519 4.63399 19.9118 4.39343 19.6156 4.39343ZM14.1441 3.53348V4.39338H9.85301V3.53348C9.82277 3.29795 9.98884 3.08249 10.2239 3.05219C10.2521 3.04854 10.2806 3.04777 10.3089 3.04978H13.6881C13.9245 3.03301 14.1297 3.21139 14.1465 3.4483C14.1485 3.47669 14.1477 3.50524 14.1441 3.53348Z" fill="#1656E2"/>
<path d="M19.6156 4.39343H15.2168V3.53348C15.2466 2.70289 14.5988 2.00543 13.7698 1.97559C13.7426 1.97462 13.7154 1.97436 13.6882 1.97487H10.3089C9.47961 1.95949 8.79493 2.62065 8.77958 3.45164C8.77907 3.4789 8.77933 3.50622 8.7803 3.53348V4.39338H4.38453C4.08828 4.39338 3.84814 4.63399 3.84814 4.93083C3.84814 5.22766 4.08828 5.46828 4.38453 5.46828H19.6156C19.9118 5.46828 20.1519 5.22766 20.1519 4.93083C20.1519 4.63399 19.9118 4.39343 19.6156 4.39343ZM14.1441 3.53348V4.39338H9.85301V3.53348C9.82277 3.29795 9.98884 3.08249 10.2239 3.05219C10.2521 3.04854 10.2806 3.04777 10.3089 3.04978H13.6881C13.9245 3.03301 14.1297 3.21139 14.1465 3.4483C14.1485 3.47669 14.1477 3.50524 14.1441 3.53348Z" stroke="#1656E2" stroke-width="0.16" mask="url(#path-2-outside-2)"/>
<path d="M13.9751 18.6128L13.9751 11.4656C13.9751 11.2022 14.1791 10.9886 14.4308 10.9886C14.6825 10.9886 14.8865 11.2021 14.8865 11.4656V18.6128C14.8865 18.8763 14.6825 19.0898 14.4308 19.0898C14.1791 19.0898 13.9751 18.8763 13.9751 18.6128Z" fill="#1656E2"/>
<path d="M11.5449 18.6128L11.545 11.4656C11.545 11.2022 11.7489 10.9886 12.0006 10.9886C12.2523 10.9886 12.4563 11.2021 12.4563 11.4656V18.6128C12.4563 18.8763 12.2523 19.0898 12.0006 19.0898C11.7489 19.0898 11.5449 18.8763 11.5449 18.6128Z" fill="#1656E2"/>
<path d="M9.11426 18.6128L9.1143 11.4656C9.1143 11.2022 9.31827 10.9886 9.56995 10.9886C9.82164 10.9886 10.0257 11.2021 10.0257 11.4656V18.6128C10.0257 18.8763 9.82164 19.0898 9.56995 19.0898C9.31827 19.0898 9.11426 18.8763 9.11426 18.6128Z" fill="#1656E2"/>
</svg>
