<svg width="24" height="24" fill="none" xmlns="http://www.w3.org/2000/svg"><mask id="a" maskUnits="userSpaceOnUse" x="1.813" y="15.232" width="20" height="7" fill="#000"><path fill="#fff" d="M1.813 15.232h20v7h-20z"/><path d="M20.146 16.233a.666.666 0 00-.675.665 2.77 2.77 0 01-2.771 2.77H6.926a2.773 2.773 0 01-2.772-2.77.666.666 0 00-.675-.665.666.666 0 00-.667.665A4.11 4.11 0 006.926 21H16.7a4.114 4.114 0 004.113-4.102.665.665 0 00-.666-.665z"/></mask><path d="M20.146 16.233a.666.666 0 00-.675.665 2.77 2.77 0 01-2.771 2.77H6.926a2.773 2.773 0 01-2.772-2.77.666.666 0 00-.675-.665.666.666 0 00-.667.665A4.11 4.11 0 006.926 21H16.7a4.114 4.114 0 004.113-4.102.665.665 0 00-.666-.665z" fill="#fff"/><path d="M20.146 16.233a.666.666 0 00-.675.665 2.77 2.77 0 01-2.771 2.77H6.926a2.773 2.773 0 01-2.772-2.77.666.666 0 00-.675-.665.666.666 0 00-.667.665A4.11 4.11 0 006.926 21H16.7a4.114 4.114 0 004.113-4.102.665.665 0 00-.666-.665z" stroke="#fff" stroke-width=".6" mask="url(#a)"/><mask id="b" maskUnits="userSpaceOnUse" x="5.214" y="2" width="13" height="15" fill="#000"><path fill="#fff" d="M5.214 2h13v15h-13z"/><path d="M11.326 16.376a.682.682 0 00.486.207.792.792 0 00.531-.26l4.87-4.948a.666.666 0 00.188-.477.666.666 0 00-1.089-.459l-3.807 3.85V3.675a.675.675 0 00-1.35 0v10.614l-3.843-3.85a.657.657 0 00-.9 0 .655.655 0 000 .936l4.914 5.001z"/></mask><path d="M11.326 16.376a.682.682 0 00.486.207.792.792 0 00.531-.26l4.87-4.948a.666.666 0 00.188-.477.666.666 0 00-1.089-.459l-3.807 3.85V3.675a.675.675 0 00-1.35 0v10.614l-3.843-3.85a.657.657 0 00-.9 0 .655.655 0 000 .936l4.914 5.001z" fill="#fff"/><path d="M11.326 16.376a.682.682 0 00.486.207.792.792 0 00.531-.26l4.87-4.948a.666.666 0 00.188-.477.666.666 0 00-1.089-.459l-3.807 3.85V3.675a.675.675 0 00-1.35 0v10.614l-3.843-3.85a.657.657 0 00-.9 0 .655.655 0 000 .936l4.914 5.001z" stroke="#fff" stroke-width=".6" mask="url(#b)"/></svg>