<svg width="24" height="24" viewBox="0 0 24 24" fill="none" xmlns="http://www.w3.org/2000/svg">
<path fill-rule="evenodd" clip-rule="evenodd" d="M18.2407 5.8699L17.2857 4.82791C16.9165 4.4251 16.2924 4.39317 15.884 4.75621L14.3213 6.14559L16.6194 8.68265L18.1714 7.28976C18.5854 6.91815 18.6166 6.28005 18.2407 5.8699ZM5.5 13.9881L13.2002 7.14227L15.5031 9.68456L7.90674 16.5024H5.5V13.9881ZM19.3465 4.85642L18.3915 3.81443C17.4686 2.80741 15.9083 2.72759 14.8874 3.63518L4.33557 13.0162C4.12212 13.206 4 13.478 4 13.7636V17.0024C4 17.5546 4.44772 18.0024 5 18.0024H8.09822C8.34478 18.0024 8.58266 17.9113 8.76616 17.7466L19.1733 8.40609C20.2084 7.47706 20.2863 5.88181 19.3465 4.85642ZM20 19.4998H4V20.9998H20V19.4998Z" fill="#0D4CD3"/>
</svg>
