<?xml version="1.0"?>
<svg xmlns="http://www.w3.org/2000/svg" width="544" height="81" viewBox="0 0 544 81" fill="none">
<path d="M278.5 40.3001L284.1 34.7001C285.9 32.9001 285.9 30.0001 284.1 28.2001C282.3 26.4001 279.4 26.4001 277.6 28.2001L272 33.8001L266.4 28.2001C264.6 26.4001 261.7 26.4001 259.9 28.2001C258.1 30.0001 258.1 32.9001 259.9 34.7001L265.5 40.3001L259.9 45.9001C258.1 47.7001 258.1 50.6001 259.9 52.4001C261.7 54.2001 264.6 54.2001 266.4 52.4001L272 46.8001L277.6 52.4001C279.4 54.2001 282.3 54.2001 284.1 52.4001C285.9 50.6001 285.9 47.7001 284.1 45.9001L278.5 40.3001Z" fill="#EA405A"/>
<path d="M272 0C249.9 0 232 18.1 232 40.5C232 62.9 249.9 81 272 81C294.1 81 312 62.9 312 40.5C312 18.1 294.1 0 272 0ZM272 73C254.4 73 240 58.4 240 40.5C240 22.6 254.4 8 272 8C289.6 8 304 22.6 304 40.5C304 58.4 289.6 73 272 73Z" fill="#E6EBEC"/>
</svg>
