<svg width="23" height="24" fill="none" xmlns="http://www.w3.org/2000/svg"><path d="M11.036 0C4.95 0 0 4.95 0 11.036V21.91c0 .93.573 1.71 1.46 1.99.215.067.432.1.645.1.664 0 1.287-.319 1.69-.895l1.258-1.8a9.414 9.414 0 005.982 2.138 9.413 9.413 0 005.983-2.138l1.258 1.8a2.052 2.052 0 002.336.794 2.052 2.052 0 001.459-1.989V11.036C22.07 4.95 17.12 0 11.035 0zm0 1.905c4.844 0 8.818 3.792 9.112 8.563a14.01 14.01 0 01-8.5-3.265.952.952 0 00-1.225 0 14.01 14.01 0 01-8.5 3.265c.294-4.771 4.268-8.563 9.113-8.563zM2.234 22.014c-.021.03-.076.108-.203.069-.126-.04-.126-.137-.126-.173v-5.459a9.44 9.44 0 001.783 3.482l-1.454 2.08zm8.802-.476c-4.165 0-7.554-3.388-7.554-7.553v-1.737a15.926 15.926 0 007.554-3.098 15.924 15.924 0 007.553 3.098v1.737c0 4.165-3.388 7.553-7.553 7.553zm9.004.544c-.127.04-.182-.039-.203-.068l-1.454-2.08a9.438 9.438 0 001.784-3.483v5.459c0 .036 0 .133-.127.172z" fill="#4D83FA"/></svg>