<svg width="24" height="24" viewBox="0 0 24 24" fill="none" xmlns="http://www.w3.org/2000/svg">
<path d="M12 2C17.5 2 22 6.5 22 12C22 17.5 17.5 22 12 22C6.5 22 2 17.5 2 12C2 6.5 6.5 2 12 2ZM12 0C5.4 0 0 5.4 0 12C0 18.6 5.4 24 12 24C18.6 24 24 18.6 24 12C24 5.4 18.6 0 12 0Z" fill="#FED13E"/>
<path d="M8 10.5C8.8 10.5 9.5 11.2 9.5 12C9.5 12.8 8.8 13.5 8 13.5C7.2 13.5 6.5 12.8 6.5 12C6.5 11.2 7.2 10.5 8 10.5ZM12 10.5C12.8 10.5 13.5 11.2 13.5 12C13.5 12.8 12.8 13.5 12 13.5C11.2 13.5 10.5 12.8 10.5 12C10.5 11.2 11.2 10.5 12 10.5ZM16 10.5C16.8 10.5 17.5 11.2 17.5 12C17.5 12.8 16.8 13.5 16 13.5C15.2 13.5 14.5 12.8 14.5 12C14.5 11.2 15.2 10.5 16 10.5Z" fill="#FED13E"/>
</svg>
