<svg width="24" height="24" viewBox="0 0 24 24" fill="none" xmlns="http://www.w3.org/2000/svg">
<path fill-rule="evenodd" clip-rule="evenodd" d="M12 22.2C6.37556 22.2 1.79996 17.6244 1.79996 12C1.79996 6.37556 6.37556 1.79996 12 1.79996C17.6244 1.79996 22.2 6.37556 22.2 12C22.2 17.6244 17.6244 22.2 12 22.2ZM12 0C5.373 0 0 5.373 0 12C0 18.6276 5.373 24 12 24C18.6276 24 24 18.6276 24 12C24 5.373 18.6276 0 12 0Z" fill="#2DC36A"/>
<path fill-rule="evenodd" clip-rule="evenodd" d="M15.9823 8.31425C15.8557 8.19245 15.6505 8.19245 15.5239 8.31425L11.0665 12.6073L9.17051 10.7815C9.04451 10.6597 8.83871 10.6597 8.71211 10.7815L7.64231 11.8123C7.51571 11.9341 7.51571 12.1321 7.64231 12.2539L10.8373 15.3313C10.9003 15.3925 10.9837 15.4231 11.0665 15.4231C11.1493 15.4231 11.2321 15.3925 11.2957 15.3313L17.0521 9.78665C17.1133 9.72785 17.1469 9.64865 17.1469 9.56585C17.1469 9.48305 17.1133 9.40325 17.0521 9.34505L15.9823 8.31425Z" fill="#2DC36A"/>
</svg>
