<svg width="23" height="20" viewBox="0 0 23 20" fill="none" xmlns="http://www.w3.org/2000/svg">
<path d="M11.4999 4.49063L2.7739 12.0199C2.70921 12.077 2.62656 12.1035 2.55548 12.1508V19.375C2.55548 19.7203 2.84138 20 3.19437 20H8.09257V17.9167H5.1111V12.9167L11.5 7.5L17.8888 12.9167V17.9167H8.09257V20H19.8054C20.1584 20 20.4443 19.7203 20.4443 19.375V12.1523C20.3764 12.107 20.2958 12.0813 20.2343 12.0273L11.4999 4.49063ZM22.7878 9.22969L20.4443 7.20508V1.875C20.4443 1.52969 20.1584 1.25 19.8054 1.25H17.2499C16.8969 1.25 16.611 1.52969 16.611 1.875V3.89414L12.568 0.402735C12.2634 0.134766 11.8816 0.000391479 11.4999 8.54135e-07C11.1182 -0.000389771 10.7372 0.133204 10.4338 0.401173L0.211961 9.22969C-0.0503823 9.46055 -0.072344 9.85547 0.163645 10.1125L1.01816 11.043C1.25375 11.2996 1.65784 11.3211 1.92058 11.0902L11.0774 3.18867C11.319 2.98047 11.6812 2.98047 11.9228 3.18867L21.0796 11.0898C21.342 11.3203 21.7461 11.2992 21.982 11.0426L22.8366 10.1121C23.0721 9.85547 23.0506 9.46016 22.7878 9.22969Z" fill="#66727F"/>
</svg>
