<svg width="20" height="18" viewBox="0 0 20 18" fill="none" xmlns="http://www.w3.org/2000/svg">
<path fill-rule="evenodd" clip-rule="evenodd" d="M17.2925 8.94194H15.7925V10.4419V16.0002C15.7925 16.2764 15.5686 16.5002 15.2925 16.5002H13.1203V16.5V11.0632C13.1203 9.95866 12.2249 9.06323 11.1203 9.06323H8.88511C7.78054 9.06323 6.88511 9.95866 6.88511 11.0632V16.5V16.5002H4.71939C4.44325 16.5002 4.21939 16.2764 4.21939 16.0002V10.4419V8.94194H2.71939H2.26672L10.0017 1.68564L17.7337 8.94194H17.2925ZM19.6814 8.71276L10.6861 0.27082C10.3014 -0.0902213 9.70241 -0.0902805 9.31763 0.270685L0.318751 8.71263C-0.342285 9.33275 0.0965486 10.4419 1.00293 10.4419H1.21939H2.71939V11.9419V16.0002C2.71939 17.1048 3.61482 18.0002 4.71939 18.0002H15.2925C16.397 18.0002 17.2925 17.1048 17.2925 16.0002V11.9419V10.4419H18.7925H18.9971C19.9034 10.4419 20.3423 9.33295 19.6814 8.71276ZM8.88511 10.5632H11.1203C11.3965 10.5632 11.6203 10.7871 11.6203 11.0632V16.5H8.38511V11.0632C8.38511 10.7871 8.60897 10.5632 8.88511 10.5632Z" fill="#66727F"/>
</svg>
