<?xml version="1.0" encoding="utf-8"?>
<!-- Generator: Adobe Illustrator 25.0.0, SVG Export Plug-In . SVG Version: 6.00 Build 0)  -->
<svg version="1.1" id="Слой_1" xmlns="http://www.w3.org/2000/svg" xmlns:xlink="http://www.w3.org/1999/xlink" x="0px" y="0px"
	 width="24px" height="24px" viewBox="0 0 24 24" style="enable-background:new 0 0 24 24;" xml:space="preserve">
<style type="text/css">
	.st0{fill:#99B1E6;}
</style>
<path class="st0" d="M9.2,6.2c0.2-0.2,0.4-0.3,0.6-0.4c0.2-0.1,0.4-0.2,0.7-0.3c0.2-0.1,0.5-0.2,0.8-0.2c0.3-0.1,0.6-0.1,0.9-0.1
	c0.5,0,0.9,0.1,1.3,0.2c0.4,0.1,0.7,0.3,1,0.5c0.3,0.2,0.5,0.5,0.6,0.8c0.1,0.3,0.2,0.7,0.2,1.1c0,0.4-0.1,0.7-0.2,1
	C15,9,14.9,9.2,14.7,9.4c-0.2,0.2-0.3,0.4-0.5,0.5c-0.2,0.1-0.4,0.3-0.5,0.4c-0.2,0.1-0.3,0.2-0.4,0.4C13.1,10.9,13,11,13,11.2
	l-0.2,1h-1.6L11,11c0-0.2,0-0.5,0.1-0.6c0.1-0.2,0.2-0.3,0.4-0.5c0.2-0.1,0.3-0.3,0.5-0.4c0.2-0.1,0.4-0.3,0.5-0.4
	c0.2-0.2,0.3-0.3,0.4-0.5c0.1-0.2,0.2-0.4,0.2-0.7c0-0.3-0.1-0.5-0.3-0.7C12.7,7,12.4,6.9,12,6.9c-0.3,0-0.5,0-0.7,0.1
	c-0.2,0.1-0.3,0.1-0.5,0.2c-0.1,0.1-0.2,0.1-0.3,0.2c-0.1,0.1-0.2,0.1-0.3,0.1c-0.2,0-0.4-0.1-0.5-0.3L9.2,6.2z M10.6,14.9
	c0-0.2,0-0.3,0.1-0.5c0.1-0.2,0.2-0.3,0.3-0.4c0.1-0.1,0.3-0.2,0.4-0.3c0.2-0.1,0.3-0.1,0.5-0.1c0.2,0,0.4,0,0.5,0.1
	c0.2,0.1,0.3,0.2,0.4,0.3c0.1,0.1,0.2,0.2,0.3,0.4c0.1,0.2,0.1,0.3,0.1,0.5c0,0.2,0,0.3-0.1,0.5c-0.1,0.2-0.2,0.3-0.3,0.4
	c-0.1,0.1-0.3,0.2-0.4,0.3c-0.2,0.1-0.3,0.1-0.5,0.1c-0.2,0-0.4,0-0.5-0.1c-0.2-0.1-0.3-0.2-0.4-0.3c-0.1-0.1-0.2-0.2-0.3-0.4
	C10.6,15.2,10.6,15,10.6,14.9z"/>
<path class="st0" d="M21.4,20c-0.3-1-0.6-2-0.7-2.9c1.7-1.8,2.7-4.1,2.7-6.5c0-5.5-5.1-10-11.4-10S0.6,5.1,0.6,10.6
	c0,5.5,5.1,10,11.4,10c0,0,0,0,0,0c1.1,0,2.2-0.1,3.2-0.4l4.7,1.5l0,0c0.3,0.1,0.7,0.1,1,0.2c0,0,0.1,0,0.1,0c0.2,0,0.4-0.1,0.6-0.3
	c0.2-0.2,0.2-0.5,0.1-0.8C21.6,20.6,21.5,20.3,21.4,20z M19.2,15.8L19.2,15.8c-0.2,0.2-0.3,0.4-0.4,0.6c-0.1,0.2-0.1,0.5-0.1,0.7
	l0,0c0.1,0.8,0.2,1.7,0.5,2.5c-1.7-0.4-2.8-0.9-3.2-1.1c-0.3-0.2-0.7-0.2-1.1-0.1c-0.9,0.2-1.9,0.4-2.8,0.4h0c-5.4,0-9.4-3.8-9.4-8
	c0-4.3,4-8,9.4-8c5.4,0,9.4,3.8,9.4,8C21.4,12.6,20.6,14.4,19.2,15.8z"/>
</svg>
