<svg width="91" height="88" viewBox="0 0 91 88" fill="none" xmlns="http://www.w3.org/2000/svg">
<path fill-rule="evenodd" clip-rule="evenodd" d="M60 13H20C11.7157 13 5 19.7157 5 28V68C5 69.0231 5.10243 70.0223 5.29761 70.9879L20.7844 55.5011L28.284 63.0007L48.2848 43L74.9127 69.6279C74.9704 69.0932 75 68.5501 75 68V28C75 19.7157 68.2843 13 60 13ZM73.2504 75.0367L48.2848 50.0711L31.8196 66.5363L48.2833 83H60C65.7413 83 70.7292 79.7745 73.2504 75.0367ZM41.2122 83L20.7844 62.5722L7.32753 76.0291C9.98788 80.2192 14.6692 83 20 83H41.2122ZM20 8C8.95431 8 0 16.9543 0 28V68C0 79.0457 8.95431 88 20 88H60C71.0457 88 80 79.0457 80 68V28C80 16.9543 71.0457 8 60 8H20ZM32.5 34.25C32.5 37.7018 29.7018 40.5 26.25 40.5C22.7982 40.5 20 37.7018 20 34.25C20 30.7982 22.7982 28 26.25 28C29.7018 28 32.5 30.7982 32.5 34.25Z" fill="#1D5DEB" fill-opacity="0.24"/>
<circle cx="71" cy="20" r="20" fill="white"/>
<rect x="56" y="5" width="30" height="30" rx="15" fill="white"/>
<rect x="69.5" y="11" width="3" height="12" rx="0.5" fill="#EE3F58"/>
<rect x="69.5" y="26" width="3" height="3" rx="0.5" fill="#EE3F58"/>
<rect x="56" y="5" width="30" height="30" rx="15" stroke="#EE3F58" stroke-width="2"/>
</svg>
