<svg width="24" height="24" viewBox="0 0 24 24" fill="none" xmlns="http://www.w3.org/2000/svg">
<rect x="1" y="1" width="22" height="22" rx="11" stroke="#0D4CD3" stroke-width="2"/>
<path d="M12.159 6C12.6667 6 13.1409 6.07453 13.5816 6.2236C14.0223 6.37267 14.4045 6.59075 14.728 6.87785C15.0516 7.15942 15.3054 7.50449 15.4895 7.91304C15.6736 8.3216 15.7657 8.78537 15.7657 9.30435C15.7657 9.74603 15.6987 10.1574 15.5649 10.5383C15.431 10.9137 15.2497 11.2726 15.0209 11.6149C14.7922 11.9572 14.5272 12.2912 14.2259 12.617C13.9303 12.9427 13.6151 13.2712 13.2803 13.6025L10.1172 16.7992C10.3403 16.7384 10.5662 16.6915 10.795 16.6584C11.0237 16.6197 11.2441 16.6004 11.4561 16.6004H15.4728C15.6346 16.6004 15.7629 16.6473 15.8577 16.7412C15.9526 16.8351 16 16.9565 16 17.1056V18H8V17.4948C8 17.3899 8.02232 17.2823 8.06695 17.1718C8.11158 17.0614 8.18131 16.9593 8.27615 16.8654L12.1172 13.0476C12.4351 12.7274 12.7252 12.421 12.9874 12.1284C13.2497 11.8302 13.4728 11.5321 13.6569 11.234C13.841 10.9358 13.9833 10.6349 14.0837 10.3313C14.1841 10.0221 14.2343 9.69358 14.2343 9.34576C14.2343 8.99793 14.1785 8.69427 14.0669 8.43478C13.9554 8.16977 13.802 7.95169 13.6067 7.78054C13.417 7.60939 13.1911 7.4824 12.9289 7.39959C12.6667 7.31125 12.3849 7.26708 12.0837 7.26708C11.7768 7.26708 11.4951 7.31125 11.2385 7.39959C10.9819 7.48792 10.7531 7.61215 10.5523 7.77226C10.357 7.92685 10.1925 8.1118 10.0586 8.32712C9.92469 8.54244 9.82985 8.77985 9.77406 9.03934C9.70711 9.23257 9.61506 9.36232 9.49791 9.42857C9.38633 9.4893 9.22734 9.50587 9.02092 9.47826L8.24268 9.34576C8.32078 8.80469 8.47141 8.32712 8.69456 7.91304C8.92329 7.49344 9.20781 7.14286 9.54812 6.86128C9.894 6.57971 10.2873 6.36715 10.728 6.2236C11.1688 6.07453 11.6457 6 12.159 6Z" fill="#0D4CD3"/>
</svg>
