<svg width="26" height="24" fill="none" xmlns="http://www.w3.org/2000/svg"><path d="M23.71 13.785c.327-1.103.49-2.256.48-3.432-.03-3.063-1.298-5.785-3.573-7.664C18.482.926 15.565-.03 12.403.001 9.25.03 6.366 1.02 4.283 2.793 2.03 4.711.837 7.363.837 10.466c0 1.136.164 2.25.48 3.317A3.565 3.565 0 000 16.545a3.566 3.566 0 004.423 3.456c.57.744 1.24 1.412 1.994 1.975A10.108 10.108 0 0012.513 24c2.217 0 4.325-.7 6.096-2.023A10.236 10.236 0 0020.603 20c.28.07.57.107.86.107a3.566 3.566 0 003.563-3.563 3.567 3.567 0 00-1.315-2.76zM5.584 4.322c1.725-1.468 4.154-2.29 6.838-2.315h.124c2.641 0 5.05.79 6.794 2.23 1.837 1.516 2.82 3.638 2.844 6.135a9.657 9.657 0 01-.6 3.459 4.004 4.004 0 00-2.59-1.656c-.582-.453-2.505-2.126-2.505-4.457a1.003 1.003 0 00-2.006 0c0 1.5.528 2.77 1.177 3.765A15.205 15.205 0 0110.79 8.86L8.23 6.665A1.003 1.003 0 106.924 8.19l.488.418a8.608 8.608 0 00-1.49.923 7.94 7.94 0 00-2.669 3.734 9.681 9.681 0 01-.41-2.798c0-2.495.948-4.62 2.74-6.144zM2.006 16.545c0-.238.056-.468.155-.675.201.384.425.758.67 1.12.12.368.263.73.426 1.08a1.558 1.558 0 01-1.25-1.525zm15.401 3.825a8.114 8.114 0 01-4.894 1.624 8.116 8.116 0 01-4.895-1.625 8.256 8.256 0 01-2.872-3.976c.07-4.524 3.22-5.954 4.371-6.325l.38.326a17.205 17.205 0 008.993 3.733c.55.059 1.041.33 1.383.766.326.414.473.927.423 1.449a8.252 8.252 0 01-2.889 4.028zm4.361-2.3c.163-.35.305-.71.426-1.077.245-.363.47-.738.67-1.122a1.553 1.553 0 01-1.096 2.2z" fill="#4D83FA"/></svg>