<svg width="80" height="80" viewBox="0 0 80 80" fill="none" xmlns="http://www.w3.org/2000/svg">
  <g clip-path="url(#clip0)">
    <rect x="2.5" y="2.5" width="59" height="75" rx="9.5" stroke="#C9D8FA" stroke-width="5"/>
    <path d="M74.37 -0.499682C72.8697 -0.497039 71.4315 0.10013 70.3707 1.16101C69.3098 2.2219 68.7126 3.66 68.71 5.16032V69.6803C68.7094 69.9217 68.7606 70.1604 68.86 70.3803L72.73 79.3803C72.8174 79.6077 72.9515 79.8142 73.1238 79.9865C73.2961 80.1588 73.5026 80.2929 73.73 80.3803C73.939 80.4674 74.1635 80.5117 74.39 80.5103C74.6301 80.5093 74.8679 80.4617 75.09 80.3703C75.3144 80.2778 75.5183 80.1419 75.6899 79.9702C75.8615 79.7986 75.9975 79.5947 76.09 79.3703L79.96 70.3703C80.0514 70.1482 80.0989 69.9105 80.1 69.6703V5.16032C80.0987 4.41149 79.9491 3.67033 79.6598 2.97963C79.3705 2.28893 78.9473 1.66238 78.4146 1.13614C77.8818 0.609902 77.2501 0.194405 76.5559 -0.0863632C75.8617 -0.367131 75.1188 -0.507608 74.37 -0.499682ZM75.53 71.5003L74.37 74.1903L73.22 71.5003H75.53ZM76.45 16.0003V67.8903H72.29V16.0003H76.45ZM76.45 10.8403V12.4003H72.29V10.8203L76.45 10.8403ZM76.45 5.18032V7.24032H72.29V5.16032C72.29 4.60867 72.5091 4.07961 72.8992 3.68954C73.2893 3.29946 73.8183 3.08032 74.37 3.08032C74.9216 3.08032 75.4507 3.29946 75.8407 3.68954C76.2308 4.07961 76.45 4.60867 76.45 5.16032V5.18032Z" fill="#1D5DEB" fill-opacity="0.24"/>
    <path d="M49.561 20.9414H14.439C13.7922 20.9414 13.1718 20.678 12.7144 20.2092C12.257 19.7403 12 19.1044 12 18.4414C12 17.7784 12.257 17.1425 12.7144 16.6736C13.1718 16.2048 13.7922 15.9414 14.439 15.9414H49.561C50.2078 15.9414 50.8282 16.2048 51.2856 16.6736C51.743 17.1425 52 17.7784 52 18.4414C52 19.1044 51.743 19.7403 51.2856 20.2092C50.8282 20.678 50.2078 20.9414 49.561 20.9414Z" fill="#1D5DEB" fill-opacity="0.24"/>
    <path d="M49.561 36H14.439C13.7922 36 13.1718 35.7366 12.7144 35.2678C12.257 34.7989 12 34.163 12 33.5C12 32.837 12.257 32.2011 12.7144 31.7322C13.1718 31.2634 13.7922 31 14.439 31H49.561C50.2078 31 50.8282 31.2634 51.2856 31.7322C51.743 32.2011 52 32.837 52 33.5C52 34.163 51.743 34.7989 51.2856 35.2678C50.8282 35.7366 50.2078 36 49.561 36Z" fill="#1D5DEB" fill-opacity="0.24"/>
    <path d="M49.561 51H14.439C13.7922 51 13.1718 50.7366 12.7144 50.2678C12.257 49.7989 12 49.163 12 48.5C12 47.837 12.257 47.2011 12.7144 46.7322C13.1718 46.2634 13.7922 46 14.439 46H49.561C50.2078 46 50.8282 46.2634 51.2856 46.7322C51.743 47.2011 52 47.837 52 48.5C52 49.163 51.743 49.7989 51.2856 50.2678C50.8282 50.7366 50.2078 51 49.561 51Z" fill="#1D5DEB" fill-opacity="0.24"/>
    <path d="M49.561 66H14.439C13.7922 66 13.1718 65.7366 12.7144 65.2678C12.257 64.7989 12 64.163 12 63.5C12 62.837 12.257 62.2011 12.7144 61.7322C13.1718 61.2634 13.7922 61 14.439 61H49.561C50.2078 61 50.8282 61.2634 51.2856 61.7322C51.743 62.2011 52 62.837 52 63.5C52 64.163 51.743 64.7989 51.2856 65.2678C50.8282 65.7366 50.2078 66 49.561 66Z" fill="#1D5DEB" fill-opacity="0.24"/>
  </g>
  <defs>
    <clipPath id="clip0">
      <rect width="80" height="80" fill="white"/>
    </clipPath>
  </defs>
</svg>
