<svg width="32" height="32" fill="none" xmlns="http://www.w3.org/2000/svg"><circle cx="16" cy="16" r="15.2" stroke="#99B1E6" stroke-width="1.6"/><g clip-path="url(#clip0)"><path d="M22.64 8.719a2.454 2.454 0 00-3.47 0l-9.73 9.73a.544.544 0 00-.14.24l-1.28 4.62a.545.545 0 00.671.671l4.62-1.28a.545.545 0 00.24-.14l9.73-9.73a2.457 2.457 0 000-3.471l-.64-.64zM10.629 18.804l7.963-7.964 2.569 2.568-7.964 7.964-2.568-2.568zm-.513 1.03l2.052 2.051-2.839.787.787-2.839zm12.395-7.775l-.579.578-2.568-2.569.578-.578a1.363 1.363 0 011.928 0l.64.64a1.366 1.366 0 010 1.929z" fill="#99B1E6"/></g><defs><clipPath id="clip0"><path fill="#fff" transform="translate(8 8)" d="M0 0h16v16H0z"/></clipPath></defs></svg>