<svg width="281" height="321" viewBox="0 0 281 321" fill="none" xmlns="http://www.w3.org/2000/svg">
<rect width="280" height="321" rx="8" fill="#E5EAF5"/>
<path d="M207.246 198.044C205.849 206.967 202.958 214.726 200.217 221.866C173.446 291.682 203.765 310.31 243 321H37C76.2393 310.309 106.566 291.681 79.8116 221.866C77.044 214.726 74.1445 206.967 72.7827 198.044C71.0957 200.654 66.5622 205.794 61.6858 196.305C55.5179 184.303 49.4554 151.453 52.5394 147.105C53.6816 145.487 55.2455 146.409 56.7656 148.201C33.737 78.0482 91.9892 38.1279 91.9892 38.1279C106.72 30.1704 123.233 26 140.014 26C156.796 26 173.309 30.1704 188.04 38.1279C188.04 38.1279 246.283 78.0482 223.263 148.201C224.774 146.409 226.347 145.487 227.489 147.105C230.573 151.47 224.493 184.303 218.343 196.305C213.458 205.802 208.933 200.654 207.246 198.044Z" fill="white"/>
<rect x="1" y="1" width="279" height="319" rx="7" stroke="#99B1E6" stroke-width="2" stroke-dasharray="8 8"/>
</svg>
