<svg width="32" height="44" viewBox="0 0 32 44" fill="none" xmlns="http://www.w3.org/2000/svg">
<path fill-rule="evenodd" clip-rule="evenodd" d="M18 2.84596C16.7624 2.13143 15.2376 2.13143 14 2.84596L4.14361 8.53656C2.90596 9.25109 2.14355 10.5716 2.14355 12.0007V23.3819C2.14355 24.8109 2.90596 26.1314 4.14361 26.846L7.696 28.8969L14.5055 40.6914C15.2753 42.0247 17.1998 42.0247 17.9696 40.6914L25.0167 28.4854L27.8564 26.846C29.094 26.1314 29.8564 24.8109 29.8564 23.3819V12.0007C29.8564 10.5716 29.094 9.25109 27.8564 8.53656L18 2.84596Z" fill="#0D4CD3"/>
<path fill-rule="evenodd" clip-rule="evenodd" d="M13 1.11391C14.8564 0.0421081 17.1436 0.0421088 19 1.11391L28.8564 6.80451C30.7128 7.8763 31.8564 9.85706 31.8564 12.0007V23.3819C31.8564 25.5254 30.7128 27.5062 28.8564 28.578L26.4808 29.9495L19.7016 41.6914C18.162 44.3581 14.313 44.3581 12.7734 41.6914L6.2318 30.361L3.14355 28.578C1.28715 27.5062 0.143555 25.5254 0.143555 23.3819V12.0007C0.143555 9.85706 1.28715 7.8763 3.14355 6.80451L13 1.11391ZM7.696 28.8969L4.14361 26.846C2.90596 26.1314 2.14355 24.8109 2.14355 23.3819V12.0007C2.14355 10.5716 2.90596 9.25109 4.14361 8.53656L14 2.84596C15.2376 2.13143 16.7624 2.13143 18 2.84596L27.8564 8.53656C29.094 9.25109 29.8564 10.5716 29.8564 12.0007V23.3819C29.8564 24.8109 29.094 26.1314 27.8564 26.846L25.0167 28.4854L17.9696 40.6914C17.1998 42.0247 15.2753 42.0247 14.5055 40.6914L7.696 28.8969Z" fill="white"/>
<path d="M14 6.84611C15.2376 6.13158 16.7624 6.13158 18 6.84611L24.3923 10.5367C25.6299 11.2512 26.3923 12.5717 26.3923 14.0008V21.382C26.3923 22.8111 25.6299 24.1316 24.3923 24.8461L18 28.5367C16.7624 29.2512 15.2376 29.2512 14 28.5367L7.6077 24.8461C6.3701 24.1316 5.6077 22.8111 5.6077 21.382V14.0008C5.6077 12.5717 6.3701 11.2512 7.6077 10.5367L14 6.84611Z" fill="white"/>
<path d="M14 10.8461C15.2376 10.1316 16.7624 10.1316 18 10.8461L20.9282 12.5367C22.1658 13.2512 22.9282 14.5717 22.9282 16.0008V19.382C22.9282 20.8111 22.1658 22.1316 20.9282 22.8461L18 24.5367C16.7624 25.2512 15.2376 25.2512 14 24.5367L11.0718 22.8461C9.83421 22.1316 9.07181 20.8111 9.07181 19.382V16.0008C9.07181 14.5717 9.83421 13.2512 11.0718 12.5367L14 10.8461Z" fill="#0D4CD3"/>
</svg>
