<svg width="300" height="382" viewBox="0 0 300 382" fill="none" xmlns="http://www.w3.org/2000/svg">
    <g clip-path="url(#clip0)">
        <path d="M157.463 284.705C236.11 284.705 299.866 220.958 299.866 142.323C299.866 63.6871 236.11 -0.0595703 157.463 -0.0595703C78.8157 -0.0595703 15.0596 63.6871 15.0596 142.323C15.0596 220.958 78.8157 284.705 157.463 284.705Z" fill="#A7DEFA"/>
        <path d="M94.9251 357.114C147.264 357.114 189.694 314.691 189.694 262.359C189.694 210.028 147.264 167.604 94.9251 167.604C42.5857 167.604 0.15625 210.028 0.15625 262.359C0.15625 314.691 42.5857 357.114 94.9251 357.114Z" fill="#A7DEFA"/>
        <path d="M190.796 375.079C243.136 375.079 285.565 332.656 285.565 280.324C285.565 227.993 243.136 185.569 190.796 185.569C138.457 185.569 96.0273 227.993 96.0273 280.324C96.0273 332.656 138.457 375.079 190.796 375.079Z" fill="#A7DEFA"/>
        <path d="M184.285 52.8853C184.285 55.2452 178.032 56.8095 169.769 57.5728L169.333 54.1647C167.129 37.2479 164.376 20.6482 161.086 4.50537C163.15 5.32274 164.848 6.86002 165.866 8.83269C173.152 23.0107 179.311 37.7404 184.285 52.8853Z" fill="#CEF4FF"/>
        <path d="M205.866 138.528C204.83 138.528 203.832 138.137 203.071 137.433C202.311 136.729 201.845 135.764 201.765 134.731C201.686 133.698 201.999 132.673 202.643 131.861C203.286 131.049 204.213 130.51 205.237 130.352L222.791 127.61C223.869 127.442 224.969 127.709 225.85 128.352C226.732 128.995 227.321 129.962 227.489 131.04C227.658 132.118 227.391 133.218 226.748 134.099C226.104 134.98 225.137 135.57 224.059 135.738L206.506 138.48C206.294 138.512 206.08 138.528 205.866 138.528Z" fill="#CEF4FF"/>
        <path d="M223.43 135.787C222.763 135.788 222.105 135.626 221.514 135.316C220.923 135.006 220.417 134.557 220.038 134.007L207.468 115.73C206.851 114.832 206.615 113.726 206.814 112.654C207.013 111.582 207.629 110.634 208.527 110.016C209.425 109.399 210.532 109.164 211.604 109.362C212.676 109.561 213.625 110.177 214.242 111.075L226.817 129.352C227.244 129.969 227.494 130.692 227.54 131.441C227.585 132.19 227.425 132.937 227.076 133.602C226.727 134.267 226.203 134.823 225.56 135.211C224.918 135.599 224.181 135.803 223.43 135.803V135.787Z" fill="#F565A4"/>
        <path d="M218.615 221.176C220.798 219.051 219.941 214.632 216.701 211.305C213.461 207.979 209.065 207.005 206.883 209.13C204.7 211.255 205.557 215.674 208.797 219.001C212.037 222.327 216.433 223.301 218.615 221.176Z" fill="#181550"/>
        <path d="M220.065 219.643C222.247 217.518 221.389 213.098 218.149 209.772C214.908 206.446 210.512 205.473 208.33 207.599C206.148 209.724 207.006 214.144 210.246 217.469C213.487 220.795 217.883 221.769 220.065 219.643Z" fill="#FAFAFC"/>
        <path d="M210.619 210.647C209.721 210.647 208.836 210.432 208.039 210.019C207.242 209.606 206.555 209.008 206.038 208.274C205.52 207.541 205.187 206.694 205.065 205.804C204.944 204.915 205.037 204.009 205.339 203.164L213.866 179.167L197.914 171.104C196.607 170.422 195.621 169.253 195.169 167.85C194.717 166.447 194.837 164.922 195.501 163.606C196.166 162.29 197.322 161.288 198.719 160.818C200.117 160.348 201.643 160.448 202.968 161.095L223.328 171.378C224.547 171.993 225.499 173.031 226.007 174.298C226.515 175.564 226.543 176.973 226.086 178.259L215.904 206.905C215.518 207.999 214.802 208.946 213.856 209.616C212.909 210.286 211.778 210.646 210.619 210.647Z" fill="#181550"/>
        <path d="M108 104.178C107.102 104.174 106.229 103.875 105.517 103.328C104.804 102.781 104.29 102.015 104.053 101.149C103.817 100.282 103.871 99.3614 104.207 98.5281C104.543 97.6949 105.143 96.9945 105.914 96.5343L121.081 87.5141C121.547 87.2392 122.063 87.0587 122.598 86.9829C123.134 86.9072 123.679 86.9377 124.203 87.0728C124.727 87.2078 125.22 87.4447 125.652 87.7699C126.084 88.0951 126.448 88.5023 126.723 88.9682C126.998 89.4341 127.179 89.9496 127.255 90.4853C127.33 91.021 127.3 91.5663 127.165 92.0902C127.03 92.6141 126.793 93.1062 126.468 93.5385C126.142 93.9709 125.735 94.3349 125.269 94.6099L110.102 103.63C109.464 103.998 108.738 104.188 108 104.178Z" fill="#F565A4"/>
        <path d="M107.995 104.178C107.006 104.175 106.051 103.814 105.307 103.162L94.0865 93.3412C93.6276 93.0051 93.2434 92.5774 92.9583 92.0852C92.6732 91.5931 92.4932 91.0471 92.4299 90.4819C92.3665 89.9166 92.4211 89.3444 92.5902 88.8014C92.7594 88.2583 93.0393 87.7562 93.4124 87.3269C93.7855 86.8975 94.2436 86.5502 94.7578 86.3069C95.272 86.0636 95.8311 85.9295 96.3997 85.9133C96.9683 85.8971 97.5341 85.9989 98.0614 86.2125C98.5886 86.426 99.0658 86.7466 99.4628 87.154L110.689 96.9751C111.316 97.5252 111.761 98.253 111.964 99.0618C112.168 99.8706 112.121 100.722 111.829 101.504C111.538 102.285 111.015 102.959 110.331 103.437C109.648 103.915 108.835 104.173 108 104.178H107.995Z" fill="#CEF4FF"/>
        <path d="M198.457 160.611V160.858C198.027 164.315 188.409 166.588 175.877 167.685C176.172 143.936 175.441 120.192 173.699 96.7977L173.656 96.2225C185.172 95.3301 193.968 93.4326 193.968 90.5459C198.296 113.633 199.803 137.16 198.457 160.611Z" fill="#CEF4FF"/>
        <path d="M184.565 234.218C184.237 235.267 183.893 236.315 183.543 237.363C183.543 240.852 178.355 243.244 171.231 244.545C171.35 243.47 171.468 242.394 171.581 241.319C172.036 236.994 172.455 232.65 172.839 228.289C173.244 223.677 173.602 219.052 173.914 214.415C176.753 214.2 179.463 213.926 181.979 213.592L183.785 228.106C183.777 228.18 183.777 228.253 183.785 228.327L184.565 234.218Z" fill="#CEF4FF"/>
        <path d="M173.656 96.798C175.398 120.192 176.129 143.936 175.834 167.685C175.801 170.509 175.751 173.332 175.683 176.152C175.49 184.85 175.154 193.535 174.678 202.207C174.452 206.275 174.197 210.335 173.914 214.388C173.588 219.022 173.23 223.647 172.839 228.263C172.452 232.624 172.033 236.967 171.581 241.293C171.468 242.368 171.35 243.443 171.231 244.518C170.403 244.669 169.549 244.808 168.678 244.927C160.987 245.937 153.197 245.937 145.506 244.927C144.629 244.808 143.774 244.669 142.947 244.524C135.823 243.217 130.635 240.825 130.635 237.336C130.291 236.288 129.947 235.24 129.619 234.192C129.516 233.885 129.42 233.579 129.323 233.273C128.979 232.197 128.645 231.122 128.317 230.047L128.237 229.8C127.769 228.257 127.307 226.714 126.861 225.177L126.78 224.903C126.124 222.645 125.495 220.371 124.893 218.103C124.344 216.039 123.821 213.969 123.323 211.894C122.9 210.131 122.493 208.366 122.102 206.599C122.022 206.234 121.941 205.868 121.866 205.524C121.694 204.75 121.527 203.976 121.366 203.202C120.875 200.879 120.418 198.55 119.995 196.213C119.224 192.021 118.547 187.817 117.963 183.602C117.85 182.769 117.737 181.936 117.629 181.103C117.522 180.27 117.414 179.41 117.317 178.56C117.269 178.168 117.221 177.781 117.178 177.388C117.097 176.706 117.022 176.023 116.947 175.34C116.909 174.996 116.877 174.652 116.839 174.313C116.801 173.975 116.769 173.631 116.737 173.287L116.705 173.002C116.705 172.905 116.705 172.814 116.678 172.717C116.651 172.62 116.64 172.389 116.624 172.228C116.452 170.438 116.291 168.648 116.151 166.852C116.151 166.68 116.151 166.508 116.113 166.342C115.968 164.503 115.85 162.67 115.742 160.832V160.584C115.42 155.087 115.26 149.584 115.264 144.076C115.27 126.105 116.939 108.173 120.248 90.5086C122.645 77.767 125.877 65.1969 129.925 52.8797C134.897 37.7349 141.054 23.0051 148.339 8.82709C149.357 6.85442 151.055 5.31714 153.119 4.49977C155.68 3.46752 158.541 3.46752 161.102 4.49977C164.393 20.6264 167.145 37.2423 169.35 54.1591L169.785 57.5672C171.369 70.3001 172.66 83.1853 173.656 96.2228V96.798Z" fill="white"/>
        <path d="M197.505 172.722C197.505 172.915 197.467 173.114 197.44 173.308C197.44 173.609 197.381 173.915 197.349 174.216C197.274 174.969 197.188 175.727 197.102 176.479V176.614C197.075 176.872 197.048 177.151 197.016 177.388C197.016 177.549 196.983 177.716 196.962 177.877C196.74 179.791 196.496 181.706 196.231 183.623C196.107 184.521 195.978 185.424 195.844 186.311C195.844 186.467 195.801 186.623 195.774 186.779C195.629 187.763 195.473 188.752 195.317 189.735C195.279 189.977 195.241 190.219 195.198 190.461C195.08 191.198 194.957 191.934 194.833 192.665V192.757C194.698 193.552 194.559 194.342 194.413 195.138C194.349 195.514 194.279 195.89 194.209 196.267C193.639 199.367 193.016 202.465 192.338 205.561C192.268 205.916 192.193 206.265 192.112 206.636C191.718 208.407 191.31 210.172 190.887 211.931C190.385 214.006 189.862 216.076 189.317 218.14C188.72 220.408 188.091 222.682 187.43 224.94C187.43 225.031 187.381 225.123 187.354 225.214C186.908 226.752 186.446 228.294 185.978 229.837L185.897 230.09C185.569 231.165 185.231 232.24 184.892 233.315C184.795 233.621 184.698 233.928 184.596 234.234L183.86 228.321V228.106L182.053 213.592L180.774 203.733L179.602 194.38C179.599 194.394 179.599 194.409 179.602 194.423L179.215 191.311C179.139 190.715 179.098 190.115 179.091 189.515C179.054 186.306 179.971 183.158 181.725 180.471C183.479 177.784 185.993 175.678 188.946 174.421C189.639 173.345 192.204 172.55 195.258 172.55C196.01 172.553 196.761 172.61 197.505 172.722Z" fill="white"/>
        <path d="M72.9896 325.759C72.992 326.735 72.8746 327.708 72.6402 328.656H49.2262C48.9943 327.708 48.877 326.735 48.8767 325.759C48.8428 324.154 49.1296 322.559 49.7203 321.067C50.311 319.575 51.1936 318.215 52.3165 317.069C53.4394 315.922 54.78 315.011 56.2596 314.389C57.7392 313.767 59.3281 313.447 60.9332 313.447C62.5382 313.447 64.1271 313.767 65.6067 314.389C67.0864 315.011 68.4269 315.922 69.5498 317.069C70.6727 318.215 71.5554 319.575 72.146 321.067C72.7367 322.559 73.0235 324.154 72.9896 325.759Z" fill="white"/>
        <path d="M106.548 325.759C106.549 326.728 106.479 327.697 106.338 328.656H66.9782C66.84 327.696 66.7699 326.728 66.7686 325.759C66.7686 320.484 68.8644 315.425 72.5949 311.695C76.3255 307.965 81.3852 305.869 86.661 305.869C91.9368 305.869 96.9966 307.965 100.727 311.695C104.458 315.425 106.553 320.484 106.553 325.759H106.548Z" fill="#CEF4FF"/>
        <path d="M183.242 305.234C183.241 307.41 182.969 309.577 182.43 311.685L182.36 311.954C182.172 312.647 181.963 313.325 181.715 313.991C179.428 320.365 174.742 325.593 168.656 328.564H145.871C142.712 327.02 139.898 324.853 137.597 322.194C137.204 321.732 136.828 321.27 136.468 320.786C135.206 319.113 134.153 317.291 133.334 315.362C133.113 314.824 132.914 314.319 132.726 313.787C132.484 313.104 132.274 312.4 132.097 311.691C131.806 310.565 131.594 309.421 131.463 308.266C130.977 304.133 131.492 299.943 132.965 296.05C134.438 292.158 136.825 288.676 139.925 285.899C140.339 285.528 140.758 285.173 141.188 284.823C142.091 284.109 143.041 283.457 144.032 282.872C146.948 281.142 150.176 280.006 153.532 279.529C154.768 279.344 156.015 279.253 157.264 279.254C158.214 279.255 159.163 279.307 160.108 279.41C163.478 279.774 166.743 280.801 169.715 282.431C170.877 283.063 171.99 283.782 173.043 284.582C173.581 284.99 174.118 285.42 174.597 285.872C177.323 288.306 179.503 291.29 180.993 294.628C182.483 297.965 183.25 301.58 183.242 305.234Z" fill="#A7DEFA"/>
        <path d="M135.484 328.575H119.301C120.327 328.024 121.408 327.581 122.527 327.253C124.111 326.781 125.755 326.542 127.408 326.543C127.72 326.543 128.032 326.543 128.338 326.543C130.841 326.682 133.282 327.376 135.484 328.575Z" fill="#E4A3F3"/>
        <path d="M141.152 307.361C147.105 301.409 147.105 291.76 141.152 285.808C135.2 279.857 125.549 279.857 119.597 285.808C113.645 291.76 113.645 301.409 119.597 307.361C125.549 313.312 135.2 313.312 141.152 307.361Z" fill="white"/>
        <path d="M199.581 296.664C200.688 288.321 194.821 280.659 186.477 279.552C178.132 278.444 170.469 284.311 169.362 292.654C168.254 300.998 174.121 308.659 182.466 309.766C190.811 310.874 198.473 305.008 199.581 296.664Z" fill="white"/>
        <path d="M206.742 306.434C215.843 306.434 223.221 299.057 223.221 289.958C223.221 280.858 215.843 273.481 206.742 273.481C197.641 273.481 190.264 280.858 190.264 289.958C190.264 299.057 197.641 306.434 206.742 306.434Z" fill="white"/>
        <path d="M160.374 324.265C169.36 319.979 173.171 309.222 168.884 300.237C164.598 291.252 153.839 287.443 144.853 291.728C135.867 296.014 132.057 306.771 136.343 315.756C140.629 324.741 151.388 328.55 160.374 324.265Z" fill="white"/>
        <path d="M110.996 319.156C119.463 313.131 121.442 301.383 115.416 292.918C109.389 284.452 97.6406 282.473 89.1736 288.499C80.7066 294.524 78.7279 306.271 84.7539 314.737C90.78 323.202 102.529 325.181 110.996 319.156Z" fill="#CEF4FF"/>
        <path d="M225.587 313.177C228.012 303.073 221.785 292.917 211.679 290.493C201.573 288.069 191.415 294.295 188.991 304.399C186.567 314.503 192.794 324.659 202.9 327.083C213.005 329.507 223.163 323.281 225.587 313.177Z" fill="#CEF4FF"/>
        <path d="M249.291 317.265C249.294 321.494 247.689 325.566 244.801 328.656H220.35C218.492 326.664 217.149 324.248 216.439 321.618C215.728 318.988 215.671 316.225 216.273 313.568C216.875 310.912 218.117 308.442 219.891 306.375C221.665 304.308 223.918 302.706 226.453 301.708C228.988 300.711 231.728 300.348 234.436 300.651C237.143 300.954 239.735 301.914 241.987 303.448C244.238 304.981 246.081 307.042 247.354 309.45C248.626 311.859 249.291 314.541 249.291 317.265Z" fill="#CEF4FF"/>
        <path d="M172.58 320.184C181.518 320.184 188.763 312.94 188.763 304.004C188.763 295.067 181.518 287.823 172.58 287.823C163.643 287.823 156.397 295.067 156.397 304.004C156.397 312.94 163.643 320.184 172.58 320.184Z" fill="white"/>
        <path d="M124.186 295.38C126.09 285.165 119.352 275.341 109.136 273.437C98.9194 271.532 89.0933 278.269 87.1888 288.484C85.2842 298.699 92.0223 308.524 102.239 310.428C112.455 312.332 122.281 305.595 124.186 295.38Z" fill="white"/>
        <path d="M69.2714 273.246C70.1169 269.644 67.8824 266.04 64.2806 265.194C60.6788 264.349 57.0736 266.583 56.2281 270.184C55.3826 273.786 57.6171 277.39 61.2189 278.236C64.8207 279.081 68.426 276.847 69.2714 273.246Z" fill="white"/>
        <path d="M235.866 289.699C238.455 289.699 240.554 287.6 240.554 285.012C240.554 282.423 238.455 280.324 235.866 280.324C233.277 280.324 231.178 282.423 231.178 285.012C231.178 287.6 233.277 289.699 235.866 289.699Z" fill="white"/>
        <path d="M222.393 244.55C222.393 245.038 222.248 245.515 221.977 245.921C221.705 246.327 221.32 246.643 220.869 246.83C220.418 247.017 219.922 247.066 219.443 246.971C218.965 246.875 218.525 246.64 218.18 246.295C217.835 245.95 217.6 245.51 217.504 245.032C217.409 244.553 217.458 244.057 217.645 243.606C217.832 243.155 218.148 242.77 218.554 242.498C218.96 242.227 219.437 242.083 219.925 242.083C220.579 242.083 221.207 242.343 221.67 242.805C222.133 243.268 222.393 243.896 222.393 244.55Z" fill="white"/>
        <path d="M211.011 324.382C211.009 325.797 210.828 327.206 210.473 328.575H177.323C176.968 327.206 176.787 325.797 176.785 324.382C176.772 320.425 178.143 316.587 180.662 313.534C181.145 312.946 181.668 312.391 182.226 311.873C182.285 311.814 182.344 311.755 182.414 311.696C184.87 309.476 187.916 308.016 191.185 307.494C194.453 306.971 197.803 307.407 200.829 308.75C203.854 310.093 206.425 312.285 208.229 315.059C210.034 317.834 210.995 321.072 210.995 324.382H211.011Z" fill="white"/>
        <path d="M265.296 328.657H251.613C251.942 327.086 252.801 325.675 254.047 324.663C255.293 323.65 256.849 323.098 258.455 323.098C260.06 323.098 261.616 323.65 262.862 324.663C264.108 325.675 264.968 327.086 265.296 328.657Z" fill="white"/>
        <path d="M50.7795 328.657H37.0967C37.4251 327.086 38.2845 325.675 39.5304 324.663C40.7763 323.65 42.3327 323.098 43.9381 323.098C45.5434 323.098 47.0999 323.65 48.3457 324.663C49.5916 325.675 50.451 327.086 50.7795 328.657Z" fill="white"/>
        <path d="M137.737 324.382C137.734 325.797 137.554 327.206 137.199 328.575H128.909L128.876 328.661L128.715 328.575H104.048C103.691 327.206 103.51 325.797 103.511 324.382C103.513 321.426 104.281 318.52 105.741 315.949C107.201 313.378 109.303 311.229 111.842 309.713C114.381 308.197 117.269 307.364 120.225 307.297C123.182 307.23 126.105 307.931 128.71 309.331C129.928 309.985 131.063 310.783 132.091 311.707C132.698 312.26 133.266 312.854 133.79 313.486C134.064 313.814 134.328 314.158 134.575 314.507C135.843 316.287 136.756 318.295 137.263 320.421C137.406 321.009 137.516 321.605 137.591 322.205C137.686 322.927 137.734 323.654 137.737 324.382Z" fill="white"/>
        <path d="M189.172 325.925C189.172 326.812 189.104 327.698 188.968 328.575H153.925C153.79 327.698 153.724 326.812 153.726 325.925C153.737 322.624 154.668 319.392 156.416 316.591C158.164 313.791 160.659 311.534 163.62 310.074C166.58 308.614 169.89 308.009 173.176 308.327C176.462 308.644 179.594 309.873 182.22 311.873L182.339 311.965C184.461 313.624 186.177 315.745 187.357 318.167C188.538 320.589 189.151 323.247 189.15 325.941L189.172 325.925Z" fill="#CEF4FF"/>
        <path d="M160.5 328.575H128.908L128.876 328.661L128.715 328.575H115.64C115.64 328.134 115.699 327.694 115.747 327.253C116.355 321.759 118.969 316.683 123.088 312.997C127.207 309.311 132.542 307.274 138.07 307.277C138.995 307.278 139.92 307.334 140.839 307.444C146.077 308.095 150.918 310.57 154.513 314.434C158.109 318.298 160.228 323.305 160.5 328.575Z" fill="white"/>
        <path d="M153.677 321.253C151.373 319.907 148.782 319.129 146.117 318.984C143.453 318.838 140.792 319.328 138.354 320.415C138.08 320.533 137.817 320.657 137.553 320.797C134.245 322.485 131.588 325.22 129.994 328.575L129.962 328.661L129.801 328.575H122.387C122.429 327.902 122.515 327.232 122.645 326.57C123.206 323.639 124.538 320.911 126.502 318.665C128.466 316.418 130.993 314.735 133.822 313.787C134.172 313.669 134.526 313.556 134.897 313.47C135.741 313.244 136.603 313.089 137.473 313.007C138.035 312.947 138.601 312.917 139.166 312.916C142.103 312.917 144.987 313.688 147.533 315.15C150.079 316.613 152.198 318.717 153.677 321.253Z" fill="#CEF4FF"/>
        <path d="M232.575 325.759C232.579 326.734 232.465 327.707 232.237 328.656H207.613C207.388 327.707 207.274 326.734 207.274 325.759C207.274 322.404 208.607 319.187 210.98 316.815C213.352 314.442 216.57 313.11 219.925 313.11C223.28 313.11 226.498 314.442 228.87 316.815C231.243 319.187 232.575 322.404 232.575 325.759Z" fill="white"/>
        <path d="M248.516 325.759C248.519 326.734 248.405 327.707 248.177 328.656H223.554C223.116 326.799 223.103 324.868 223.518 323.006C223.933 321.144 224.763 319.4 225.947 317.904C227.132 316.409 228.639 315.201 230.357 314.37C232.074 313.54 233.958 313.109 235.865 313.11C238.267 313.111 240.619 313.795 242.646 315.083C244.673 316.371 246.291 318.209 247.312 320.383C247.721 321.251 248.028 322.164 248.226 323.103C248.416 323.975 248.513 324.866 248.516 325.759Z" fill="white"/>
        <path d="M253.119 325.758C253.121 326.762 252.893 327.754 252.452 328.656H240.527C240.082 327.755 239.852 326.763 239.855 325.758C239.83 324.872 239.983 323.989 240.305 323.162C240.627 322.336 241.111 321.582 241.729 320.946C242.348 320.31 243.087 319.804 243.905 319.459C244.722 319.114 245.6 318.936 246.487 318.936C247.374 318.936 248.252 319.114 249.069 319.459C249.887 319.804 250.626 320.31 251.244 320.946C251.863 321.582 252.347 322.336 252.669 323.162C252.991 323.989 253.144 324.872 253.119 325.758Z" fill="white"/>
        <path d="M110.527 247.464L101.592 287.162H136.522L127.592 247.464H110.527Z" fill="white"/>
        <path d="M186.736 247.464L177.801 287.162H212.736L203.801 247.464H186.736Z" fill="white"/>
        <path d="M148.554 264.128L139.618 303.826H174.554L165.618 264.128H148.554Z" fill="white"/>
        <path d="M127.29 247.464H110.527C109.629 259.215 110.285 270.917 118.908 282.362C127.527 270.928 128.188 259.215 127.29 247.464Z" fill="#FDBE4F"/>
        <path d="M123.221 249.824H114.592C114.129 257.194 114.468 264.537 118.893 271.718C123.344 264.537 123.688 257.194 123.221 249.824Z" fill="white"/>
        <path d="M165.468 266.525H148.704C147.807 278.276 148.462 289.979 157.086 301.423C165.71 289.979 166.366 278.276 165.468 266.525Z" fill="#FDBE4F"/>
        <path d="M161.403 268.885H152.768C152.306 276.255 152.645 283.598 157.069 290.78C161.526 283.598 161.865 276.255 161.403 268.885Z" fill="white"/>
        <path d="M203.65 247.464H186.887C185.989 259.215 186.645 270.917 195.269 282.362C203.892 270.928 204.548 259.215 203.65 247.464Z" fill="#FDBE4F"/>
        <path d="M199.586 249.824H190.952C190.49 257.194 190.828 264.537 195.253 271.718C199.71 264.537 200.049 257.194 199.586 249.824Z" fill="white"/>
        <path d="M198.44 160.858C198.326 162.754 198.197 164.654 198.053 166.556C197.978 167.503 197.903 168.454 197.817 169.4C197.72 170.508 197.616 171.615 197.505 172.722C196.764 172.616 196.017 172.564 195.268 172.566C192.215 172.566 189.65 173.362 188.957 174.437C186.003 175.694 183.49 177.8 181.736 180.487C179.981 183.175 179.065 186.323 179.102 189.532C179.108 190.132 179.15 190.731 179.225 191.327L179.612 194.439C179.609 194.425 179.609 194.411 179.612 194.396L180.768 203.734L181.994 213.571C179.483 213.904 176.774 214.178 173.93 214.394C174.213 210.34 174.467 206.28 174.693 202.213C175.166 193.54 175.501 184.855 175.698 176.157C175.763 173.337 175.813 170.516 175.849 167.696C188.392 166.589 198.01 164.315 198.44 160.858Z" fill="#013CDD"/>
        <path d="M175.855 167.685C175.822 170.509 175.772 173.331 175.704 176.151C175.51 184.849 175.175 193.534 174.699 202.207C174.473 206.274 174.218 210.334 173.935 214.388C173.467 214.425 172.994 214.463 172.516 214.49H172.462C162.224 215.162 151.953 215.162 141.715 214.49H141.666C141.188 214.463 140.715 214.425 140.242 214.388C137.408 214.173 134.699 213.898 132.177 213.565C129.191 213.199 126.231 212.651 123.312 211.926C122.889 210.162 122.482 208.398 122.091 206.631C122.011 206.265 121.93 205.9 121.855 205.556C121.683 204.782 121.516 204.007 121.355 203.233C120.864 200.911 120.407 198.582 119.984 196.245C119.213 192.052 118.536 187.849 117.951 183.634C117.838 182.801 117.726 181.968 117.618 181.134C117.511 180.301 117.403 179.441 117.306 178.592C117.258 178.199 117.209 177.812 117.166 177.42C117.086 176.737 117.011 176.055 116.935 175.372C116.898 175.028 116.865 174.684 116.828 174.345C116.79 174.007 116.752 173.662 116.72 173.318C116.72 173.222 116.72 173.13 116.72 173.034L116.688 172.754L116.64 172.259C116.467 170.469 116.306 168.679 116.166 166.884C116.166 166.712 116.166 166.54 116.129 166.373C115.984 164.535 115.865 162.702 115.758 160.863C116.188 164.32 125.801 166.594 138.338 167.69C150.823 168.714 163.37 168.712 175.855 167.685Z" fill="#016CE0"/>
        <path d="M197.505 172.722C197.505 172.915 197.467 173.114 197.446 173.308L197.349 174.216C197.274 174.969 197.188 175.727 197.102 176.479V176.614L197.021 177.388C197.021 177.549 196.983 177.71 196.962 177.877C196.74 179.791 196.496 181.706 196.231 183.623C196.107 184.521 195.978 185.424 195.844 186.311C195.844 186.467 195.801 186.623 195.774 186.779C195.629 187.763 195.473 188.752 195.317 189.735C195.279 189.977 195.241 190.219 195.198 190.461C195.08 191.198 194.957 191.934 194.833 192.665V192.757C194.698 193.552 194.559 194.342 194.413 195.138C194.349 195.514 194.279 195.89 194.209 196.267C193.639 199.367 193.016 202.465 192.338 205.561C192.268 205.916 192.193 206.265 192.112 206.636C191.718 208.407 191.31 210.172 190.887 211.931C187.969 212.656 185.01 213.204 182.026 213.571L180.774 203.733L179.602 194.38C179.599 194.394 179.599 194.409 179.602 194.423L179.215 191.31C179.139 190.715 179.098 190.115 179.091 189.515C179.054 186.306 179.971 183.158 181.725 180.471C183.479 177.784 185.993 175.678 188.946 174.421C189.639 173.345 192.204 172.55 195.258 172.55C196.01 172.553 196.761 172.61 197.505 172.722Z" fill="#016CE0"/>
        <path d="M135.075 189.531C135.068 190.132 135.027 190.731 134.951 191.327L134.58 194.278L133.414 203.685L130.376 228.069C129.876 228.606 129.37 229.112 128.87 229.585C122.229 235.766 115.587 235.766 108.946 229.585C108.446 229.112 107.935 228.612 107.435 228.069L104.403 203.685L103.225 194.278L102.86 191.327C102.784 190.731 102.743 190.132 102.736 189.531C102.697 187.383 103.086 185.249 103.881 183.254C104.676 181.258 105.861 179.44 107.366 177.908C108.872 176.375 110.667 175.157 112.649 174.326C114.63 173.495 116.757 173.067 118.905 173.067C121.054 173.067 123.181 173.495 125.162 174.326C127.143 175.157 128.939 176.375 130.445 177.908C131.95 179.44 133.135 181.258 133.93 183.254C134.725 185.249 135.114 187.383 135.075 189.531Z" fill="white"/>
        <path d="M107.436 228.074C107.436 231.902 130.376 231.902 130.376 228.074L128.065 246.657C127.783 248.888 126.698 250.938 125.011 252.425C123.325 253.912 121.154 254.732 118.906 254.732C116.658 254.732 114.487 253.912 112.801 252.425C111.114 250.938 110.029 248.888 109.747 246.657L107.436 228.074Z" fill="#DF2B4C"/>
        <path d="M173.252 207.308C173.242 207.911 173.197 208.512 173.118 209.109L168.543 245.851C160.897 254.051 153.25 254.051 145.602 245.851L141.043 209.109C140.967 208.512 140.926 207.91 140.919 207.308C140.919 203.021 142.622 198.91 145.654 195.878C148.686 192.847 152.798 191.144 157.086 191.144C161.373 191.144 165.485 192.847 168.517 195.878C171.549 198.91 173.252 203.021 173.252 207.308Z" fill="white"/>
        <path d="M145.618 245.851C145.618 249.684 168.559 249.684 168.559 245.851L166.247 264.44C165.966 266.67 164.88 268.721 163.194 270.207C161.508 271.694 159.337 272.514 157.089 272.514C154.84 272.514 152.67 271.694 150.983 270.207C149.297 268.721 148.211 266.67 147.93 264.44L145.618 245.851Z" fill="#DF2B4C"/>
        <path d="M211.441 189.531C211.434 190.131 211.393 190.731 211.317 191.326L210.946 194.321V194.39L209.769 203.846L206.753 228.068C206.215 228.606 205.731 229.143 205.221 229.6C198.769 235.589 192.317 235.75 185.866 230.084C185.688 229.928 185.522 229.772 185.328 229.606C184.79 229.133 184.301 228.622 183.785 228.074L181.979 213.56L180.774 203.733L179.613 194.423L179.226 191.31C179.15 190.715 179.109 190.115 179.102 189.515C179.063 187.367 179.452 185.233 180.247 183.237C181.042 181.241 182.227 179.424 183.733 177.891C185.238 176.358 187.034 175.141 189.015 174.309C190.996 173.478 193.123 173.05 195.272 173.05C197.42 173.05 199.547 173.478 201.528 174.309C203.51 175.141 205.305 176.358 206.811 177.891C208.316 179.424 209.501 181.241 210.296 183.237C211.091 185.233 211.48 187.367 211.441 189.515V189.531Z" fill="white"/>
        <path d="M206.715 228.289L204.43 246.657C204.357 247.263 204.222 247.859 204.027 248.437C203.952 248.668 203.866 248.888 203.769 249.109C203.061 250.776 201.878 252.199 200.367 253.199C198.856 254.199 197.084 254.732 195.272 254.732C193.46 254.732 191.688 254.199 190.177 253.199C188.666 252.199 187.482 250.776 186.774 249.109C186.678 248.883 186.592 248.657 186.516 248.426C186.324 247.847 186.189 247.251 186.113 246.647L184.565 234.208L183.828 228.294C183.946 228.832 184.489 229.241 185.339 229.606C185.527 229.687 185.731 229.767 185.946 229.837C190.538 231.396 201.226 231.316 205.21 229.606C206.054 229.235 206.597 228.8 206.715 228.289Z" fill="#DF2B4C"/>
        <path d="M193.941 90.5351C193.941 93.4218 185.145 95.3194 173.629 96.2117C172.654 83.2029 171.366 70.3231 169.764 57.5722C178.032 56.8089 184.28 55.2446 184.28 52.8848C188.323 65.2093 191.551 77.7866 193.941 90.5351Z" fill="#B11330"/>
        <path d="M173.656 96.2225C162.642 97.0234 151.584 97.0234 140.57 96.2225C129.054 95.3301 120.258 93.4325 120.258 90.5459C122.655 77.8043 125.888 65.2342 129.935 52.917C129.935 55.2769 136.188 56.8411 144.451 57.6045C152.884 58.3248 161.363 58.3248 169.795 57.6045C171.373 70.3123 172.659 83.1849 173.656 96.2225Z" fill="#DF2B4C"/>
        <path d="M141.28 96.2705L139.807 96.1576C140.785 83.1595 142.092 70.1506 143.683 57.4805L145.145 57.6632C143.549 70.3065 142.253 83.3208 141.28 96.2705Z" fill="#B11330"/>
        <path d="M137.581 167.717C137.543 164.336 137.521 160.89 137.521 157.503C137.521 137.254 138.274 116.827 139.763 96.792L139.806 96.2061L141.28 96.3189L141.237 96.8995C139.747 116.897 138.995 137.286 138.995 157.503C138.995 160.912 138.995 164.352 139.054 167.717H137.581Z" fill="#A7DEFA"/>
        <path d="M139.506 214.442C139.221 210.378 138.968 206.276 138.742 202.25C138.275 193.649 137.93 184.898 137.732 176.168C137.672 173.394 137.619 170.539 137.581 167.696H139.054C139.092 170.534 139.146 173.378 139.205 176.152C139.404 184.865 139.742 193.622 140.215 202.185C140.436 206.206 140.694 210.297 140.973 214.35L139.506 214.442Z" fill="#013CDD"/>
        <path d="M142.215 244.631C142.097 243.556 141.978 242.454 141.866 241.368C141.425 237.196 141 232.81 140.607 228.327C140.204 223.752 139.833 219.081 139.532 214.442L141 214.334C141.328 218.968 141.699 223.634 142.075 228.198C142.468 232.67 142.892 237.051 143.328 241.217C143.439 242.292 143.556 243.367 143.677 244.442L142.215 244.631Z" fill="#A7DEFA"/>
        <path d="M151.119 4.61278C151.119 4.55901 151.119 4.50525 151.092 4.45149L152.527 4.12891C152.527 4.23106 152.565 4.31708 152.581 4.39772L151.119 4.61278Z" fill="#A7DEFA"/>
        <path d="M145.162 57.664L143.699 57.4813C143.843 56.3416 143.99 55.2038 144.14 54.0678C146.355 37.038 149.145 20.2394 152.436 4.12891L153.877 4.42456C150.597 20.4975 147.812 37.2638 145.597 54.2559L145.162 57.664Z" fill="#A7DEFA"/>
        <path d="M165.457 77.9886C165.457 80.2069 164.576 82.3344 163.007 83.9031C161.438 85.4717 159.31 86.3529 157.091 86.3529C154.873 86.3515 152.745 85.47 151.176 83.9018C149.606 82.3337 148.723 80.207 148.72 77.9886C148.692 76.8719 148.888 75.761 149.296 74.7211C149.703 73.6812 150.315 72.7334 151.095 71.9336C151.875 71.1339 152.807 70.4983 153.836 70.0643C154.866 69.6303 155.972 69.4067 157.089 69.4067C158.206 69.4067 159.312 69.6303 160.341 70.0643C161.37 70.4983 162.303 71.1339 163.082 71.9336C163.862 72.7334 164.474 73.6812 164.882 74.7211C165.29 75.761 165.485 76.8719 165.457 77.9886Z" fill="white"/>
        <path d="M165.457 77.9885C165.457 80.2069 164.575 82.3344 163.006 83.903C161.437 85.4716 159.31 86.3529 157.091 86.3529C155.461 86.3574 153.865 85.8805 152.505 84.9821C155.048 81.2192 159.29 75.0051 162.021 71.2261C163.086 72.0029 163.952 73.0204 164.549 74.1956C165.147 75.3708 165.457 76.6704 165.457 77.9885Z" fill="#CEF4FF"/>
        <path d="M165.457 119.3C165.457 121.518 164.575 123.645 163.006 125.214C161.437 126.783 159.31 127.664 157.091 127.664C155.461 127.668 153.865 127.192 152.505 126.293C155.048 122.53 159.29 116.316 162.021 112.537C163.086 113.314 163.952 114.331 164.549 115.507C165.147 116.682 165.457 117.981 165.457 119.3Z" fill="#CEF4FF"/>
        <path d="M165.457 150.156C165.457 152.374 164.575 154.501 163.006 156.07C161.437 157.639 159.31 158.52 157.091 158.52C155.461 158.524 153.865 158.048 152.505 157.149C155.048 153.386 159.29 147.172 162.021 143.393C163.086 144.17 163.952 145.187 164.549 146.363C165.147 147.538 165.457 148.837 165.457 150.156Z" fill="#CEF4FF"/>
        <path d="M157.091 87.0841C154.679 87.0756 152.368 86.1142 150.662 84.4094C148.956 82.7047 147.993 80.3948 147.983 77.9832C147.992 75.5707 148.954 73.2595 150.66 71.5536C152.366 69.8477 154.678 68.8856 157.091 68.8771C159.024 68.8681 160.909 69.4805 162.467 70.6241C164.023 71.7556 165.18 73.3506 165.772 75.1803C166.364 77.0101 166.362 78.9804 165.765 80.8086C165.168 82.6368 164.007 84.2288 162.448 85.3563C160.89 86.4837 159.014 87.0886 157.091 87.0841ZM157.091 70.3499C155.448 70.3494 153.849 70.8792 152.531 71.8604C151.214 72.8416 150.248 74.2218 149.778 75.7958C149.308 77.3697 149.359 79.0533 149.923 80.5962C150.487 82.139 151.534 83.4586 152.908 84.3586C154.148 85.1802 155.604 85.616 157.091 85.6111C158.701 85.6118 160.271 85.1028 161.575 84.157C162.878 83.2113 163.849 81.8773 164.348 80.3462C164.847 78.815 164.848 77.1653 164.352 75.6333C163.856 74.1013 162.887 72.7656 161.586 71.8175C160.283 70.8602 158.707 70.3475 157.091 70.3553V70.3499Z" fill="#B11330"/>
        <path d="M157.086 128.401C155.285 128.401 153.523 127.867 152.026 126.866C150.528 125.865 149.36 124.442 148.671 122.778C147.982 121.114 147.802 119.283 148.154 117.516C148.506 115.75 149.374 114.127 150.648 112.854C151.922 111.58 153.546 110.714 155.313 110.363C157.08 110.012 158.911 110.193 160.575 110.883C162.239 111.573 163.661 112.741 164.661 114.239C165.661 115.738 166.195 117.499 166.194 119.3C166.192 121.714 165.232 124.029 163.524 125.736C161.816 127.442 159.501 128.401 157.086 128.401ZM157.086 111.667C155.576 111.667 154.1 112.114 152.845 112.953C151.589 113.792 150.611 114.984 150.033 116.379C149.455 117.774 149.304 119.309 149.598 120.789C149.893 122.27 150.62 123.63 151.688 124.698C152.755 125.765 154.116 126.492 155.597 126.787C157.078 127.081 158.613 126.93 160.008 126.352C161.403 125.775 162.595 124.796 163.434 123.541C164.273 122.286 164.72 120.81 164.72 119.3C164.719 117.276 163.914 115.335 162.483 113.904C161.051 112.473 159.11 111.668 157.086 111.667Z" fill="#A7DEFA"/>
        <path d="M157.086 159.256C155.285 159.256 153.523 158.722 152.026 157.721C150.528 156.72 149.36 155.297 148.671 153.633C147.982 151.969 147.802 150.138 148.154 148.371C148.506 146.605 149.374 144.982 150.648 143.709C151.922 142.435 153.546 141.569 155.313 141.218C157.08 140.867 158.911 141.048 160.575 141.738C162.239 142.428 163.661 143.596 164.661 145.094C165.661 146.593 166.195 148.354 166.194 150.155C166.191 152.569 165.23 154.883 163.523 156.589C161.815 158.295 159.5 159.254 157.086 159.256ZM157.086 142.522C155.576 142.522 154.1 142.969 152.845 143.808C151.589 144.647 150.611 145.839 150.033 147.234C149.455 148.629 149.304 150.163 149.598 151.644C149.893 153.125 150.62 154.485 151.688 155.553C152.755 156.62 154.116 157.347 155.597 157.642C157.078 157.936 158.613 157.785 160.008 157.207C161.403 156.63 162.595 155.651 163.434 154.396C164.273 153.141 164.72 151.665 164.72 150.155C164.719 148.131 163.914 146.19 162.483 144.759C161.051 143.328 159.11 142.523 157.086 142.522Z" fill="#A7DEFA"/>
        <path d="M134.58 194.278L133.414 203.685C133.414 206.201 104.382 206.201 104.382 203.685L103.226 194.278C103.226 196.896 134.58 196.896 134.58 194.278Z" fill="#A7DEFA"/>
        <path d="M172.763 212.447L171.596 221.86C171.596 224.37 142.564 224.37 142.564 221.86L141.397 212.447C141.397 215.065 172.763 215.065 172.763 212.447Z" fill="#A7DEFA"/>
        <path d="M210.935 194.407L209.779 203.733C209.787 203.772 209.787 203.812 209.779 203.852C209.285 205.195 200.199 205.771 192.328 205.577C186.226 205.432 180.86 204.825 180.795 203.755L179.623 194.401C179.62 194.416 179.62 194.43 179.623 194.444C180.07 195.616 186.973 196.229 194.188 196.283C202.183 196.337 210.575 195.713 210.935 194.407Z" fill="#A7DEFA"/>
        <path d="M125.409 175.044C125.409 176.399 122.495 177.496 118.903 177.496C115.312 177.496 112.403 176.421 112.403 175.044C112.403 173.668 115.312 172.587 118.903 172.587C122.495 172.587 125.409 173.684 125.409 175.044Z" fill="#A7DEFA"/>
        <path d="M157.086 195.488C160.679 195.488 163.592 194.388 163.592 193.031C163.592 191.674 160.679 190.574 157.086 190.574C153.494 190.574 150.581 191.674 150.581 193.031C150.581 194.388 153.494 195.488 157.086 195.488Z" fill="#A7DEFA"/>
        <path d="M201.774 175.023C201.774 176.152 199.752 177.104 197.005 177.389C196.428 177.45 195.849 177.48 195.269 177.48C191.677 177.48 188.769 176.378 188.769 175.023C188.773 174.813 188.838 174.61 188.957 174.437C189.65 173.362 192.215 172.566 195.269 172.566C196.017 172.564 196.764 172.616 197.505 172.722C199.521 172.996 201.07 173.641 201.586 174.437C201.704 174.61 201.77 174.813 201.774 175.023Z" fill="#A7DEFA"/>
        <path d="M136.559 303.219C135.684 304.096 134.624 304.766 133.456 305.182C132.289 305.597 131.044 305.747 129.811 305.621C128.578 305.495 127.389 305.095 126.331 304.451C125.272 303.807 124.37 302.935 123.691 301.899C123.012 300.863 122.573 299.688 122.405 298.46C122.237 297.233 122.345 295.983 122.721 294.803C123.098 293.622 123.732 292.541 124.58 291.636C125.427 290.732 126.465 290.028 127.618 289.576C127.02 291.085 126.876 292.737 127.204 294.327C127.532 295.918 128.318 297.377 129.465 298.527C130.613 299.676 132.071 300.465 133.661 300.796C135.251 301.128 136.903 300.987 138.414 300.391C137.999 301.452 137.367 302.415 136.559 303.219Z" fill="#CEF4FF"/>
        <path d="M115.924 285.761C116.536 282.372 113.084 278.912 108.213 278.032C103.342 277.152 98.8968 279.186 98.2845 282.575C97.6722 285.964 101.124 289.425 105.995 290.304C110.866 291.184 115.311 289.15 115.924 285.761Z" fill="#CEF4FF"/>
        <path d="M217.151 285.979C216.371 288.581 212.71 289.425 208.968 287.872C205.226 286.318 202.828 282.937 203.592 280.346C203.837 279.536 204.378 278.849 205.108 278.421C205.764 280.426 207.737 282.442 210.388 283.544C212.941 284.619 215.463 284.55 217.049 283.577C217.326 284.349 217.362 285.187 217.151 285.979Z" fill="#CEF4FF"/>
        <path d="M171.962 244.625L170.494 244.464C170.612 243.389 170.731 242.314 170.844 241.239C171.274 237.18 171.682 232.917 172.102 228.219C172.505 223.628 172.87 218.962 173.177 214.355L174.645 214.463C174.322 219.075 173.951 223.747 173.569 228.348C173.15 233.057 172.741 237.325 172.311 241.389C172.2 242.446 172.084 243.525 171.962 244.625Z" fill="white"/>
        <path d="M125.635 178.437C126.525 175.523 123.645 172.063 119.203 170.708C114.761 169.352 110.44 170.616 109.55 173.529C108.661 176.442 111.541 179.903 115.983 181.258C120.425 182.613 124.746 181.35 125.635 178.437Z" fill="#181550"/>
        <path d="M126.122 175.98C127.011 173.066 124.131 169.606 119.689 168.251C115.247 166.895 110.926 168.159 110.037 171.072C109.148 173.985 112.027 177.446 116.469 178.801C120.911 180.156 125.233 178.893 126.122 175.98Z" fill="#FAFAFC"/>
        <path d="M93.8282 183.989C90.9088 187.601 86.6239 188.983 84.2529 187.075C81.882 185.166 82.3228 180.683 85.2422 177.065C88.1615 173.448 92.4411 172.071 94.812 173.98C97.183 175.888 96.7422 180.371 93.8282 183.989Z" fill="#181550"/>
        <path d="M92.2204 182.694C89.3011 186.306 85.0161 187.687 82.6505 185.779C80.2849 183.871 80.7204 179.388 83.6344 175.77C86.5484 172.152 90.8333 170.776 93.2043 172.684C95.5753 174.593 95.1613 179.076 92.2204 182.694Z" fill="#FAFAFC"/>
        <path d="M232.032 216.097C236.629 216.743 240.704 214.823 241.129 211.797C241.554 208.771 238.167 205.814 233.564 205.169C228.962 204.524 224.892 206.438 224.468 209.469C224.043 212.501 227.419 215.463 232.032 216.097Z" fill="#181550"/>
        <path d="M241.41 209.779C241.835 206.762 238.451 203.793 233.852 203.145C229.254 202.498 225.181 204.419 224.757 207.435C224.332 210.452 227.716 213.421 232.315 214.069C236.913 214.716 240.986 212.795 241.41 209.779Z" fill="#FAFAFC"/>
        <path d="M90.2095 177.99H90.1449C89.4085 177.981 88.681 177.828 88.0039 177.538C87.3268 177.249 86.7134 176.829 86.1986 176.302C85.6839 175.775 85.278 175.152 85.004 174.469C84.7301 173.785 84.5934 173.055 84.6019 172.318L85.2148 120.068C85.2332 118.593 85.832 117.184 86.8814 116.147C87.9309 115.109 89.3467 114.527 90.8224 114.526H90.8869C91.6235 114.534 92.3514 114.687 93.0288 114.976C93.7062 115.265 94.3199 115.685 94.8348 116.212C95.3497 116.739 95.7556 117.362 96.0293 118.046C96.303 118.73 96.4391 119.461 96.4299 120.197L95.817 172.442C95.8014 173.919 95.2038 175.33 94.1538 176.368C93.1039 177.407 91.6865 177.99 90.2095 177.99Z" fill="#242160"/>
        <path d="M114.71 175.533C113.484 175.532 112.292 175.129 111.316 174.386C110.34 173.644 109.635 172.602 109.307 171.421L94.8337 119.154C94.4373 117.721 94.6267 116.188 95.3602 114.894C96.0937 113.6 97.3112 112.651 98.745 112.255C100.179 111.858 101.711 112.048 103.005 112.781C104.299 113.514 105.249 114.732 105.646 116.165L120.113 168.432C120.343 169.262 120.378 170.134 120.216 170.98C120.054 171.826 119.7 172.623 119.18 173.31C118.66 173.997 117.988 174.555 117.218 174.94C116.447 175.326 115.598 175.529 114.737 175.533H114.71Z" fill="#181550"/>
        <path d="M88.532 131.701C88.532 131.701 102.08 135.464 100.027 124.379C97.9729 113.295 86.8492 125.981 88.532 131.701Z" fill="#242160"/>
        <path d="M84.3117 87.3322C84.0175 87.3316 83.7316 87.2343 83.4979 87.0555C83.2642 86.8767 83.0957 86.6261 83.0182 86.3423C82.9407 86.0584 82.9584 85.757 83.0688 85.4842C83.1791 85.2114 83.3759 84.9824 83.6289 84.8322L88.016 82.2301C88.3233 82.0483 88.6902 81.996 89.036 82.0847C89.3819 82.1734 89.6783 82.3959 89.8601 82.7032C90.0419 83.0105 90.0942 83.3774 90.0055 83.7232C89.9167 84.0691 89.6943 84.3655 89.387 84.5473L84.9999 87.1441C84.7919 87.2684 84.554 87.3335 84.3117 87.3322Z" fill="#CEF4FF"/>
        <path d="M102.559 93.2227L105.838 112.886C106.087 114.371 106.041 115.89 105.702 117.356C105.363 118.822 104.738 120.207 103.863 121.432C102.988 122.657 101.88 123.697 100.603 124.493C99.3258 125.29 97.904 125.826 96.4191 126.073C95.2958 126.26 94.151 126.282 93.0213 126.137C90.5885 125.811 88.3243 124.713 86.5613 123.006C84.7982 121.298 83.6291 119.07 83.2256 116.649L79.946 96.9909C79.6851 95.5005 79.722 93.9732 80.0545 92.4971C80.3871 91.021 81.0086 89.6254 81.8833 88.3907C82.7581 87.156 83.8687 86.1067 85.151 85.3034C86.4334 84.5001 87.8622 83.9586 89.355 83.7102C90.8478 83.4618 92.3749 83.5114 93.8484 83.8561C95.3219 84.2009 96.7125 84.8339 97.9401 85.7188C99.1676 86.6036 100.208 87.7228 101.001 89.0116C101.793 90.3005 102.323 91.7335 102.559 93.228V93.2227Z" fill="#013CDD"/>
        <path d="M95.9304 94.3301L99.21 113.989C99.6146 116.41 99.2306 118.898 98.1146 121.085C96.9986 123.272 95.2096 125.043 93.011 126.137C90.5802 125.809 88.3185 124.71 86.5576 123.003C84.7966 121.295 83.6291 119.069 83.2261 116.649L79.9465 96.991C79.544 94.5714 79.9278 92.0864 81.0415 89.9009C82.1552 87.7154 83.9403 85.9443 86.1347 84.8477C88.5673 85.1702 90.832 86.2651 92.5954 87.9712C94.3589 89.6773 95.5279 91.9045 95.9304 94.3248V94.3301Z" fill="#016CE0"/>
        <path d="M92.9408 86.7513C92.7413 86.7511 92.5445 86.7051 92.3655 86.6169L88.1236 84.6008C87.9574 84.5293 87.8074 84.4251 87.6825 84.2942C87.5576 84.1634 87.4604 84.0087 87.3967 83.8394C87.3329 83.6701 87.3041 83.4897 87.3118 83.309C87.3194 83.1283 87.3635 82.951 87.4414 82.7877C87.5192 82.6244 87.6292 82.4785 87.7648 82.3587C87.9003 82.239 88.0587 82.1478 88.2303 82.0907C88.4019 82.0336 88.5833 82.0117 88.7636 82.0264C88.9439 82.0411 89.1194 82.092 89.2795 82.1761L93.5214 84.1922C93.7979 84.3229 94.0215 84.5441 94.1554 84.819C94.2892 85.094 94.3253 85.4064 94.2576 85.7047C94.1899 86.0029 94.0226 86.2692 93.7832 86.4595C93.5438 86.6498 93.2466 86.7527 92.9408 86.7513Z" fill="#CEF4FF"/>
        <path d="M84.7745 85.5036C84.85 85.9552 85.0139 86.3875 85.2567 86.7757C85.4995 87.1639 85.8165 87.5004 86.1896 87.766C86.5626 88.0316 86.9843 88.2211 87.4306 88.3236C87.8769 88.4261 88.3391 88.4396 88.7906 88.3634C89.283 88.2865 89.7528 88.103 90.1669 87.8259C90.7202 87.4531 91.1543 86.9289 91.4174 86.3159C91.6806 85.7029 91.7616 85.0272 91.6508 84.3694L90.1723 75.5158C90.0639 74.8572 89.7679 74.2437 89.3197 73.7489C88.8716 73.2541 88.2903 72.8989 87.6454 72.7259C87.1641 72.5927 86.6593 72.567 86.1669 72.6507C85.715 72.725 85.2822 72.8878 84.8934 73.1297C84.5046 73.3717 84.1673 73.6881 83.9011 74.0607C83.6349 74.4332 83.4448 74.8547 83.3419 75.3009C83.239 75.7471 83.2252 76.2093 83.3013 76.6608L84.7745 85.5036Z" fill="#FFA1B7"/>
        <path d="M86.1609 76.1665L87.6341 85.0254C87.5364 85.3872 87.5313 85.7677 87.6191 86.132C87.7069 86.4963 87.8849 86.8327 88.1366 87.1103C88.3884 87.3879 88.7059 87.5977 89.06 87.7206C89.4141 87.8435 89.7933 87.8754 90.163 87.8135C90.5326 87.7516 90.8808 87.5978 91.1754 87.3662C91.4701 87.1346 91.7018 86.8328 91.8493 86.4883C91.9969 86.1438 92.0555 85.7678 92.0197 85.3947C91.984 85.0217 91.8551 84.6637 91.6448 84.3535L90.1663 75.4999C90.2646 75.1382 90.2704 74.7576 90.1832 74.3931C90.096 74.0286 89.9185 73.6918 89.6671 73.4138C89.4157 73.1357 89.0984 72.9253 88.7444 72.8019C88.3904 72.6785 88.0111 72.6461 87.6413 72.7075C87.2715 72.769 86.9231 72.9224 86.6281 73.1537C86.333 73.3849 86.1009 73.6866 85.953 74.031C85.8051 74.3754 85.7461 74.7515 85.7815 75.1246C85.8169 75.4978 85.9455 75.856 86.1556 76.1665H86.1609Z" fill="#F364A3"/>
        <path d="M78.0917 72.9083L78.6293 76.2841C78.953 78.2238 80.0341 79.9554 81.6347 81.0981C83.2353 82.2408 85.2243 82.7009 87.1643 82.3773C89.1042 82.0537 90.8361 80.9728 91.979 79.3724C93.1218 77.772 93.5821 75.7833 93.2584 73.8436L92.7207 70.4678C92.5311 69.3428 92.0849 68.2766 91.4167 67.3519C90.7485 66.4271 89.8763 65.6687 88.8676 65.1353C87.859 64.6019 86.741 64.308 85.6005 64.2763C84.4599 64.2446 83.3273 64.476 82.2906 64.9525C81.1258 65.497 80.1192 66.3295 79.3659 67.3715C78.2242 68.9754 77.7659 70.9668 78.0917 72.9083Z" fill="#F364A3"/>
        <path d="M78.0917 72.9085L78.6294 76.2843C78.5383 77.1509 78.6488 78.0269 78.9522 78.8438C79.2556 79.6607 79.7437 80.3964 80.3784 80.9936C81.0131 81.5907 81.7773 82.0331 82.6112 82.2863C83.4452 82.5394 84.3263 82.5965 85.186 82.4529C86.0456 82.3094 86.8604 81.9692 87.5668 81.4588C88.2733 80.9485 88.8522 80.2818 89.2584 79.5108C89.6646 78.7399 89.8871 77.8855 89.9085 77.0143C89.93 76.1432 89.7498 75.2789 89.3821 74.4889L88.8444 71.113C88.5773 69.5095 87.7907 68.038 86.6056 66.925C85.4206 65.812 83.9026 65.119 82.2853 64.9526C81.1205 65.4971 80.1138 66.3297 79.3606 67.3716C78.2208 68.9763 77.7644 70.9677 78.0917 72.9085Z" fill="#FFA1B7"/>
        <path d="M67.4681 100.926C66.4655 100.934 65.4945 100.576 64.7376 99.9183C63.9808 99.2607 63.4902 98.3495 63.3581 97.3557C63.226 96.362 63.4616 95.3542 64.0204 94.5219C64.5793 93.6896 65.4229 93.09 66.3928 92.836L82.1778 88.6645C83.2257 88.4051 84.3337 88.568 85.2626 89.1182C86.1915 89.6683 86.8667 90.5616 87.1427 91.6052C87.4186 92.6488 87.2731 93.7591 86.7375 94.6963C86.2019 95.6336 85.3192 96.3227 84.2799 96.615L68.5003 100.786C68.1633 100.875 67.8166 100.922 67.4681 100.926Z" fill="#FAFAFC"/>
        <path d="M88.5535 89.3478C88.3529 89.3475 88.1548 89.3034 87.9729 89.2188L83.7363 87.2027C83.414 87.0494 83.1659 86.7744 83.0464 86.4381C82.9269 86.1018 82.9459 85.7319 83.0992 85.4096C83.2525 85.0874 83.5275 84.8392 83.8638 84.7197C84.2 84.6003 84.57 84.6193 84.8922 84.7725L89.1288 86.7941C89.4018 86.9263 89.6221 87.1469 89.7538 87.4202C89.8855 87.6934 89.9209 88.0032 89.8542 88.2991C89.7876 88.5951 89.6228 88.8597 89.3866 89.0501C89.1505 89.2405 88.8569 89.3454 88.5535 89.3478Z" fill="#FAFAFC"/>
        <path d="M67.4786 100.926C67.1546 100.926 66.8317 100.888 66.5162 100.813C65.4554 100.56 64.5388 99.8948 63.9681 98.9653C63.3975 98.0359 63.2194 96.9178 63.4732 95.8571L68.2313 75.9353C68.4877 74.8773 69.1532 73.9642 70.0819 73.3961C71.0106 72.8279 72.1267 72.6511 73.1855 72.9044C74.2443 73.1577 75.1596 73.8204 75.7305 74.7473C76.3014 75.6741 76.4815 76.7896 76.2313 77.849L71.4732 97.7654C71.2594 98.6644 70.749 99.4652 70.0243 100.039C69.2996 100.612 68.4028 100.925 67.4786 100.926Z" fill="#FFA1B7"/>
        <path d="M228.107 209.566C227.206 209.567 226.319 209.35 225.519 208.934C224.72 208.519 224.033 207.917 223.516 207.179L209.36 187.032L196.774 181.532C193.556 180.125 190.819 177.811 188.896 174.872C186.974 171.933 185.951 168.498 185.951 164.986C185.951 163.748 186.362 162.544 187.118 161.562L189.871 157.998C190.313 157.396 190.871 156.887 191.513 156.504C192.155 156.12 192.867 155.868 193.607 155.764C194.348 155.66 195.102 155.704 195.825 155.895C196.547 156.086 197.225 156.42 197.817 156.877C198.409 157.334 198.904 157.904 199.272 158.555C199.64 159.206 199.874 159.923 199.961 160.666C200.048 161.409 199.985 162.161 199.776 162.879C199.568 163.597 199.218 164.266 198.747 164.847L197.381 166.642C197.635 167.66 198.119 168.605 198.796 169.407C199.473 170.208 200.324 170.844 201.285 171.265L215.295 177.393C216.238 177.802 217.047 178.464 217.634 179.307L232.688 200.734C233.276 201.574 233.623 202.559 233.691 203.582C233.759 204.605 233.546 205.627 233.073 206.537C232.601 207.448 231.889 208.211 231.013 208.745C230.138 209.279 229.133 209.563 228.107 209.566Z" fill="#242160"/>
        <path d="M197.511 168.922H197.054C194.919 168.802 192.919 167.84 191.493 166.246C190.067 164.653 189.333 162.558 189.452 160.423L190.785 136.426C190.829 135.358 191.084 134.309 191.536 133.34C191.989 132.372 192.63 131.502 193.421 130.784C194.213 130.065 195.14 129.511 196.148 129.153C197.156 128.796 198.224 128.642 199.292 128.702C200.36 128.761 201.405 129.033 202.367 129.5C203.329 129.967 204.188 130.621 204.895 131.423C205.602 132.226 206.142 133.161 206.484 134.174C206.826 135.187 206.963 136.258 206.887 137.324L205.554 161.315C205.437 163.37 204.54 165.302 203.044 166.716C201.549 168.131 199.569 168.92 197.511 168.922Z" fill="#B11330"/>
        <path d="M208.21 135.265V137.733C206.279 139.095 203.976 139.832 201.613 139.845H194.57C192.201 139.835 189.893 139.098 187.957 137.733V135.265C187.957 128.771 192.495 123.509 198.091 123.509C199.464 123.529 200.815 123.847 202.052 124.443C203.289 125.038 204.381 125.895 205.253 126.955C207.199 129.283 208.248 132.231 208.21 135.265Z" fill="#FFA1B7"/>
        <path d="M86.8603 67.1942C86.8582 68.5585 86.4271 69.8876 85.628 70.9935C84.8289 72.0993 83.7022 72.9259 82.4074 73.3564C81.1125 73.7868 79.7152 73.7992 78.4129 73.3919C77.1106 72.9846 75.9694 72.1782 75.1507 71.0868C74.332 69.9953 73.8773 68.6741 73.8508 67.3101C73.8244 65.946 74.2276 64.6082 75.0034 63.4859C75.7793 62.3636 76.8884 61.5136 78.1739 61.0561C79.4595 60.5987 80.8563 60.5571 82.1668 60.937C83.5211 61.3315 84.7108 62.1548 85.5571 63.2831C86.4035 64.4114 86.8608 65.7838 86.8603 67.1942Z" fill="white"/>
        <path d="M89.1826 67.1942C89.1805 68.5585 88.7494 69.8876 87.9503 70.9935C87.1511 72.0993 86.0245 72.9259 84.7296 73.3564C83.4348 73.7868 82.0374 73.7992 80.7351 73.3919C79.4329 72.9846 78.2916 72.1782 77.4729 71.0868C76.6542 69.9953 76.1995 68.6741 76.1731 67.3101C76.1467 65.946 76.5499 64.6082 77.3257 63.4859C78.1015 62.3636 79.2107 61.5136 80.4962 61.0561C81.7817 60.5987 83.1786 60.5571 84.4891 60.937C85.8434 61.3315 87.033 62.1548 87.8794 63.2831C88.7257 64.4114 89.183 65.7838 89.1826 67.1942Z" fill="#FDB661"/>
        <path d="M205.296 105.14L208.602 120.729C208.701 121.192 208.695 121.671 208.585 122.131C208.474 122.591 208.262 123.02 207.964 123.388C207.666 123.755 207.29 124.051 206.863 124.255C206.435 124.458 205.968 124.563 205.495 124.562H197.231L205.296 105.14Z" fill="#181550"/>
        <path d="M89.1824 67.1946C88.9279 68.0654 88.4359 68.8482 87.7616 69.4552C87.0873 70.0623 86.2573 70.4696 85.3645 70.6317C84.4717 70.7937 83.5515 70.7041 82.7068 70.3727C81.8621 70.0414 81.1263 69.4815 80.5819 68.7557C80.0375 68.0299 79.7059 67.1669 79.6243 66.2634C79.5427 65.3598 79.7143 64.4514 80.1198 63.6398C80.5254 62.8283 81.1489 62.1456 81.9206 61.6683C82.6922 61.1911 83.5815 60.938 84.4889 60.9375C85.8432 61.332 87.0329 62.1552 87.8792 63.2835C88.7256 64.4118 89.1829 65.7843 89.1824 67.1946Z" fill="#FA8F63"/>
        <path d="M92.0003 76.3712C93.8294 76.3712 95.3121 74.8885 95.3121 73.0594C95.3121 71.2303 93.8294 69.7476 92.0003 69.7476C90.1712 69.7476 88.6885 71.2303 88.6885 73.0594C88.6885 74.8885 90.1712 76.3712 92.0003 76.3712Z" fill="#FA8F63"/>
        <path d="M77.9841 76.6055C79.7745 74.0753 79.1745 70.5729 76.6439 68.7828C74.1133 66.9926 70.6104 67.5925 68.82 70.1227C67.0296 72.653 67.6296 76.1553 70.1602 77.9455C72.6907 79.7356 76.1936 79.1357 77.9841 76.6055Z" fill="#FFA1B7"/>
        <path d="M214.346 115.251C216.174 112.747 215.625 109.237 213.121 107.409C210.617 105.582 207.106 106.131 205.278 108.635C203.451 111.138 204 114.649 206.504 116.476C209.008 118.303 212.519 117.755 214.346 115.251Z" fill="#F364A3"/>
        <path d="M91.7581 68.7158C91.7576 69.7474 91.4155 70.7499 90.7853 71.5667C90.1551 72.3836 89.2721 72.9689 88.2742 73.2312C87.8893 73.3284 87.4938 73.3771 87.0968 73.3764C86.1749 73.3764 85.2737 73.103 84.5072 72.5909C83.7406 72.0788 83.1432 71.3509 82.7904 70.4993C82.4376 69.6477 82.3453 68.7106 82.5251 67.8065C82.705 66.9025 83.1489 66.072 83.8008 65.4202C84.4527 64.7684 85.2833 64.3246 86.1875 64.1447C87.0917 63.9649 88.0289 64.0572 88.8806 64.4099C89.7324 64.7627 90.4604 65.36 90.9726 66.1265C91.4847 66.8929 91.7581 67.794 91.7581 68.7158Z" fill="white"/>
        <path d="M93.8391 68.7158C93.8386 69.7474 93.4966 70.7499 92.8664 71.5667C92.2361 72.3836 91.3532 72.9689 90.3553 73.2312C89.9704 73.3284 89.5749 73.3771 89.1779 73.3764C88.256 73.3764 87.3548 73.103 86.5882 72.5909C85.8217 72.0788 85.2242 71.3509 84.8714 70.4993C84.5186 69.6477 84.4263 68.7106 84.6062 67.8065C84.786 66.9025 85.23 66.072 85.8819 65.4202C86.5338 64.7684 87.3643 64.3246 88.2685 64.1447C89.1727 63.9649 90.1099 64.0572 90.9617 64.4099C91.8134 64.7627 92.5414 65.36 93.0536 66.1265C93.5658 66.8929 93.8391 67.794 93.8391 68.7158Z" fill="#FDB661"/>
        <path d="M93.8384 68.7162C93.6695 69.3692 93.3209 69.9617 92.8321 70.4266C92.3433 70.8914 91.734 71.21 91.0733 71.346C90.4125 71.482 89.7269 71.43 89.0942 71.196C88.4615 70.962 87.9071 70.5553 87.494 70.0221C87.0808 69.4889 86.8255 68.8506 86.757 68.1796C86.6884 67.5086 86.8094 66.8318 87.1062 66.2261C87.403 65.6204 87.8637 65.1101 88.4359 64.753C89.0082 64.3959 89.6692 64.2064 90.3438 64.2061C91.3428 64.4662 92.2275 65.0498 92.8597 65.8657C93.4919 66.6817 93.8361 67.684 93.8384 68.7162Z" fill="#FA8F63"/>
        <path d="M89.4034 76.2795C89.8574 76.3666 90.3273 76.2707 90.7109 76.013C91.0946 75.7552 91.3608 75.3563 91.4518 74.9032L91.7583 73.3279C91.8024 73.1034 91.8019 72.8724 91.7567 72.6481C91.7116 72.4238 91.6227 72.2105 91.4951 72.0206C91.3676 71.8306 91.2039 71.6676 91.0133 71.541C90.8228 71.4143 90.6091 71.3263 90.3846 71.2822C90.1601 71.2381 89.9291 71.2386 89.7048 71.2838C89.4805 71.3289 89.2672 71.4178 89.0773 71.5454C88.8873 71.6729 88.7244 71.8367 88.5977 72.0272C88.471 72.2177 88.3831 72.4314 88.3389 72.6559L88.0325 74.2311C87.9438 74.6845 88.0383 75.1544 88.2952 75.5383C88.5522 75.9221 88.9506 76.1886 89.4034 76.2795Z" fill="#FFA1B7"/>
        <path d="M198.387 128.734C197.316 128.731 196.29 128.304 195.533 127.546C194.776 126.788 194.351 125.762 194.349 124.691V116.472C194.321 115.925 194.404 115.378 194.594 114.864C194.784 114.35 195.076 113.881 195.454 113.484C195.831 113.086 196.285 112.77 196.788 112.554C197.292 112.338 197.834 112.227 198.381 112.227C198.929 112.227 199.471 112.338 199.975 112.554C200.478 112.77 200.932 113.086 201.309 113.484C201.686 113.881 201.979 114.35 202.169 114.864C202.359 115.378 202.442 115.925 202.414 116.472V124.713C202.407 125.778 201.98 126.797 201.226 127.55C200.472 128.303 199.452 128.728 198.387 128.734Z" fill="#FFA1B7"/>
        <path d="M200.78 121.515C198.544 121.515 196.4 120.627 194.819 119.046C193.238 117.465 192.35 115.321 192.35 113.086V109.323C192.35 107.087 193.238 104.944 194.819 103.363C196.4 101.782 198.544 100.894 200.78 100.894C203.016 100.894 205.16 101.782 206.741 103.363C208.322 104.944 209.21 107.087 209.21 109.323V113.086C209.21 114.193 208.992 115.289 208.568 116.311C208.144 117.334 207.523 118.263 206.741 119.046C205.958 119.829 205.029 120.449 204.006 120.873C202.983 121.297 201.887 121.515 200.78 121.515Z" fill="#FFA1B7"/>
        <path d="M212.129 101.732C208.968 98.2274 204.162 96.6094 199.506 96.8674H199.258C198.995 96.8674 196.135 97.2061 196.135 97.4641L200.973 107.71C202.493 107.985 204.038 108.091 205.581 108.027C206.21 108.027 206.861 108.027 207.522 108.027C212.049 107.871 216.559 106.646 212.129 101.732Z" fill="white"/>
        <path d="M198.161 141.872C196.782 141.872 195.455 141.342 194.455 140.391C193.456 139.441 192.86 138.143 192.791 136.765C192.722 135.388 193.185 134.036 194.084 132.991C194.984 131.945 196.251 131.285 197.624 131.147L209.29 129.916C209.992 129.842 210.702 129.907 211.379 130.107C212.056 130.308 212.687 130.639 213.236 131.083C213.785 131.527 214.241 132.075 214.578 132.695C214.916 133.315 215.127 133.996 215.202 134.698C215.276 135.4 215.211 136.11 215.011 136.787C214.81 137.464 214.479 138.095 214.035 138.643C213.591 139.192 213.043 139.648 212.422 139.985C211.802 140.323 211.121 140.534 210.419 140.608L198.753 141.839C198.556 141.861 198.359 141.872 198.161 141.872Z" fill="#DF2B4C"/>
        <path d="M199.021 108.678C200.156 107.312 202.914 108.398 204.333 108.581C206.308 108.841 208.315 108.53 210.118 107.683C212.731 106.415 211.317 103.92 209.838 102.27C207.769 99.9313 204.998 98.3247 201.941 97.69C201.01 97.5036 200.062 97.4153 199.113 97.4266C191.672 96.9804 188.898 100.523 187.957 105.415C187.763 106.398 187.645 107.43 187.494 108.506C186.65 113.424 181.811 117.725 183.424 123.1C183.667 123.935 184.129 124.689 184.763 125.283C185.419 125.866 186.185 126.312 187.016 126.594C192.027 127.401 196.865 129.013 200.629 125.788C202.855 123.88 202.919 121.729 202.016 119.02C201.414 117.209 200.666 115.451 199.994 113.645C199.591 112.57 198.962 111.494 198.747 110.349C198.673 110.067 198.659 109.772 198.706 109.484C198.753 109.196 198.861 108.921 199.021 108.678Z" fill="#181550"/>
        <path d="M199.288 169.961C200.531 167.122 199.237 163.813 196.397 162.57C193.557 161.327 190.248 162.621 189.005 165.46C187.762 168.3 189.056 171.609 191.896 172.852C194.736 174.095 198.045 172.801 199.288 169.961Z" fill="#FFA1B7"/>
        <path d="M194.118 172.421C193.411 172.421 192.715 172.239 192.099 171.891C191.483 171.544 190.967 171.043 190.602 170.437L178.726 150.865C178.431 150.403 178.232 149.887 178.14 149.347C178.048 148.807 178.064 148.254 178.189 147.72C178.313 147.187 178.543 146.684 178.864 146.24C179.186 145.797 179.593 145.422 180.062 145.138C180.53 144.854 181.051 144.666 181.593 144.586C182.135 144.506 182.687 144.535 183.218 144.672C183.749 144.808 184.247 145.049 184.683 145.38C185.119 145.712 185.485 146.127 185.758 146.602L197.629 166.174C198.007 166.798 198.213 167.51 198.226 168.239C198.238 168.968 198.056 169.688 197.699 170.323C197.342 170.959 196.822 171.488 196.193 171.857C195.563 172.225 194.848 172.42 194.118 172.421Z" fill="#FFA1B7"/>
        <path d="M181.5 152.601C180.768 152.603 180.049 152.408 179.417 152.038C178.785 151.668 178.264 151.136 177.907 150.497C177.55 149.857 177.37 149.134 177.387 148.402C177.403 147.67 177.615 146.956 178 146.334L187.909 130.261C188.171 129.762 188.533 129.322 188.972 128.968C189.411 128.615 189.918 128.355 190.462 128.206C191.006 128.057 191.574 128.021 192.132 128.101C192.69 128.181 193.226 128.374 193.706 128.67C194.186 128.965 194.601 129.356 194.923 129.818C195.246 130.28 195.47 130.804 195.582 131.356C195.694 131.909 195.691 132.479 195.573 133.03C195.455 133.581 195.226 134.102 194.898 134.561L184.995 150.639C184.628 151.237 184.115 151.731 183.503 152.075C182.891 152.418 182.202 152.599 181.5 152.601Z" fill="#FAFAFC"/>
        <path d="M204.226 118.666C204.82 118.666 205.301 118.184 205.301 117.59C205.301 116.997 204.82 116.515 204.226 116.515C203.632 116.515 203.15 116.997 203.15 117.59C203.15 118.184 203.632 118.666 204.226 118.666Z" fill="#F364A3"/>
        <path d="M85.6937 78.6338C85.7193 78.8575 85.699 79.0841 85.634 79.2997C85.5691 79.5153 85.4608 79.7154 85.3159 79.8878C85.171 80.0601 84.9924 80.2011 84.7912 80.3021C84.5899 80.4031 84.3702 80.462 84.1454 80.4752C83.9206 80.4884 83.6955 80.4556 83.4838 80.3788C83.2721 80.302 83.0783 80.1828 82.9143 80.0286C82.7502 79.8744 82.6193 79.6883 82.5296 79.4817C82.4399 79.2752 82.3933 79.0525 82.3926 78.8273L85.6937 78.6338Z" fill="white"/>
        <path d="M248.263 94.2278H240.387C237.495 94.1641 234.744 92.9708 232.721 90.9036C230.699 88.8363 229.566 86.0595 229.566 83.1676C229.566 80.2758 230.699 77.4989 232.721 75.4317C234.744 73.3644 237.495 72.1712 240.387 72.1074H248.263C251.155 72.1712 253.907 73.3644 255.929 75.4317C257.952 77.4989 259.084 80.2758 259.084 83.1676C259.084 86.0595 257.952 88.8363 255.929 90.9036C253.907 92.9708 251.155 94.1641 248.263 94.2278Z" fill="white"/>
        <path d="M227.85 102.071H225.221C224.266 102.035 223.363 101.63 222.7 100.942C222.038 100.254 221.668 99.3358 221.668 98.3808C221.668 97.4257 222.038 96.5078 222.7 95.8197C223.363 95.1316 224.266 94.7269 225.221 94.6904H227.85C228.804 94.7269 229.707 95.1316 230.37 95.8197C231.032 96.5078 231.402 97.4257 231.402 98.3808C231.402 99.3358 231.032 100.254 230.37 100.942C229.707 101.63 228.804 102.035 227.85 102.071Z" fill="white"/>
        <path d="M240.457 83.1706C240.457 83.5959 240.331 84.0117 240.095 84.3653C239.859 84.719 239.523 84.9946 239.13 85.1574C238.737 85.3202 238.304 85.3627 237.887 85.2798C237.47 85.1968 237.087 84.992 236.786 84.6912C236.485 84.3905 236.281 84.0073 236.198 83.5901C236.115 83.1729 236.157 82.7405 236.32 82.3476C236.483 81.9546 236.758 81.6188 237.112 81.3824C237.466 81.1461 237.881 81.02 238.307 81.02C238.877 81.02 239.424 81.2466 239.827 81.6499C240.231 82.0532 240.457 82.6002 240.457 83.1706Z" fill="#A7DEFA"/>
        <path d="M246.457 83.1706C246.457 83.5959 246.331 84.0117 246.095 84.3653C245.859 84.719 245.523 84.9946 245.13 85.1574C244.737 85.3202 244.304 85.3627 243.887 85.2798C243.47 85.1968 243.087 84.992 242.786 84.6912C242.485 84.3905 242.281 84.0073 242.198 83.5901C242.115 83.1729 242.157 82.7405 242.32 82.3476C242.483 81.9546 242.758 81.6188 243.112 81.3824C243.466 81.1461 243.881 81.02 244.307 81.02C244.877 81.02 245.424 81.2466 245.827 81.6499C246.231 82.0532 246.457 82.6002 246.457 83.1706Z" fill="#A7DEFA"/>
        <path d="M252.457 83.1706C252.457 83.5959 252.331 84.0117 252.095 84.3653C251.859 84.719 251.523 84.9946 251.13 85.1574C250.737 85.3202 250.304 85.3627 249.887 85.2798C249.47 85.1968 249.087 84.992 248.786 84.6912C248.485 84.3905 248.281 84.0073 248.198 83.5901C248.115 83.1729 248.157 82.7405 248.32 82.3476C248.483 81.9546 248.758 81.6188 249.112 81.3824C249.466 81.1461 249.881 81.02 250.307 81.02C250.877 81.02 251.424 81.2466 251.827 81.6499C252.231 82.0532 252.457 82.6002 252.457 83.1706Z" fill="#A7DEFA"/>
        <path d="M207.99 104.522C207.339 106.436 204.301 106.334 202.688 106.436C202.221 106.463 201.753 106.479 201.285 106.479C201.385 106.331 201.465 106.17 201.522 106.001C201.957 104.716 200.904 103.463 199.968 102.722C198.813 101.827 197.466 101.212 196.033 100.926C195.92 100.926 195.807 100.878 195.688 100.862C195.812 100.754 195.936 100.652 196.07 100.555C197.887 99.2221 200.328 98.9963 202.484 99.4801C203.917 99.7664 205.264 100.381 206.42 101.276C207.371 101.991 208.425 103.243 207.99 104.522Z" fill="#242160"/>
        <path d="M84.72 54.4929C84.5731 54.4927 84.4295 54.4486 84.3079 54.3662C84.1862 54.2838 84.0919 54.1669 84.0372 54.0305L82.1018 49.1918C82.0493 49.0151 82.065 48.8251 82.1458 48.6594C82.2265 48.4937 82.3665 48.3643 82.538 48.2968C82.7095 48.2293 82.9002 48.2285 83.0722 48.2947C83.2443 48.3608 83.3852 48.4891 83.4673 48.6542L85.4028 53.4929C85.4395 53.5828 85.4581 53.6792 85.4574 53.7764C85.4568 53.8736 85.4369 53.9697 85.3989 54.0591C85.3609 54.1486 85.3056 54.2296 85.2361 54.2976C85.1667 54.3656 85.0845 54.4192 84.9942 54.4552C84.9056 54.4833 84.8129 54.496 84.72 54.4929Z" fill="white"/>
        <path d="M99.3705 58.0025C99.2192 58.0042 99.071 57.959 98.9464 57.873C98.8219 57.7869 98.7271 57.6644 98.6752 57.5222C98.6233 57.38 98.6168 57.2253 98.6566 57.0792C98.6964 56.9332 98.7805 56.8032 98.8974 56.707L105.93 50.7939C106.079 50.6677 106.273 50.6062 106.468 50.6228C106.663 50.6394 106.844 50.7329 106.97 50.8826C107.096 51.0323 107.158 51.2259 107.141 51.421C107.124 51.6161 107.031 51.7966 106.881 51.9227L99.8436 57.8358C99.7108 57.9458 99.543 58.0049 99.3705 58.0025Z" fill="white"/>
        <path d="M106.866 72.1831L102.457 72.038C102.36 72.0348 102.265 72.0126 102.177 71.9726C102.089 71.9327 102.009 71.8758 101.943 71.8051C101.877 71.7345 101.825 71.6515 101.791 71.5609C101.757 71.4703 101.741 71.3739 101.745 71.2772C101.748 71.1805 101.77 71.0853 101.81 70.9972C101.85 70.909 101.907 70.8296 101.977 70.7635C102.048 70.6973 102.131 70.6457 102.222 70.6117C102.312 70.5776 102.409 70.5617 102.505 70.5649L106.892 70.71C106.989 70.7118 107.085 70.7326 107.173 70.7712C107.262 70.8099 107.342 70.8656 107.409 70.9352C107.476 71.0049 107.529 71.0871 107.565 71.1771C107.6 71.2672 107.617 71.3633 107.615 71.46C107.614 71.5567 107.593 71.6522 107.554 71.7409C107.516 71.8295 107.46 71.9098 107.39 71.9769C107.321 72.0441 107.238 72.0968 107.148 72.1322C107.058 72.1676 106.962 72.1849 106.866 72.1831Z" fill="white"/>
    </g>
    <defs>
        <clipPath id="clip0">
            <rect width="300" height="382" fill="white"/>
        </clipPath>
    </defs>
</svg>
