<svg width="80" height="80" viewBox="0 0 80 80" fill="none" xmlns="http://www.w3.org/2000/svg">
<path d="M40 0C17.9 0 0 17.8765 0 40C0 62.1235 17.9 80 40 80C62.1 80 80 62.1235 80 40C80 17.8765 62.1 0 40 0ZM40 72.0988C22.4 72.0988 8 57.679 8 40C8 22.321 22.4 7.90123 40 7.90123C57.6 7.90123 72 22.321 72 40C72 57.679 57.6 72.0988 40 72.0988Z" fill="#E6EBEC"/>
<path d="M44.6 53.7992C44.6 51.2992 42.5 49.1992 40 49.1992C37.5 49.1992 35.4 51.2992 35.4 53.7992V53.8992C35.4 56.3992 37.5 58.4992 40 58.4992C42.5 58.4992 44.6 56.3992 44.6 53.7992Z" fill="#FED13E"/>
<path d="M44.6 27.7992C44.6 25.2992 42.5 23.1992 40 23.1992C37.5 23.1992 35.4 25.2992 35.4 27.7992V39.8992C35.4 42.3992 37.5 44.4992 40 44.4992C42.5 44.4992 44.6 42.3992 44.6 39.8992V27.7992Z" fill="#FED13E"/>
</svg>
