<svg [attr.width]="width" [attr.height]="height" viewBox="0 0 14 18" fill="none" xmlns="http://www.w3.org/2000/svg">
  <path fill-rule="evenodd" clip-rule="evenodd" d="M12.1668 6.90228C12.1668 8.24863 11.9646 9.17098 11.2537 10.3643C10.5187 11.598 9.24502 13.1122 7.00278 15.524C4.75773 13.112 3.48273 11.5977 2.74714 10.364C2.03567 9.17076 1.8335 8.2486 1.8335 6.90228C1.8335 4.50312 4.07383 2.16675 7.00016 2.16675C9.92649 2.16675 12.1668 4.50312 12.1668 6.90228ZM13.6668 6.90228C13.6668 10.051 12.6465 11.6865 7.73189 16.9416C7.33909 17.3616 6.66753 17.3618 6.27449 16.942C1.35391 11.6866 0.333496 10.0511 0.333496 6.90228C0.333496 3.60366 3.31826 0.666748 7.00016 0.666748C10.6821 0.666748 13.6668 3.60366 13.6668 6.90228ZM8.00016 7.33341C8.00016 7.8857 7.55245 8.33342 7.00016 8.33342C6.44788 8.33342 6.00016 7.8857 6.00016 7.33341C6.00016 6.78113 6.44788 6.33341 7.00016 6.33341C7.55245 6.33341 8.00016 6.78113 8.00016 7.33341ZM9.50016 7.33341C9.50016 8.71413 8.38087 9.83342 7.00016 9.83342C5.61945 9.83342 4.50016 8.71413 4.50016 7.33341C4.50016 5.9527 5.61945 4.83341 7.00016 4.83341C8.38087 4.83341 9.50016 5.9527 9.50016 7.33341Z" [attr.fill]="color"/>
</svg>
