<svg width="100" height="100" viewBox="0 0 100 100" fill="none" xmlns="http://www.w3.org/2000/svg">
<path fill-rule="evenodd" clip-rule="evenodd" d="M69 19H29C20.7157 19 14 25.7157 14 34V74C14 75.0231 14.1024 76.0223 14.2976 76.9879L29.7844 61.5011L37.284 69.0007L57.2848 49L83.9127 75.6279C83.9704 75.0932 84 74.5501 84 74V34C84 25.7157 77.2843 19 69 19ZM82.2504 81.0367L57.2848 56.0711L40.8196 72.5363L57.2833 89H69C74.7413 89 79.7292 85.7745 82.2504 81.0367ZM50.2122 89L29.7844 68.5722L16.3275 82.0291C18.9879 86.2192 23.6692 89 29 89H50.2122ZM29 14C17.9543 14 9 22.9543 9 34V74C9 85.0457 17.9543 94 29 94H69C80.0457 94 89 85.0457 89 74V34C89 22.9543 80.0457 14 69 14H29ZM41.5 40.25C41.5 43.7018 38.7018 46.5 35.25 46.5C31.7982 46.5 29 43.7018 29 40.25C29 36.7982 31.7982 34 35.25 34C38.7018 34 41.5 36.7982 41.5 40.25Z" fill="#1D5DEB" fill-opacity="0.24"/>
<circle cx="80" cy="26" r="20" fill="white"/>
<rect x="65" y="11" width="30" height="30" rx="15" fill="white"/>
<rect x="78.5" y="17" width="3" height="12" rx="0.5" fill="#EE3F58"/>
<rect x="78.5" y="32" width="3" height="3" rx="0.5" fill="#EE3F58"/>
<rect x="65" y="11" width="30" height="30" rx="15" stroke="#EE3F58" stroke-width="2"/>
</svg>
