<svg width="240" height="276" viewBox="0 0 240 276" fill="none" xmlns="http://www.w3.org/2000/svg">
<rect width="240" height="276" rx="8" fill="#E5EAF5"/>
<path d="M178.279 170.133C177.079 177.816 174.595 184.496 172.24 190.644C149.237 250.757 175.288 266.796 209 276H32C65.7153 266.795 91.773 250.756 68.7848 190.644C66.4067 184.496 63.9154 177.816 62.7453 170.133C61.2958 172.38 57.4005 176.806 53.2106 168.635C47.911 158.302 42.702 130.017 45.3518 126.274C46.3332 124.88 47.6769 125.674 48.983 127.217C29.1963 66.8144 79.248 32.4423 79.248 32.4423C91.9049 25.5908 106.093 22 120.512 22C134.931 22 149.12 25.5908 161.777 32.4423C161.777 32.4423 211.821 66.8144 192.042 127.217C193.34 125.674 194.691 124.88 195.673 126.274C198.323 130.032 193.099 158.302 187.814 168.635C183.617 176.813 179.729 172.38 178.279 170.133Z" fill="white"/>
<rect x="2" y="1" width="237" height="274" rx="7" stroke="#99B1E6" stroke-width="2"/>
</svg>
