<svg width="424" height="238" viewBox="0 0 424 238" fill="none" xmlns="http://www.w3.org/2000/svg">
<path d="M57.0268 231.389C57.0268 231.389 -31.1423 73.1559 34.8569 36.2307C87.5115 6.77453 133.701 58.3229 190.055 22.4211C262.756 -23.8958 317.869 7.1114 357.262 64.7652C386.822 108.031 402.479 136.019 417.31 169.709C440.405 222.179 391.444 234.148 391.444 234.148L57.0268 231.389Z" fill="#E7F3FE"/>
<path d="M300.643 232.422L260.446 232.496C259.872 232.496 259.394 231.914 259.362 231.205C259.33 230.493 259.754 229.87 260.325 229.819L300.362 226.238C303.612 225.945 306.572 227.201 306.658 229.05C306.741 230.897 303.906 232.416 300.643 232.422Z" fill="#75A1DE"/>
<path d="M248.597 226.748C249.982 226.402 252.524 218.847 252.524 218.847C252.524 218.847 223.496 209.093 211.185 202.736L194.032 222.505C216.062 227.975 247.567 227.006 248.597 226.748Z" fill="#F09959"/>
<path d="M244.132 215.857C251.276 217.697 262.64 213.095 264.764 213.556C266.889 214.017 275.768 218.619 277.892 220.92C280.016 223.221 287.547 230.356 286.194 230.817C284.842 231.278 275.382 224.375 274.224 224.143C273.067 223.914 272.486 225.522 263.026 227.366C253.566 229.206 242.129 224.451 242.129 224.451L244.132 215.857Z" fill="#F09959"/>
<path d="M255.496 222.988C255.496 222.988 266.5 220.226 267.852 220.687C269.204 221.147 277.408 222.988 283.104 229.433C277.698 227.822 269.976 227.361 267.852 227.361C265.728 227.361 255.496 222.988 255.496 222.988Z" fill="#E38540"/>
<path d="M258.127 218.387C262.829 224.371 274.757 226.212 276.566 228.284C278.374 230.356 272.218 229.476 268.975 229.206C260.711 228.516 254.941 231.853 248.253 229.781C241.565 227.709 240.053 222.763 240.053 222.763L258.127 218.387Z" fill="#F09959"/>
<path d="M170.051 112.17C148.854 122.55 139.154 130.143 132.571 158.449C125.988 186.755 125.644 213.681 129.108 233.701C152.636 234.381 220.074 236.914 220.074 236.914C220.074 236.914 218.789 195.81 211.899 163.283C205.316 132.216 195.965 120.135 187.998 114.611C180.03 109.087 170.051 112.17 170.051 112.17Z" fill="#A2DFF2"/>
<path d="M175.179 208.499C167.582 200.906 169.636 149.472 157.165 126.344L133.956 169.492L126.939 205.394C126.878 215.764 127.66 225.334 129.104 233.696C129.187 234.17 129.624 234.491 130.096 234.449C149.255 232.778 150.324 224.479 211.523 215.275C212.974 215.062 180.349 213.667 175.179 208.499Z" fill="#96CFE0"/>
<path d="M168.035 112.179C165.35 118.424 170.807 126.602 179.428 133.045C188.049 139.49 193.286 135.959 192.824 130.896C192.361 125.833 191.899 120.462 189.899 117.242C187.896 114.019 171.885 111.257 171.885 111.257C171.885 111.257 168.494 111.105 168.035 112.179Z" fill="white"/>
<path d="M178.273 80.8789L170.051 112.169C169.244 114.263 169.464 116.612 170.65 118.519C173.999 123.906 181.201 134.261 186.355 132.891C193.282 131.051 188.664 118.163 188.664 118.163L197.901 85.7099L178.273 80.8789Z" fill="#F09959"/>
<path d="M190.868 82.8078L182.662 79.4961L180.196 85.8844C181.329 113.081 184.805 124.183 190.141 127.275C190.428 123.08 188.664 118.16 188.664 118.16L195.362 93.9922L190.868 82.8078Z" fill="#E38540"/>
<path d="M213.664 95.0713C212.063 105.871 207.792 115.126 200.051 113.988C192.31 112.847 179.017 103.808 180.618 93.0085C182.219 82.2088 199.598 69.2732 207.339 70.4142C215.08 71.5521 215.265 84.2683 213.664 95.0713Z" fill="#F09959"/>
<path d="M154.742 135.667C155.36 133.213 145.499 131.748 143.929 133.734C128.419 153.392 104.291 206.498 109.707 216.096C115.942 227.144 183.118 212.635 184.506 212.292C185.89 211.945 182.082 201.59 182.082 201.59C182.082 201.59 144.436 202.28 138.086 198.024C157.832 161.086 150.066 154.253 154.742 135.667Z" fill="#F09959"/>
<path d="M150.933 124.618C134.638 131.896 116.984 179.157 116.984 179.157C116.984 179.157 121.14 180.193 134.651 184.681C140.267 186.546 145.709 188.275 145.709 188.275C145.709 188.275 158.642 171.551 162.708 158.444C167.949 141.564 160.976 120.13 150.933 124.618Z" fill="#A2DFF2"/>
<path d="M118.732 174.724C133.972 176.682 143.077 181.97 147.705 185.581C148.401 184.618 149.243 183.426 150.174 182.066C146.969 179.072 139.993 173.735 129.851 172.321C125.733 171.749 122.598 171.377 120.216 171.139C119.654 172.47 119.157 173.675 118.732 174.724Z" fill="white"/>
<path d="M122.228 166.492C121.966 167.083 121.714 167.659 121.469 168.218C134.855 167.684 147.699 174.184 150.942 178.15C151.322 178.614 151.66 179.024 151.957 179.393C152.292 178.881 152.633 178.353 152.98 177.81C150.783 175.655 146.882 172.194 142.937 170.478C134.855 166.966 123.268 166.527 122.228 166.492Z" fill="white"/>
<path d="M211.992 215.129H194.9L192.361 183.33H214.764L211.992 215.129Z" fill="#75A1DE"/>
<path d="M180.005 201.703C184.738 201.589 192.476 196.179 195.132 194.682C197.789 193.185 212.799 189.966 213.494 191.577C214.186 193.188 200.909 196.526 200.909 196.526L210.841 196.986C210.841 196.986 213.727 201.36 213.96 204.236C214.189 207.112 213.035 211.254 213.035 211.254L208.646 207.341C208.646 207.341 205.068 209.296 200.564 211.943C196.061 214.591 187.979 212.979 184.515 212.29C181.051 211.6 172.966 209.067 172.966 209.067L180.005 201.703Z" fill="#F09959"/>
<path d="M118.11 200.208C118.11 200.208 125.771 195.797 133.468 196.871C137.879 197.487 138.357 198.202 138.086 198.021C139.04 196.238 139.926 194.525 140.755 192.879C136.746 193.063 126.467 194.144 118.11 200.208Z" fill="#E38540"/>
<path d="M359.893 146.008V224.371C359.893 226.977 357.428 229.088 354.388 229.088H337.876C335.06 229.088 332.776 231.046 332.776 233.461H356.538C361.654 233.461 365.8 229.908 365.8 225.522V146.008H359.893V146.008Z" fill="#6791C9"/>
<path d="M347.818 213.121L345.196 212.622C343.468 212.295 342.364 210.81 342.747 209.329L363.293 129.787C363.676 128.303 365.405 127.359 367.136 127.686L369.758 128.185C371.487 128.512 372.59 129.997 372.208 131.478L351.658 211.02C351.275 212.504 349.547 213.448 347.818 213.121Z" fill="#95BEF5"/>
<path d="M348.532 213.257L348.223 213.2C346.886 212.946 346.035 211.802 346.331 210.658L367.197 129.888C367.493 128.744 368.827 128.013 370.163 128.267L370.472 128.325C371.809 128.579 372.66 129.723 372.364 130.867L351.498 211.636C351.205 212.781 349.869 213.509 348.532 213.257Z" fill="#75A1DE"/>
<path d="M403.231 238H50.2808C48.6478 238 47.3242 236.681 47.3242 235.054C47.3242 233.426 48.6478 232.107 50.2808 232.107H403.231C404.864 232.107 406.188 233.426 406.188 235.054C406.191 236.681 404.864 238 403.231 238Z" fill="#2E5B9A"/>
<path d="M181.832 67.3848C165.84 77.2692 175.961 87.9609 171.709 106.319C174.321 107.208 177.176 102.082 178.997 98.0487C180.818 94.0123 182.438 88.1643 183.044 88.3645C183.65 88.5648 184.665 97.6451 184.665 97.6451L187.095 98.856C187.095 98.856 190.536 92.8046 190.335 91.3934C190.134 89.9823 187.299 83.1236 190.74 79.8945C192.951 77.8222 202.076 82.3163 202.076 82.3163L193.168 69.6064L181.832 67.3848Z" fill="#F09959"/>
<path opacity="0.5" d="M181.832 67.3848C165.84 77.2692 175.961 87.9609 171.709 106.319C174.321 107.208 177.176 102.082 178.997 98.0487C180.818 94.0123 182.438 88.1643 183.044 88.3645C183.65 88.5648 184.665 97.6451 184.665 97.6451L187.095 98.856C187.095 98.856 190.536 92.8046 190.335 91.3934C190.134 89.9823 187.299 83.1236 190.74 79.8945C192.951 77.8222 202.076 82.3163 202.076 82.3163L193.168 69.6064L181.832 67.3848Z" fill="#2E5B9A"/>
<path d="M216.853 78.0752C216.043 87.7594 200.979 84.7273 193.978 76.057C187.297 67.7871 181.801 73.4858 175.151 76.2572C164.017 80.8975 176.567 54.0665 199.04 58.3032C215.9 61.4846 217.392 71.6296 216.853 78.0752Z" fill="#2E5B9A"/>
<path d="M183.373 88.3601C184.065 91.9706 182.71 95.2633 180.35 95.7115C177.99 96.1596 175.515 93.5948 174.822 89.9843C174.13 86.3737 175.486 83.081 177.846 82.6329C180.206 82.1848 182.684 84.7464 183.373 88.3601Z" fill="#F09959"/>
<path d="M353.692 109.773H275.522C274.629 109.773 273.905 109.051 273.905 108.161V63.0586C273.905 62.1687 274.629 61.4473 275.522 61.4473H353.692C354.586 61.4473 355.31 62.1687 355.31 63.0586V108.161C355.31 109.051 354.586 109.773 353.692 109.773Z" fill="#9EC8FF"/>
<path d="M351.406 108.292H277.809C277.031 108.292 276.399 107.663 276.399 106.888V70.6236C276.399 69.8481 277.031 69.2188 277.809 69.2188H351.406C352.184 69.2188 352.815 69.8481 352.815 70.6236V106.888C352.815 107.663 352.184 108.292 351.406 108.292Z" fill="white"/>
<path d="M279.647 66.8944H277.928C277.564 66.8944 277.271 66.602 277.271 66.2397V64.8286C277.271 64.4662 277.564 64.1738 277.928 64.1738H279.647C280.01 64.1738 280.304 64.4662 280.304 64.8286V66.2397C280.304 66.602 280.007 66.8944 279.647 66.8944Z" fill="white"/>
<path d="M285.161 66.8944H283.442C283.079 66.8944 282.785 66.602 282.785 66.2397V64.8286C282.785 64.4662 283.079 64.1738 283.442 64.1738H285.161C285.525 64.1738 285.818 64.4662 285.818 64.8286V66.2397C285.821 66.602 285.525 66.8944 285.161 66.8944Z" fill="white"/>
<path d="M290.679 66.8944H288.96C288.596 66.8944 288.303 66.602 288.303 66.2397V64.8286C288.303 64.4662 288.596 64.1738 288.96 64.1738H290.679C291.042 64.1738 291.336 64.4662 291.336 64.8286V66.2397C291.336 66.602 291.042 66.8944 290.679 66.8944Z" fill="white"/>
<path d="M350.225 105.988H278.992V71.5195H350.225V105.988ZM279.247 105.734H349.97V71.7738H279.247V105.734Z" fill="#9EC8FF"/>
<path d="M350.097 98.8906H279.119V99.1446H350.097V98.8906Z" fill="#9EC8FF"/>
<path d="M350.097 92.0469H279.119V92.3008H350.097V92.0469Z" fill="#9EC8FF"/>
<path d="M350.097 85.2051H279.119V85.459H350.097V85.2051Z" fill="#9EC8FF"/>
<path d="M350.097 78.3613H279.119V78.6153H350.097V78.3613Z" fill="#9EC8FF"/>
<path d="M340.087 71.6465H339.831V105.861H340.087V71.6465Z" fill="#9EC8FF"/>
<path d="M329.944 71.6465H329.688V105.861H329.944V71.6465Z" fill="#9EC8FF"/>
<path d="M319.805 71.6465H319.549V105.861H319.805V71.6465Z" fill="#9EC8FF"/>
<path d="M309.666 71.6465H309.41V105.861H309.666V71.6465Z" fill="#9EC8FF"/>
<path d="M299.526 71.6465H299.271V105.861H299.526V71.6465Z" fill="#9EC8FF"/>
<path d="M289.388 71.6465H289.132V105.861H289.388V71.6465Z" fill="#9EC8FF"/>
<path d="M347.441 75.969H345.056C344.147 75.969 343.4 75.2284 343.4 74.3195C343.4 73.4105 344.147 72.6699 345.056 72.6699H347.441C348.35 72.6699 349.097 73.4105 349.097 74.3195C349.097 75.2284 348.35 75.969 347.441 75.969Z" fill="#F39892"/>
<path d="M348.309 89.7763H344.191C343.757 89.7763 343.403 89.4236 343.403 88.9913V87.2655C343.403 86.8332 343.757 86.4805 344.191 86.4805H348.309C348.742 86.4805 349.096 86.8332 349.096 87.2655V88.9913C349.096 89.4236 348.742 89.7763 348.309 89.7763Z" fill="#F39892"/>
<path d="M297.01 84.3313H291.409C290.79 84.3313 290.283 83.8259 290.283 83.2093V80.5809C290.283 79.9643 290.79 79.459 291.409 79.459H297.01C297.629 79.459 298.136 79.9643 298.136 80.5809V83.2093C298.136 83.8259 297.629 84.3313 297.01 84.3313Z" fill="#9EC8FF"/>
<path d="M296.219 83.645H292.197C291.753 83.645 291.387 83.2827 291.387 82.8377V80.9499C291.387 80.5081 291.75 80.1426 292.197 80.1426H296.219C296.662 80.1426 297.029 80.5049 297.029 80.9499V82.8377C297.029 83.2827 296.665 83.645 296.219 83.645Z" fill="white"/>
<path d="M337.656 104.812H332.056C331.437 104.812 330.93 104.306 330.93 103.69V101.061C330.93 100.445 331.437 99.9395 332.056 99.9395H337.656C338.275 99.9395 338.782 100.445 338.782 101.061V103.69C338.782 104.306 338.275 104.812 337.656 104.812Z" fill="#9EC8FF"/>
<path d="M336.865 104.126H332.843C332.4 104.126 332.033 103.763 332.033 103.318V101.43C332.033 100.989 332.397 100.623 332.843 100.623H336.865C337.309 100.623 337.675 100.985 337.675 101.43V103.318C337.675 103.763 337.312 104.126 336.865 104.126Z" fill="white"/>
<path d="M317.996 80.8789H313.607C313.311 80.8789 313.068 80.6374 313.068 80.3418C313.068 80.0462 313.311 79.8047 313.607 79.8047H317.996C318.293 79.8047 318.535 80.0462 318.535 80.3418C318.535 80.6342 318.293 80.8789 317.996 80.8789Z" fill="#9EC8FF"/>
<path d="M317.996 82.5645H313.607C313.311 82.5645 313.068 82.323 313.068 82.0274C313.068 81.7318 313.311 81.4902 313.607 81.4902H317.996C318.293 81.4902 318.535 81.7318 318.535 82.0274C318.535 82.3261 318.293 82.5645 317.996 82.5645Z" fill="#9EC8FF"/>
<path d="M308.297 101.246H303.908C303.612 101.246 303.369 101.005 303.369 100.709C303.369 100.413 303.612 100.172 303.908 100.172H308.297C308.593 100.172 308.836 100.413 308.836 100.709C308.836 101.005 308.593 101.246 308.297 101.246Z" fill="#9EC8FF"/>
<path d="M308.297 102.934H303.908C303.612 102.934 303.369 102.692 303.369 102.396C303.369 102.101 303.612 101.859 303.908 101.859H308.297C308.593 101.859 308.836 102.101 308.836 102.396C308.836 102.692 308.593 102.934 308.297 102.934Z" fill="#9EC8FF"/>
<path d="M285.547 88.4727H281.158C280.862 88.4727 280.619 88.2311 280.619 87.9356C280.619 87.64 280.862 87.3984 281.158 87.3984H285.547C285.843 87.3984 286.086 87.64 286.086 87.9356C286.086 88.2311 285.843 88.4727 285.547 88.4727Z" fill="#9EC8FF"/>
<path d="M285.547 90.1602H281.158C280.862 90.1602 280.619 89.9187 280.619 89.6231C280.619 89.3275 280.862 89.0859 281.158 89.0859H285.547C285.843 89.0859 286.086 89.3275 286.086 89.6231C286.086 89.9187 285.843 90.1602 285.547 90.1602Z" fill="#9EC8FF"/>
<path d="M327.925 80.8789H323.536C323.239 80.8789 322.997 80.6374 322.997 80.3418C322.997 80.0462 323.239 79.8047 323.536 79.8047H327.925C328.221 79.8047 328.464 80.0462 328.464 80.3418C328.464 80.6342 328.221 80.8789 327.925 80.8789Z" fill="#9EC8FF"/>
<path d="M327.925 82.5645H323.536C323.239 82.5645 322.997 82.323 322.997 82.0274C322.997 81.7318 323.239 81.4902 323.536 81.4902H327.925C328.221 81.4902 328.464 81.7318 328.464 82.0274C328.464 82.3261 328.221 82.5645 327.925 82.5645Z" fill="#9EC8FF"/>
<path d="M297.689 98.2513H291.189C290.628 98.2513 290.165 97.7936 290.165 97.2311V94.3229C290.165 93.7636 290.624 93.3027 291.189 93.3027H297.689C298.25 93.3027 298.713 93.7604 298.713 94.3229V97.2311C298.713 97.7936 298.25 98.2513 297.689 98.2513Z" fill="#9CD499"/>
<path d="M293.98 97.4365C293.973 97.4365 293.967 97.4365 293.961 97.4365C293.82 97.4301 293.689 97.3697 293.597 97.2648L292.382 95.8887C292.197 95.6789 292.216 95.3579 292.426 95.1704C292.637 94.986 292.959 95.0051 293.147 95.2149L294.008 96.1906L296.222 94.0326C296.423 93.8355 296.745 93.8387 296.943 94.0389C297.14 94.2391 297.137 94.5601 296.936 94.7572L294.34 97.2903C294.241 97.3825 294.114 97.4365 293.98 97.4365Z" fill="white"/>
<path d="M328.059 77.4252H321.559C320.998 77.4252 320.535 76.9675 320.535 76.4049V73.4968C320.535 72.9374 320.994 72.4766 321.559 72.4766H328.059C328.62 72.4766 329.083 72.9343 329.083 73.4968V76.4049C329.08 76.9675 328.62 77.4252 328.059 77.4252Z" fill="#9CD499"/>
<path d="M324.35 76.6083C324.343 76.6083 324.337 76.6083 324.331 76.6083C324.19 76.602 324.06 76.5416 323.967 76.4367L322.752 75.0605C322.567 74.8508 322.586 74.5297 322.797 74.3422C323.007 74.1579 323.329 74.177 323.517 74.3867L324.379 75.3625L326.592 73.2044C326.793 73.0074 327.115 73.0105 327.313 73.2108C327.511 73.411 327.507 73.732 327.306 73.9291L324.71 76.4621C324.611 76.5575 324.484 76.6083 324.35 76.6083Z" fill="white"/>
<path d="M326.889 95.6077C326.889 96.879 325.855 97.9088 324.58 97.9088C323.304 97.9088 322.271 96.879 322.271 95.6077C322.271 94.3364 323.304 93.3066 324.58 93.3066C325.852 93.3066 326.889 94.3364 326.889 95.6077Z" fill="#9EC8FF"/>
<path d="M296.978 102.625C296.978 103.897 295.944 104.926 294.669 104.926C293.393 104.926 292.359 103.897 292.359 102.625C292.359 101.354 293.393 100.324 294.669 100.324C295.944 100.324 296.978 101.354 296.978 102.625Z" fill="#9EC8FF"/>
<path d="M310.371 130.555H263.224C262.781 130.555 262.424 130.199 262.424 129.758V103.575C262.424 103.133 262.781 102.777 263.224 102.777H310.371C310.814 102.777 311.171 103.133 311.171 103.575V129.758C311.171 130.196 310.814 130.555 310.371 130.555Z" fill="#9EC8FF"/>
<path d="M309.357 129.332H264.245C263.834 129.332 263.499 128.998 263.499 128.588V104.748C263.499 104.338 263.834 104.004 264.245 104.004H309.357C309.768 104.004 310.103 104.338 310.103 104.748V128.588C310.103 128.998 309.768 129.332 309.357 129.332Z" fill="white"/>
<path d="M307.976 127.777H265.623C265.157 127.777 264.784 127.402 264.784 126.941V106.391C264.784 105.93 265.161 105.555 265.623 105.555H307.976C308.441 105.555 308.815 105.93 308.815 106.391V126.941C308.815 127.402 308.441 127.777 307.976 127.777Z" fill="#9EC8FF"/>
<path d="M286.801 124.378C291.074 124.378 294.539 120.926 294.539 116.668C294.539 112.409 291.074 108.957 286.801 108.957C282.528 108.957 279.063 112.409 279.063 116.668C279.063 120.926 282.528 124.378 286.801 124.378Z" fill="white"/>
<path d="M293.464 116.667C293.464 120.334 290.482 123.306 286.801 123.306C283.121 123.306 280.139 120.334 280.139 116.667C280.139 112.999 283.121 110.027 286.801 110.027C290.482 110.027 293.464 112.999 293.464 116.667Z" fill="#9EC8FF"/>
<path d="M290.083 116.311L287.65 117.713L285.213 119.114V116.311V113.508L287.65 114.909L290.083 116.311Z" fill="white"/>
<path d="M259.337 36.2314H228.852C228.09 36.2314 227.468 35.6116 227.468 34.852C227.468 34.0924 228.093 33.4727 228.852 33.4727H259.337C260.099 33.4727 260.721 34.0924 260.721 34.852C260.721 35.6116 260.099 36.2314 259.337 36.2314Z" fill="#9EC8FF"/>
<path d="M339.012 152.91H308.527C307.765 152.91 307.143 152.287 307.143 151.528C307.143 150.768 307.768 150.148 308.527 150.148H339.012C339.774 150.148 340.396 150.771 340.396 151.528C340.399 152.287 339.774 152.91 339.012 152.91Z" fill="#9EC8FF"/>
<path d="M339.012 157.974H308.527C307.765 157.974 307.143 157.351 307.143 156.594C307.143 155.838 307.768 155.215 308.527 155.215H339.012C339.774 155.215 340.396 155.838 340.396 156.594C340.396 157.351 339.774 157.974 339.012 157.974Z" fill="#9EC8FF"/>
<path d="M339.012 163.498H308.527C307.765 163.498 307.143 162.875 307.143 162.119C307.143 161.359 307.768 160.736 308.527 160.736H339.012C339.774 160.736 340.396 161.359 340.396 162.119C340.399 162.875 339.774 163.498 339.012 163.498Z" fill="#9EC8FF"/>
<path d="M278.965 41.5263H228.852C228.09 41.5263 227.468 40.9034 227.468 40.1469C227.468 39.3873 228.093 38.7676 228.852 38.7676H278.968C279.73 38.7676 280.352 39.3905 280.352 40.1469C280.352 40.9034 279.727 41.5263 278.965 41.5263Z" fill="#9EC8FF"/>
<path d="M62.5988 118.055C54.6315 125.304 58.0953 132.554 63.983 146.014C69.8707 159.477 70.9105 209.182 70.9105 209.182L66.0593 208.492C66.0593 208.492 66.7514 157.405 60.1716 143.595C53.5886 129.789 50.8201 122.882 44.9292 127.37C39.0447 131.864 62.5988 118.055 62.5988 118.055Z" fill="#74B570"/>
<path d="M66.9743 108.67C66.0079 104.373 60.2605 99.7267 52.5771 95.7824C53.719 102.12 57.3836 112.478 53.5914 114.604C48.4787 117.471 53.0938 103.007 51.1196 95.0546C43.905 91.5426 35.2265 88.6727 27.2306 87.2456C27.2434 87.2742 27.2497 87.3028 27.2625 87.3314C31.766 98.7223 37.6537 103.21 35.2297 104.936C33.4054 106.233 27.4634 93.0746 19.6174 86.3303C13.7265 86.0188 8.74456 86.8134 5.79751 89.1398C1.24297 92.7345 -1.81571 95.9223 2.76753 106.868C5.38607 108.731 8.77645 110.069 12.7154 110.46C23.1066 111.496 27.9578 111.839 20.6827 115.294C17.12 116.985 11.1494 115.198 6.30782 114.112C7.87703 116.994 9.80983 120.258 12.1541 123.977C13.6404 126.335 15.2829 128.382 17.0244 130.152C20.3733 130.791 23.2948 130.801 24.8385 130.14C29.6897 128.067 42.1572 121.511 45.2765 124.272C48.3288 126.974 22.1817 128.687 23.9933 135.555C36.6682 142.83 51.1706 139.369 53.7317 132.689C57.1763 123.713 69.8895 121.603 66.9743 108.67Z" fill="#9CD499"/>
<path d="M40.7764 157.755C54.6313 147.4 68.8339 157.065 76.1091 168.11C83.3842 179.158 78.1886 204.008 78.1886 204.008C78.1886 204.008 75.417 204.009 75.417 202.972C75.417 201.936 83.0366 173.631 65.0257 160.86C53.7574 152.87 45.6275 156.719 44.5878 160.514C43.548 164.312 49.0913 171.215 49.0913 171.215L40.7764 157.755Z" fill="#74B570"/>
<path d="M72.6455 136.467C58.7905 136.467 54.287 157.869 58.0952 170.296C61.9066 182.723 67.1022 205.852 67.1022 205.852L70.5659 202.4C70.5659 202.4 57.4031 169.953 60.5192 155.454C63.6353 140.955 71.258 138.539 72.6423 138.539C74.0297 138.539 72.6455 136.467 72.6455 136.467Z" fill="#9CD499"/>
<path d="M61.0228 170.392C60.0468 169.105 58.8444 168.043 57.374 167.338C57.5654 168.368 57.8046 169.356 58.0948 170.297C59.8299 175.961 61.8552 183.843 63.5424 190.746C63.6955 189.862 63.9315 188.499 64.2983 186.398C64.3844 185.902 64.4514 185.362 64.4993 184.793C63.1437 180.191 61.8616 175.182 61.0228 170.392Z" fill="#74B570"/>
<path d="M57.2333 170.496C30.9076 159.449 44.7785 144.292 21.5689 154.303C19.9327 155.009 17.9425 156.785 15.9459 159.239C18.0126 159.824 20.5163 160.243 23.3007 159.827C30.2282 158.791 27.8042 164.315 16.3733 165.694C14.2172 165.955 12.4694 166.314 11.015 166.819C5.5706 177.241 3.11472 190.958 14.6382 195.726C16.9091 196.663 19.7158 197.203 22.8415 197.404C26.3977 194.588 21.9739 178.29 27.4566 180.537C32.7192 182.698 25.8076 194.508 26.7549 197.486C31.9505 197.391 37.7043 196.545 43.1997 195.188C45.3749 193.974 47.0366 192.344 47.5469 190.202C49.2788 182.952 37.8478 178.464 37.5002 172.251C37.1812 166.539 41.6911 184.818 53.6324 187.507C64.4382 182.482 69.5414 175.658 57.2333 170.496Z" fill="#9CD499"/>
<path d="M75.9936 150.963C73.222 145.096 80.4971 143.714 80.1494 148.201C79.8433 152.177 79.8082 161.842 83.9002 164.474C90.9585 163.711 100.562 160.879 107.821 156.557C107.914 155.972 107.824 155.371 107.515 154.758C104.399 148.545 84.3053 143.367 90.5407 141.295C95.5066 139.645 104.207 149.38 111.221 154.288C115.434 151.103 118.254 147.308 118.254 143.072C118.254 137.338 111.263 130.845 102.217 127.743C98.1475 128.153 94.368 130.368 88.4611 133.702C79.738 138.628 81.7569 130.664 90.0016 125.938C82.8828 126.306 75.7831 129.335 70.546 136.578C70.546 136.578 71.0404 139.674 67.7552 144.464C58.7865 157.526 69.1363 165.151 81.5113 164.658C80.8128 161.216 77.9073 155.019 75.9936 150.963Z" fill="#9CD499"/>
<path d="M41.609 157.167C34.8346 162.382 27.3107 168.481 18.0709 172.626C8.83426 176.767 10.6809 190.268 10.6809 190.268C10.6809 190.268 9.29673 178.607 16.9929 174.619C24.6922 170.63 29.773 165.872 35.6224 164.954C41.4719 164.032 44.706 163.113 44.706 163.113C44.706 163.113 42.8593 159.43 43.9373 158.05C45.0153 156.671 41.609 157.167 41.609 157.167Z" fill="#74B570"/>
<path d="M8.21777 95.9121C33.0062 102.51 51.1733 118.313 54.5605 122.149C57.9476 125.985 57.9476 127.059 57.9476 127.059L55.3291 131.97L54.098 131.356C54.098 131.356 56.101 127.215 50.8639 121.844C41.8377 112.582 30.8469 105.272 23.3039 102.053C15.7608 98.8266 8.21777 95.9121 8.21777 95.9121Z" fill="#74B570"/>
<path d="M76.6412 232.641H67.1718C60.4389 232.641 54.9785 227.2 54.9785 220.491V198.809H88.8345V220.491C88.8345 227.2 83.3774 232.641 76.6412 232.641Z" fill="#F39892"/>
</svg>
