<svg width="24" height="24" fill="none" xmlns="http://www.w3.org/2000/svg"><path fill-rule="evenodd" clip-rule="evenodd" d="M18.5 9.483c0 1.673-.257 2.841-1.161 4.346-.93 1.547-2.536 3.437-5.336 6.44-2.803-3.003-4.411-4.894-5.341-6.44C5.757 12.324 5.5 11.156 5.5 9.483 5.5 6.423 8.337 3.5 12 3.5s6.5 2.924 6.5 5.983zm1.5 0c0 3.81-1.245 5.773-7.268 12.203a1 1 0 01-1.457 0C5.245 15.256 4 13.292 4 9.483 4 5.524 7.582 2 12 2s8 3.524 8 7.483zM13.5 10a1.5 1.5 0 11-3 0 1.5 1.5 0 013 0zm1.5 0a3 3 0 11-6 0 3 3 0 016 0z" fill="#66727F"/></svg>