<svg width="24" height="24" fill="none" xmlns="http://www.w3.org/2000/svg"><path fill-rule="evenodd" clip-rule="evenodd" d="M8.308 10.63L7.111 9.533 4.825 7.439 6.221 14.5h11.558l1.417-7.125-2.405 2.166-1.221 1.1-.984-1.317-2.574-3.444-2.705 3.47-.999 1.28zM21 5.994a1.01 1.01 0 00-.09-.575.958.958 0 00-.387-.42.905.905 0 00-1.06.118l-2.556 2.301-1.12 1.008-.902-1.207-2.125-2.843a.945.945 0 00-.323-.275.906.906 0 00-1.141.259L9.049 7.24l-.925 1.187-1.11-1.017-2.45-2.246a.904.904 0 00-1.066-.125.958.958 0 00-.39.422 1.01 1.01 0 00-.088.579L4.988 16h14.021L21 5.994zM6.5 17.538H5V19h14v-1.462H6.5z" fill="#66727F"/></svg>