<svg width="24" height="24" fill="none" xmlns="http://www.w3.org/2000/svg"><path fill-rule="evenodd" clip-rule="evenodd" d="M20.79 17.085c.001.941-.257 1.936-1.013 2.692-.756.756-1.751 1.015-2.693 1.013-.933-.002-1.927-.255-2.9-.651a14.768 14.768 0 01-2.225-1.154c-.76.466-1.512.849-2.234 1.139-.985.395-1.988.647-2.928.649-.948.002-1.953-.255-2.713-1.015-.759-.76-1.009-1.756-.997-2.695.012-.93.276-1.92.686-2.891.303-.719.702-1.466 1.186-2.22a14.649 14.649 0 01-1.097-2.135c-.047-.114-.091-.227-.133-.341a1.5 1.5 0 01-.515-2.754c.032-.882.305-1.794 1.009-2.499.756-.755 1.751-1.014 2.693-1.012.933.002 1.927.254 2.9.651.722.294 1.471.683 2.228 1.155.76-.465 1.511-.848 2.233-1.138.985-.395 1.988-.647 2.929-.649.947-.002 1.952.256 2.712 1.015.759.76 1.009 1.757.997 2.695-.012.93-.276 1.92-.686 2.891a14.86 14.86 0 01-1.186 2.221c.445.725.814 1.44 1.095 2.132.397.973.65 1.967.651 2.9zM5.141 8.973a1.5 1.5 0 00-.425-2.29c.037-.576.221-1.054.567-1.399.987-.987 3.057-.655 5.383.66a23.622 23.622 0 00-2.55 2.173 23.532 23.532 0 00-2.21 2.487 11.862 11.862 0 01-.765-1.631zm.014 9.736c-.988-.988-.628-3.062.73-5.391.645.872 1.393 1.74 2.225 2.572.804.803 1.641 1.529 2.484 2.16-2.361 1.313-4.453 1.644-5.44.659zm4.015-3.88c.915.914 1.864 1.71 2.798 2.364.676-.465 1.36-1 2.034-1.6a1.5 1.5 0 011.62-1.588 20.89 20.89 0 001.615-1.97 21.198 21.198 0 00-2.41-2.863 21.247 21.247 0 00-2.794-2.363 21.715 21.715 0 00-2.857 2.369 21.61 21.61 0 00-2.413 2.791 21.188 21.188 0 002.407 2.86zm7.692.044c.441-.486.853-.978 1.232-1.473 1.283 2.3 1.599 4.339.621 5.317-.987.986-3.055.655-5.38-.658a22.876 22.876 0 001.508-1.21 1.5 1.5 0 002.018-1.977zm1.983-9.578c.988.988.628 3.062-.73 5.39a23.098 23.098 0 00-2.227-2.574 23.172 23.172 0 00-2.481-2.158c2.36-1.312 4.452-1.644 5.438-.658zM12 13a1 1 0 100-2 1 1 0 000 2zm0 1.5a2.5 2.5 0 100-5 2.5 2.5 0 000 5z" fill="#66727F"/></svg>