<svg width="24" height="24" fill="none" xmlns="http://www.w3.org/2000/svg"><path d="M11.917 13.754c.71 0 1.191.335 1.212.35l.01.01.01.011c.241.209.55.319.868.319a1.33 1.33 0 001.327-1.227l.006-.032.01-.031c.209-.752.658-1.17.998-1.389.376-.245.71-.303.726-.303h.031a1.341 1.341 0 001.13-.814c.192-.465.109-.992-.22-1.373l-.021-.027-.016-.03c-.298-.533-.397-1.108-.282-1.666.089-.439.277-.716.298-.742l.01-.01.01-.01c.33-.387.413-.914.22-1.38a1.33 1.33 0 00-1.128-.819l-.032-.005-.031-.01c-1.448-.408-1.683-1.66-1.693-1.718l-.005-.016v-.016a1.338 1.338 0 00-1.327-1.242c-.314 0-.622.115-.868.318l-.026.021-.031.016c-.387.22-.794.329-1.207.329-.293 0-.59-.058-.857-.167a1.598 1.598 0 01-.37-.199l-.006-.005a1.366 1.366 0 00-.862-.313 1.33 1.33 0 00-1.327 1.222l-.006.03-.01.032a2.382 2.382 0 01-.993 1.39c-.365.234-.69.297-.726.302l-.016.005h-.015c-.502.047-.936.36-1.129.825a1.32 1.32 0 00.22 1.373l.02.026.016.032c.298.527.397 1.101.288 1.655a2.172 2.172 0 01-.293.746l-.01.021-.016.016c-.33.381-.413.908-.22 1.373a1.33 1.33 0 001.124.82l.031.005.031.01a2.381 2.381 0 011.385.987c.25.387.308.72.308.736v.032c.042.506.35.934.815 1.128a1.314 1.314 0 001.374-.214l.027-.021.03-.016a2.31 2.31 0 011.208-.345z" stroke="#66727F" stroke-width="1.5"/><path fill-rule="evenodd" clip-rule="evenodd" d="M12.47 13.822a2.308 2.308 0 00-1.76.277l-.031.015-.005.004-2.388 5.091-.719-1.495a.75.75 0 00-.854-.404l-1.602.391 2.67-5.684a2.463 2.463 0 00-1.01-.55l-.032-.01-.031-.005a1.353 1.353 0 01-.292-.057l-3.33 7.088a.75.75 0 00.857 1.048l2.536-.62 1.139 2.372a.75.75 0 001.355-.006l3.497-7.455z" fill="#66727F"/><path fill-rule="evenodd" clip-rule="evenodd" d="M13.129 14.104a2.231 2.231 0 00-1.213-.35c-.15 0-.3.015-.449.045l3.48 8.593a.75.75 0 001.35.083l1.246-2.242 2.471.762a.75.75 0 00.916-.999l-3.488-8.602a1.356 1.356 0 01-.327.068h-.031c-.016 0-.35.058-.726.303-.092.06-.192.133-.294.224l2.882 7.107-1.542-.476a.75.75 0 00-.877.353l-.78 1.402-2.498-6.172a1.255 1.255 0 01-.1-.078l-.01-.01-.01-.011z" fill="#66727F"/><circle cx="12" cy="8" r="2.25" stroke="#66727F" stroke-width="1.5"/></svg>