<svg width="24" height="24" fill="none" xmlns="http://www.w3.org/2000/svg"><path fill-rule="evenodd" clip-rule="evenodd" d="M6.502 6.5a1 1 0 100-2 1 1 0 000 2zm0 1.5a2.5 2.5 0 100-5 2.5 2.5 0 000 5zM12.5 20.5v-4.484a.5.5 0 00-.5-.5H9.717A2.216 2.216 0 017.5 13.299V11.5a1 1 0 10-2 0v3.165c0 .7.54 1.274 1.226 1.329h2.486c.81 0 1.513.555 1.702 1.342l.066.276c.039.104.071.21.097.32l.597 2.568h.826zM4 12h-.977l.963 3.797c.108.423.33.792.63 1.077L3.458 22h1.537l1.02-4.511c.05.003.101.005.152.005h.51c.051.003.103.004.156.004h1.809a1 1 0 01.907.578l.727 3.032.027.119.012.046.174.727H13a1 1 0 001-1v-4.984a2 2 0 00-2-2H9.717A.717.717 0 019 13.299V11.5a2.5 2.5 0 00-5 0v.5zm13.54-.98h.722a2.25 2.25 0 012.195 2.745l-1.462 6.48A2.25 2.25 0 0116.802 22H16v-1.5h.8a.75.75 0 00.732-.585l1.462-6.48a.75.75 0 00-.732-.915H13v-1.5h2.99l1.565-6.021 1.452.377-1.467 5.644z" fill="#66727F"/></svg>