<svg width="18" height="17" viewBox="0 0 18 17" fill="none" xmlns="http://www.w3.org/2000/svg">
<path fill-rule="evenodd" clip-rule="evenodd" d="M1.5 1.5V2.29744L6.60046 6.54782C7.17044 7.02281 7.5 7.72643 7.5 8.46838V14.0389L9.79383 12.6082C10.2331 12.3342 10.5 11.8531 10.5 11.3355V8.46838C10.5 7.72643 10.8296 7.02281 11.3995 6.54782L16.5 2.29744V1.5H1.5ZM18 3L12.3598 7.70015C12.1318 7.89015 12 8.1716 12 8.46838V11.3355C12 12.3708 11.4661 13.333 10.5877 13.8809L7.14692 16.027C6.64736 16.3386 6 15.9794 6 15.3906V8.46838C6 8.1716 5.86818 7.89015 5.64018 7.70015L0 3V1C0 0.447715 0.447715 0 1 0H17C17.5523 0 18 0.447715 18 1V3Z" fill="#0D4CD3"/>
</svg>
