<svg width="20" height="18" viewBox="0 0 20 18" fill="none" xmlns="http://www.w3.org/2000/svg">
<path fill-rule="evenodd" clip-rule="evenodd" d="M18.5 15.1598V1.66743L14.5708 2.81296C13.8029 3.03684 12.9891 3.05199 12.2134 2.85682L7.01144 1.54808C6.76966 1.48726 6.51653 1.48765 6.27494 1.54924L1.5 2.76644V16.3119L5.27272 15.1333C6.07938 14.8813 6.9407 14.8616 7.75805 15.0764L12.9767 16.4476C13.2302 16.5142 13.4966 16.5132 13.7496 16.4448L18.5 15.1598ZM19.2611 16.5079L14.1412 17.8927C13.6353 18.0296 13.1024 18.0315 12.5956 17.8983L7.37687 16.5271C6.83196 16.3839 6.25775 16.3971 5.71998 16.5651L1.29817 17.9464C0.654264 18.1476 0 17.6665 0 16.9919V2.37791C0 1.92077 0.310003 1.52182 0.752983 1.4089L5.90442 0.0957188C6.3876 -0.0274508 6.89386 -0.0282427 7.37742 0.0934143L12.5794 1.40215C13.0965 1.53226 13.639 1.52217 14.151 1.37291L18.7201 0.0408094C19.3601 -0.145771 20 0.334223 20 1.00084V15.5426C20 15.9943 19.6972 16.3899 19.2611 16.5079ZM7.23245 8.85079C8.20298 7.63431 8.5 7.01419 8.5 6.3575C8.5 5.60009 7.82843 4.98609 7 4.98609C6.17157 4.98609 5.5 5.60009 5.5 6.3575C5.5 7.12219 5.80363 7.6426 6.76829 8.85013C6.8869 8.99859 7.11394 8.99933 7.23245 8.85079Z" fill="#0D4CD3"/>
</svg>
