<svg width="24" height="24" fill="none" xmlns="http://www.w3.org/2000/svg"><path fill-rule="evenodd" clip-rule="evenodd" d="M2.588 9.756L12 5.548l9.413 4.208L12 13.965 2.588 9.756zm9.82-5.669l11.149 4.985a.75.75 0 010 1.369l-4.561 2.039v3.393c0 .746-.332 1.453-.907 1.93a9.535 9.535 0 01-12.174 0 2.507 2.507 0 01-.907-1.93v-3.391l-1.776-.794v3.803h-1.5v-4.474l-1.288-.576a.75.75 0 010-1.37l11.148-4.984a1 1 0 01.816 0zm-5.9 9.065v2.72c0 .3.134.584.364.776a8.035 8.035 0 0010.26 0c.23-.192.364-.476.364-.775V13.15l-5.088 2.274a1 1 0 01-.816 0l-5.084-2.273z" fill="#66727F"/></svg>