<svg width="48" height="24" fill="none" xmlns="http://www.w3.org/2000/svg"><path d="M6.986 24c-3.092 0-5.015-3.358-3.45-6.025L11.181 4.95a8 8 0 016.9-3.95H44a4 4 0 014 4v15a4 4 0 01-4 4H6.986z" fill="#1D5DEB"/><path d="M31.009 18h-1.456a.634.634 0 01-.399-.119.79.79 0 01-.231-.308l-.756-2.065h-4.193l-.756 2.065a.671.671 0 01-.217.294.605.605 0 01-.399.133h-1.47l3.983-10.122h1.918L31.009 18zm-6.552-3.822h3.227l-1.232-3.367a7.9 7.9 0 01-.189-.525c-.065-.205-.13-.427-.196-.665-.065.238-.13.46-.196.665a6.55 6.55 0 01-.182.539l-1.232 3.353zm5.589-6.3h1.512c.163 0 .296.04.399.119.103.08.18.182.231.308l2.387 6.174c.08.2.154.422.224.665.075.238.145.488.21.749.051-.261.11-.511.175-.749a7.38 7.38 0 01.224-.665l2.373-6.174a.672.672 0 01.217-.294.634.634 0 01.406-.133h1.519L35.835 18h-1.701L30.046 7.878zM42.861 18h-1.89V7.878h1.89V18z" fill="#fff"/></svg>