<svg width="48" height="24" fill="none" xmlns="http://www.w3.org/2000/svg"><g clip-path="url(#clip0)"><path d="M6.986 24c-3.092 0-5.015-3.358-3.45-6.025L11.181 4.95a8 8 0 016.9-3.95H44a4 4 0 014 4v15a4 4 0 01-4 4H6.985z" fill="#0B40B3"/><path d="M31.927 17.02a5.42 5.42 0 01-1.645.833c-.579.173-1.2.26-1.862.26-.826 0-1.575-.13-2.247-.386a5.068 5.068 0 01-1.715-1.07 4.713 4.713 0 01-1.092-1.639 5.494 5.494 0 01-.385-2.079c0-.76.124-1.458.371-2.093a4.746 4.746 0 011.05-1.638 4.739 4.739 0 011.659-1.064c.649-.252 1.377-.378 2.184-.378.41 0 .793.033 1.148.098.36.065.69.156.994.273.308.112.588.25.84.413.252.163.483.343.693.54l-.539.853a.529.529 0 01-.329.252c-.135.028-.282-.007-.441-.105l-.462-.266a2.94 2.94 0 00-.518-.23 4.086 4.086 0 00-.637-.162 4.63 4.63 0 00-.812-.063c-.5 0-.952.084-1.358.252a2.871 2.871 0 00-1.029.721 3.25 3.25 0 00-.658 1.127 4.417 4.417 0 00-.231 1.47 4.6 4.6 0 00.245 1.554c.168.453.401.838.7 1.155.303.313.667.553 1.092.721.425.163.898.245 1.421.245.373 0 .707-.037 1.001-.112.294-.08.581-.187.861-.322v-1.84h-1.274a.404.404 0 01-.287-.099.356.356 0 01-.098-.252v-1.064h3.36v4.095zM35.281 18h-1.89V7.878h1.89V18zM43.581 7.878v1.498h-4.494v2.996h3.794v1.505h-3.794V18h-1.89V7.878h6.384z" fill="#fff"/></g><defs><clipPath id="clip0"><path fill="#fff" d="M0 0h48v24H0z"/></clipPath></defs></svg>