<svg width="48" height="24" fill="none" xmlns="http://www.w3.org/2000/svg"><path d="M6.986 24c-3.092 0-5.015-3.358-3.45-6.025L11.181 4.95a8 8 0 016.9-3.95H44a4 4 0 014 4v15a4 4 0 01-4 4H6.986z" fill="#1D5DEB"/><path d="M20.746 13.8c.079.15.151.306.217.469.07.159.137.32.203.483a9.96 9.96 0 01.427-.966l2.989-5.607a.706.706 0 01.119-.168.399.399 0 01.133-.091.63.63 0 01.168-.035 2.88 2.88 0 01.217-.007h1.42V18h-1.658v-6.538c0-.121.002-.254.007-.399.009-.145.02-.292.035-.441l-3.06 5.74c-.144.275-.366.413-.664.413h-.266c-.3 0-.52-.138-.665-.413l-3.094-5.761c.014.154.025.306.035.455.009.145.014.28.014.406V18h-1.66V7.878h1.422c.084 0 .156.002.217.007.06.005.114.016.16.035a.324.324 0 01.134.091.709.709 0 01.119.168l3.03 5.621zm9.755.637V18h-1.883V7.878h3.29c.677 0 1.262.08 1.757.238.495.159.903.38 1.225.665.322.285.56.625.714 1.022.159.397.238.83.238 1.302 0 .49-.082.94-.245 1.351a2.801 2.801 0 01-.735 1.05c-.327.294-.737.523-1.232.686-.49.163-1.064.245-1.722.245H30.5zm0-1.47h1.407c.345 0 .646-.042.903-.126a1.74 1.74 0 00.637-.371c.173-.163.3-.36.385-.588a2.28 2.28 0 00.126-.777c0-.27-.042-.516-.126-.735a1.453 1.453 0 00-.378-.56 1.645 1.645 0 00-.637-.35 2.935 2.935 0 00-.91-.126H30.5v3.633zm11.867 1.218h1.274v1.001c0 .093-.03.175-.091.245-.06.065-.147.098-.26.098h-.923V18h-1.505v-2.471h-4.27a.483.483 0 01-.308-.105.484.484 0 01-.168-.273l-.182-.875 4.795-6.405h1.638v6.314zm-1.505-3.311c0-.313.02-.656.063-1.029l-3.143 4.34h3.08v-3.311z" fill="#fff"/></svg>