<svg width="48" height="24" fill="none" xmlns="http://www.w3.org/2000/svg"><g clip-path="url(#clip0)"><path d="M6.986 24c-3.092 0-5.015-3.358-3.45-6.025L11.181 4.95a8 8 0 016.9-3.95H44a4 4 0 014 4v15a4 4 0 01-4 4H6.985z" fill="#1D5DEB"/><path d="M19.688 13.8c.08.15.152.306.217.469.07.159.138.32.203.483a9.96 9.96 0 01.427-.966l2.99-5.607a.706.706 0 01.118-.168.399.399 0 01.133-.091.63.63 0 01.168-.035 2.88 2.88 0 01.217-.007h1.421V18h-1.659v-6.538c0-.121.003-.254.007-.4.01-.144.021-.29.035-.44l-3.059 5.74c-.144.275-.366.413-.665.413h-.266c-.298 0-.52-.138-.665-.413L16.216 10.6c.014.154.026.306.035.455.01.145.014.28.014.406V18h-1.659V7.878h1.421c.084 0 .157.002.217.007.061.005.115.016.161.035a.324.324 0 01.133.09.709.709 0 01.12.169l3.03 5.62zM28.954 14.437V18H27.07V7.878h3.29c.677 0 1.262.08 1.757.238.494.159.903.38 1.225.665.322.285.56.625.714 1.022.158.397.238.83.238 1.302 0 .49-.082.94-.245 1.35a2.801 2.801 0 01-.735 1.05c-.327.295-.737.524-1.232.687-.49.163-1.064.245-1.722.245h-1.407zm0-1.47h1.407c.345 0 .646-.042.903-.126a1.74 1.74 0 00.637-.371c.173-.163.3-.36.385-.588a2.28 2.28 0 00.126-.777c0-.27-.042-.516-.126-.735a1.453 1.453 0 00-.378-.56 1.645 1.645 0 00-.637-.35 2.935 2.935 0 00-.91-.126h-1.407v3.633zM43.313 17.02a5.418 5.418 0 01-1.645.833c-.579.173-1.2.26-1.862.26-.826 0-1.575-.13-2.247-.386a5.069 5.069 0 01-1.715-1.07 4.716 4.716 0 01-1.092-1.639 5.494 5.494 0 01-.385-2.079c0-.76.123-1.458.37-2.093a4.746 4.746 0 011.05-1.638 4.739 4.739 0 011.66-1.064c.648-.252 1.376-.378 2.184-.378.41 0 .793.033 1.148.098.359.065.69.156.994.273.308.112.588.25.84.413.252.163.483.343.693.54l-.54.853a.529.529 0 01-.328.252c-.136.028-.283-.007-.441-.105l-.462-.266a2.94 2.94 0 00-.518-.23 4.086 4.086 0 00-.637-.162 4.629 4.629 0 00-.812-.063c-.5 0-.952.084-1.358.252a2.873 2.873 0 00-1.03.721 3.25 3.25 0 00-.657 1.127 4.417 4.417 0 00-.231 1.47c0 .579.081 1.097.245 1.554.168.453.401.838.7 1.155.303.313.667.553 1.092.721.424.163.898.245 1.42.245.374 0 .708-.037 1.002-.112.294-.08.58-.187.86-.322v-1.84h-1.273a.404.404 0 01-.287-.099.356.356 0 01-.098-.252v-1.064h3.36v4.095z" fill="#fff"/></g><defs><clipPath id="clip0"><path fill="#fff" d="M0 0h48v24H0z"/></clipPath></defs></svg>