<svg width="48" height="24" fill="none" xmlns="http://www.w3.org/2000/svg"><g clip-path="url(#clip0)"><path d="M6.986 24c-3.092 0-5.015-3.358-3.45-6.025L11.181 4.95a8 8 0 016.9-3.95H44a4 4 0 014 4v15a4 4 0 01-4 4H6.985z" fill="#FF8A00"/><path d="M19.902 14.437V18h-1.883V7.878h3.29c.677 0 1.262.08 1.757.238.495.159.903.38 1.225.665.322.285.56.625.714 1.022.159.397.238.83.238 1.302 0 .49-.082.94-.245 1.35a2.804 2.804 0 01-.735 1.05c-.327.295-.737.524-1.232.687-.49.163-1.064.245-1.722.245h-1.407zm0-1.47h1.407c.345 0 .646-.042.903-.126a1.74 1.74 0 00.637-.371c.173-.163.301-.36.385-.588a2.28 2.28 0 00.126-.777c0-.27-.042-.516-.126-.735a1.453 1.453 0 00-.378-.56 1.646 1.646 0 00-.637-.35 2.936 2.936 0 00-.91-.126h-1.407v3.633zM35.605 12.939c0 .742-.124 1.423-.371 2.044a4.694 4.694 0 01-1.043 1.603 4.666 4.666 0 01-1.617 1.043c-.63.247-1.33.37-2.1.37h-3.857V7.879h3.857c.77 0 1.47.126 2.1.378.63.247 1.169.595 1.617 1.043a4.62 4.62 0 011.043 1.596c.247.62.37 1.302.37 2.044zm-1.932 0c0-.555-.075-1.052-.224-1.491a2.993 2.993 0 00-.637-1.12 2.72 2.72 0 00-1.008-.707 3.43 3.43 0 00-1.33-.245h-1.967v7.126h1.967a3.43 3.43 0 001.33-.245 2.759 2.759 0 001.008-.7c.28-.308.492-.681.637-1.12.15-.443.224-.943.224-1.498zM43.581 7.878v1.498h-4.494v2.996h3.794v1.505h-3.794V18h-1.89V7.878h6.384z" fill="#fff"/></g><defs><clipPath id="clip0"><path fill="#fff" d="M0 0h48v24H0z"/></clipPath></defs></svg>