<svg width="48" height="24" fill="none" xmlns="http://www.w3.org/2000/svg"><g clip-path="url(#clip0)"><path d="M6.986 24c-3.092 0-5.015-3.358-3.45-6.025L11.181 4.95a8 8 0 016.9-3.95H44a4 4 0 014 4v15a4 4 0 01-4 4H6.985z" fill="#851F82"/><path d="M20.02 14.437V18h-1.883V7.878h3.29c.676 0 1.262.08 1.757.238.494.159.903.38 1.225.665.322.285.56.625.714 1.022.158.397.238.83.238 1.302 0 .49-.082.94-.245 1.35a2.801 2.801 0 01-.735 1.05c-.327.295-.738.524-1.232.687-.49.163-1.064.245-1.722.245H20.02zm0-1.47h1.407c.345 0 .646-.042.903-.126a1.74 1.74 0 00.637-.371c.172-.163.3-.36.385-.588a2.28 2.28 0 00.126-.777c0-.27-.042-.516-.126-.735a1.453 1.453 0 00-.378-.56 1.645 1.645 0 00-.637-.35 2.935 2.935 0 00-.91-.126H20.02v3.633zM29.318 14.437V18h-1.883V7.878h3.29c.676 0 1.262.08 1.757.238.494.159.903.38 1.225.665.322.285.56.625.714 1.022.158.397.238.83.238 1.302 0 .49-.082.94-.245 1.35a2.801 2.801 0 01-.735 1.05c-.327.295-.738.524-1.232.687-.49.163-1.064.245-1.722.245h-1.407zm0-1.47h1.407c.345 0 .646-.042.903-.126a1.74 1.74 0 00.637-.371c.172-.163.3-.36.385-.588a2.28 2.28 0 00.126-.777c0-.27-.042-.516-.126-.735a1.453 1.453 0 00-.378-.56 1.645 1.645 0 00-.637-.35 2.936 2.936 0 00-.91-.126h-1.407v3.633zM43.802 7.878v1.547H40.75V18h-1.883V9.425h-3.052V7.878h7.987z" fill="#fff"/></g><defs><clipPath id="clip0"><path fill="#fff" d="M0 0h48v24H0z"/></clipPath></defs></svg>