<svg width="48" height="24" fill="none" xmlns="http://www.w3.org/2000/svg"><g clip-path="url(#clip0)"><path d="M6.986 24c-3.092 0-5.015-3.358-3.45-6.025L11.181 4.95a8 8 0 016.9-3.95H44a4 4 0 014 4v15a4 4 0 01-4 4H6.985z" fill="#0D4CD3"/><path d="M20.27 14.045V18h-1.884V7.878h3.087c.686 0 1.274.072 1.764.217.495.14.899.338 1.211.595.318.257.55.565.7.924a3 3 0 01.224 1.176c0 .34-.051.663-.154.966a2.69 2.69 0 01-.434.826 2.84 2.84 0 01-.7.65c-.275.188-.59.337-.945.449.238.135.444.329.616.58L26.29 18h-1.7c-.323 0-.556-.126-.7-.378L21.76 14.38a.735.735 0 00-.266-.26c-.093-.05-.233-.076-.42-.076h-.805zm0-1.351h1.175c.355 0 .663-.044.924-.133.266-.089.483-.21.651-.364.173-.159.301-.345.385-.56.084-.215.126-.45.126-.707 0-.513-.17-.908-.51-1.183-.337-.275-.852-.413-1.548-.413H20.27v3.36zM35.033 7.878v1.547H31.98V18h-1.883V9.425h-3.052V7.878h7.987zM43.581 7.878v1.498h-4.494v2.996h3.794v1.505h-3.794V18h-1.89V7.878h6.384z" fill="#fff"/></g><defs><clipPath id="clip0"><path fill="#fff" d="M0 0h48v24H0z"/></clipPath></defs></svg>