<svg width="48" height="24" fill="none" xmlns="http://www.w3.org/2000/svg"><g clip-path="url(#clip0)"><path d="M6.986 24c-3.092 0-5.015-3.358-3.45-6.025L11.181 4.95a8 8 0 016.9-3.95H44a4 4 0 014 4v15a4 4 0 01-4 4H6.985z" fill="#86909C"/><path d="M27.819 9.72a.668.668 0 01-.182.216.396.396 0 01-.231.063.636.636 0 01-.322-.105 6.141 6.141 0 00-.406-.245 3.152 3.152 0 00-.56-.238 2.24 2.24 0 00-.749-.112c-.261 0-.49.033-.686.098-.196.06-.362.147-.497.26a1.06 1.06 0 00-.294.405 1.296 1.296 0 00-.098.511c0 .238.065.436.196.595.135.159.313.294.532.406.22.112.469.212.749.301s.567.184.861.287c.294.098.581.215.861.35.28.13.53.299.749.504.22.2.394.448.525.742.135.294.203.651.203 1.071 0 .457-.08.887-.238 1.288a2.94 2.94 0 01-.686 1.043 3.263 3.263 0 01-1.099.7c-.434.168-.931.252-1.491.252-.322 0-.64-.033-.952-.098a4.912 4.912 0 01-.903-.266 4.883 4.883 0 01-.805-.42 3.895 3.895 0 01-.672-.546l.553-.903a.554.554 0 01.182-.16.441.441 0 01.238-.07c.117 0 .243.048.378.146.135.093.296.198.483.315.187.117.404.224.651.322.252.093.553.14.903.14.537 0 .952-.126 1.246-.378.294-.257.441-.623.441-1.099 0-.266-.068-.483-.203-.65a1.535 1.535 0 00-.525-.42 3.791 3.791 0 00-.749-.295 24.88 24.88 0 01-.854-.259 7.355 7.355 0 01-.854-.336c-.28-.13-.53-.3-.749-.51a2.376 2.376 0 01-.532-.785c-.13-.317-.196-.707-.196-1.169 0-.369.072-.728.217-1.078.15-.35.364-.66.644-.93.28-.272.625-.489 1.036-.652.41-.163.882-.245 1.414-.245.597 0 1.148.093 1.652.28.504.187.933.448 1.288.784l-.469.89zM32.352 18h-1.89V7.878h1.89V18zM43.313 17.02a5.418 5.418 0 01-1.645.833c-.579.173-1.2.26-1.862.26-.826 0-1.575-.13-2.247-.386a5.069 5.069 0 01-1.715-1.07 4.716 4.716 0 01-1.092-1.639 5.494 5.494 0 01-.385-2.079c0-.76.123-1.458.37-2.093a4.746 4.746 0 011.05-1.638 4.739 4.739 0 011.66-1.064c.648-.252 1.376-.378 2.184-.378.41 0 .793.033 1.148.098.359.065.69.156.994.273.308.112.588.25.84.413.252.163.483.343.693.54l-.54.853a.529.529 0 01-.328.252c-.136.028-.283-.007-.441-.105l-.462-.266a2.94 2.94 0 00-.518-.23 4.086 4.086 0 00-.637-.162 4.629 4.629 0 00-.812-.063c-.5 0-.952.084-1.358.252a2.873 2.873 0 00-1.03.721 3.25 3.25 0 00-.657 1.127 4.417 4.417 0 00-.231 1.47c0 .579.081 1.097.245 1.554.168.453.401.838.7 1.155.303.313.667.553 1.092.721.424.163.898.245 1.42.245.374 0 .708-.037 1.002-.112.294-.08.58-.187.86-.322v-1.84h-1.273a.404.404 0 01-.287-.099.356.356 0 01-.098-.252v-1.064h3.36v4.095z" fill="#fff"/></g><defs><clipPath id="clip0"><path fill="#fff" d="M0 0h48v24H0z"/></clipPath></defs></svg>