<svg width="48" height="24" fill="none" xmlns="http://www.w3.org/2000/svg"><g clip-path="url(#clip0)"><path d="M6.986 24c-3.092 0-5.015-3.358-3.45-6.025L11.181 4.95a8 8 0 016.9-3.95H44a4 4 0 014 4v15a4 4 0 01-4 4H6.985z" fill="#0B40B3"/><path d="M31.156 7.878v1.547h-3.052V18h-1.883V9.425H23.17V7.878h7.987zM34.651 18h-1.89V7.878h1.89V18zM43.581 7.878v1.498h-4.494v2.996h3.794v1.505h-3.794V18h-1.89V7.878h6.384z" fill="#fff"/></g><defs><clipPath id="clip0"><path fill="#fff" d="M0 0h48v24H0z"/></clipPath></defs></svg>