<svg width="48" height="24" fill="none" xmlns="http://www.w3.org/2000/svg"><g clip-path="url(#clip0)"><path d="M6.986 24c-3.092 0-5.015-3.358-3.45-6.025L11.181 4.95a8 8 0 016.9-3.95H44a4 4 0 014 4v15a4 4 0 01-4 4H6.985z" fill="#12826E"/><path d="M21.772 12.792l-3.227-4.914h1.876c.13 0 .224.019.28.056.06.033.116.089.168.168l2.296 3.71a2.665 2.665 0 01.175-.35l2.114-3.325a.595.595 0 01.168-.196.397.397 0 01.23-.063h1.8l-3.255 4.837L27.743 18h-1.876a.48.48 0 01-.315-.098.835.835 0 01-.182-.224L23.025 13.8c-.033.103-.077.2-.133.294l-2.247 3.584c-.056.08-.122.154-.196.224a.394.394 0 01-.28.098h-1.757l3.36-5.208zM31.423 16.446h4.046V18H29.54V7.878h1.883v8.568zM42.833 9.72a.669.669 0 01-.182.216.397.397 0 01-.23.063.636.636 0 01-.323-.105 6.141 6.141 0 00-.406-.245 3.155 3.155 0 00-.56-.238 2.24 2.24 0 00-.749-.112c-.261 0-.49.033-.686.098-.196.06-.361.147-.497.26-.13.111-.229.246-.294.405a1.296 1.296 0 00-.098.511c0 .238.066.436.196.595.136.159.313.294.532.406.22.112.47.212.75.301s.566.184.86.287c.294.098.581.215.861.35.28.13.53.299.75.504.218.2.394.448.524.742.136.294.203.651.203 1.071 0 .457-.08.887-.238 1.288a2.942 2.942 0 01-.686 1.043 3.264 3.264 0 01-1.099.7c-.434.168-.93.252-1.49.252-.323 0-.64-.033-.953-.098a4.907 4.907 0 01-.903-.266 4.88 4.88 0 01-.805-.42 3.895 3.895 0 01-.672-.546l.553-.903a.553.553 0 01.182-.16.441.441 0 01.238-.07c.117 0 .243.048.378.146.136.093.297.198.483.315.187.117.404.224.651.322.252.093.553.14.903.14.537 0 .952-.126 1.246-.378.294-.257.441-.623.441-1.099 0-.266-.068-.483-.203-.65a1.537 1.537 0 00-.525-.42 3.791 3.791 0 00-.749-.295c-.28-.08-.564-.166-.854-.259a7.355 7.355 0 01-.854-.336c-.28-.13-.53-.3-.749-.51a2.375 2.375 0 01-.532-.785c-.13-.317-.196-.707-.196-1.169 0-.369.072-.728.217-1.078.15-.35.364-.66.644-.93.28-.272.626-.489 1.036-.652.41-.163.882-.245 1.414-.245.597 0 1.148.093 1.652.28a3.73 3.73 0 011.288.784l-.469.89z" fill="#fff"/></g><defs><clipPath id="clip0"><path fill="#fff" d="M0 0h48v24H0z"/></clipPath></defs></svg>