<svg width="48" height="24" fill="none" xmlns="http://www.w3.org/2000/svg"><g clip-path="url(#clip0)"><path d="M6.986 24c-3.092 0-5.015-3.358-3.45-6.025L11.181 4.95a8 8 0 016.9-3.95H44a4 4 0 014 4v15a4 4 0 01-4 4H6.985z" fill="#86909C"/><path d="M18.46 12.792l-3.226-4.914h1.876c.13 0 .224.019.28.056.06.033.116.089.168.168l2.296 3.71a2.723 2.723 0 01.175-.35l2.114-3.325a.597.597 0 01.168-.196.397.397 0 01.23-.063h1.8l-3.255 4.837L24.432 18h-1.876a.48.48 0 01-.315-.098.836.836 0 01-.182-.224L19.714 13.8c-.033.103-.077.2-.133.294l-2.247 3.584c-.056.08-.122.154-.196.224a.394.394 0 01-.28.098H15.1l3.36-5.208zM30.191 13.8c.08.15.152.306.217.469.07.159.138.32.203.483a9.96 9.96 0 01.427-.966l2.99-5.607a.706.706 0 01.118-.168.399.399 0 01.133-.091.63.63 0 01.168-.035c.061-.005.133-.007.217-.007h1.421V18h-1.659v-6.538c0-.121.003-.254.007-.4.01-.144.021-.29.035-.44l-3.059 5.74c-.144.275-.366.413-.665.413h-.266c-.298 0-.52-.138-.665-.413L26.72 10.6c.014.154.026.306.035.455.01.145.014.28.014.406V18H25.11V7.878h1.421c.084 0 .157.002.217.007.061.005.115.016.161.035a.324.324 0 01.133.09.706.706 0 01.12.169l3.03 5.62zM39.736 16.446h4.047V18h-5.93V7.878h1.883v8.568z" fill="#fff"/></g><defs><clipPath id="clip0"><path fill="#fff" d="M0 0h48v24H0z"/></clipPath></defs></svg>