<svg width="164" height="44" viewBox="0 0 164 44" fill="none" xmlns="http://www.w3.org/2000/svg">
<g clip-path="url(#clip0_2:21)">
<path d="M24.5 2.28867C22.953 1.39551 21.047 1.39551 19.5 2.28868L6.1795 9.97927C4.6325 10.8724 3.6795 12.5231 3.6795 14.3094V29.6906C3.6795 31.4769 4.6325 33.1276 6.1795 34.0207L19.5 41.7113C21.047 42.6045 22.953 42.6045 24.5 41.7113L37.8205 34.0207C39.3675 33.1276 40.3205 31.4769 40.3205 29.6906V14.3094C40.3205 12.5231 39.3675 10.8724 37.8205 9.97927L24.5 2.28867Z" fill="#EE3F58" stroke="white" stroke-width="2"/>
<path fill-rule="evenodd" clip-rule="evenodd" d="M24.0002 3.15467C22.7626 2.44014 21.2378 2.44014 20.0002 3.15467L6.67969 10.8453C5.44208 11.5598 4.67969 12.8803 4.67969 14.3094V21.9999H39.3207V14.3094C39.3207 12.8803 38.5583 11.5598 37.3207 10.8453L24.0002 3.15467Z" fill="#0D4CD3"/>
<path d="M20 7.1547C21.2376 6.44017 22.7624 6.44017 24 7.1547L33.8564 12.8453C35.094 13.5598 35.8564 14.8803 35.8564 16.3094V27.6906C35.8564 29.1197 35.094 30.4402 33.8564 31.1547L24 36.8453C22.7624 37.5598 21.2376 37.5598 20 36.8453L10.1436 31.1547C8.90599 30.4402 8.14359 29.1197 8.14359 27.6906V16.3094C8.14359 14.8803 8.90599 13.5598 10.1436 12.8453L20 7.1547Z" fill="white"/>
<path d="M63 3.15479C64.2376 2.44026 65.7623 2.44026 67 3.15479L80.3205 10.8454C81.5581 11.5599 82.3205 12.8804 82.3205 14.3095V29.6907C82.3205 31.1198 81.5581 32.4403 80.3205 33.1548L67 40.8454C65.7623 41.5599 64.2376 41.5599 63 40.8454L49.6794 33.1548C48.4418 32.4403 47.6794 31.1198 47.6794 29.6907V14.3095C47.6794 12.8804 48.4418 11.5599 49.6794 10.8454L63 3.15479Z" fill="#EE3F58"/>
<path fill-rule="evenodd" clip-rule="evenodd" d="M68 1.42274L81.3205 9.11334C83.1769 10.1851 84.3205 12.1659 84.3205 14.3095V29.6907C84.3205 31.8343 83.1769 33.8151 81.3205 34.8868L68 42.5774C66.1435 43.6492 63.8564 43.6492 62 42.5774L48.6794 34.8868C46.823 33.8151 45.6794 31.8343 45.6794 29.6907V14.3095C45.6794 12.1659 46.823 10.1851 48.6794 9.11334L62 1.42274C63.8564 0.350948 66.1435 0.350948 68 1.42274ZM67 3.15479C65.7623 2.44026 64.2376 2.44026 63 3.15479L49.6794 10.8454C48.4418 11.5599 47.6794 12.8804 47.6794 14.3095V29.6907C47.6794 31.1198 48.4418 32.4403 49.6794 33.1548L63 40.8454C64.2376 41.5599 65.7623 41.5599 67 40.8454L80.3205 33.1548C81.5581 32.4403 82.3205 31.1198 82.3205 29.6907V14.3095C82.3205 12.8804 81.5581 11.5599 80.3205 10.8454L67 3.15479Z" fill="white"/>
<path d="M63 7.1547C64.2376 6.44017 65.7624 6.44017 67 7.1547L76.8564 12.8453C78.094 13.5598 78.8564 14.8803 78.8564 16.3094V27.6906C78.8564 29.1197 78.094 30.4402 76.8564 31.1547L67 36.8453C65.7624 37.5598 64.2376 37.5598 63 36.8453L53.1436 31.1547C51.906 30.4402 51.1436 29.1197 51.1436 27.6906V16.3094C51.1436 14.8803 51.906 13.5598 53.1436 12.8453L63 7.1547Z" fill="white"/>
<path d="M103 3.15479C104.238 2.44026 105.762 2.44026 107 3.15479L120.321 10.8454C121.558 11.5599 122.321 12.8804 122.321 14.3095V29.6907C122.321 31.1198 121.558 32.4403 120.321 33.1548L107 40.8454C105.762 41.5599 104.238 41.5599 103 40.8454L89.6794 33.1548C88.4418 32.4403 87.6794 31.1198 87.6794 29.6907V14.3095C87.6794 12.8804 88.4418 11.5599 89.6794 10.8454L103 3.15479Z" fill="#0D4CD3"/>
<path fill-rule="evenodd" clip-rule="evenodd" d="M108 1.42274L121.32 9.11334C123.177 10.1851 124.32 12.1659 124.32 14.3095V29.6907C124.32 31.8343 123.177 33.8151 121.32 34.8868L108 42.5774C106.143 43.6492 103.856 43.6492 102 42.5774L88.6794 34.8868C86.823 33.8151 85.6794 31.8343 85.6794 29.6907V14.3095C85.6794 12.1659 86.823 10.1851 88.6794 9.11334L102 1.42274C103.856 0.350948 106.143 0.350948 108 1.42274ZM107 3.15479C105.762 2.44026 104.238 2.44026 103 3.15479L89.6794 10.8454C88.4418 11.5599 87.6794 12.8804 87.6794 14.3095V29.6907C87.6794 31.1198 88.4418 32.4403 89.6794 33.1548L103 40.8454C104.238 41.5599 105.762 41.5599 107 40.8454L120.32 33.1548C121.558 32.4403 122.32 31.1198 122.32 29.6907V14.3095C122.32 12.8804 121.558 11.5599 120.32 10.8454L107 3.15479Z" fill="white"/>
<path d="M103 7.1547C104.238 6.44017 105.762 6.44017 107 7.1547L116.856 12.8453C118.094 13.5598 118.856 14.8803 118.856 16.3094V27.6906C118.856 29.1197 118.094 30.4402 116.856 31.1547L107 36.8453C105.762 37.5598 104.238 37.5598 103 36.8453L93.1436 31.1547C91.906 30.4402 91.1436 29.1197 91.1436 27.6906V16.3094C91.1436 14.8803 91.906 13.5598 93.1436 12.8453L103 7.1547Z" fill="white"/>
<path d="M143.001 3.15479C144.239 2.44026 145.763 2.44026 147.001 3.15479L160.322 10.8454C161.559 11.5599 162.322 12.8804 162.322 14.3095V29.6907C162.322 31.1198 161.559 32.4403 160.322 33.1548L147.001 40.8454C145.763 41.5599 144.239 41.5599 143.001 40.8454L129.68 33.1548C128.442 32.4403 127.68 31.1198 127.68 29.6907V14.3095C127.68 12.8804 128.442 11.5599 129.68 10.8454L143.001 3.15479Z" fill="#4D83FA"/>
<path fill-rule="evenodd" clip-rule="evenodd" d="M148.001 1.42274L161.321 9.11334C163.178 10.1851 164.321 12.1659 164.321 14.3095V29.6907C164.321 31.8343 163.178 33.8151 161.321 34.8868L148.001 42.5774C146.144 43.6492 143.857 43.6492 142.001 42.5774L128.68 34.8868C126.824 33.8151 125.68 31.8343 125.68 29.6907V14.3095C125.68 12.1659 126.824 10.1851 128.68 9.11334L142.001 1.42274C143.857 0.350948 146.144 0.350948 148.001 1.42274ZM147.001 3.15479C145.763 2.44026 144.239 2.44026 143.001 3.15479L129.68 10.8454C128.442 11.5599 127.68 12.8804 127.68 14.3095V29.6907C127.68 31.1198 128.442 32.4403 129.68 33.1548L143.001 40.8454C144.239 41.5599 145.763 41.5599 147.001 40.8454L160.321 33.1548C161.559 32.4403 162.321 31.1198 162.321 29.6907V14.3095C162.321 12.8804 161.559 11.5599 160.321 10.8454L147.001 3.15479Z" fill="white"/>
<path d="M143.001 7.1547C144.239 6.44017 145.763 6.44017 147.001 7.1547L156.857 12.8453C158.095 13.5598 158.857 14.8803 158.857 16.3094V27.6906C158.857 29.1197 158.095 30.4402 156.857 31.1547L147.001 36.8453C145.763 37.5598 144.239 37.5598 143.001 36.8453L133.144 31.1547C131.907 30.4402 131.144 29.1197 131.144 27.6906V16.3094C131.144 14.8803 131.907 13.5598 133.144 12.8453L143.001 7.1547Z" fill="white"/>
</g>
<defs>
<clipPath id="clip0_2:21">
<rect width="164" height="44" fill="white"/>
</clipPath>
</defs>
</svg>
