<svg width="151" height="56" viewBox="0 0 151 56" fill="none" xmlns="http://www.w3.org/2000/svg">
<path fill-rule="evenodd" clip-rule="evenodd" d="M53 14.846C51.7624 14.1314 50.2376 14.1314 49 14.846L39.1436 20.5366C37.906 21.2511 37.1436 22.5716 37.1436 24.0007V35.3819C37.1436 36.8109 37.906 38.1314 39.1436 38.846L42.696 40.8969L49.5055 52.6914C50.2753 54.0247 52.1998 54.0247 52.9696 52.6914L60.0167 40.4854L62.8564 38.846C64.094 38.1314 64.8564 36.8109 64.8564 35.3819V24.0007C64.8564 22.5716 64.094 21.2511 62.8564 20.5366L53 14.846Z" fill="#0D4CD3"/>
<path fill-rule="evenodd" clip-rule="evenodd" d="M48 13.1139C49.8564 12.0421 52.1436 12.0421 54 13.1139L63.8564 18.8045C65.7128 19.8763 66.8564 21.8571 66.8564 24.0007V35.3819C66.8564 37.5254 65.7128 39.5062 63.8564 40.578L61.4808 41.9495L54.7016 53.6914C53.162 56.3581 49.313 56.3581 47.7734 53.6914L41.2318 42.361L38.1435 40.578C36.2871 39.5062 35.1436 37.5254 35.1436 35.3819V24.0007C35.1436 21.8571 36.2871 19.8763 38.1435 18.8045L48 13.1139ZM42.696 40.8969L39.1436 38.846C37.906 38.1314 37.1435 36.8109 37.1435 35.3819V24.0007C37.1435 22.5716 37.906 21.2511 39.1436 20.5366L49 14.846C50.2376 14.1314 51.7624 14.1314 53 14.846L62.8564 20.5366C64.094 21.2511 64.8564 22.5716 64.8564 24.0007V35.3819C64.8564 36.8109 64.094 38.1314 62.8564 38.846L60.0167 40.4854L52.9696 52.6914C52.1998 54.0247 50.2753 54.0247 49.5055 52.6914L42.696 40.8969Z" fill="white"/>
<path d="M49 18.8461C50.2376 18.1316 51.7624 18.1316 53 18.8461L59.3923 22.5367C60.6299 23.2512 61.3923 24.5717 61.3923 26.0008V33.382C61.3923 34.8111 60.6299 36.1316 59.3923 36.8461L53 40.5367C51.7624 41.2512 50.2376 41.2512 49 40.5367L42.6077 36.8461C41.3701 36.1316 40.6077 34.8111 40.6077 33.382V26.0008C40.6077 24.5717 41.3701 23.2512 42.6077 22.5367L49 18.8461Z" fill="white"/>
<path d="M49 22.8461C50.2376 22.1316 51.7624 22.1316 53 22.8461L55.9282 24.5367C57.1658 25.2512 57.9282 26.5717 57.9282 28.0008V31.382C57.9282 32.8111 57.1658 34.1316 55.9282 34.8461L53 36.5367C51.7624 37.2512 50.2376 37.2512 49 36.5367L46.0718 34.8461C44.8342 34.1316 44.0718 32.8111 44.0718 31.382V28.0008C44.0718 26.5717 44.8342 25.2512 46.0718 24.5367L49 22.8461Z" fill="#0D4CD3"/>
<path fill-rule="evenodd" clip-rule="evenodd" d="M90.998 2.67579C89.7604 1.96126 88.2356 1.96126 86.998 2.67579L73.0698 10.7173C71.8322 11.4318 71.0698 12.7523 71.0698 14.1814V30.2643C71.0698 31.6933 71.8322 33.0138 73.0698 33.7284L78.2539 36.7214L87.5734 52.8633C88.3432 54.1966 90.2677 54.1966 91.0375 52.8633L100.664 36.1889L104.926 33.7284C106.164 33.0138 106.926 31.6933 106.926 30.2643V14.1814C106.926 12.7523 106.164 11.4318 104.926 10.7173L90.998 2.67579Z" fill="#EE3F58"/>
<path fill-rule="evenodd" clip-rule="evenodd" d="M72.9767 10.5559L72.0698 8.9852L85.998 0.94374C87.8544 -0.128056 90.1416 -0.128057 91.998 0.94374L105.926 8.9852C107.783 10.057 108.926 12.0378 108.926 14.1814V30.2643C108.926 32.4079 107.783 34.3886 105.926 35.4604L102.129 37.653L92.7696 53.8633C91.23 56.5299 87.381 56.5299 85.8414 53.8633L76.7898 38.1855L72.0698 35.4604C70.2134 34.3886 69.0698 32.4079 69.0698 30.2643V14.1814C69.0698 12.0378 70.2134 10.057 72.0698 8.9852L72.9767 10.5559ZM78.2539 36.7214L73.0698 33.7284C71.8322 33.0138 71.0698 31.6933 71.0698 30.2643V14.1814C71.0698 12.7523 71.8322 11.4318 73.0698 10.7173L86.998 2.67579C88.2356 1.96126 89.7604 1.96126 90.998 2.67579L104.926 10.7173C106.164 11.4318 106.926 12.7523 106.926 14.1814V30.2643C106.926 31.6933 106.164 33.0138 104.926 33.7284L100.664 36.1889L91.0375 52.8633C90.2677 54.1966 88.3432 54.1966 87.5734 52.8633L78.2539 36.7214Z" fill="white"/>
<path d="M86.998 7.85148C88.2356 7.13695 89.7604 7.13695 90.998 7.85148L100.444 13.3052C101.682 14.0198 102.444 15.3403 102.444 16.7693V27.6768C102.444 29.1059 101.682 30.4264 100.444 31.1409L90.998 36.5947C89.7604 37.3092 88.2356 37.3092 86.998 36.5947L77.5518 31.1409C76.3142 30.4264 75.5518 29.1059 75.5518 27.6768V16.7693C75.5518 15.3403 76.3142 14.0198 77.5518 13.3052L86.998 7.85148Z" fill="white"/>
<path fill-rule="evenodd" clip-rule="evenodd" d="M95.0589 16.1522C94.8479 15.9493 94.5059 15.9493 94.2949 16.1522L86.8655 23.3071L83.7054 20.2642C83.4954 20.0612 83.1524 20.0612 82.9413 20.2642L81.1583 21.9821C80.9472 22.1851 80.9472 22.5151 81.1583 22.7181L86.4835 27.847C86.5885 27.949 86.7275 28 86.8655 28C87.0035 28 87.1415 27.949 87.2475 27.847L96.842 18.6062C96.944 18.5082 97 18.3762 97 18.2382C97 18.1002 96.944 17.9672 96.842 17.8702L95.0589 16.1522Z" fill="#EE3F58"/>
<path fill-rule="evenodd" clip-rule="evenodd" d="M132.998 2.67579C131.76 1.96126 130.236 1.96126 128.998 2.67579L115.07 10.7173C113.832 11.4318 113.07 12.7523 113.07 14.1814V30.2643C113.07 31.6933 113.832 33.0138 115.07 33.7284L120.254 36.7214L129.573 52.8633C130.343 54.1966 132.268 54.1966 133.037 52.8633L142.665 36.1889L146.926 33.7284C148.164 33.0138 148.926 31.6933 148.926 30.2643V14.1814C148.926 12.7523 148.164 11.4318 146.926 10.7173L132.998 2.67579Z" fill="#EE3F58"/>
<path fill-rule="evenodd" clip-rule="evenodd" d="M114.977 10.5559L114.07 8.9852L127.998 0.94374C129.854 -0.128056 132.142 -0.128057 133.998 0.94374L147.926 8.9852C149.783 10.057 150.926 12.0378 150.926 14.1814V30.2643C150.926 32.4079 149.783 34.3886 147.926 35.4604L144.129 37.653L134.77 53.8633C133.23 56.5299 129.381 56.5299 127.841 53.8633L118.79 38.1855L114.07 35.4604C112.213 34.3886 111.07 32.4079 111.07 30.2643V14.1814C111.07 12.0378 112.213 10.057 114.07 8.9852L114.977 10.5559ZM120.254 36.7214L115.07 33.7284C113.832 33.0138 113.07 31.6933 113.07 30.2643V14.1814C113.07 12.7523 113.832 11.4318 115.07 10.7173L128.998 2.67579C130.236 1.96126 131.76 1.96126 132.998 2.67579L146.926 10.7173C148.164 11.4318 148.926 12.7523 148.926 14.1814V30.2643C148.926 31.6933 148.164 33.0138 146.926 33.7284L142.664 36.1889L133.037 52.8633C132.268 54.1966 130.343 54.1966 129.573 52.8633L120.254 36.7214Z" fill="white"/>
<path d="M128.998 7.85148C130.236 7.13695 131.76 7.13695 132.998 7.85148L142.444 13.3052C143.682 14.0198 144.444 15.3403 144.444 16.7693V27.6768C144.444 29.1059 143.682 30.4264 142.444 31.1409L132.998 36.5947C131.76 37.3092 130.236 37.3092 128.998 36.5947L119.552 31.1409C118.314 30.4264 117.552 29.1059 117.552 27.6768V16.7693C117.552 15.3403 118.314 14.0198 119.552 13.3052L128.998 7.85148Z" fill="white"/>
<path d="M128.998 13.0268C130.236 12.3122 131.761 12.3122 132.998 13.0268L137.962 15.8928C139.2 16.6073 139.962 17.9278 139.962 19.3569V25.089C139.962 26.518 139.2 27.8385 137.962 28.5531L132.998 31.4191C131.761 32.1336 130.236 32.1336 128.998 31.4191L124.034 28.5531C122.796 27.8385 122.034 26.518 122.034 25.089V19.3569C122.034 17.9278 122.796 16.6073 124.034 15.8928L128.998 13.0268Z" fill="#EE3F58"/>
<path fill-rule="evenodd" clip-rule="evenodd" d="M19.0765 14.846C17.8389 14.1314 16.3141 14.1314 15.0765 14.846L5.22006 20.5366C3.98241 21.2511 3.22 22.5716 3.22 24.0007V35.3819C3.22 36.8109 3.98241 38.1314 5.22006 38.846L8.77245 40.8969L15.582 52.6914C16.3518 54.0247 18.2763 54.0247 19.0461 52.6914L26.0932 40.4854L28.9328 38.846C30.1704 38.1314 30.9328 36.8109 30.9328 35.3819V24.0007C30.9328 22.5716 30.1704 21.2511 28.9328 20.5366L19.0765 14.846Z" fill="#4D83FA"/>
<path fill-rule="evenodd" clip-rule="evenodd" d="M14.0764 13.1139C15.9328 12.0421 18.22 12.0421 20.0764 13.1139L29.9328 18.8045C31.7892 19.8763 32.9328 21.8571 32.9328 24.0007V35.3819C32.9328 37.5254 31.7892 39.5062 29.9328 40.578L27.5572 41.9495L20.778 53.6914C19.2384 56.3581 15.3894 56.3581 13.8498 53.6914L7.30825 42.361L4.22 40.578C2.3636 39.5062 1.22 37.5254 1.22 35.3819V24.0007C1.22 21.8571 2.3636 19.8763 4.22 18.8045L14.0764 13.1139ZM8.77245 40.8969L5.22006 38.846C3.98241 38.1314 3.22 36.8109 3.22 35.3819V24.0007C3.22 22.5716 3.98241 21.2511 5.22006 20.5366L15.0764 14.846C16.314 14.1314 17.8388 14.1314 19.0764 14.846L28.9328 20.5366C30.1704 21.2511 30.9328 22.5716 30.9328 24.0007V35.3819C30.9328 36.8109 30.1704 38.1314 28.9328 38.846L26.0931 40.4854L19.046 52.6914C18.2762 54.0247 16.3517 54.0247 15.5819 52.6914L8.77245 40.8969Z" fill="white"/>
<path d="M15.0764 18.8461C16.314 18.1316 17.8388 18.1316 19.0764 18.8461L25.4687 22.5367C26.7063 23.2512 27.4687 24.5717 27.4687 26.0008V33.382C27.4687 34.8111 26.7063 36.1316 25.4687 36.8461L19.0764 40.5367C17.8388 41.2512 16.314 41.2512 15.0764 40.5367L8.68414 36.8461C7.44654 36.1316 6.68414 34.8111 6.68414 33.382V26.0008C6.68414 24.5717 7.44654 23.2512 8.68414 22.5367L15.0764 18.8461Z" fill="white"/>
<path d="M15.0764 22.8461C16.314 22.1316 17.8388 22.1316 19.0764 22.8461L22.0046 24.5367C23.2422 25.2512 24.0046 26.5717 24.0046 28.0008V31.382C24.0046 32.8111 23.2422 34.1316 22.0046 34.8461L19.0764 36.5367C17.8388 37.2512 16.314 37.2512 15.0764 36.5367L12.1482 34.8461C10.9107 34.1316 10.1483 32.8111 10.1483 31.382V28.0008C10.1483 26.5717 10.9107 25.2512 12.1482 24.5367L15.0764 22.8461Z" fill="#4D83FA"/>
</svg>
